<?xml version='1.0' encoding='utf-8'?>
<svg height="594.14mm" viewBox="0.0 0.0 1493.16 594.14" width="1493.16mm" xmlns="http://www.w3.org/2000/svg" xmlns:cc="http://creativecommons.org/ns#" xmlns:dc="http://purl.org/dc/elements/1.1/" xmlns:inkscape="http://www.inkscape.org/namespaces/inkscape" xmlns:rdf="http://www.w3.org/1999/02/22-rdf-syntax-ns#" xmlns:svg="http://www.w3.org/2000/svg" xmlns:xlink="http://www.w3.org/1999/xlink">
<!--
TrayLayout - Generate a typetray from a layout file.


This is a two step process. This is step 2.
Edit the layout text graphics to adjust your tray.
Put in the sizes for each column and row. You can replace the hyphens and
vertical bars representing the walls with a space character to remove the walls.
You can replace the space characters representing the floor by a "X" to remove the floor for this compartment.



Created with Boxes.py (https://boxes.hackerspace-bamberg.de/)
Creation date: 2025-01-21 23:35:55
Command line (remove spaces between dashes): boxes TrayLayout - -h=63 - -outside=0 - -sx=84:71:66:184:31:211 - -sy=32:115:14:133:49:32 '- -layout= ,> 84.00mm\n | ,> 71.00mm\n | | ,> 66.00mm\n | | | ,> 184.00mm\n | | | | ,> 31.00mm\n | | | | | ,> 211.00mm\n+-+-+-+-+-+-+\n|       |   |  32.00mm\n+       +   +\n|       |   |  115.00mm\n+       +   +\n|       |   |  14.00mm\n+       +-+ +\n|         | |  133.00mm\n+       +-+ +\n|       |   |  49.00mm\n+       +   +\n|       |   |  32.00mm\n+-+-+-+-+-+-+' - -thickness=6 - -burn=0.02
Url: https://boxes.hackerspace-bamberg.de/TrayLayout?FingerJoint_style=rectangular&FingerJoint_surroundingspaces=2.0&FingerJoint_bottom_lip=0.0&FingerJoint_edge_width=1.0&FingerJoint_extra_length=0.0&FingerJoint_finger=2.0&FingerJoint_play=0.0&FingerJoint_space=2.0&FingerJoint_width=1.0&Lid_handle=none&Lid_style=none&Lid_handle_height=8.0&Lid_height=4.0&Lid_play=0.1&h=63&hi=0.0&outside=0&sx=84%3A71%3A66%3A184%3A31%3A211&sy=32%3A115%3A14%3A133%3A49%3A32&layout=+%2C%3E+84.00mm%0D%0A+%7C+%2C%3E+71.00mm%0D%0A+%7C+%7C+%2C%3E+66.00mm%0D%0A+%7C+%7C+%7C+%2C%3E+184.00mm%0D%0A+%7C+%7C+%7C+%7C+%2C%3E+31.00mm%0D%0A+%7C+%7C+%7C+%7C+%7C+%2C%3E+211.00mm%0D%0A%2B-%2B-%2B-%2B-%2B-%2B-%2B%0D%0A%7C+++++++%7C+++%7C++32.00mm%0D%0A%2B+++++++%2B+++%2B%0D%0A%7C+++++++%7C+++%7C++115.00mm%0D%0A%2B+++++++%2B+++%2B%0D%0A%7C+++++++%7C+++%7C++14.00mm%0D%0A%2B+++++++%2B-%2B+%2B%0D%0A%7C+++++++++%7C+%7C++133.00mm%0D%0A%2B+++++++%2B-%2B+%2B%0D%0A%7C+++++++%7C+++%7C++49.00mm%0D%0A%2B+++++++%2B+++%2B%0D%0A%7C+++++++%7C+++%7C++32.00mm%0D%0A%2B-%2B-%2B-%2B-%2B-%2B-%2B&thickness=6&format=svg&tabs=0.0&qr_code=0&debug=0&labels=0&labels=1&reference=100.0&inner_corners=loop&burn=0.02&language=en&render=2
Url short: https://boxes.hackerspace-bamberg.de/TrayLayout?h=63&outside=0&sx=84%3A71%3A66%3A184%3A31%3A211&sy=32%3A115%3A14%3A133%3A49%3A32&layout=+%2C%3E+84.00mm%0D%0A+%7C+%2C%3E+71.00mm%0D%0A+%7C+%7C+%2C%3E+66.00mm%0D%0A+%7C+%7C+%7C+%2C%3E+184.00mm%0D%0A+%7C+%7C+%7C+%7C+%2C%3E+31.00mm%0D%0A+%7C+%7C+%7C+%7C+%7C+%2C%3E+211.00mm%0D%0A%2B-%2B-%2B-%2B-%2B-%2B-%2B%0D%0A%7C+++++++%7C+++%7C++32.00mm%0D%0A%2B+++++++%2B+++%2B%0D%0A%7C+++++++%7C+++%7C++115.00mm%0D%0A%2B+++++++%2B+++%2B%0D%0A%7C+++++++%7C+++%7C++14.00mm%0D%0A%2B+++++++%2B-%2B+%2B%0D%0A%7C+++++++++%7C+%7C++133.00mm%0D%0A%2B+++++++%2B-%2B+%2B%0D%0A%7C+++++++%7C+++%7C++49.00mm%0D%0A%2B+++++++%2B+++%2B%0D%0A%7C+++++++%7C+++%7C++32.00mm%0D%0A%2B-%2B-%2B-%2B-%2B-%2B-%2B&thickness=6&burn=0.02
SettingsUrl: https://boxes.hackerspace-bamberg.de/TrayLayout?FingerJoint_style=rectangular&FingerJoint_surroundingspaces=2.0&FingerJoint_bottom_lip=0.0&FingerJoint_edge_width=1.0&FingerJoint_extra_length=0.0&FingerJoint_finger=2.0&FingerJoint_play=0.0&FingerJoint_space=2.0&FingerJoint_width=1.0&Lid_handle=none&Lid_style=none&Lid_handle_height=8.0&Lid_height=4.0&Lid_play=0.1&h=63&hi=0.0&outside=0&sx=84%3A71%3A66%3A184%3A31%3A211&sy=32%3A115%3A14%3A133%3A49%3A32&layout=+%2C%3E+84.00mm%0D%0A+%7C+%2C%3E+71.00mm%0D%0A+%7C+%7C+%2C%3E+66.00mm%0D%0A+%7C+%7C+%7C+%2C%3E+184.00mm%0D%0A+%7C+%7C+%7C+%7C+%2C%3E+31.00mm%0D%0A+%7C+%7C+%7C+%7C+%7C+%2C%3E+211.00mm%0D%0A%2B-%2B-%2B-%2B-%2B-%2B-%2B%0D%0A%7C+++++++%7C+++%7C++32.00mm%0D%0A%2B+++++++%2B+++%2B%0D%0A%7C+++++++%7C+++%7C++115.00mm%0D%0A%2B+++++++%2B+++%2B%0D%0A%7C+++++++%7C+++%7C++14.00mm%0D%0A%2B+++++++%2B-%2B+%2B%0D%0A%7C+++++++++%7C+%7C++133.00mm%0D%0A%2B+++++++%2B-%2B+%2B%0D%0A%7C+++++++%7C+++%7C++49.00mm%0D%0A%2B+++++++%2B+++%2B%0D%0A%7C+++++++%7C+++%7C++32.00mm%0D%0A%2B-%2B-%2B-%2B-%2B-%2B-%2B&thickness=6&format=svg&tabs=0.0&qr_code=0&debug=0&labels=0&labels=1&reference=100.0&inner_corners=loop&burn=0.02&language=en&render=2
SettingsUrl short: https://boxes.hackerspace-bamberg.de/TrayLayout?h=63&outside=0&sx=84%3A71%3A66%3A184%3A31%3A211&sy=32%3A115%3A14%3A133%3A49%3A32&layout=+%2C%3E+84.00mm%0D%0A+%7C+%2C%3E+71.00mm%0D%0A+%7C+%7C+%2C%3E+66.00mm%0D%0A+%7C+%7C+%7C+%2C%3E+184.00mm%0D%0A+%7C+%7C+%7C+%7C+%2C%3E+31.00mm%0D%0A+%7C+%7C+%7C+%7C+%7C+%2C%3E+211.00mm%0D%0A%2B-%2B-%2B-%2B-%2B-%2B-%2B%0D%0A%7C+++++++%7C+++%7C++32.00mm%0D%0A%2B+++++++%2B+++%2B%0D%0A%7C+++++++%7C+++%7C++115.00mm%0D%0A%2B+++++++%2B+++%2B%0D%0A%7C+++++++%7C+++%7C++14.00mm%0D%0A%2B+++++++%2B-%2B+%2B%0D%0A%7C+++++++++%7C+%7C++133.00mm%0D%0A%2B+++++++%2B-%2B+%2B%0D%0A%7C+++++++%7C+++%7C++49.00mm%0D%0A%2B+++++++%2B+++%2B%0D%0A%7C+++++++%7C+++%7C++32.00mm%0D%0A%2B-%2B-%2B-%2B-%2B-%2B-%2B&thickness=6&burn=0.02
-->
<title>TrayLayout</title>
<metadata>
<rdf:RDF><cc:Work>
<dc:title>Tray - TrayLayout</dc:title>
<dc:date>2025-01-21 23:35:55</dc:date>
<dc:source>https://boxes.hackerspace-bamberg.de/TrayLayout?FingerJoint_style=rectangular&amp;FingerJoint_surroundingspaces=2.0&amp;FingerJoint_bottom_lip=0.0&amp;FingerJoint_edge_width=1.0&amp;FingerJoint_extra_length=0.0&amp;FingerJoint_finger=2.0&amp;FingerJoint_play=0.0&amp;FingerJoint_space=2.0&amp;FingerJoint_width=1.0&amp;Lid_handle=none&amp;Lid_style=none&amp;Lid_handle_height=8.0&amp;Lid_height=4.0&amp;Lid_play=0.1&amp;h=63&amp;hi=0.0&amp;outside=0&amp;sx=84%3A71%3A66%3A184%3A31%3A211&amp;sy=32%3A115%3A14%3A133%3A49%3A32&amp;layout=+%2C%3E+84.00mm%0D%0A+%7C+%2C%3E+71.00mm%0D%0A+%7C+%7C+%2C%3E+66.00mm%0D%0A+%7C+%7C+%7C+%2C%3E+184.00mm%0D%0A+%7C+%7C+%7C+%7C+%2C%3E+31.00mm%0D%0A+%7C+%7C+%7C+%7C+%7C+%2C%3E+211.00mm%0D%0A%2B-%2B-%2B-%2B-%2B-%2B-%2B%0D%0A%7C+++++++%7C+++%7C++32.00mm%0D%0A%2B+++++++%2B+++%2B%0D%0A%7C+++++++%7C+++%7C++115.00mm%0D%0A%2B+++++++%2B+++%2B%0D%0A%7C+++++++%7C+++%7C++14.00mm%0D%0A%2B+++++++%2B-%2B+%2B%0D%0A%7C+++++++++%7C+%7C++133.00mm%0D%0A%2B+++++++%2B-%2B+%2B%0D%0A%7C+++++++%7C+++%7C++49.00mm%0D%0A%2B+++++++%2B+++%2B%0D%0A%7C+++++++%7C+++%7C++32.00mm%0D%0A%2B-%2B-%2B-%2B-%2B-%2B-%2B&amp;thickness=6&amp;format=svg&amp;tabs=0.0&amp;qr_code=0&amp;debug=0&amp;labels=0&amp;labels=1&amp;reference=100.0&amp;inner_corners=loop&amp;burn=0.02&amp;language=en&amp;render=2</dc:source>
<dc:source>https://boxes.hackerspace-bamberg.de/TrayLayout?h=63&amp;outside=0&amp;sx=84%3A71%3A66%3A184%3A31%3A211&amp;sy=32%3A115%3A14%3A133%3A49%3A32&amp;layout=+%2C%3E+84.00mm%0D%0A+%7C+%2C%3E+71.00mm%0D%0A+%7C+%7C+%2C%3E+66.00mm%0D%0A+%7C+%7C+%7C+%2C%3E+184.00mm%0D%0A+%7C+%7C+%7C+%7C+%2C%3E+31.00mm%0D%0A+%7C+%7C+%7C+%7C+%7C+%2C%3E+211.00mm%0D%0A%2B-%2B-%2B-%2B-%2B-%2B-%2B%0D%0A%7C+++++++%7C+++%7C++32.00mm%0D%0A%2B+++++++%2B+++%2B%0D%0A%7C+++++++%7C+++%7C++115.00mm%0D%0A%2B+++++++%2B+++%2B%0D%0A%7C+++++++%7C+++%7C++14.00mm%0D%0A%2B+++++++%2B-%2B+%2B%0D%0A%7C+++++++++%7C+%7C++133.00mm%0D%0A%2B+++++++%2B-%2B+%2B%0D%0A%7C+++++++%7C+++%7C++49.00mm%0D%0A%2B+++++++%2B+++%2B%0D%0A%7C+++++++%7C+++%7C++32.00mm%0D%0A%2B-%2B-%2B-%2B-%2B-%2B-%2B&amp;thickness=6&amp;burn=0.02</dc:source>
<dc:description>Generate a typetray from a layout file.

This is a two step process. This is step 2.
Edit the layout text graphics to adjust your tray.
Put in the sizes for each column and row. You can replace the hyphens and
vertical bars representing the walls with a space character to remove the walls.
You can replace the space characters representing the floor by a "X" to remove the floor for this compartment.


Created with Boxes.py (https://boxes.hackerspace-bamberg.de/)
Command line: boxes TrayLayout --FingerJoint_style=rectangular --FingerJoint_surroundingspaces=2.0 --FingerJoint_bottom_lip=0.0 --FingerJoint_edge_width=1.0 --FingerJoint_extra_length=0.0 --FingerJoint_finger=2.0 --FingerJoint_play=0.0 --FingerJoint_space=2.0 --FingerJoint_width=1.0 --Lid_handle=none --Lid_style=none --Lid_handle_height=8.0 --Lid_height=4.0 --Lid_play=0.1 --h=63 --hi=0.0 --outside=0 --sx=84:71:66:184:31:211 --sy=32:115:14:133:49:32 '--layout= ,&gt; 84.00mm\n | ,&gt; 71.00mm\n | | ,&gt; 66.00mm\n | | | ,&gt; 184.00mm\n | | | | ,&gt; 31.00mm\n | | | | | ,&gt; 211.00mm\n+-+-+-+-+-+-+\n|       |   |  32.00mm\n+       +   +\n|       |   |  115.00mm\n+       +   +\n|       |   |  14.00mm\n+       +-+ +\n|         | |  133.00mm\n+       +-+ +\n|       |   |  49.00mm\n+       +   +\n|       |   |  32.00mm\n+-+-+-+-+-+-+' --thickness=6 --format=svg --tabs=0.0 --qr_code=0 --debug=0 --labels=0 --labels=1 --reference=100.0 --inner_corners=loop --burn=0.02
Command line short: boxes TrayLayout --h=63 --outside=0 --sx=84:71:66:184:31:211 --sy=32:115:14:133:49:32 '--layout= ,&gt; 84.00mm\n | ,&gt; 71.00mm\n | | ,&gt; 66.00mm\n | | | ,&gt; 184.00mm\n | | | | ,&gt; 31.00mm\n | | | | | ,&gt; 211.00mm\n+-+-+-+-+-+-+\n|       |   |  32.00mm\n+       +   +\n|       |   |  115.00mm\n+       +   +\n|       |   |  14.00mm\n+       +-+ +\n|         | |  133.00mm\n+       +-+ +\n|       |   |  49.00mm\n+       +   +\n|       |   |  32.00mm\n+-+-+-+-+-+-+' --thickness=6 --burn=0.02
Url: https://boxes.hackerspace-bamberg.de/TrayLayout?FingerJoint_style=rectangular&amp;FingerJoint_surroundingspaces=2.0&amp;FingerJoint_bottom_lip=0.0&amp;FingerJoint_edge_width=1.0&amp;FingerJoint_extra_length=0.0&amp;FingerJoint_finger=2.0&amp;FingerJoint_play=0.0&amp;FingerJoint_space=2.0&amp;FingerJoint_width=1.0&amp;Lid_handle=none&amp;Lid_style=none&amp;Lid_handle_height=8.0&amp;Lid_height=4.0&amp;Lid_play=0.1&amp;h=63&amp;hi=0.0&amp;outside=0&amp;sx=84%3A71%3A66%3A184%3A31%3A211&amp;sy=32%3A115%3A14%3A133%3A49%3A32&amp;layout=+%2C%3E+84.00mm%0D%0A+%7C+%2C%3E+71.00mm%0D%0A+%7C+%7C+%2C%3E+66.00mm%0D%0A+%7C+%7C+%7C+%2C%3E+184.00mm%0D%0A+%7C+%7C+%7C+%7C+%2C%3E+31.00mm%0D%0A+%7C+%7C+%7C+%7C+%7C+%2C%3E+211.00mm%0D%0A%2B-%2B-%2B-%2B-%2B-%2B-%2B%0D%0A%7C+++++++%7C+++%7C++32.00mm%0D%0A%2B+++++++%2B+++%2B%0D%0A%7C+++++++%7C+++%7C++115.00mm%0D%0A%2B+++++++%2B+++%2B%0D%0A%7C+++++++%7C+++%7C++14.00mm%0D%0A%2B+++++++%2B-%2B+%2B%0D%0A%7C+++++++++%7C+%7C++133.00mm%0D%0A%2B+++++++%2B-%2B+%2B%0D%0A%7C+++++++%7C+++%7C++49.00mm%0D%0A%2B+++++++%2B+++%2B%0D%0A%7C+++++++%7C+++%7C++32.00mm%0D%0A%2B-%2B-%2B-%2B-%2B-%2B-%2B&amp;thickness=6&amp;format=svg&amp;tabs=0.0&amp;qr_code=0&amp;debug=0&amp;labels=0&amp;labels=1&amp;reference=100.0&amp;inner_corners=loop&amp;burn=0.02&amp;language=en&amp;render=2
Url short: https://boxes.hackerspace-bamberg.de/TrayLayout?h=63&amp;outside=0&amp;sx=84%3A71%3A66%3A184%3A31%3A211&amp;sy=32%3A115%3A14%3A133%3A49%3A32&amp;layout=+%2C%3E+84.00mm%0D%0A+%7C+%2C%3E+71.00mm%0D%0A+%7C+%7C+%2C%3E+66.00mm%0D%0A+%7C+%7C+%7C+%2C%3E+184.00mm%0D%0A+%7C+%7C+%7C+%7C+%2C%3E+31.00mm%0D%0A+%7C+%7C+%7C+%7C+%7C+%2C%3E+211.00mm%0D%0A%2B-%2B-%2B-%2B-%2B-%2B-%2B%0D%0A%7C+++++++%7C+++%7C++32.00mm%0D%0A%2B+++++++%2B+++%2B%0D%0A%7C+++++++%7C+++%7C++115.00mm%0D%0A%2B+++++++%2B+++%2B%0D%0A%7C+++++++%7C+++%7C++14.00mm%0D%0A%2B+++++++%2B-%2B+%2B%0D%0A%7C+++++++++%7C+%7C++133.00mm%0D%0A%2B+++++++%2B-%2B+%2B%0D%0A%7C+++++++%7C+++%7C++49.00mm%0D%0A%2B+++++++%2B+++%2B%0D%0A%7C+++++++%7C+++%7C++32.00mm%0D%0A%2B-%2B-%2B-%2B-%2B-%2B-%2B&amp;thickness=6&amp;burn=0.02
SettingsUrl: https://boxes.hackerspace-bamberg.de/TrayLayout?FingerJoint_style=rectangular&amp;FingerJoint_surroundingspaces=2.0&amp;FingerJoint_bottom_lip=0.0&amp;FingerJoint_edge_width=1.0&amp;FingerJoint_extra_length=0.0&amp;FingerJoint_finger=2.0&amp;FingerJoint_play=0.0&amp;FingerJoint_space=2.0&amp;FingerJoint_width=1.0&amp;Lid_handle=none&amp;Lid_style=none&amp;Lid_handle_height=8.0&amp;Lid_height=4.0&amp;Lid_play=0.1&amp;h=63&amp;hi=0.0&amp;outside=0&amp;sx=84%3A71%3A66%3A184%3A31%3A211&amp;sy=32%3A115%3A14%3A133%3A49%3A32&amp;layout=+%2C%3E+84.00mm%0D%0A+%7C+%2C%3E+71.00mm%0D%0A+%7C+%7C+%2C%3E+66.00mm%0D%0A+%7C+%7C+%7C+%2C%3E+184.00mm%0D%0A+%7C+%7C+%7C+%7C+%2C%3E+31.00mm%0D%0A+%7C+%7C+%7C+%7C+%7C+%2C%3E+211.00mm%0D%0A%2B-%2B-%2B-%2B-%2B-%2B-%2B%0D%0A%7C+++++++%7C+++%7C++32.00mm%0D%0A%2B+++++++%2B+++%2B%0D%0A%7C+++++++%7C+++%7C++115.00mm%0D%0A%2B+++++++%2B+++%2B%0D%0A%7C+++++++%7C+++%7C++14.00mm%0D%0A%2B+++++++%2B-%2B+%2B%0D%0A%7C+++++++++%7C+%7C++133.00mm%0D%0A%2B+++++++%2B-%2B+%2B%0D%0A%7C+++++++%7C+++%7C++49.00mm%0D%0A%2B+++++++%2B+++%2B%0D%0A%7C+++++++%7C+++%7C++32.00mm%0D%0A%2B-%2B-%2B-%2B-%2B-%2B-%2B&amp;thickness=6&amp;format=svg&amp;tabs=0.0&amp;qr_code=0&amp;debug=0&amp;labels=0&amp;labels=1&amp;reference=100.0&amp;inner_corners=loop&amp;burn=0.02&amp;language=en&amp;render=2
SettingsUrl short: https://boxes.hackerspace-bamberg.de/TrayLayout?h=63&amp;outside=0&amp;sx=84%3A71%3A66%3A184%3A31%3A211&amp;sy=32%3A115%3A14%3A133%3A49%3A32&amp;layout=+%2C%3E+84.00mm%0D%0A+%7C+%2C%3E+71.00mm%0D%0A+%7C+%7C+%2C%3E+66.00mm%0D%0A+%7C+%7C+%7C+%2C%3E+184.00mm%0D%0A+%7C+%7C+%7C+%7C+%2C%3E+31.00mm%0D%0A+%7C+%7C+%7C+%7C+%7C+%2C%3E+211.00mm%0D%0A%2B-%2B-%2B-%2B-%2B-%2B-%2B%0D%0A%7C+++++++%7C+++%7C++32.00mm%0D%0A%2B+++++++%2B+++%2B%0D%0A%7C+++++++%7C+++%7C++115.00mm%0D%0A%2B+++++++%2B+++%2B%0D%0A%7C+++++++%7C+++%7C++14.00mm%0D%0A%2B+++++++%2B-%2B+%2B%0D%0A%7C+++++++++%7C+%7C++133.00mm%0D%0A%2B+++++++%2B-%2B+%2B%0D%0A%7C+++++++%7C+++%7C++49.00mm%0D%0A%2B+++++++%2B+++%2B%0D%0A%7C+++++++%7C+++%7C++32.00mm%0D%0A%2B-%2B-%2B-%2B-%2B-%2B-%2B&amp;thickness=6&amp;burn=0.02
</dc:description>
</cc:Work></rdf:RDF></metadata>
<g id="p-0" style="fill:none;stroke-linecap:round;stroke-linejoin:round;">
  <path d="M 10.020 584.140 H 110.020 V 574.140 H 10.020 V 584.140 Z" stroke="rgb(0,0,0)" stroke-width="0.05" />
  <text dominant-baseline="hanging" font-size="6px" style="font-family: sans-serif ; font-weight: normal; font-style: normal; fill: rgb(255,0,0)" text-anchor="middle" transform="matrix( 1.000 0.000 0.000 1.000 60.020 576.140 )">100.0mm, burn:0.02mm</text>
</g>
<g id="p-1" style="fill:none;stroke-linecap:round;stroke-linejoin:round;">
  <path d="M 16.020 565.100 H 28.000 C 28.020 565.100 28.000 565.080 28.000 565.100 V 571.080 C 28.000 571.091 28.009 571.100 28.020 571.100 H 40.020 C 40.031 571.100 40.040 571.091 40.040 571.080 V 565.100 C 40.040 565.080 40.020 565.100 40.040 565.100 H 52.000 C 52.020 565.100 52.000 565.080 52.000 565.100 V 571.080 C 52.000 571.091 52.009 571.100 52.020 571.100 H 64.020 C 64.031 571.100 64.040 571.091 64.040 571.080 V 565.100 C 64.040 565.080 64.020 565.100 64.040 565.100 H 76.000 C 76.020 565.100 76.000 565.080 76.000 565.100 V 571.080 C 76.000 571.091 76.009 571.100 76.020 571.100 H 88.020 C 88.031 571.100 88.040 571.091 88.040 571.080 V 565.100 C 88.040 565.080 88.020 565.100 88.040 565.100 H 100.020 H 106.020 H 123.500 C 123.520 565.100 123.500 565.080 123.500 565.100 V 571.080 C 123.500 571.091 123.509 571.100 123.520 571.100 H 135.520 C 135.531 571.100 135.540 571.091 135.540 571.080 V 565.100 C 135.540 565.080 135.520 565.100 135.540 565.100 H 147.500 C 147.520 565.100 147.500 565.080 147.500 565.100 V 571.080 C 147.500 571.091 147.509 571.100 147.520 571.100 H 159.520 C 159.531 571.100 159.540 571.091 159.540 571.080 V 565.100 C 159.540 565.080 159.520 565.100 159.540 565.100 H 177.020 H 183.020 H 198.000 C 198.020 565.100 198.000 565.080 198.000 565.100 V 571.080 C 198.000 571.091 198.009 571.100 198.020 571.100 H 210.020 C 210.031 571.100 210.040 571.091 210.040 571.080 V 565.100 C 210.040 565.080 210.020 565.100 210.040 565.100 H 222.000 C 222.020 565.100 222.000 565.080 222.000 565.100 V 571.080 C 222.000 571.091 222.009 571.100 222.020 571.100 H 234.020 C 234.031 571.100 234.040 571.091 234.040 571.080 V 565.100 C 234.040 565.080 234.020 565.100 234.040 565.100 H 249.020 H 255.020 H 269.000 C 269.020 565.100 269.000 565.080 269.000 565.100 V 571.080 C 269.000 571.091 269.009 571.100 269.020 571.100 H 281.020 C 281.031 571.100 281.040 571.091 281.040 571.080 V 565.100 C 281.040 565.080 281.020 565.100 281.040 565.100 H 293.000 C 293.020 565.100 293.000 565.080 293.000 565.100 V 571.080 C 293.000 571.091 293.009 571.100 293.020 571.100 H 305.020 C 305.031 571.100 305.040 571.091 305.040 571.080 V 565.100 C 305.040 565.080 305.020 565.100 305.040 565.100 H 317.000 C 317.020 565.100 317.000 565.080 317.000 565.100 V 571.080 C 317.000 571.091 317.009 571.100 317.020 571.100 H 329.020 C 329.031 571.100 329.040 571.091 329.040 571.080 V 565.100 C 329.040 565.080 329.020 565.100 329.040 565.100 H 341.000 C 341.020 565.100 341.000 565.080 341.000 565.100 V 571.080 C 341.000 571.091 341.009 571.100 341.020 571.100 H 353.020 C 353.031 571.100 353.040 571.091 353.040 571.080 V 565.100 C 353.040 565.080 353.020 565.100 353.040 565.100 H 365.000 C 365.020 565.100 365.000 565.080 365.000 565.100 V 571.080 C 365.000 571.091 365.009 571.100 365.020 571.100 H 377.020 C 377.031 571.100 377.040 571.091 377.040 571.080 V 565.100 C 377.040 565.080 377.020 565.100 377.040 565.100 H 389.000 C 389.020 565.100 389.000 565.080 389.000 565.100 V 571.080 C 389.000 571.091 389.009 571.100 389.020 571.100 H 401.020 C 401.031 571.100 401.040 571.091 401.040 571.080 V 565.100 C 401.040 565.080 401.020 565.100 401.040 565.100 H 413.000 C 413.020 565.100 413.000 565.080 413.000 565.100 V 571.080 C 413.000 571.091 413.009 571.100 413.020 571.100 H 425.020 C 425.031 571.100 425.040 571.091 425.040 571.080 V 565.100 C 425.040 565.080 425.020 565.100 425.040 565.100 H 439.020 H 445.020 H 454.500 C 454.520 565.100 454.500 565.080 454.500 565.100 V 571.080 C 454.500 571.091 454.509 571.100 454.520 571.100 H 466.520 C 466.531 571.100 466.540 571.091 466.540 571.080 V 565.100 C 466.540 565.080 466.520 565.100 466.540 565.100 H 476.020 H 482.020 H 497.500 C 497.520 565.100 497.500 565.080 497.500 565.100 V 571.080 C 497.500 571.091 497.509 571.100 497.520 571.100 H 509.520 C 509.531 571.100 509.540 571.091 509.540 571.080 V 565.100 C 509.540 565.080 509.520 565.100 509.540 565.100 H 521.500 C 521.520 565.100 521.500 565.080 521.500 565.100 V 571.080 C 521.500 571.091 521.509 571.100 521.520 571.100 H 533.520 C 533.531 571.100 533.540 571.091 533.540 571.080 V 565.100 C 533.540 565.080 533.520 565.100 533.540 565.100 H 545.500 C 545.520 565.100 545.500 565.080 545.500 565.100 V 571.080 C 545.500 571.091 545.509 571.100 545.520 571.100 H 557.520 C 557.531 571.100 557.540 571.091 557.540 571.080 V 565.100 C 557.540 565.080 557.520 565.100 557.540 565.100 H 569.500 C 569.520 565.100 569.500 565.080 569.500 565.100 V 571.080 C 569.500 571.091 569.509 571.100 569.520 571.100 H 581.520 C 581.531 571.100 581.540 571.091 581.540 571.080 V 565.100 C 581.540 565.080 581.520 565.100 581.540 565.100 H 593.500 C 593.520 565.100 593.500 565.080 593.500 565.100 V 571.080 C 593.500 571.091 593.509 571.100 593.520 571.100 H 605.520 C 605.531 571.100 605.540 571.091 605.540 571.080 V 565.100 C 605.540 565.080 605.520 565.100 605.540 565.100 H 617.500 C 617.520 565.100 617.500 565.080 617.500 565.100 V 571.080 C 617.500 571.091 617.509 571.100 617.520 571.100 H 629.520 C 629.531 571.100 629.540 571.091 629.540 571.080 V 565.100 C 629.540 565.080 629.520 565.100 629.540 565.100 H 641.500 C 641.520 565.100 641.500 565.080 641.500 565.100 V 571.080 C 641.500 571.091 641.509 571.100 641.520 571.100 H 653.520 C 653.531 571.100 653.540 571.091 653.540 571.080 V 565.100 C 653.540 565.080 653.520 565.100 653.540 565.100 H 665.500 C 665.520 565.100 665.500 565.080 665.500 565.100 V 571.080 C 665.500 571.091 665.509 571.100 665.520 571.100 H 677.520 C 677.531 571.100 677.540 571.091 677.540 571.080 V 565.100 C 677.540 565.080 677.520 565.100 677.540 565.100 H 693.020 C 693.031 565.100 693.040 565.091 693.040 565.080 V 551.600 C 693.040 551.580 693.020 551.600 693.040 551.600 H 699.020 C 699.031 551.600 699.040 551.591 699.040 551.580 V 539.580 C 699.040 539.569 699.031 539.560 699.020 539.560 H 693.040 C 693.020 539.560 693.040 539.580 693.040 539.560 V 527.600 C 693.040 527.580 693.020 527.600 693.040 527.600 H 699.020 C 699.031 527.600 699.040 527.591 699.040 527.580 V 515.580 C 699.040 515.569 699.031 515.560 699.020 515.560 H 693.040 C 693.020 515.560 693.040 515.580 693.040 515.560 V 502.080 C 693.040 502.069 693.031 502.060 693.020 502.060 H 16.020 C 16.009 502.060 16.000 502.069 16.000 502.080 V 515.560 C 16.000 515.580 16.020 515.560 16.000 515.560 H 10.020 C 10.009 515.560 10.000 515.569 10.000 515.580 V 527.580 C 10.000 527.591 10.009 527.600 10.020 527.600 H 16.000 C 16.020 527.600 16.000 527.580 16.000 527.600 V 539.560 C 16.000 539.580 16.020 539.560 16.000 539.560 H 10.020 C 10.009 539.560 10.000 539.569 10.000 539.580 V 551.580 C 10.000 551.591 10.009 551.600 10.020 551.600 H 16.000 C 16.020 551.600 16.000 551.580 16.000 551.600 V 565.080 C 16.000 565.091 16.009 565.100 16.020 565.100 Z" stroke="rgb(0,0,0)" stroke-width="0.05" />
  <path d="M 445.000 545.580 V 551.560 C 445.000 551.580 445.020 551.560 445.000 551.560 H 439.040 C 439.020 551.560 439.040 551.580 439.040 551.560 V 539.600 C 439.040 539.580 439.020 539.600 439.040 539.600 H 445.000 C 445.020 539.600 445.000 539.580 445.000 539.600 V 545.580 Z" stroke="rgb(0,0,255)" stroke-width="0.05" />
  <path d="M 445.000 521.580 V 527.560 C 445.000 527.580 445.020 527.560 445.000 527.560 H 439.040 C 439.020 527.560 439.040 527.580 439.040 527.560 V 515.600 C 439.040 515.580 439.020 515.600 439.040 515.600 H 445.000 C 445.020 515.600 445.000 515.580 445.000 515.600 V 521.580 Z" stroke="rgb(0,0,255)" stroke-width="0.05" />
</g>
<g id="p-2" style="fill:none;stroke-linecap:round;stroke-linejoin:round;">
  <path d="M 708.060 565.100 H 717.540 C 717.560 565.100 717.540 565.080 717.540 565.100 V 571.080 C 717.540 571.091 717.549 571.100 717.560 571.100 H 729.560 C 729.571 571.100 729.580 571.091 729.580 571.080 V 565.100 C 729.580 565.080 729.560 565.100 729.580 565.100 H 739.060 C 739.071 565.100 739.080 565.091 739.080 565.080 V 551.600 C 739.080 551.580 739.060 551.600 739.080 551.600 H 745.060 C 745.071 551.600 745.080 551.591 745.080 551.580 V 539.580 C 745.080 539.569 745.071 539.560 745.060 539.560 H 739.080 C 739.060 539.560 739.080 539.580 739.080 539.560 V 527.600 C 739.080 527.580 739.060 527.600 739.080 527.600 H 745.060 C 745.071 527.600 745.080 527.591 745.080 527.580 V 515.580 C 745.080 515.569 745.071 515.560 745.060 515.560 H 739.080 C 739.060 515.560 739.080 515.580 739.080 515.560 V 502.080 C 739.080 502.069 739.071 502.060 739.060 502.060 H 708.060 C 708.049 502.060 708.040 502.069 708.040 502.080 V 515.560 C 708.040 515.580 708.060 515.560 708.040 515.560 H 702.060 C 702.049 515.560 702.040 515.569 702.040 515.580 V 527.580 C 702.040 527.591 702.049 527.600 702.060 527.600 H 708.040 C 708.060 527.600 708.040 527.580 708.040 527.600 V 539.560 C 708.040 539.580 708.060 539.560 708.040 539.560 H 702.060 C 702.049 539.560 702.040 539.569 702.040 539.580 V 551.580 C 702.040 551.591 702.049 551.600 702.060 551.600 H 708.040 C 708.060 551.600 708.040 551.580 708.040 551.600 V 565.080 C 708.040 565.091 708.049 565.100 708.060 565.100 Z" stroke="rgb(0,0,0)" stroke-width="0.05" />
</g>
<g id="p-3" style="fill:none;stroke-linecap:round;stroke-linejoin:round;">
  <path d="M 754.100 565.100 H 763.580 C 763.600 565.100 763.580 565.080 763.580 565.100 V 571.080 C 763.580 571.091 763.589 571.100 763.600 571.100 H 775.600 C 775.611 571.100 775.620 571.091 775.620 571.080 V 565.100 C 775.620 565.080 775.600 565.100 775.620 565.100 H 785.100 C 785.111 565.100 785.120 565.091 785.120 565.080 V 551.600 C 785.120 551.580 785.100 551.600 785.120 551.600 H 791.100 C 791.111 551.600 791.120 551.591 791.120 551.580 V 539.580 C 791.120 539.569 791.111 539.560 791.100 539.560 H 785.120 C 785.100 539.560 785.120 539.580 785.120 539.560 V 527.600 C 785.120 527.580 785.100 527.600 785.120 527.600 H 791.100 C 791.111 527.600 791.120 527.591 791.120 527.580 V 515.580 C 791.120 515.569 791.111 515.560 791.100 515.560 H 785.120 C 785.100 515.560 785.120 515.580 785.120 515.560 V 502.080 C 785.120 502.069 785.111 502.060 785.100 502.060 H 754.100 C 754.089 502.060 754.080 502.069 754.080 502.080 V 515.560 C 754.080 515.580 754.100 515.560 754.080 515.560 H 748.100 C 748.089 515.560 748.080 515.569 748.080 515.580 V 527.580 C 748.080 527.591 748.089 527.600 748.100 527.600 H 754.080 C 754.100 527.600 754.080 527.580 754.080 527.600 V 539.560 C 754.080 539.580 754.100 539.560 754.080 539.560 H 748.100 C 748.089 539.560 748.080 539.569 748.080 539.580 V 551.580 C 748.080 551.591 748.089 551.600 748.100 551.600 H 754.080 C 754.100 551.600 754.080 551.580 754.080 551.600 V 565.080 C 754.080 565.091 754.089 565.100 754.100 565.100 Z" stroke="rgb(0,0,0)" stroke-width="0.05" />
</g>
<g id="p-4" style="fill:none;stroke-linecap:round;stroke-linejoin:round;">
  <path d="M 800.140 565.100 H 812.120 C 812.140 565.100 812.120 565.080 812.120 565.100 V 571.080 C 812.120 571.091 812.129 571.100 812.140 571.100 H 824.140 C 824.151 571.100 824.160 571.091 824.160 571.080 V 565.100 C 824.160 565.080 824.140 565.100 824.160 565.100 H 836.120 C 836.140 565.100 836.120 565.080 836.120 565.100 V 571.080 C 836.120 571.091 836.129 571.100 836.140 571.100 H 848.140 C 848.151 571.100 848.160 571.091 848.160 571.080 V 565.100 C 848.160 565.080 848.140 565.100 848.160 565.100 H 860.120 C 860.140 565.100 860.120 565.080 860.120 565.100 V 571.080 C 860.120 571.091 860.129 571.100 860.140 571.100 H 872.140 C 872.151 571.100 872.160 571.091 872.160 571.080 V 565.100 C 872.160 565.080 872.140 565.100 872.160 565.100 H 884.140 H 890.140 H 907.620 C 907.640 565.100 907.620 565.080 907.620 565.100 V 571.080 C 907.620 571.091 907.629 571.100 907.640 571.100 H 919.640 C 919.651 571.100 919.660 571.091 919.660 571.080 V 565.100 C 919.660 565.080 919.640 565.100 919.660 565.100 H 931.620 C 931.640 565.100 931.620 565.080 931.620 565.100 V 571.080 C 931.620 571.091 931.629 571.100 931.640 571.100 H 943.640 C 943.651 571.100 943.660 571.091 943.660 571.080 V 565.100 C 943.660 565.080 943.640 565.100 943.660 565.100 H 961.140 H 967.140 H 982.120 C 982.140 565.100 982.120 565.080 982.120 565.100 V 571.080 C 982.120 571.091 982.129 571.100 982.140 571.100 H 994.140 C 994.151 571.100 994.160 571.091 994.160 571.080 V 565.100 C 994.160 565.080 994.140 565.100 994.160 565.100 H 1006.120 C 1006.140 565.100 1006.120 565.080 1006.120 565.100 V 571.080 C 1006.120 571.091 1006.129 571.100 1006.140 571.100 H 1018.140 C 1018.151 571.100 1018.160 571.091 1018.160 571.080 V 565.100 C 1018.160 565.080 1018.140 565.100 1018.160 565.100 H 1033.140 H 1039.140 H 1053.120 C 1053.140 565.100 1053.120 565.080 1053.120 565.100 V 571.080 C 1053.120 571.091 1053.129 571.100 1053.140 571.100 H 1065.140 C 1065.151 571.100 1065.160 571.091 1065.160 571.080 V 565.100 C 1065.160 565.080 1065.140 565.100 1065.160 565.100 H 1077.120 C 1077.140 565.100 1077.120 565.080 1077.120 565.100 V 571.080 C 1077.120 571.091 1077.129 571.100 1077.140 571.100 H 1089.140 C 1089.151 571.100 1089.160 571.091 1089.160 571.080 V 565.100 C 1089.160 565.080 1089.140 565.100 1089.160 565.100 H 1101.120 C 1101.140 565.100 1101.120 565.080 1101.120 565.100 V 571.080 C 1101.120 571.091 1101.129 571.100 1101.140 571.100 H 1113.140 C 1113.151 571.100 1113.160 571.091 1113.160 571.080 V 565.100 C 1113.160 565.080 1113.140 565.100 1113.160 565.100 H 1125.120 C 1125.140 565.100 1125.120 565.080 1125.120 565.100 V 571.080 C 1125.120 571.091 1125.129 571.100 1125.140 571.100 H 1137.140 C 1137.151 571.100 1137.160 571.091 1137.160 571.080 V 565.100 C 1137.160 565.080 1137.140 565.100 1137.160 565.100 H 1149.120 C 1149.140 565.100 1149.120 565.080 1149.120 565.100 V 571.080 C 1149.120 571.091 1149.129 571.100 1149.140 571.100 H 1161.140 C 1161.151 571.100 1161.160 571.091 1161.160 571.080 V 565.100 C 1161.160 565.080 1161.140 565.100 1161.160 565.100 H 1173.120 C 1173.140 565.100 1173.120 565.080 1173.120 565.100 V 571.080 C 1173.120 571.091 1173.129 571.100 1173.140 571.100 H 1185.140 C 1185.151 571.100 1185.160 571.091 1185.160 571.080 V 565.100 C 1185.160 565.080 1185.140 565.100 1185.160 565.100 H 1197.120 C 1197.140 565.100 1197.120 565.080 1197.120 565.100 V 571.080 C 1197.120 571.091 1197.129 571.100 1197.140 571.100 H 1209.140 C 1209.151 571.100 1209.160 571.091 1209.160 571.080 V 565.100 C 1209.160 565.080 1209.140 565.100 1209.160 565.100 H 1223.140 H 1229.140 H 1238.620 C 1238.640 565.100 1238.620 565.080 1238.620 565.100 V 571.080 C 1238.620 571.091 1238.629 571.100 1238.640 571.100 H 1250.640 C 1250.651 571.100 1250.660 571.091 1250.660 571.080 V 565.100 C 1250.660 565.080 1250.640 565.100 1250.660 565.100 H 1260.140 H 1266.140 H 1281.620 C 1281.640 565.100 1281.620 565.080 1281.620 565.100 V 571.080 C 1281.620 571.091 1281.629 571.100 1281.640 571.100 H 1293.640 C 1293.651 571.100 1293.660 571.091 1293.660 571.080 V 565.100 C 1293.660 565.080 1293.640 565.100 1293.660 565.100 H 1305.620 C 1305.640 565.100 1305.620 565.080 1305.620 565.100 V 571.080 C 1305.620 571.091 1305.629 571.100 1305.640 571.100 H 1317.640 C 1317.651 571.100 1317.660 571.091 1317.660 571.080 V 565.100 C 1317.660 565.080 1317.640 565.100 1317.660 565.100 H 1329.620 C 1329.640 565.100 1329.620 565.080 1329.620 565.100 V 571.080 C 1329.620 571.091 1329.629 571.100 1329.640 571.100 H 1341.640 C 1341.651 571.100 1341.660 571.091 1341.660 571.080 V 565.100 C 1341.660 565.080 1341.640 565.100 1341.660 565.100 H 1353.620 C 1353.640 565.100 1353.620 565.080 1353.620 565.100 V 571.080 C 1353.620 571.091 1353.629 571.100 1353.640 571.100 H 1365.640 C 1365.651 571.100 1365.660 571.091 1365.660 571.080 V 565.100 C 1365.660 565.080 1365.640 565.100 1365.660 565.100 H 1377.620 C 1377.640 565.100 1377.620 565.080 1377.620 565.100 V 571.080 C 1377.620 571.091 1377.629 571.100 1377.640 571.100 H 1389.640 C 1389.651 571.100 1389.660 571.091 1389.660 571.080 V 565.100 C 1389.660 565.080 1389.640 565.100 1389.660 565.100 H 1401.620 C 1401.640 565.100 1401.620 565.080 1401.620 565.100 V 571.080 C 1401.620 571.091 1401.629 571.100 1401.640 571.100 H 1413.640 C 1413.651 571.100 1413.660 571.091 1413.660 571.080 V 565.100 C 1413.660 565.080 1413.640 565.100 1413.660 565.100 H 1425.620 C 1425.640 565.100 1425.620 565.080 1425.620 565.100 V 571.080 C 1425.620 571.091 1425.629 571.100 1425.640 571.100 H 1437.640 C 1437.651 571.100 1437.660 571.091 1437.660 571.080 V 565.100 C 1437.660 565.080 1437.640 565.100 1437.660 565.100 H 1449.620 C 1449.640 565.100 1449.620 565.080 1449.620 565.100 V 571.080 C 1449.620 571.091 1449.629 571.100 1449.640 571.100 H 1461.640 C 1461.651 571.100 1461.660 571.091 1461.660 571.080 V 565.100 C 1461.660 565.080 1461.640 565.100 1461.660 565.100 H 1477.140 C 1477.151 565.100 1477.160 565.091 1477.160 565.080 V 551.600 C 1477.160 551.580 1477.140 551.600 1477.160 551.600 H 1483.140 C 1483.151 551.600 1483.160 551.591 1483.160 551.580 V 539.580 C 1483.160 539.569 1483.151 539.560 1483.140 539.560 H 1477.160 C 1477.140 539.560 1477.160 539.580 1477.160 539.560 V 527.600 C 1477.160 527.580 1477.140 527.600 1477.160 527.600 H 1483.140 C 1483.151 527.600 1483.160 527.591 1483.160 527.580 V 515.580 C 1483.160 515.569 1483.151 515.560 1483.140 515.560 H 1477.160 C 1477.140 515.560 1477.160 515.580 1477.160 515.560 V 502.080 C 1477.160 502.069 1477.151 502.060 1477.140 502.060 H 800.140 C 800.129 502.060 800.120 502.069 800.120 502.080 V 515.560 C 800.120 515.580 800.140 515.560 800.120 515.560 H 794.140 C 794.129 515.560 794.120 515.569 794.120 515.580 V 527.580 C 794.120 527.591 794.129 527.600 794.140 527.600 H 800.120 C 800.140 527.600 800.120 527.580 800.120 527.600 V 539.560 C 800.120 539.580 800.140 539.560 800.120 539.560 H 794.140 C 794.129 539.560 794.120 539.569 794.120 539.580 V 551.580 C 794.120 551.591 794.129 551.600 794.140 551.600 H 800.120 C 800.140 551.600 800.120 551.580 800.120 551.600 V 565.080 C 800.120 565.091 800.129 565.100 800.140 565.100 Z" stroke="rgb(0,0,0)" stroke-width="0.05" />
  <path d="M 1229.120 545.580 V 551.560 C 1229.120 551.580 1229.140 551.560 1229.120 551.560 H 1223.160 C 1223.140 551.560 1223.160 551.580 1223.160 551.560 V 539.600 C 1223.160 539.580 1223.140 539.600 1223.160 539.600 H 1229.120 C 1229.140 539.600 1229.120 539.580 1229.120 539.600 V 545.580 Z" stroke="rgb(0,0,255)" stroke-width="0.05" />
  <path d="M 1229.120 521.580 V 527.560 C 1229.120 527.580 1229.140 527.560 1229.120 527.560 H 1223.160 C 1223.140 527.560 1223.160 527.580 1223.160 527.560 V 515.600 C 1223.160 515.580 1223.140 515.600 1223.160 515.600 H 1229.120 C 1229.140 515.600 1229.120 515.580 1229.120 515.600 V 521.580 Z" stroke="rgb(0,0,255)" stroke-width="0.05" />
</g>
<g id="p-5" style="fill:none;stroke-linecap:round;stroke-linejoin:round;">
  <path d="M 16.020 493.060 H 26.000 C 26.020 493.060 26.000 493.040 26.000 493.060 V 499.040 C 26.000 499.051 26.009 499.060 26.020 499.060 H 38.020 C 38.031 499.060 38.040 499.051 38.040 499.040 V 493.060 C 38.040 493.040 38.020 493.060 38.040 493.060 H 48.020 H 54.020 H 69.500 C 69.520 493.060 69.500 493.040 69.500 493.060 V 499.040 C 69.500 499.051 69.509 499.060 69.520 499.060 H 81.520 C 81.531 499.060 81.540 499.051 81.540 499.040 V 493.060 C 81.540 493.040 81.520 493.060 81.540 493.060 H 93.500 C 93.520 493.060 93.500 493.040 93.500 493.060 V 499.040 C 93.500 499.051 93.509 499.060 93.520 499.060 H 105.520 C 105.531 499.060 105.540 499.051 105.540 499.040 V 493.060 C 105.540 493.040 105.520 493.060 105.540 493.060 H 117.500 C 117.520 493.060 117.500 493.040 117.500 493.060 V 499.040 C 117.500 499.051 117.509 499.060 117.520 499.060 H 129.520 C 129.531 499.060 129.540 499.051 129.540 499.040 V 493.060 C 129.540 493.040 129.520 493.060 129.540 493.060 H 141.500 C 141.520 493.060 141.500 493.040 141.500 493.060 V 499.040 C 141.500 499.051 141.509 499.060 141.520 499.060 H 153.520 C 153.531 499.060 153.540 499.051 153.540 499.040 V 493.060 C 153.540 493.040 153.520 493.060 153.540 493.060 H 169.020 H 175.020 H 178.500 C 178.520 493.060 178.500 493.040 178.500 493.060 V 499.040 C 178.500 499.051 178.509 499.060 178.520 499.060 H 185.520 C 185.531 499.060 185.540 499.051 185.540 499.040 V 493.060 C 185.540 493.040 185.520 493.060 185.540 493.060 H 189.020 H 195.020 H 207.500 C 207.520 493.060 207.500 493.040 207.500 493.060 V 499.040 C 207.500 499.051 207.509 499.060 207.520 499.060 H 219.520 C 219.531 499.060 219.540 499.051 219.540 499.040 V 493.060 C 219.540 493.040 219.520 493.060 219.540 493.060 H 231.500 C 231.520 493.060 231.500 493.040 231.500 493.060 V 499.040 C 231.500 499.051 231.509 499.060 231.520 499.060 H 243.520 C 243.531 499.060 243.540 499.051 243.540 499.040 V 493.060 C 243.540 493.040 243.520 493.060 243.540 493.060 H 255.500 C 255.520 493.060 255.500 493.040 255.500 493.060 V 499.040 C 255.500 499.051 255.509 499.060 255.520 499.060 H 267.520 C 267.531 499.060 267.540 499.051 267.540 499.040 V 493.060 C 267.540 493.040 267.520 493.060 267.540 493.060 H 279.500 C 279.520 493.060 279.500 493.040 279.500 493.060 V 499.040 C 279.500 499.051 279.509 499.060 279.520 499.060 H 291.520 C 291.531 499.060 291.540 499.051 291.540 499.040 V 493.060 C 291.540 493.040 291.520 493.060 291.540 493.060 H 303.500 C 303.520 493.060 303.500 493.040 303.500 493.060 V 499.040 C 303.500 499.051 303.509 499.060 303.520 499.060 H 315.520 C 315.531 499.060 315.540 499.051 315.540 499.040 V 493.060 C 315.540 493.040 315.520 493.060 315.540 493.060 H 328.020 H 334.020 H 352.500 C 352.520 493.060 352.500 493.040 352.500 493.060 V 499.040 C 352.500 499.051 352.509 499.060 352.520 499.060 H 364.520 C 364.531 499.060 364.540 499.051 364.540 499.040 V 493.060 C 364.540 493.040 364.520 493.060 364.540 493.060 H 383.020 H 389.020 H 399.000 C 399.020 493.060 399.000 493.040 399.000 493.060 V 499.040 C 399.000 499.051 399.009 499.060 399.020 499.060 H 411.020 C 411.031 499.060 411.040 499.051 411.040 499.040 V 493.060 C 411.040 493.040 411.020 493.060 411.040 493.060 H 421.020 H 427.020 C 427.031 493.060 427.040 493.051 427.040 493.040 V 479.540 C 427.040 479.529 427.031 479.520 427.020 479.520 H 421.040 C 421.020 479.520 421.040 479.540 421.040 479.520 V 467.560 C 421.040 467.540 421.020 467.560 421.040 467.560 H 427.020 C 427.031 467.560 427.040 467.551 427.040 467.540 V 455.540 C 427.040 455.529 427.031 455.520 427.020 455.520 H 421.040 C 421.020 455.520 421.040 455.540 421.040 455.520 V 443.560 C 421.040 443.540 421.020 443.560 421.040 443.560 H 427.020 C 427.031 443.560 427.040 443.551 427.040 443.540 V 430.040 C 427.040 430.029 427.031 430.020 427.020 430.020 H 421.020 H 389.020 H 383.020 H 334.020 H 328.020 H 195.020 H 189.020 H 175.020 H 169.020 H 54.020 H 48.020 H 16.020 H 10.020 C 10.009 430.020 10.000 430.029 10.000 430.040 V 443.540 C 10.000 443.551 10.009 443.560 10.020 443.560 H 16.000 C 16.020 443.560 16.000 443.540 16.000 443.560 V 455.520 C 16.000 455.540 16.020 455.520 16.000 455.520 H 10.020 C 10.009 455.520 10.000 455.529 10.000 455.540 V 467.540 C 10.000 467.551 10.009 467.560 10.020 467.560 H 16.000 C 16.020 467.560 16.000 467.540 16.000 467.560 V 479.520 C 16.000 479.540 16.020 479.520 16.000 479.520 H 10.020 C 10.009 479.520 10.000 479.529 10.000 479.540 V 493.040 C 10.000 493.051 10.009 493.060 10.020 493.060 H 16.020 Z" stroke="rgb(0,0,0)" stroke-width="0.05" />
</g>
<g id="p-6" style="fill:none;stroke-linecap:round;stroke-linejoin:round;">
  <path d="M 436.060 493.060 H 446.040 C 446.060 493.060 446.040 493.040 446.040 493.060 V 499.040 C 446.040 499.051 446.049 499.060 446.060 499.060 H 458.060 C 458.071 499.060 458.080 499.051 458.080 499.040 V 493.060 C 458.080 493.040 458.060 493.060 458.080 493.060 H 468.060 H 474.060 H 489.540 C 489.560 493.060 489.540 493.040 489.540 493.060 V 499.040 C 489.540 499.051 489.549 499.060 489.560 499.060 H 501.560 C 501.571 499.060 501.580 499.051 501.580 499.040 V 493.060 C 501.580 493.040 501.560 493.060 501.580 493.060 H 513.540 C 513.560 493.060 513.540 493.040 513.540 493.060 V 499.040 C 513.540 499.051 513.549 499.060 513.560 499.060 H 525.560 C 525.571 499.060 525.580 499.051 525.580 499.040 V 493.060 C 525.580 493.040 525.560 493.060 525.580 493.060 H 537.540 C 537.560 493.060 537.540 493.040 537.540 493.060 V 499.040 C 537.540 499.051 537.549 499.060 537.560 499.060 H 549.560 C 549.571 499.060 549.580 499.051 549.580 499.040 V 493.060 C 549.580 493.040 549.560 493.060 549.580 493.060 H 561.540 C 561.560 493.060 561.540 493.040 561.540 493.060 V 499.040 C 561.540 499.051 561.549 499.060 561.560 499.060 H 573.560 C 573.571 499.060 573.580 499.051 573.580 499.040 V 493.060 C 573.580 493.040 573.560 493.060 573.580 493.060 H 589.060 H 595.060 H 598.540 C 598.560 493.060 598.540 493.040 598.540 493.060 V 499.040 C 598.540 499.051 598.549 499.060 598.560 499.060 H 605.560 C 605.571 499.060 605.580 499.051 605.580 499.040 V 493.060 C 605.580 493.040 605.560 493.060 605.580 493.060 H 609.060 H 615.060 C 615.071 493.060 615.080 493.051 615.080 493.040 V 479.540 C 615.080 479.529 615.071 479.520 615.060 479.520 H 609.080 C 609.060 479.520 609.080 479.540 609.080 479.520 V 467.560 C 609.080 467.540 609.060 467.560 609.080 467.560 H 615.060 C 615.071 467.560 615.080 467.551 615.080 467.540 V 455.540 C 615.080 455.529 615.071 455.520 615.060 455.520 H 609.080 C 609.060 455.520 609.080 455.540 609.080 455.520 V 443.560 C 609.080 443.540 609.060 443.560 609.080 443.560 H 615.060 C 615.071 443.560 615.080 443.551 615.080 443.540 V 430.040 C 615.080 430.029 615.071 430.020 615.060 430.020 H 609.060 H 595.060 H 589.060 H 474.060 H 468.060 H 436.060 C 436.049 430.020 436.040 430.029 436.040 430.040 V 443.520 C 436.040 443.540 436.060 443.520 436.040 443.520 H 430.060 C 430.049 443.520 430.040 443.529 430.040 443.540 V 455.540 C 430.040 455.551 430.049 455.560 430.060 455.560 H 436.040 C 436.060 455.560 436.040 455.540 436.040 455.560 V 467.520 C 436.040 467.540 436.060 467.520 436.040 467.520 H 430.060 C 430.049 467.520 430.040 467.529 430.040 467.540 V 479.540 C 430.040 479.551 430.049 479.560 430.060 479.560 H 436.040 C 436.060 479.560 436.040 479.540 436.040 479.560 V 493.040 C 436.040 493.051 436.049 493.060 436.060 493.060 Z" stroke="rgb(0,0,0)" stroke-width="0.05" />
</g>
<g id="p-7" style="fill:none;stroke-linecap:round;stroke-linejoin:round;">
  <path d="M 624.100 493.060 H 642.580 C 642.600 493.060 642.580 493.040 642.580 493.060 V 499.040 C 642.580 499.051 642.589 499.060 642.600 499.060 H 654.600 C 654.611 499.060 654.620 499.051 654.620 499.040 V 493.060 C 654.620 493.040 654.600 493.060 654.620 493.060 H 673.100 H 679.100 H 689.080 C 689.100 493.060 689.080 493.040 689.080 493.060 V 499.040 C 689.080 499.051 689.089 499.060 689.100 499.060 H 701.100 C 701.111 499.060 701.120 499.051 701.120 499.040 V 493.060 C 701.120 493.040 701.100 493.060 701.120 493.060 H 711.100 C 711.111 493.060 711.120 493.051 711.120 493.040 V 479.560 C 711.120 479.540 711.100 479.560 711.120 479.560 H 717.100 C 717.111 479.560 717.120 479.551 717.120 479.540 V 467.540 C 717.120 467.529 717.111 467.520 717.100 467.520 H 711.120 C 711.100 467.520 711.120 467.540 711.120 467.520 V 455.560 C 711.120 455.540 711.100 455.560 711.120 455.560 H 717.100 C 717.111 455.560 717.120 455.551 717.120 455.540 V 443.540 C 717.120 443.529 717.111 443.520 717.100 443.520 H 711.120 C 711.100 443.520 711.120 443.540 711.120 443.520 V 430.040 C 711.120 430.029 711.111 430.020 711.100 430.020 H 679.100 H 673.100 H 624.100 H 618.100 C 618.089 430.020 618.080 430.029 618.080 430.040 V 443.540 C 618.080 443.551 618.089 443.560 618.100 443.560 H 624.080 C 624.100 443.560 624.080 443.540 624.080 443.560 V 455.520 C 624.080 455.540 624.100 455.520 624.080 455.520 H 618.100 C 618.089 455.520 618.080 455.529 618.080 455.540 V 467.540 C 618.080 467.551 618.089 467.560 618.100 467.560 H 624.080 C 624.100 467.560 624.080 467.540 624.080 467.560 V 479.520 C 624.080 479.540 624.100 479.520 624.080 479.520 H 618.100 C 618.089 479.520 618.080 479.529 618.080 479.540 V 493.040 C 618.080 493.051 618.089 493.060 618.100 493.060 H 624.100 Z" stroke="rgb(0,0,0)" stroke-width="0.05" />
</g>
<g id="p-8" style="fill:none;stroke-linecap:round;stroke-linejoin:round;">
  <path d="M 726.140 493.060 H 738.620 C 738.640 493.060 738.620 493.040 738.620 493.060 V 499.040 C 738.620 499.051 738.629 499.060 738.640 499.060 H 750.640 C 750.651 499.060 750.660 499.051 750.660 499.040 V 493.060 C 750.660 493.040 750.640 493.060 750.660 493.060 H 762.620 C 762.640 493.060 762.620 493.040 762.620 493.060 V 499.040 C 762.620 499.051 762.629 499.060 762.640 499.060 H 774.640 C 774.651 499.060 774.660 499.051 774.660 499.040 V 493.060 C 774.660 493.040 774.640 493.060 774.660 493.060 H 786.620 C 786.640 493.060 786.620 493.040 786.620 493.060 V 499.040 C 786.620 499.051 786.629 499.060 786.640 499.060 H 798.640 C 798.651 499.060 798.660 499.051 798.660 499.040 V 493.060 C 798.660 493.040 798.640 493.060 798.660 493.060 H 810.620 C 810.640 493.060 810.620 493.040 810.620 493.060 V 499.040 C 810.620 499.051 810.629 499.060 810.640 499.060 H 822.640 C 822.651 499.060 822.660 499.051 822.660 499.040 V 493.060 C 822.660 493.040 822.640 493.060 822.660 493.060 H 834.620 C 834.640 493.060 834.620 493.040 834.620 493.060 V 499.040 C 834.620 499.051 834.629 499.060 834.640 499.060 H 846.640 C 846.651 499.060 846.660 499.051 846.660 499.040 V 493.060 C 846.660 493.040 846.640 493.060 846.660 493.060 H 859.140 H 865.140 C 865.151 493.060 865.160 493.051 865.160 493.040 V 479.540 C 865.160 479.529 865.151 479.520 865.140 479.520 H 859.160 C 859.140 479.520 859.160 479.540 859.160 479.520 V 467.560 C 859.160 467.540 859.140 467.560 859.160 467.560 H 865.140 C 865.151 467.560 865.160 467.551 865.160 467.540 V 455.540 C 865.160 455.529 865.151 455.520 865.140 455.520 H 859.160 C 859.140 455.520 859.160 455.540 859.160 455.520 V 443.560 C 859.160 443.540 859.140 443.560 859.160 443.560 H 865.140 C 865.151 443.560 865.160 443.551 865.160 443.540 V 430.040 C 865.160 430.029 865.151 430.020 865.140 430.020 H 859.140 H 726.140 H 720.140 C 720.129 430.020 720.120 430.029 720.120 430.040 V 443.540 C 720.120 443.551 720.129 443.560 720.140 443.560 H 726.120 C 726.140 443.560 726.120 443.540 726.120 443.560 V 455.520 C 726.120 455.540 726.140 455.520 726.120 455.520 H 720.140 C 720.129 455.520 720.120 455.529 720.120 455.540 V 467.540 C 720.120 467.551 720.129 467.560 720.140 467.560 H 726.120 C 726.140 467.560 726.120 467.540 726.120 467.560 V 479.520 C 726.120 479.540 726.140 479.520 726.120 479.520 H 720.140 C 720.129 479.520 720.120 479.529 720.120 479.540 V 493.040 C 720.120 493.051 720.129 493.060 720.140 493.060 H 726.140 Z" stroke="rgb(0,0,0)" stroke-width="0.05" />
</g>
<g id="p-9" style="fill:none;stroke-linecap:round;stroke-linejoin:round;">
  <path d="M 874.180 493.060 H 884.160 C 884.180 493.060 884.160 493.040 884.160 493.060 V 499.040 C 884.160 499.051 884.169 499.060 884.180 499.060 H 896.180 C 896.191 499.060 896.200 499.051 896.200 499.040 V 493.060 C 896.200 493.040 896.180 493.060 896.200 493.060 H 906.180 H 912.180 H 927.660 C 927.680 493.060 927.660 493.040 927.660 493.060 V 499.040 C 927.660 499.051 927.669 499.060 927.680 499.060 H 939.680 C 939.691 499.060 939.700 499.051 939.700 499.040 V 493.060 C 939.700 493.040 939.680 493.060 939.700 493.060 H 951.660 C 951.680 493.060 951.660 493.040 951.660 493.060 V 499.040 C 951.660 499.051 951.669 499.060 951.680 499.060 H 963.680 C 963.691 499.060 963.700 499.051 963.700 499.040 V 493.060 C 963.700 493.040 963.680 493.060 963.700 493.060 H 975.660 C 975.680 493.060 975.660 493.040 975.660 493.060 V 499.040 C 975.660 499.051 975.669 499.060 975.680 499.060 H 987.680 C 987.691 499.060 987.700 499.051 987.700 499.040 V 493.060 C 987.700 493.040 987.680 493.060 987.700 493.060 H 999.660 C 999.680 493.060 999.660 493.040 999.660 493.060 V 499.040 C 999.660 499.051 999.669 499.060 999.680 499.060 H 1011.680 C 1011.691 499.060 1011.700 499.051 1011.700 499.040 V 493.060 C 1011.700 493.040 1011.680 493.060 1011.700 493.060 H 1027.180 H 1033.180 H 1036.660 C 1036.680 493.060 1036.660 493.040 1036.660 493.060 V 499.040 C 1036.660 499.051 1036.669 499.060 1036.680 499.060 H 1043.680 C 1043.691 499.060 1043.700 499.051 1043.700 499.040 V 493.060 C 1043.700 493.040 1043.680 493.060 1043.700 493.060 H 1047.180 H 1053.180 H 1065.660 C 1065.680 493.060 1065.660 493.040 1065.660 493.060 V 499.040 C 1065.660 499.051 1065.669 499.060 1065.680 499.060 H 1077.680 C 1077.691 499.060 1077.700 499.051 1077.700 499.040 V 493.060 C 1077.700 493.040 1077.680 493.060 1077.700 493.060 H 1089.660 C 1089.680 493.060 1089.660 493.040 1089.660 493.060 V 499.040 C 1089.660 499.051 1089.669 499.060 1089.680 499.060 H 1101.680 C 1101.691 499.060 1101.700 499.051 1101.700 499.040 V 493.060 C 1101.700 493.040 1101.680 493.060 1101.700 493.060 H 1113.660 C 1113.680 493.060 1113.660 493.040 1113.660 493.060 V 499.040 C 1113.660 499.051 1113.669 499.060 1113.680 499.060 H 1125.680 C 1125.691 499.060 1125.700 499.051 1125.700 499.040 V 493.060 C 1125.700 493.040 1125.680 493.060 1125.700 493.060 H 1137.660 C 1137.680 493.060 1137.660 493.040 1137.660 493.060 V 499.040 C 1137.660 499.051 1137.669 499.060 1137.680 499.060 H 1149.680 C 1149.691 499.060 1149.700 499.051 1149.700 499.040 V 493.060 C 1149.700 493.040 1149.680 493.060 1149.700 493.060 H 1161.660 C 1161.680 493.060 1161.660 493.040 1161.660 493.060 V 499.040 C 1161.660 499.051 1161.669 499.060 1161.680 499.060 H 1173.680 C 1173.691 499.060 1173.700 499.051 1173.700 499.040 V 493.060 C 1173.700 493.040 1173.680 493.060 1173.700 493.060 H 1186.180 H 1192.180 H 1210.660 C 1210.680 493.060 1210.660 493.040 1210.660 493.060 V 499.040 C 1210.660 499.051 1210.669 499.060 1210.680 499.060 H 1222.680 C 1222.691 499.060 1222.700 499.051 1222.700 499.040 V 493.060 C 1222.700 493.040 1222.680 493.060 1222.700 493.060 H 1241.180 H 1247.180 H 1257.160 C 1257.180 493.060 1257.160 493.040 1257.160 493.060 V 499.040 C 1257.160 499.051 1257.169 499.060 1257.180 499.060 H 1269.180 C 1269.191 499.060 1269.200 499.051 1269.200 499.040 V 493.060 C 1269.200 493.040 1269.180 493.060 1269.200 493.060 H 1279.180 H 1285.180 C 1285.191 493.060 1285.200 493.051 1285.200 493.040 V 479.540 C 1285.200 479.529 1285.191 479.520 1285.180 479.520 H 1279.200 C 1279.180 479.520 1279.200 479.540 1279.200 479.520 V 467.560 C 1279.200 467.540 1279.180 467.560 1279.200 467.560 H 1285.180 C 1285.191 467.560 1285.200 467.551 1285.200 467.540 V 455.540 C 1285.200 455.529 1285.191 455.520 1285.180 455.520 H 1279.200 C 1279.180 455.520 1279.200 455.540 1279.200 455.520 V 443.560 C 1279.200 443.540 1279.180 443.560 1279.200 443.560 H 1285.180 C 1285.191 443.560 1285.200 443.551 1285.200 443.540 V 430.040 C 1285.200 430.029 1285.191 430.020 1285.180 430.020 H 1279.180 H 1247.180 H 1241.180 H 1192.180 H 1186.180 H 1053.180 H 1047.180 H 1033.180 H 1027.180 H 912.180 H 906.180 H 874.180 H 868.180 C 868.169 430.020 868.160 430.029 868.160 430.040 V 443.540 C 868.160 443.551 868.169 443.560 868.180 443.560 H 874.160 C 874.180 443.560 874.160 443.540 874.160 443.560 V 455.520 C 874.160 455.540 874.180 455.520 874.160 455.520 H 868.180 C 868.169 455.520 868.160 455.529 868.160 455.540 V 467.540 C 868.160 467.551 868.169 467.560 868.180 467.560 H 874.160 C 874.180 467.560 874.160 467.540 874.160 467.560 V 479.520 C 874.160 479.540 874.180 479.520 874.160 479.520 H 868.180 C 868.169 479.520 868.160 479.529 868.160 479.540 V 493.040 C 868.160 493.051 868.169 493.060 868.180 493.060 H 874.180 Z" stroke="rgb(0,0,0)" stroke-width="0.05" />
</g>
<g id="p-10" style="fill:none;stroke-linecap:round;stroke-linejoin:round;">
  <path d="M 16.020 427.040 H 28.020 C 28.031 427.040 28.040 427.031 28.040 427.020 V 421.040 C 28.040 421.020 28.020 421.040 28.040 421.040 H 40.000 C 40.020 421.040 40.000 421.020 40.000 421.040 V 427.020 C 40.000 427.031 40.009 427.040 40.020 427.040 H 52.020 C 52.031 427.040 52.040 427.031 52.040 427.020 V 421.040 C 52.040 421.020 52.020 421.040 52.040 421.040 H 64.000 C 64.020 421.040 64.000 421.020 64.000 421.040 V 427.020 C 64.000 427.031 64.009 427.040 64.020 427.040 H 76.020 C 76.031 427.040 76.040 427.031 76.040 427.020 V 421.040 C 76.040 421.020 76.020 421.040 76.040 421.040 H 88.000 C 88.020 421.040 88.000 421.020 88.000 421.040 V 427.020 C 88.000 427.031 88.009 427.040 88.020 427.040 H 100.020 M 10.020 427.040 H 16.020 M 106.020 427.040 H 123.520 C 123.531 427.040 123.540 427.031 123.540 427.020 V 421.040 C 123.540 421.020 123.520 421.040 123.540 421.040 H 135.500 C 135.520 421.040 135.500 421.020 135.500 421.040 V 427.020 C 135.500 427.031 135.509 427.040 135.520 427.040 H 147.520 C 147.531 427.040 147.540 427.031 147.540 427.020 V 421.040 C 147.540 421.020 147.520 421.040 147.540 421.040 H 159.500 C 159.520 421.040 159.500 421.020 159.500 421.040 V 427.020 C 159.500 427.031 159.509 427.040 159.520 427.040 H 177.020 M 100.020 427.040 H 106.020 M 183.020 427.040 H 198.020 C 198.031 427.040 198.040 427.031 198.040 427.020 V 421.040 C 198.040 421.020 198.020 421.040 198.040 421.040 H 210.000 C 210.020 421.040 210.000 421.020 210.000 421.040 V 427.020 C 210.000 427.031 210.009 427.040 210.020 427.040 H 222.020 C 222.031 427.040 222.040 427.031 222.040 427.020 V 421.040 C 222.040 421.020 222.020 421.040 222.040 421.040 H 234.000 C 234.020 421.040 234.000 421.020 234.000 421.040 V 427.020 C 234.000 427.031 234.009 427.040 234.020 427.040 H 249.020 M 177.020 427.040 H 183.020 M 255.020 427.040 H 269.020 C 269.031 427.040 269.040 427.031 269.040 427.020 V 421.040 C 269.040 421.020 269.020 421.040 269.040 421.040 H 281.000 C 281.020 421.040 281.000 421.020 281.000 421.040 V 427.020 C 281.000 427.031 281.009 427.040 281.020 427.040 H 293.020 C 293.031 427.040 293.040 427.031 293.040 427.020 V 421.040 C 293.040 421.020 293.020 421.040 293.040 421.040 H 305.000 C 305.020 421.040 305.000 421.020 305.000 421.040 V 427.020 C 305.000 427.031 305.009 427.040 305.020 427.040 H 317.020 C 317.031 427.040 317.040 427.031 317.040 427.020 V 421.040 C 317.040 421.020 317.020 421.040 317.040 421.040 H 329.000 C 329.020 421.040 329.000 421.020 329.000 421.040 V 427.020 C 329.000 427.031 329.009 427.040 329.020 427.040 H 341.020 C 341.031 427.040 341.040 427.031 341.040 427.020 V 421.040 C 341.040 421.020 341.020 421.040 341.040 421.040 H 353.000 C 353.020 421.040 353.000 421.020 353.000 421.040 V 427.020 C 353.000 427.031 353.009 427.040 353.020 427.040 H 365.020 C 365.031 427.040 365.040 427.031 365.040 427.020 V 421.040 C 365.040 421.020 365.020 421.040 365.040 421.040 H 377.000 C 377.020 421.040 377.000 421.020 377.000 421.040 V 427.020 C 377.000 427.031 377.009 427.040 377.020 427.040 H 389.020 C 389.031 427.040 389.040 427.031 389.040 427.020 V 421.040 C 389.040 421.020 389.020 421.040 389.040 421.040 H 401.000 C 401.020 421.040 401.000 421.020 401.000 421.040 V 427.020 C 401.000 427.031 401.009 427.040 401.020 427.040 H 413.020 C 413.031 427.040 413.040 427.031 413.040 427.020 V 421.040 C 413.040 421.020 413.020 421.040 413.040 421.040 H 425.000 C 425.020 421.040 425.000 421.020 425.000 421.040 V 427.020 C 425.000 427.031 425.009 427.040 425.020 427.040 H 439.020 M 249.020 427.040 H 255.020 M 445.020 427.040 H 454.520 C 454.531 427.040 454.540 427.031 454.540 427.020 V 421.040 C 454.540 421.020 454.520 421.040 454.540 421.040 H 466.500 C 466.520 421.040 466.500 421.020 466.500 421.040 V 427.020 C 466.500 427.031 466.509 427.040 466.520 427.040 H 476.020 M 439.020 427.040 H 445.020 M 482.020 427.040 H 497.520 C 497.531 427.040 497.540 427.031 497.540 427.020 V 421.040 C 497.540 421.020 497.520 421.040 497.540 421.040 H 509.500 C 509.520 421.040 509.500 421.020 509.500 421.040 V 427.020 C 509.500 427.031 509.509 427.040 509.520 427.040 H 521.520 C 521.531 427.040 521.540 427.031 521.540 427.020 V 421.040 C 521.540 421.020 521.520 421.040 521.540 421.040 H 533.500 C 533.520 421.040 533.500 421.020 533.500 421.040 V 427.020 C 533.500 427.031 533.509 427.040 533.520 427.040 H 545.520 C 545.531 427.040 545.540 427.031 545.540 427.020 V 421.040 C 545.540 421.020 545.520 421.040 545.540 421.040 H 557.500 C 557.520 421.040 557.500 421.020 557.500 421.040 V 427.020 C 557.500 427.031 557.509 427.040 557.520 427.040 H 569.520 C 569.531 427.040 569.540 427.031 569.540 427.020 V 421.040 C 569.540 421.020 569.520 421.040 569.540 421.040 H 581.500 C 581.520 421.040 581.500 421.020 581.500 421.040 V 427.020 C 581.500 427.031 581.509 427.040 581.520 427.040 H 593.520 C 593.531 427.040 593.540 427.031 593.540 427.020 V 421.040 C 593.540 421.020 593.520 421.040 593.540 421.040 H 605.500 C 605.520 421.040 605.500 421.020 605.500 421.040 V 427.020 C 605.500 427.031 605.509 427.040 605.520 427.040 H 617.520 C 617.531 427.040 617.540 427.031 617.540 427.020 V 421.040 C 617.540 421.020 617.520 421.040 617.540 421.040 H 629.500 C 629.520 421.040 629.500 421.020 629.500 421.040 V 427.020 C 629.500 427.031 629.509 427.040 629.520 427.040 H 641.520 C 641.531 427.040 641.540 427.031 641.540 427.020 V 421.040 C 641.540 421.020 641.520 421.040 641.540 421.040 H 653.500 C 653.520 421.040 653.500 421.020 653.500 421.040 V 427.020 C 653.500 427.031 653.509 427.040 653.520 427.040 H 665.520 C 665.531 427.040 665.540 427.031 665.540 427.020 V 421.040 C 665.540 421.020 665.520 421.040 665.540 421.040 H 677.500 C 677.520 421.040 677.500 421.020 677.500 421.040 V 427.020 C 677.500 427.031 677.509 427.040 677.520 427.040 H 693.020 M 476.020 427.040 H 482.020 M 693.020 427.040 H 699.020" stroke="rgb(0,0,0)" stroke-width="0.05" />
  <path d="M 460.520 334.000 H 454.540 C 454.520 334.000 454.540 334.020 454.540 334.000 V 328.040 C 454.540 328.020 454.520 328.040 454.540 328.040 H 466.500 C 466.520 328.040 466.500 328.020 466.500 328.040 V 334.000 C 466.500 334.020 466.520 334.000 466.500 334.000 H 460.520 Z" stroke="rgb(0,0,255)" stroke-width="0.05" />
  <path d="M 460.520 195.000 H 454.540 C 454.520 195.000 454.540 195.020 454.540 195.000 V 189.040 C 454.540 189.020 454.520 189.040 454.540 189.040 H 466.500 C 466.520 189.040 466.500 189.020 466.500 189.040 V 195.000 C 466.500 195.020 466.520 195.000 466.500 195.000 H 460.520 Z" stroke="rgb(0,0,255)" stroke-width="0.05" />
  <path d="M 100.020 10.000 H 88.020 C 88.009 10.000 88.000 10.009 88.000 10.020 V 16.000 C 88.000 16.020 88.020 16.000 88.000 16.000 H 76.040 C 76.020 16.000 76.040 16.020 76.040 16.000 V 10.020 C 76.040 10.009 76.031 10.000 76.020 10.000 H 64.020 C 64.009 10.000 64.000 10.009 64.000 10.020 V 16.000 C 64.000 16.020 64.020 16.000 64.000 16.000 H 52.040 C 52.020 16.000 52.040 16.020 52.040 16.000 V 10.020 C 52.040 10.009 52.031 10.000 52.020 10.000 H 40.020 C 40.009 10.000 40.000 10.009 40.000 10.020 V 16.000 C 40.000 16.020 40.020 16.000 40.000 16.000 H 28.040 C 28.020 16.000 28.040 16.020 28.040 16.000 V 10.020 C 28.040 10.009 28.031 10.000 28.020 10.000 H 16.020 M 10.020 10.000 H 16.020 M 177.020 10.000 H 159.520 C 159.509 10.000 159.500 10.009 159.500 10.020 V 16.000 C 159.500 16.020 159.520 16.000 159.500 16.000 H 147.540 C 147.520 16.000 147.540 16.020 147.540 16.000 V 10.020 C 147.540 10.009 147.531 10.000 147.520 10.000 H 135.520 C 135.509 10.000 135.500 10.009 135.500 10.020 V 16.000 C 135.500 16.020 135.520 16.000 135.500 16.000 H 123.540 C 123.520 16.000 123.540 16.020 123.540 16.000 V 10.020 C 123.540 10.009 123.531 10.000 123.520 10.000 H 106.020 M 100.020 10.000 H 106.020 M 249.020 10.000 H 234.020 C 234.009 10.000 234.000 10.009 234.000 10.020 V 16.000 C 234.000 16.020 234.020 16.000 234.000 16.000 H 222.040 C 222.020 16.000 222.040 16.020 222.040 16.000 V 10.020 C 222.040 10.009 222.031 10.000 222.020 10.000 H 210.020 C 210.009 10.000 210.000 10.009 210.000 10.020 V 16.000 C 210.000 16.020 210.020 16.000 210.000 16.000 H 198.040 C 198.020 16.000 198.040 16.020 198.040 16.000 V 10.020 C 198.040 10.009 198.031 10.000 198.020 10.000 H 183.020 M 177.020 10.000 H 183.020 M 439.020 10.000 H 425.020 C 425.009 10.000 425.000 10.009 425.000 10.020 V 16.000 C 425.000 16.020 425.020 16.000 425.000 16.000 H 413.040 C 413.020 16.000 413.040 16.020 413.040 16.000 V 10.020 C 413.040 10.009 413.031 10.000 413.020 10.000 H 401.020 C 401.009 10.000 401.000 10.009 401.000 10.020 V 16.000 C 401.000 16.020 401.020 16.000 401.000 16.000 H 389.040 C 389.020 16.000 389.040 16.020 389.040 16.000 V 10.020 C 389.040 10.009 389.031 10.000 389.020 10.000 H 377.020 C 377.009 10.000 377.000 10.009 377.000 10.020 V 16.000 C 377.000 16.020 377.020 16.000 377.000 16.000 H 365.040 C 365.020 16.000 365.040 16.020 365.040 16.000 V 10.020 C 365.040 10.009 365.031 10.000 365.020 10.000 H 353.020 C 353.009 10.000 353.000 10.009 353.000 10.020 V 16.000 C 353.000 16.020 353.020 16.000 353.000 16.000 H 341.040 C 341.020 16.000 341.040 16.020 341.040 16.000 V 10.020 C 341.040 10.009 341.031 10.000 341.020 10.000 H 329.020 C 329.009 10.000 329.000 10.009 329.000 10.020 V 16.000 C 329.000 16.020 329.020 16.000 329.000 16.000 H 317.040 C 317.020 16.000 317.040 16.020 317.040 16.000 V 10.020 C 317.040 10.009 317.031 10.000 317.020 10.000 H 305.020 C 305.009 10.000 305.000 10.009 305.000 10.020 V 16.000 C 305.000 16.020 305.020 16.000 305.000 16.000 H 293.040 C 293.020 16.000 293.040 16.020 293.040 16.000 V 10.020 C 293.040 10.009 293.031 10.000 293.020 10.000 H 281.020 C 281.009 10.000 281.000 10.009 281.000 10.020 V 16.000 C 281.000 16.020 281.020 16.000 281.000 16.000 H 269.040 C 269.020 16.000 269.040 16.020 269.040 16.000 V 10.020 C 269.040 10.009 269.031 10.000 269.020 10.000 H 255.020 M 249.020 10.000 H 255.020 M 476.020 10.000 H 466.520 C 466.509 10.000 466.500 10.009 466.500 10.020 V 16.000 C 466.500 16.020 466.520 16.000 466.500 16.000 H 454.540 C 454.520 16.000 454.540 16.020 454.540 16.000 V 10.020 C 454.540 10.009 454.531 10.000 454.520 10.000 H 445.020 M 439.020 10.000 H 445.020 M 693.020 10.000 H 677.520 C 677.509 10.000 677.500 10.009 677.500 10.020 V 16.000 C 677.500 16.020 677.520 16.000 677.500 16.000 H 665.540 C 665.520 16.000 665.540 16.020 665.540 16.000 V 10.020 C 665.540 10.009 665.531 10.000 665.520 10.000 H 653.520 C 653.509 10.000 653.500 10.009 653.500 10.020 V 16.000 C 653.500 16.020 653.520 16.000 653.500 16.000 H 641.540 C 641.520 16.000 641.540 16.020 641.540 16.000 V 10.020 C 641.540 10.009 641.531 10.000 641.520 10.000 H 629.520 C 629.509 10.000 629.500 10.009 629.500 10.020 V 16.000 C 629.500 16.020 629.520 16.000 629.500 16.000 H 617.540 C 617.520 16.000 617.540 16.020 617.540 16.000 V 10.020 C 617.540 10.009 617.531 10.000 617.520 10.000 H 605.520 C 605.509 10.000 605.500 10.009 605.500 10.020 V 16.000 C 605.500 16.020 605.520 16.000 605.500 16.000 H 593.540 C 593.520 16.000 593.540 16.020 593.540 16.000 V 10.020 C 593.540 10.009 593.531 10.000 593.520 10.000 H 581.520 C 581.509 10.000 581.500 10.009 581.500 10.020 V 16.000 C 581.500 16.020 581.520 16.000 581.500 16.000 H 569.540 C 569.520 16.000 569.540 16.020 569.540 16.000 V 10.020 C 569.540 10.009 569.531 10.000 569.520 10.000 H 557.520 C 557.509 10.000 557.500 10.009 557.500 10.020 V 16.000 C 557.500 16.020 557.520 16.000 557.500 16.000 H 545.540 C 545.520 16.000 545.540 16.020 545.540 16.000 V 10.020 C 545.540 10.009 545.531 10.000 545.520 10.000 H 533.520 C 533.509 10.000 533.500 10.009 533.500 10.020 V 16.000 C 533.500 16.020 533.520 16.000 533.500 16.000 H 521.540 C 521.520 16.000 521.540 16.020 521.540 16.000 V 10.020 C 521.540 10.009 521.531 10.000 521.520 10.000 H 509.520 C 509.509 10.000 509.500 10.009 509.500 10.020 V 16.000 C 509.500 16.020 509.520 16.000 509.500 16.000 H 497.540 C 497.520 16.000 497.540 16.020 497.540 16.000 V 10.020 C 497.540 10.009 497.531 10.000 497.520 10.000 H 482.020 M 476.020 10.000 H 482.020 M 693.020 10.000 H 699.020 M 10.000 389.020 V 399.020 C 10.000 399.031 10.009 399.040 10.020 399.040 H 16.000 C 16.020 399.040 16.000 399.020 16.000 399.040 V 411.000 C 16.000 411.020 16.020 411.000 16.000 411.000 H 10.020 C 10.009 411.000 10.000 411.009 10.000 411.020 V 421.020 M 10.000 383.020 V 389.020 M 10.000 421.020 V 427.020 M 10.000 334.020 V 352.520 C 10.000 352.531 10.009 352.540 10.020 352.540 H 16.000 C 16.020 352.540 16.000 352.520 16.000 352.540 V 364.500 C 16.000 364.520 16.020 364.500 16.000 364.500 H 10.020 C 10.009 364.500 10.000 364.509 10.000 364.520 V 383.020 M 10.000 328.020 V 334.020 M 10.000 195.020 V 207.520 C 10.000 207.531 10.009 207.540 10.020 207.540 H 16.000 C 16.020 207.540 16.000 207.520 16.000 207.540 V 219.500 C 16.000 219.520 16.020 219.500 16.000 219.500 H 10.020 C 10.009 219.500 10.000 219.509 10.000 219.520 V 231.520 C 10.000 231.531 10.009 231.540 10.020 231.540 H 16.000 C 16.020 231.540 16.000 231.520 16.000 231.540 V 243.500 C 16.000 243.520 16.020 243.500 16.000 243.500 H 10.020 C 10.009 243.500 10.000 243.509 10.000 243.520 V 255.520 C 10.000 255.531 10.009 255.540 10.020 255.540 H 16.000 C 16.020 255.540 16.000 255.520 16.000 255.540 V 267.500 C 16.000 267.520 16.020 267.500 16.000 267.500 H 10.020 C 10.009 267.500 10.000 267.509 10.000 267.520 V 279.520 C 10.000 279.531 10.009 279.540 10.020 279.540 H 16.000 C 16.020 279.540 16.000 279.520 16.000 279.540 V 291.500 C 16.000 291.520 16.020 291.500 16.000 291.500 H 10.020 C 10.009 291.500 10.000 291.509 10.000 291.520 V 303.520 C 10.000 303.531 10.009 303.540 10.020 303.540 H 16.000 C 16.020 303.540 16.000 303.520 16.000 303.540 V 315.500 C 16.000 315.520 16.020 315.500 16.000 315.500 H 10.020 C 10.009 315.500 10.000 315.509 10.000 315.520 V 328.020 M 10.000 189.020 V 195.020 M 10.000 175.020 V 178.520 C 10.000 178.531 10.009 178.540 10.020 178.540 H 16.000 C 16.020 178.540 16.000 178.520 16.000 178.540 V 185.500 C 16.000 185.520 16.020 185.500 16.000 185.500 H 10.020 C 10.009 185.500 10.000 185.509 10.000 185.520 V 189.020 M 10.000 169.020 V 175.020 M 10.000 54.020 V 69.520 C 10.000 69.531 10.009 69.540 10.020 69.540 H 16.000 C 16.020 69.540 16.000 69.520 16.000 69.540 V 81.500 C 16.000 81.520 16.020 81.500 16.000 81.500 H 10.020 C 10.009 81.500 10.000 81.509 10.000 81.520 V 93.520 C 10.000 93.531 10.009 93.540 10.020 93.540 H 16.000 C 16.020 93.540 16.000 93.520 16.000 93.540 V 105.500 C 16.000 105.520 16.020 105.500 16.000 105.500 H 10.020 C 10.009 105.500 10.000 105.509 10.000 105.520 V 117.520 C 10.000 117.531 10.009 117.540 10.020 117.540 H 16.000 C 16.020 117.540 16.000 117.520 16.000 117.540 V 129.500 C 16.000 129.520 16.020 129.500 16.000 129.500 H 10.020 C 10.009 129.500 10.000 129.509 10.000 129.520 V 141.520 C 10.000 141.531 10.009 141.540 10.020 141.540 H 16.000 C 16.020 141.540 16.000 141.520 16.000 141.540 V 153.500 C 16.000 153.520 16.020 153.500 16.000 153.500 H 10.020 C 10.009 153.500 10.000 153.509 10.000 153.520 V 169.020 M 10.000 48.020 V 54.020 M 10.000 16.020 V 26.020 C 10.000 26.031 10.009 26.040 10.020 26.040 H 16.000 C 16.020 26.040 16.000 26.020 16.000 26.040 V 38.000 C 16.000 38.020 16.020 38.000 16.000 38.000 H 10.020 C 10.009 38.000 10.000 38.009 10.000 38.020 V 48.020 M 10.000 10.020 V 16.020" stroke="rgb(0,0,0)" stroke-width="0.05" />
  <path d="M 445.000 405.020 V 411.000 C 445.000 411.020 445.020 411.000 445.000 411.000 H 439.040 C 439.020 411.000 439.040 411.020 439.040 411.000 V 399.040 C 439.040 399.020 439.020 399.040 439.040 399.040 H 445.000 C 445.020 399.040 445.000 399.020 445.000 399.040 V 405.020 Z" stroke="rgb(0,0,255)" stroke-width="0.05" />
  <path d="M 445.000 358.520 V 364.500 C 445.000 364.520 445.020 364.500 445.000 364.500 H 439.040 C 439.020 364.500 439.040 364.520 439.040 364.500 V 352.540 C 439.040 352.520 439.020 352.540 439.040 352.540 H 445.000 C 445.020 352.540 445.000 352.520 445.000 352.540 V 358.520 Z" stroke="rgb(0,0,255)" stroke-width="0.05" />
  <path d="M 445.000 182.020 V 185.500 C 445.000 185.520 445.020 185.500 445.000 185.500 H 439.040 C 439.020 185.500 439.040 185.520 439.040 185.500 V 178.540 C 439.040 178.520 439.020 178.540 439.040 178.540 H 445.000 C 445.020 178.540 445.000 178.520 445.000 178.540 V 182.020 Z" stroke="rgb(0,0,255)" stroke-width="0.05" />
  <path d="M 445.000 147.520 V 153.500 C 445.000 153.520 445.020 153.500 445.000 153.500 H 439.040 C 439.020 153.500 439.040 153.520 439.040 153.500 V 141.540 C 439.040 141.520 439.020 141.540 439.040 141.540 H 445.000 C 445.020 141.540 445.000 141.520 445.000 141.540 V 147.520 Z" stroke="rgb(0,0,255)" stroke-width="0.05" />
  <path d="M 445.000 123.520 V 129.500 C 445.000 129.520 445.020 129.500 445.000 129.500 H 439.040 C 439.020 129.500 439.040 129.520 439.040 129.500 V 117.540 C 439.040 117.520 439.020 117.540 439.040 117.540 H 445.000 C 445.020 117.540 445.000 117.520 445.000 117.540 V 123.520 Z" stroke="rgb(0,0,255)" stroke-width="0.05" />
  <path d="M 445.000 99.520 V 105.500 C 445.000 105.520 445.020 105.500 445.000 105.500 H 439.040 C 439.020 105.500 439.040 105.520 439.040 105.500 V 93.540 C 439.040 93.520 439.020 93.540 439.040 93.540 H 445.000 C 445.020 93.540 445.000 93.520 445.000 93.540 V 99.520 Z" stroke="rgb(0,0,255)" stroke-width="0.05" />
  <path d="M 445.000 75.520 V 81.500 C 445.000 81.520 445.020 81.500 445.000 81.500 H 439.040 C 439.020 81.500 439.040 81.520 439.040 81.500 V 69.540 C 439.040 69.520 439.020 69.540 439.040 69.540 H 445.000 C 445.020 69.540 445.000 69.520 445.000 69.540 V 75.520 Z" stroke="rgb(0,0,255)" stroke-width="0.05" />
  <path d="M 445.000 32.020 V 38.000 C 445.000 38.020 445.020 38.000 445.000 38.000 H 439.040 C 439.020 38.000 439.040 38.020 439.040 38.000 V 26.040 C 439.040 26.020 439.020 26.040 439.040 26.040 H 445.000 C 445.020 26.040 445.000 26.020 445.000 26.040 V 32.020 Z" stroke="rgb(0,0,255)" stroke-width="0.05" />
  <path d="M 482.000 309.520 V 315.500 C 482.000 315.520 482.020 315.500 482.000 315.500 H 476.040 C 476.020 315.500 476.040 315.520 476.040 315.500 V 303.540 C 476.040 303.520 476.020 303.540 476.040 303.540 H 482.000 C 482.020 303.540 482.000 303.520 482.000 303.540 V 309.520 Z" stroke="rgb(0,0,255)" stroke-width="0.05" />
  <path d="M 482.000 285.520 V 291.500 C 482.000 291.520 482.020 291.500 482.000 291.500 H 476.040 C 476.020 291.500 476.040 291.520 476.040 291.500 V 279.540 C 476.040 279.520 476.020 279.540 476.040 279.540 H 482.000 C 482.020 279.540 482.000 279.520 482.000 279.540 V 285.520 Z" stroke="rgb(0,0,255)" stroke-width="0.05" />
  <path d="M 482.000 261.520 V 267.500 C 482.000 267.520 482.020 267.500 482.000 267.500 H 476.040 C 476.020 267.500 476.040 267.520 476.040 267.500 V 255.540 C 476.040 255.520 476.020 255.540 476.040 255.540 H 482.000 C 482.020 255.540 482.000 255.520 482.000 255.540 V 261.520 Z" stroke="rgb(0,0,255)" stroke-width="0.05" />
  <path d="M 482.000 237.520 V 243.500 C 482.000 243.520 482.020 243.500 482.000 243.500 H 476.040 C 476.020 243.500 476.040 243.520 476.040 243.500 V 231.540 C 476.040 231.520 476.020 231.540 476.040 231.540 H 482.000 C 482.020 231.540 482.000 231.520 482.000 231.540 V 237.520 Z" stroke="rgb(0,0,255)" stroke-width="0.05" />
  <path d="M 482.000 213.520 V 219.500 C 482.000 219.520 482.020 219.500 482.000 219.500 H 476.040 C 476.020 219.500 476.040 219.520 476.040 219.500 V 207.540 C 476.040 207.520 476.020 207.540 476.040 207.540 H 482.000 C 482.020 207.540 482.000 207.520 482.000 207.540 V 213.520 Z" stroke="rgb(0,0,255)" stroke-width="0.05" />
  <path d="M 699.040 421.020 V 411.020 C 699.040 411.009 699.031 411.000 699.020 411.000 H 693.040 C 693.020 411.000 693.040 411.020 693.040 411.000 V 399.040 C 693.040 399.020 693.020 399.040 693.040 399.040 H 699.020 C 699.031 399.040 699.040 399.031 699.040 399.020 V 389.020 V 383.020 M 699.040 427.020 V 421.020 M 699.040 383.020 V 364.520 C 699.040 364.509 699.031 364.500 699.020 364.500 H 693.040 C 693.020 364.500 693.040 364.520 693.040 364.500 V 352.540 C 693.040 352.520 693.020 352.540 693.040 352.540 H 699.020 C 699.031 352.540 699.040 352.531 699.040 352.520 V 334.020 V 328.020 V 315.520 C 699.040 315.509 699.031 315.500 699.020 315.500 H 693.040 C 693.020 315.500 693.040 315.520 693.040 315.500 V 303.540 C 693.040 303.520 693.020 303.540 693.040 303.540 H 699.020 C 699.031 303.540 699.040 303.531 699.040 303.520 V 291.520 C 699.040 291.509 699.031 291.500 699.020 291.500 H 693.040 C 693.020 291.500 693.040 291.520 693.040 291.500 V 279.540 C 693.040 279.520 693.020 279.540 693.040 279.540 H 699.020 C 699.031 279.540 699.040 279.531 699.040 279.520 V 267.520 C 699.040 267.509 699.031 267.500 699.020 267.500 H 693.040 C 693.020 267.500 693.040 267.520 693.040 267.500 V 255.540 C 693.040 255.520 693.020 255.540 693.040 255.540 H 699.020 C 699.031 255.540 699.040 255.531 699.040 255.520 V 243.520 C 699.040 243.509 699.031 243.500 699.020 243.500 H 693.040 C 693.020 243.500 693.040 243.520 693.040 243.500 V 231.540 C 693.040 231.520 693.020 231.540 693.040 231.540 H 699.020 C 699.031 231.540 699.040 231.531 699.040 231.520 V 219.520 C 699.040 219.509 699.031 219.500 699.020 219.500 H 693.040 C 693.020 219.500 693.040 219.520 693.040 219.500 V 207.540 C 693.040 207.520 693.020 207.540 693.040 207.540 H 699.020 C 699.031 207.540 699.040 207.531 699.040 207.520 V 195.020 V 189.020 V 185.520 C 699.040 185.509 699.031 185.500 699.020 185.500 H 693.040 C 693.020 185.500 693.040 185.520 693.040 185.500 V 178.540 C 693.040 178.520 693.020 178.540 693.040 178.540 H 699.020 C 699.031 178.540 699.040 178.531 699.040 178.520 V 175.020 V 169.020 V 153.520 C 699.040 153.509 699.031 153.500 699.020 153.500 H 693.040 C 693.020 153.500 693.040 153.520 693.040 153.500 V 141.540 C 693.040 141.520 693.020 141.540 693.040 141.540 H 699.020 C 699.031 141.540 699.040 141.531 699.040 141.520 V 129.520 C 699.040 129.509 699.031 129.500 699.020 129.500 H 693.040 C 693.020 129.500 693.040 129.520 693.040 129.500 V 117.540 C 693.040 117.520 693.020 117.540 693.040 117.540 H 699.020 C 699.031 117.540 699.040 117.531 699.040 117.520 V 105.520 C 699.040 105.509 699.031 105.500 699.020 105.500 H 693.040 C 693.020 105.500 693.040 105.520 693.040 105.500 V 93.540 C 693.040 93.520 693.020 93.540 693.040 93.540 H 699.020 C 699.031 93.540 699.040 93.531 699.040 93.520 V 81.520 C 699.040 81.509 699.031 81.500 699.020 81.500 H 693.040 C 693.020 81.500 693.040 81.520 693.040 81.500 V 69.540 C 693.040 69.520 693.020 69.540 693.040 69.540 H 699.020 C 699.031 69.540 699.040 69.531 699.040 69.520 V 54.020 V 48.020 V 38.020 C 699.040 38.009 699.031 38.000 699.020 38.000 H 693.040 C 693.020 38.000 693.040 38.020 693.040 38.000 V 26.040 C 693.040 26.020 693.020 26.040 693.040 26.040 H 699.020 C 699.031 26.040 699.040 26.031 699.040 26.020 V 16.020 V 10.020" stroke="rgb(0,0,0)" stroke-width="0.05" />
</g>
</svg>