<?xml version="1.0" encoding="UTF-8"?>
<svg id="Layer_1" xmlns="http://www.w3.org/2000/svg" baseProfile="tiny" version="1.2" xmlns:cc="http://creativecommons.org/ns#" xmlns:dc="http://purl.org/dc/elements/1.1/" xmlns:freecad="https://www.freecad.org/wiki/index.php?title=Svg_Namespace" xmlns:inkscape="http://www.inkscape.org/namespaces/inkscape" xmlns:rdf="http://www.w3.org/1999/02/22-rdf-syntax-ns#" xmlns:sodipodi="http://sodipodi.sourceforge.net/DTD/sodipodi-0.dtd" xmlns:svg="http://www.w3.org/2000/svg" viewBox="0 0 2000.45 1219.4">
  <!-- Generator: Adobe Illustrator 29.4.0, SVG Export Plug-In . SVG Version: 2.1.0 Build 152)  -->
  <defs>
    <style>
      .st0 {
        fill: none;
        stroke: #212529;
        stroke-linecap: round;
        stroke-linejoin: bevel;
        stroke-width: 1.98px;
      }
    </style>
  </defs>
  <g id="Page" inkscape:groupmode="layer" inkscape:label="TechDraw">
    <g id="DrawingContent">
      <path class="st0" d="M1725.41,475.47h-977.95" vector-effect="none"/>
      <path class="st0" d="M1725.41,492.48h-977.95" vector-effect="none"/>
      <path class="st0" d="M747.46,24.76v918.43" vector-effect="none"/>
      <path class="st0" d="M764.46,24.76v918.43" vector-effect="none"/>
      <path class="st0" d="M1725.41,926.18H642.58" vector-effect="none"/>
      <path class="st0" d="M1725.41,943.19H642.58" vector-effect="none"/>
      <path class="st0" d="M1286.04,24.76v918.43" vector-effect="none"/>
      <path class="st0" d="M1303.05,24.76v918.43" vector-effect="none"/>
      <path class="st0" d="M1708.4,24.76v1182.05" vector-effect="none"/>
      <path class="st0" d="M1725.41,24.76v1182.05" vector-effect="none"/>
      <path class="st0" d="M1963.52,24.76v1182.05" vector-effect="none"/>
      <path class="st0" d="M1980.53,24.76v1182.05" vector-effect="none"/>
      <path class="st0" d="M1980.53,1189.8H27.46" vector-effect="none"/>
      <path class="st0" d="M1980.53,1206.81H27.46" vector-effect="none"/>
      <path class="st0" d="M1980.53,24.76H27.46" vector-effect="none"/>
      <path class="st0" d="M1980.53,41.77H27.46" vector-effect="none"/>
      <path class="st0" d="M27.46,24.76v1182.05" vector-effect="none"/>
      <path class="st0" d="M44.46,24.76v1182.05" vector-effect="none"/>
      <path class="st0" d="M1935.17,231.69h-39.69" vector-effect="none"/>
      <path class="st0" d="M1935.17,231.69v340.16" vector-effect="none"/>
      <path class="st0" d="M1935.17,571.85h-39.69" vector-effect="none"/>
      <path class="st0" d="M1895.49,231.69v340.16" vector-effect="none"/>
      <path class="st0" d="M1864.31,231.69h-39.69" vector-effect="none"/>
      <path class="st0" d="M1864.31,231.69v340.16" vector-effect="none"/>
      <path class="st0" d="M1864.31,571.85h-39.69" vector-effect="none"/>
      <path class="st0" d="M1824.62,231.69v340.16" vector-effect="none"/>
      <path class="st0" d="M1793.44,231.69h-39.69" vector-effect="none"/>
      <path class="st0" d="M1793.44,231.69v340.16" vector-effect="none"/>
      <path class="st0" d="M1793.44,571.85h-39.69" vector-effect="none"/>
      <path class="st0" d="M1753.76,231.69v340.16" vector-effect="none"/>
      <path class="st0" d="M1935.17,655.47h-39.69" vector-effect="none"/>
      <path class="st0" d="M1935.17,655.47v340.16" vector-effect="none"/>
      <path class="st0" d="M1935.17,995.63h-39.69" vector-effect="none"/>
      <path class="st0" d="M1895.49,655.47v340.16" vector-effect="none"/>
      <path class="st0" d="M1864.31,655.47h-39.69" vector-effect="none"/>
      <path class="st0" d="M1864.31,655.47v340.16" vector-effect="none"/>
      <path class="st0" d="M1864.31,995.63h-39.69" vector-effect="none"/>
      <path class="st0" d="M1824.62,655.47v340.16" vector-effect="none"/>
      <path class="st0" d="M1793.44,655.47h-39.69" vector-effect="none"/>
      <path class="st0" d="M1793.44,655.47v340.16" vector-effect="none"/>
      <path class="st0" d="M1793.44,995.63h-39.69" vector-effect="none"/>
      <path class="st0" d="M1753.76,655.47v340.16" vector-effect="none"/>
      <path class="st0" d="M1490.13,24.76v467.72" vector-effect="none"/>
      <path class="st0" d="M1507.14,24.76v467.72" vector-effect="none"/>
      <path class="st0" d="M1980.53,1082.09H747.46" vector-effect="none"/>
      <path class="st0" d="M1980.53,1099.09H747.46" vector-effect="none"/>
      <path class="st0" d="M747.46,1082.09v124.72" vector-effect="none"/>
      <path class="st0" d="M764.46,1082.09v124.72" vector-effect="none"/>
      <path class="st0" d="M642.58,532.17v411.02" vector-effect="none"/>
      <path class="st0" d="M659.58,532.17v411.02" vector-effect="none"/>
      <path class="st0" d="M764.46,532.17h-121.89" vector-effect="none"/>
      <path class="st0" d="M764.46,549.17h-121.89" vector-effect="none"/>
      <path class="st0" d="M1980.53,132.48h-272.13" vector-effect="none"/>
      <path class="st0" d="M1980.53,149.49h-272.13" vector-effect="none"/>
      <path class="st0" d="M517.85,750.43h-70.87" vector-effect="none"/>
      <path class="st0" d="M517.85,750.43v141.73" vector-effect="none"/>
      <path class="st0" d="M565.99,892.17h-48.14" vector-effect="none"/>
      <path class="st0" d="M565.99,892.17v85.04" vector-effect="none"/>
      <path class="st0" d="M396.01,892.17v85.04" vector-effect="none"/>
      <path class="st0" d="M446.98,892.17h-50.98" vector-effect="none"/>
      <path class="st0" d="M446.98,750.43v141.73" vector-effect="none"/>
      <path class="st0" d="M396.01,1048.07v70.87" vector-effect="none"/>
      <path class="st0" d="M565.99,1048.07v70.87" vector-effect="none"/>
      <path class="st0" d="M565.99,1118.94h-26.88" vector-effect="none"/>
      <path class="st0" d="M482.42,1147.28c22.31,0,43.31-10.5,56.69-28.35" vector-effect="none"/>
      <path class="st0" d="M425.72,1118.94c13.38,17.84,34.39,28.35,56.69,28.35" vector-effect="none"/>
      <path class="st0" d="M425.72,1118.94h-29.72" vector-effect="none"/>
      <path class="st0" d="M534.86,537.83v70.87" vector-effect="none"/>
      <path class="st0" d="M577.38,537.83h-42.52" vector-effect="none"/>
      <path class="st0" d="M577.38,537.83v70.87" vector-effect="none"/>
      <path class="st0" d="M577.38,608.7h-42.52" vector-effect="none"/>
      <path class="st0" d="M534.86,98.46v99.21" vector-effect="none"/>
      <path class="st0" d="M577.38,98.46h-42.52" vector-effect="none"/>
      <path class="st0" d="M577.38,98.46v99.21" vector-effect="none"/>
      <path class="st0" d="M577.38,197.68h-42.52" vector-effect="none"/>
      <path class="st0" d="M536.28,532.17v70.87" vector-effect="none"/>
      <path class="st0" d="M536.28,603.03h-127.56" vector-effect="none"/>
      <path class="st0" d="M408.72,532.17v70.87" vector-effect="none"/>
      <path class="st0" d="M536.28,532.17h-127.56" vector-effect="none"/>
      <path class="st0" d="M408.72,135.31v70.87" vector-effect="none"/>
      <path class="st0" d="M536.28,135.31h-127.56" vector-effect="none"/>
      <path class="st0" d="M536.28,135.31v70.87" vector-effect="none"/>
      <path class="st0" d="M536.28,206.18h-127.56" vector-effect="none"/>
      <path class="st0" d="M390.29,457.05h102.05" vector-effect="none"/>
      <path class="st0" d="M390.29,457.05v-175.75" vector-effect="none"/>
      <path class="st0" d="M492.34,281.3h-102.05" vector-effect="none"/>
      <path class="st0" d="M492.34,217.52v63.78" vector-effect="none"/>
      <path class="st0" d="M574.54,210.67l-82.2,6.85" vector-effect="none"/>
      <path class="st0" d="M583.05,138.15h-8.5" vector-effect="none"/>
      <path class="st0" d="M583.05,210.91l-79.37,6.61" vector-effect="none"/>
      <path class="st0" d="M503.68,217.52v303.31" vector-effect="none"/>
      <path class="st0" d="M583.05,527.44l-79.37-6.61" vector-effect="none"/>
      <path class="st0" d="M583.05,600.2h-8.5" vector-effect="none"/>
      <path class="st0" d="M574.54,527.68l-82.2-6.85" vector-effect="none"/>
      <path class="st0" d="M492.34,457.05v63.78" vector-effect="none"/>
      <path class="st0" d="M523.52,468.39h99.21" vector-effect="none"/>
      <path class="st0" d="M523.52,468.39v-198.43" vector-effect="none"/>
      <path class="st0" d="M622.73,269.96h-99.21" vector-effect="none"/>
      <path class="st0" d="M622.73,468.39v-198.43" vector-effect="none"/>
      <path class="st0" d="M583.05,483.97h48.19" vector-effect="none"/>
      <path class="st0" d="M583.05,483.97v116.23" vector-effect="none"/>
      <path class="st0" d="M574.54,455.62v144.58" vector-effect="none"/>
      <path class="st0" d="M489.5,455.62h85.04" vector-effect="none"/>
      <path class="st0" d="M489.5,285.56h85.04" vector-effect="none"/>
      <path class="st0" d="M583.05,140.98h-8.5" vector-effect="none"/>
      <path class="st0" d="M583.05,257.21h48.19" vector-effect="none"/>
      <path class="st0" d="M631.24,257.21v7.09" vector-effect="none"/>
      <path class="st0" d="M631.24,264.3h79.37" vector-effect="none"/>
      <path class="st0" d="M710.61,264.3v212.58" vector-effect="none"/>
      <path class="st0" d="M631.24,476.88h79.37" vector-effect="none"/>
      <path class="st0" d="M631.24,476.88v7.09" vector-effect="none"/>
      <path class="st0" d="M515.02,454.21h45.35" vector-effect="none"/>
      <path class="st0" d="M515.02,454.21v66.61" vector-effect="none"/>
      <path class="st0" d="M583.05,527.63l-68.03-6.8" vector-effect="none"/>
      <path class="st0" d="M574.54,527.63l-68.03-6.8" vector-effect="none"/>
      <path class="st0" d="M506.51,479.72v41.1" vector-effect="none"/>
      <path class="st0" d="M489.5,479.72h17.01" vector-effect="none"/>
      <path class="st0" d="M478.17,411.69h11.34" vector-effect="none"/>
      <path class="st0" d="M478.17,411.69v-85.04" vector-effect="none"/>
      <path class="st0" d="M489.5,326.65h-11.34" vector-effect="none"/>
      <path class="st0" d="M489.5,326.65v-68.03" vector-effect="none"/>
      <path class="st0" d="M506.51,258.62h-17.01" vector-effect="none"/>
      <path class="st0" d="M506.51,217.52v41.1" vector-effect="none"/>
      <path class="st0" d="M574.54,210.72l-68.03,6.8" vector-effect="none"/>
      <path class="st0" d="M574.54,138.15v72.57" vector-effect="none"/>
      <path class="st0" d="M583.05,138.15v72.57" vector-effect="none"/>
      <path class="st0" d="M583.05,210.72l-68.03,6.8" vector-effect="none"/>
      <path class="st0" d="M515.02,217.52v66.61" vector-effect="none"/>
      <path class="st0" d="M560.37,284.13h-45.35" vector-effect="none"/>
      <path class="st0" d="M560.37,326.65v-42.52" vector-effect="none"/>
      <path class="st0" d="M585.88,326.65h-25.51" vector-effect="none"/>
      <path class="st0" d="M585.88,411.69v-85.04" vector-effect="none"/>
      <path class="st0" d="M560.37,411.69h25.51" vector-effect="none"/>
      <path class="st0" d="M560.37,454.21v-42.52" vector-effect="none"/>
      <polygon class="st0" points="1460.37 122.56 1460.37 406.03 1349.82 406.03 1349.82 428.71 1332.81 428.71 1332.81 85.71 1349.82 85.71 1349.82 122.56 1460.37 122.56"/>
      <rect class="st0" x="1536.91" y="88.55" width="141.73" height="340.16"/>
      <polygon class="st0" points="1256.28 676.74 1256.28 685.24 1183.76 685.24 1176.91 767.45 1135.77 767.45 1135.77 770.28 1113.08 770.28 1113.08 869.49 937.43 869.49 937.43 770.28 914.74 770.28 914.74 767.45 873.6 767.45 866.75 685.24 794.23 685.24 794.23 676.74 913.37 676.74 913.37 628.55 920.46 628.55 920.46 549.18 1132.89 549.18 1132.89 628.55 1139.98 628.55 1139.98 676.74 1256.28 676.74"/>
      <polygon class="st0" points="1256.28 226.03 1256.28 234.53 1183.76 234.53 1176.91 316.74 1135.77 316.74 1135.77 319.57 1113.08 319.57 1113.08 418.78 937.43 418.78 937.43 319.57 914.74 319.57 914.74 316.74 873.6 316.74 866.75 234.53 794.23 234.53 794.23 226.03 913.37 226.03 913.37 177.84 920.46 177.84 920.46 98.47 1132.89 98.47 1132.89 177.84 1139.98 177.84 1139.98 226.03 1256.28 226.03"/>
      <path class="st0" d="M668.09,622.87v-51.02" vector-effect="none"/>
      <path class="st0" d="M668.09,571.85h65.2" vector-effect="none"/>
      <path class="st0" d="M733.28,622.87v-51.02" vector-effect="none"/>
      <path class="st0" d="M668.09,622.87h65.2" vector-effect="none"/>
      <path class="st0" d="M733.28,912.01v-107.72" vector-effect="none"/>
      <path class="st0" d="M668.09,912.01h65.2" vector-effect="none"/>
      <path class="st0" d="M668.09,912.01v-107.72" vector-effect="none"/>
      <path class="st0" d="M668.09,804.29h65.2" vector-effect="none"/>
      <polygon class="st0" points="1668.72 543.51 1668.72 875.16 1660.22 875.16 1597.85 862.41 1597.85 889.34 1518.48 889.34 1518.48 880.83 1348.4 788.71 1348.4 632.8 1518.48 540.67 1518.48 532.17 1597.85 532.17 1597.85 556.26 1660.22 543.51 1668.72 543.51"/>
      <path class="st0" d="M257.06,892.17h-48.14" vector-effect="none"/>
      <path class="st0" d="M257.06,892.17v-141.73" vector-effect="none"/>
      <path class="st0" d="M327.93,750.43h-70.87" vector-effect="none"/>
      <path class="st0" d="M327.93,892.17v-141.73" vector-effect="none"/>
      <path class="st0" d="M378.9,892.17h-50.98" vector-effect="none"/>
      <path class="st0" d="M378.9,892.17v85.04" vector-effect="none"/>
      <path class="st0" d="M208.92,892.17v85.04" vector-effect="none"/>
      <path class="st0" d="M208.92,1048.07v70.87" vector-effect="none"/>
      <path class="st0" d="M378.9,1048.07v70.87" vector-effect="none"/>
      <path class="st0" d="M378.9,1118.94h-29.72" vector-effect="none"/>
      <path class="st0" d="M349.19,1118.94c-13.38,17.84-34.39,28.35-56.69,28.35" vector-effect="none"/>
      <path class="st0" d="M292.5,1147.28c-22.31,0-43.31-10.5-56.69-28.35" vector-effect="none"/>
      <path class="st0" d="M235.8,1118.94h-26.88" vector-effect="none"/>
      <path class="st0" d="M240.06,197.68v-99.21" vector-effect="none"/>
      <path class="st0" d="M240.06,197.68h-42.52" vector-effect="none"/>
      <path class="st0" d="M240.06,98.46h-42.52" vector-effect="none"/>
      <path class="st0" d="M240.06,608.7v-70.87" vector-effect="none"/>
      <path class="st0" d="M240.06,608.7h-42.52" vector-effect="none"/>
      <path class="st0" d="M240.06,537.83h-42.52" vector-effect="none"/>
      <path class="st0" d="M155.02,597.36v5.67" vector-effect="none"/>
      <path class="st0" d="M155.02,597.36h-56.69" vector-effect="none"/>
      <path class="st0" d="M98.32,597.36v-65.2" vector-effect="none"/>
      <path class="st0" d="M149.35,532.17h-51.02" vector-effect="none"/>
      <path class="st0" d="M149.35,206.18v325.98" vector-effect="none"/>
      <path class="st0" d="M149.35,206.18h-51.02" vector-effect="none"/>
      <path class="st0" d="M98.32,206.18v-76.54" vector-effect="none"/>
      <path class="st0" d="M155.02,129.65h-56.69" vector-effect="none"/>
      <path class="st0" d="M155.02,135.31v-5.67" vector-effect="none"/>
      <path class="st0" d="M197.54,135.31h-42.52" vector-effect="none"/>
      <path class="st0" d="M197.54,206.18h-42.52" vector-effect="none"/>
      <path class="st0" d="M155.02,206.18v325.98" vector-effect="none"/>
      <path class="st0" d="M197.54,532.17h-42.52" vector-effect="none"/>
      <path class="st0" d="M197.54,603.03h-42.52" vector-effect="none"/>
      <path class="st0" d="M1623.36,977.2H92.65" vector-effect="none"/>
      <path class="st0" d="M1623.36,977.2v70.87" vector-effect="none"/>
      <path class="st0" d="M1623.36,1048.07H92.65" vector-effect="none"/>
      <path class="st0" d="M92.65,977.2v70.87" vector-effect="none"/>
      <path class="st0" d="M574.54,138.15v2.83" vector-effect="none"/>
      <path class="st0" d="M574.54,140.98v69.68" vector-effect="none"/>
      <path class="st0" d="M574.54,210.67v74.89" vector-effect="none"/>
      <path class="st0" d="M583.05,138.15v2.83" vector-effect="none"/>
      <path class="st0" d="M583.05,140.98v69.92" vector-effect="none"/>
      <path class="st0" d="M583.05,210.91v46.31" vector-effect="none"/>
      <path class="st0" d="M489.5,285.56v126.13" vector-effect="none"/>
      <path class="st0" d="M489.5,411.69v43.93" vector-effect="none"/>
      <path class="st0" d="M489.5,479.72v-24.11" vector-effect="none"/>
      <path class="st0" d="M197.54,197.68v-62.36" vector-effect="none"/>
      <path class="st0" d="M197.54,135.31v-36.85" vector-effect="none"/>
      <path class="st0" d="M197.54,197.68v8.5" vector-effect="none"/>
      <path class="st0" d="M197.54,608.7v-5.67" vector-effect="none"/>
      <path class="st0" d="M197.54,603.03v-65.2" vector-effect="none"/>
      <path class="st0" d="M197.54,532.17v5.67" vector-effect="none"/>
      <rect class="st0" x="1507.14" y="41.77" width="201.26" height="433.7"/>
    </g>
  </g>
</svg>