<?xml version="1.0" encoding="UTF-8"?>
<svg id="Layer_1" xmlns="http://www.w3.org/2000/svg" version="1.1" xmlns:cc="http://creativecommons.org/ns#" xmlns:dc="http://purl.org/dc/elements/1.1/" xmlns:inkscape="http://www.inkscape.org/namespaces/inkscape" xmlns:rdf="http://www.w3.org/1999/02/22-rdf-syntax-ns#" xmlns:svg="http://www.w3.org/2000/svg" viewBox="0 0 1643.3 969.68">
  <!-- Generator: Adobe Illustrator 29.4.0, SVG Export Plug-In . SVG Version: 2.1.0 Build 152)  -->
  <defs>
    <style>
      .st0 {
        stroke: #000;
      }

      .st0, .st1 {
        fill: none;
        stroke-linecap: round;
        stroke-linejoin: round;
        stroke-width: .14px;
      }

      .st2 {
        fill: red;
        font-family: ArialMT, Arial;
        font-size: 17.01px;
        isolation: isolate;
      }

      .st1 {
        stroke: blue;
      }
    </style>
  </defs>
  <path class="st0" d="M28.4,941.34h283.46v-28.35H28.4v28.35Z"/>
  <text class="st2" transform="translate(79.86 933.26)"><tspan x="0" y="0">100.0mm, burn:0.02mm</tspan></text>
  <path class="st0" d="M36.91,900.12h24.04c.06,0,0-.06,0,0v8.45s.03.06.06.06h17.01s.06-.03.06-.06v-8.45c0-.06-.06,0,0,0h16.89c.06,0,0-.06,0,0v8.45s.03.06.06.06h17.01s.06-.03.06-.06v-8.45c0-.06-.06,0,0,0h16.89c.06,0,0-.06,0,0v8.45s.03.06.06.06h17.01s.06-.03.06-.06v-8.45c0-.06-.06,0,0,0h16.89c.06,0,0-.06,0,0v8.45s.03.06.06.06h17.01s.06-.03.06-.06v-8.45c0-.06-.06,0,0,0h16.89c.06,0,0-.06,0,0v8.45s.03.06.06.06h17.01s.06-.03.06-.06v-8.45c0-.06-.06,0,0,0h16.89c.06,0,0-.06,0,0v8.45s.03.06.06.06h17.01s.06-.03.06-.06v-8.45c0-.06-.06,0,0,0h16.89c.06,0,0-.06,0,0v8.45s.03.06.06.06h17.01s.06-.03.06-.06v-8.45c0-.06-.06,0,0,0h16.89c.06,0,0-.06,0,0v8.45s.03.06.06.06h17.01s.06-.03.06-.06v-8.45c0-.06-.06,0,0,0h16.89c.06,0,0-.06,0,0v8.45s.03.06.06.06h17.01s.06-.03.06-.06v-8.45c0-.06-.06,0,0,0h16.89c.06,0,0-.06,0,0v8.45s.03.06.06.06h17.01s.06-.03.06-.06v-8.45c0-.06-.06,0,0,0h16.89c.06,0,0-.06,0,0v8.45s.03.06.06.06h17.01s.06-.03.06-.06v-8.45c0-.06-.06,0,0,0h16.89c.06,0,0-.06,0,0v8.45s.03.06.06.06h17.01s.06-.03.06-.06v-8.45c0-.06-.06,0,0,0h16.89c.06,0,0-.06,0,0v8.45s.03.06.06.06h17.01s.06-.03.06-.06v-8.45c0-.06-.06,0,0,0h16.89c.06,0,0-.06,0,0v8.45s.03.06.06.06h17.01s.06-.03.06-.06v-8.45c0-.06-.06,0,0,0h24.04s.06-.03.06-.06v-16.95c0-.06-.06,0,0,0h8.45s.06-.03.06-.06v-17.01s-.03-.06-.06-.06h-8.45c-.06,0,0,.06,0,0v-16.89c0-.06-.06,0,0,0h8.45s.06-.03.06-.06v-17.01s-.03-.06-.06-.06h-8.45c-.06,0,0,.06,0,0v-16.95s-.03-.06-.06-.06H36.91s-.06.03-.06.06v16.95c0,.06.06,0,0,0h-8.45s-.06.03-.06.06v17.01s.03.06.06.06h8.45c.06,0,0-.06,0,0v16.89c0,.06.06,0,0,0h-8.45s-.06.03-.06.06v17.01s.03.06.06.06h8.45c.06,0,0-.06,0,0v16.95s.03.06.06.06Z"/>
  <path class="st0" d="M1113.61,802.21h24.04c.06,0,0-.06,0,0v8.45s.03.06.06.06h17.01s.06-.03.06-.06v-8.45c0-.06-.06,0,0,0h16.89c.06,0,0-.06,0,0v8.45s.03.06.06.06h17.01s.06-.03.06-.06v-8.45c0-.06-.06,0,0,0h16.89c.06,0,0-.06,0,0v8.45s.03.06.06.06h17.01s.06-.03.06-.06v-8.45c0-.06-.06,0,0,0h16.89c.06,0,0-.06,0,0v8.45s.03.06.06.06h17.01s.06-.03.06-.06v-8.45c0-.06-.06,0,0,0h16.89c.06,0,0-.06,0,0v8.45s.03.06.06.06h17.01s.06-.03.06-.06v-8.45c0-.06-.06,0,0,0h16.89c.06,0,0-.06,0,0v8.45s.03.06.06.06h17.01s.06-.03.06-.06v-8.45c0-.06-.06,0,0,0h16.89c.06,0,0-.06,0,0v8.45s.03.06.06.06h17.01s.06-.03.06-.06v-8.45c0-.06-.06,0,0,0h16.89c.06,0,0-.06,0,0v8.45s.03.06.06.06h17.01s.06-.03.06-.06v-8.45c0-.06-.06,0,0,0h16.89c.06,0,0-.06,0,0v8.45s.03.06.06.06h17.01s.06-.03.06-.06v-8.45c0-.06-.06,0,0,0h16.89c.06,0,0-.06,0,0v8.45s.03.06.06.06h17.01s.06-.03.06-.06v-8.45c0-.06-.06,0,0,0h16.89c.06,0,0-.06,0,0v8.45s.03.06.06.06h17.01s.06-.03.06-.06v-8.45c0-.06-.06,0,0,0h16.89c.06,0,0-.06,0,0v8.45s.03.06.06.06h17.01s.06-.03.06-.06v-8.45c0-.06-.06,0,0,0h16.89c.06,0,0-.06,0,0v8.45s.03.06.06.06h17.01s.06-.03.06-.06v-8.45c0-.06-.06,0,0,0h16.89c.06,0,0-.06,0,0v8.45s.03.06.06.06h17.01s.06-.03.06-.06v-8.45c0-.06-.06,0,0,0h24.04s.06-.03.06-.06v-16.95c0-.06-.06,0,0,0h8.45s.06-.03.06-.06v-17.01s-.03-.06-.06-.06h-8.45c-.06,0,0,.06,0,0v-16.89c0-.06-.06,0,0,0h8.45s.06-.03.06-.06v-17.01s-.03-.06-.06-.06h-8.45c-.06,0,0,.06,0,0v-16.95s-.03-.06-.06-.06h-507.4s-.06.03-.06.06v16.95c0,.06.06,0,0,0h-8.45s-.06.03-.06.06v17.01s.03.06.06.06h8.45c.06,0,0-.06,0,0v16.89c0,.06.06,0,0,0h-8.45s-.06.03-.06.06v17.01s.03.06.06.06h8.45c.06,0,0-.06,0,0v16.95s.03.06.06.06Z"/>
  <path class="st1" d="M646.25,776.64v8.45c0,.06.06,0,0,0h-8.39c-.06,0,0,.06,0,0v-16.89c0-.06-.06,0,0,0h8.39c.06,0,0-.06,0,0v8.45Z"/>
  <path class="st1" d="M646.25,742.63v8.45c0,.06.06,0,0,0h-8.39c-.06,0,0,.06,0,0v-16.89c0-.06-.06,0,0,0h8.39c.06,0,0-.06,0,0v8.45Z"/>
  <path class="st1" d="M1026.54,776.64v8.45c0,.06.06,0,0,0h-8.39c-.06,0,0,.06,0,0v-16.89c0-.06-.06,0,0,0h8.39c.06,0,0-.06,0,0v8.45Z"/>
  <path class="st1" d="M1026.54,742.63v8.45c0,.06.06,0,0,0h-8.39c-.06,0,0,.06,0,0v-16.89c0-.06-.06,0,0,0h8.39c.06,0,0-.06,0,0v8.45Z"/>
  <path class="st0" d="M1101.49,734.18s.06-.03.06-.06v-17.01s-.03-.06-.06-.06h-538.58s-.06.03-.06.06v17.01s.03.06.06.06h8.45v16.89h-8.45s-.06.03-.06.06v17.01s.03.06.06.06h8.45v16.89h-8.45s-.06.03-.06.06v17.01s.03.06.06.06h33.14v8.45s.02.06.06.06h17.01s.06-.03.06-.06v-8.45h33.11v8.5h371.87v-8.5h33.08v8.45s.03.06.06.06h17.01s.06-.03.06-.06v-8.45h33.14s.06-.03.06-.06v-17.01s-.03-.06-.06-.06h-8.45v-16.89h8.45s.06-.03.06-.06v-17.01s-.03-.06-.06-.06h-8.45v-16.89h8.45Z"/>
  <path class="st1" d="M104.66,776.64v8.45c0,.06.06,0,0,0h-8.39c-.06,0,0,.06,0,0v-16.89c0-.06-.06,0,0,0h8.39c.06,0,0-.06,0,0v8.45Z"/>
  <path class="st1" d="M104.66,742.63v8.45c0,.06.06,0,0,0h-8.39c-.06,0,0,.06,0,0v-16.89c0-.06-.06,0,0,0h8.39c.06,0,0-.06,0,0v8.45Z"/>
  <path class="st1" d="M484.95,776.64v8.45c0,.06.06,0,0,0h-8.39c-.06,0,0,.06,0,0v-16.89c0-.06-.06,0,0,0h8.39c.06,0,0-.06,0,0v8.45Z"/>
  <path class="st1" d="M484.95,742.63v8.45c0,.06.06,0,0,0h-8.39c-.06,0,0,.06,0,0v-16.89c0-.06-.06,0,0,0h8.39c.06,0,0-.06,0,0v8.45Z"/>
  <path class="st0" d="M559.9,734.18s.06-.03.06-.06v-17.01s-.03-.06-.06-.06H21.32s-.06.03-.06.06v17.01s.03.06.06.06h8.45v16.89h-8.45s-.06.03-.06.06v17.01s.03.06.06.06h8.45v16.89h-8.45s-.06.03-.06.06v17.01s.03.06.06.06h33.14v8.45s.02.06.06.06h17.01s.06-.03.06-.06v-8.45h33.11v8.5h371.87v-8.5h33.08v8.45s.03.06.06.06h17.01s.06-.03.06-.06v-8.45h33.14s.06-.03.06-.06v-17.01s-.03-.06-.06-.06h-8.45v-16.89h8.45s.06-.03.06-.06v-17.01s-.03-.06-.06-.06h-8.45v-16.89h8.45Z"/>
  <path class="st0" d="M1610.36,849.1s.06-.03.06-.06v-17.01s-.03-.06-.06-.06h-8.45v-16.95s-.03-.06-.06-.06h-219.5c0,18.89-15.31,34.2-34.2,34.2s-34.2-15.31-34.2-34.2h-219.5s-.06.03-.06.06v16.95h-8.45s-.06.03-.06.06v17.01s.03.06.06.06h8.45v16.89h-8.45s-.06.03-.06.06v17.01s.03.06.06.06h8.45v16.95s.03.06.06.06h24.04v8.45s.03.06.06.06h17.01s.06-.03.06-.06v-8.45h16.89v8.45s.03.06.06.06h17.01s.06-.03.06-.06v-8.45h16.89v8.45s.03.06.06.06h17.01s.06-.03.06-.06v-8.45h16.89v8.45s.03.06.06.06h17.01s.06-.03.06-.06v-8.45h16.89v8.45s.03.06.06.06h17.01s.06-.03.06-.06v-8.45h16.89v8.45s.03.06.06.06h17.01s.06-.03.06-.06v-8.45h16.89v8.45s.03.06.06.06h17.01s.06-.03.06-.06v-8.45h16.89v8.45s.03.06.06.06h17.01s.06-.03.06-.06v-8.45h16.89v8.45s.03.06.06.06h17.01s.06-.03.06-.06v-8.45h16.89v8.45s.03.06.06.06h17.01s.06-.03.06-.06v-8.45h16.89v8.45s.03.06.06.06h17.01s.06-.03.06-.06v-8.45h16.89v8.45s.03.06.06.06h17.01s.06-.03.06-.06v-8.45h16.89v8.45s.03.06.06.06h17.01s.06-.03.06-.06v-8.45h16.89v8.45s.03.06.06.06h17.01s.06-.03.06-.06v-8.45h24.04s.06-.03.06-.06v-16.95h8.45s.06-.03.06-.06v-17.01s-.03-.06-.06-.06h-8.45v-16.89h8.45Z"/>
  <path class="st1" d="M611.09,708.53h-8.45c-.06,0,0,.06,0,0v-8.39c0-.06-.06,0,0,0h16.89c.06,0,0-.06,0,0v8.39c0,.06.06,0,0,0h-8.45Z"/>
  <path class="st1" d="M645.11,708.53h-8.45c-.06,0,0,.06,0,0v-8.39c0-.06-.06,0,0,0h16.89c.06,0,0-.06,0,0v8.39c0,.06.06,0,0,0h-8.45Z"/>
  <path class="st1" d="M679.12,708.53h-8.45c-.06,0,0,.06,0,0v-8.39c0-.06-.06,0,0,0h16.89c.06,0,0-.06,0,0v8.39c0,.06.06,0,0,0h-8.45Z"/>
  <path class="st1" d="M713.14,708.53h-8.45c-.06,0,0,.06,0,0v-8.39c0-.06-.06,0,0,0h16.89c.06,0,0-.06,0,0v8.39c0,.06.06,0,0,0h-8.45Z"/>
  <path class="st1" d="M747.16,708.53h-8.45c-.06,0,0,.06,0,0v-8.39c0-.06-.06,0,0,0h16.89c.06,0,0-.06,0,0v8.39c0,.06.06,0,0,0h-8.45Z"/>
  <path class="st1" d="M781.17,708.53h-8.45c-.06,0,0,.06,0,0v-8.39c0-.06-.06,0,0,0h16.89c.06,0,0-.06,0,0v8.39c0,.06.06,0,0,0h-8.45Z"/>
  <path class="st1" d="M815.19,708.53h-8.45c-.06,0,0,.06,0,0v-8.39c0-.06-.06,0,0,0h16.89c.06,0,0-.06,0,0v8.39c0,.06.06,0,0,0h-8.45Z"/>
  <path class="st1" d="M849.2,708.53h-8.45c-.06,0,0,.06,0,0v-8.39c0-.06-.06,0,0,0h16.89c.06,0,0-.06,0,0v8.39c0,.06.06,0,0,0h-8.45Z"/>
  <path class="st1" d="M883.22,708.53h-8.45c-.06,0,0,.06,0,0v-8.39c0-.06-.06,0,0,0h16.89c.06,0,0-.06,0,0v8.39c0,.06.06,0,0,0h-8.45Z"/>
  <path class="st1" d="M917.23,708.53h-8.45c-.06,0,0,.06,0,0v-8.39c0-.06-.06,0,0,0h16.89c.06,0,0-.06,0,0v8.39c0,.06.06,0,0,0h-8.45Z"/>
  <path class="st1" d="M951.25,708.53h-8.45c-.06,0,0,.06,0,0v-8.39c0-.06-.06,0,0,0h16.89c.06,0,0-.06,0,0v8.39c0,.06.06,0,0,0h-8.45Z"/>
  <path class="st1" d="M985.27,708.53h-8.45c-.06,0,0,.06,0,0v-8.39c0-.06-.06,0,0,0h16.89c.06,0,0-.06,0,0v8.39c0,.06.06,0,0,0h-8.45Z"/>
  <path class="st1" d="M1019.28,708.53h-8.45c-.06,0,0,.06,0,0v-8.39c0-.06-.06,0,0,0h16.89c.06,0,0-.06,0,0v8.39c0,.06.06,0,0,0h-8.45Z"/>
  <path class="st1" d="M1053.3,708.53h-8.45c-.06,0,0,.06,0,0v-8.39c0-.06-.06,0,0,0h16.89c.06,0,0-.06,0,0v8.39c0,.06.06,0,0,0h-8.45Z"/>
  <path class="st0" d="M1085.9,625.13h-24.09s-.06.03-.06.06v8.45c0,.06.06,0,0,0h-16.89c-.06,0,0,.06,0,0v-8.45s-.03-.06-.06-.06h-17.01s-.06.03-.06.06v8.45c0,.06.06,0,0,0h-16.89c-.06,0,0,.06,0,0v-8.45s-.03-.06-.06-.06h-17.01s-.06.03-.06.06v8.45c0,.06.06,0,0,0h-16.89c-.06,0,0,.06,0,0v-8.45s-.03-.06-.06-.06h-17.01s-.06.03-.06.06v8.45c0,.06.06,0,0,0h-16.89c-.06,0,0,.06,0,0v-8.45s-.03-.06-.06-.06h-17.01s-.06.03-.06.06v8.45c0,.06.06,0,0,0h-16.89c-.06,0,0,.06,0,0v-8.45s-.03-.06-.06-.06h-17.01s-.06.03-.06.06v8.45c0,.06.06,0,0,0h-16.89c-.06,0,0,.06,0,0v-8.45s-.03-.06-.06-.06h-17.01s-.06.03-.06.06v8.45c0,.06.06,0,0,0h-16.89c-.06,0,0,.06,0,0v-8.45s-.03-.06-.06-.06h-17.01s-.06.03-.06.06v8.45c0,.06.06,0,0,0h-16.89c-.06,0,0,.06,0,0v-8.45s-.03-.06-.06-.06h-17.01s-.06.03-.06.06v8.45c0,.06.06,0,0,0h-16.89c-.06,0,0,.06,0,0v-8.45s-.03-.06-.06-.06h-17.01s-.06.03-.06.06v8.45c0,.06.06,0,0,0h-16.89c-.06,0,0,.06,0,0v-8.45s-.03-.06-.06-.06h-17.01s-.06.03-.06.06v8.45c0,.06.06,0,0,0h-16.89c-.06,0,0,.06,0,0v-8.45s-.03-.06-.06-.06h-17.01s-.06.03-.06.06v8.45c0,.06.06,0,0,0h-16.89c-.06,0,0,.06,0,0v-8.45s-.03-.06-.06-.06h-17.01s-.06.03-.06.06v8.45c0,.06.06,0,0,0h-16.89c-.06,0,0,.06,0,0v-8.45s-.03-.06-.06-.06h-17.01s-.06.03-.06.06v8.45c0,.06.06,0,0,0h-16.89c-.06,0,0,.06,0,0v-8.45s-.03-.06-.06-.06h-24.09"/>
  <line class="st0" x1="569.99" y1="625.13" x2="578.49" y2="625.13"/>
  <line class="st0" x1="1085.9" y1="625.13" x2="1094.4" y2="625.13"/>
  <line class="st0" x1="569.93" y1="700.08" x2="569.93" y2="708.58"/>
  <path class="st0" d="M569.93,633.69v24.69s.03.06.06.06h8.45c.06,0,0-.06,0,0v16.89c0,.06.06,0,0,0h-8.45s-.06.02-.06.06v24.69"/>
  <line class="st0" x1="569.93" y1="625.19" x2="569.93" y2="633.69"/>
  <path class="st0" d="M1094.46,708.58v-33.19s-.03-.06-.06-.06h-8.45c-.06,0,0,.06,0,0v-16.89c0-.06-.06,0,0,0h8.45s.06-.03.06-.06v-33.2"/>
  <line class="st0" x1="569.93" y1="708.58" x2="1094.46" y2="708.58"/>
  <path class="st1" d="M832.2,674.38c-18.89,0-34.2,15.31-34.2,34.2h68.41c0-18.89-15.31-34.2-34.2-34.2Z"/>
  <path class="st0" d="M1084.42,849.1s.06-.03.06-.06v-17.01s-.03-.06-.06-.06h-8.45v-16.95s-.03-.06-.06-.06h-219.5c0,18.89-15.31,34.2-34.2,34.2s-34.2-15.31-34.2-34.2h-219.5s-.06.03-.06.06v16.95h-8.45s-.06.03-.06.06v17.01s.03.06.06.06h8.45v16.89h-8.45s-.06.03-.06.06v17.01s.03.06.06.06h8.45v16.95s.03.06.06.06h24.04v8.45s.03.06.06.06h17.01s.06-.03.06-.06v-8.45h16.89v8.45s.03.06.06.06h17.01s.06-.03.06-.06v-8.45h16.89v8.45s.03.06.06.06h17.01s.06-.03.06-.06v-8.45h16.89v8.45s.03.06.06.06h17.01s.06-.03.06-.06v-8.45h16.89v8.45s.03.06.06.06h17.01s.06-.03.06-.06v-8.45h16.89v8.45s.03.06.06.06h17.01s.06-.03.06-.06v-8.45h16.89v8.45s.03.06.06.06h17.01s.06-.03.06-.06v-8.45h16.89v8.45s.03.06.06.06h17.01s.06-.03.06-.06v-8.45h16.89v8.45s.03.06.06.06h17.01s.06-.03.06-.06v-8.45h16.89v8.45s.03.06.06.06h17.01s.06-.03.06-.06v-8.45h16.89v8.45s.03.06.06.06h17.01s.06-.03.06-.06v-8.45h16.89v8.45s.03.06.06.06h17.01s.06-.03.06-.06v-8.45h16.89v8.45s.03.06.06.06h17.01s.06-.03.06-.06v-8.45h16.89v8.45s.03.06.06.06h17.01s.06-.03.06-.06v-8.45h24.04s.06-.03.06-.06v-16.95h8.45s.06-.03.06-.06v-17.01s-.03-.06-.06-.06h-8.45v-16.89h8.45Z"/>
  <path class="st1" d="M69.51,708.56h-8.45c-.06,0,0,.06,0,0v-8.39c0-.06-.06,0,0,0h16.89c.06,0,0-.06,0,0v8.39c0,.06.06,0,0,0h-8.45Z"/>
  <path class="st1" d="M103.52,708.56h-8.45c-.06,0,0,.06,0,0v-8.39c0-.06-.06,0,0,0h16.89c.06,0,0-.06,0,0v8.39c0,.06.06,0,0,0h-8.45Z"/>
  <path class="st1" d="M137.54,708.56h-8.45c-.06,0,0,.06,0,0v-8.39c0-.06-.06,0,0,0h16.89c.06,0,0-.06,0,0v8.39c0,.06.06,0,0,0h-8.45Z"/>
  <path class="st1" d="M171.55,708.56h-8.45c-.06,0,0,.06,0,0v-8.39c0-.06-.06,0,0,0h16.89c.06,0,0-.06,0,0v8.39c0,.06.06,0,0,0h-8.45Z"/>
  <path class="st1" d="M205.57,708.56h-8.45c-.06,0,0,.06,0,0v-8.39c0-.06-.06,0,0,0h16.89c.06,0,0-.06,0,0v8.39c0,.06.06,0,0,0h-8.45Z"/>
  <path class="st1" d="M239.58,708.56h-8.45c-.06,0,0,.06,0,0v-8.39c0-.06-.06,0,0,0h16.89c.06,0,0-.06,0,0v8.39c0,.06.06,0,0,0h-8.45Z"/>
  <path class="st1" d="M273.6,708.56h-8.45c-.06,0,0,.06,0,0v-8.39c0-.06-.06,0,0,0h16.89c.06,0,0-.06,0,0v8.39c0,.06.06,0,0,0h-8.45Z"/>
  <path class="st1" d="M307.62,708.56h-8.45c-.06,0,0,.06,0,0v-8.39c0-.06-.06,0,0,0h16.89c.06,0,0-.06,0,0v8.39c0,.06.06,0,0,0h-8.45Z"/>
  <path class="st1" d="M341.63,708.56h-8.45c-.06,0,0,.06,0,0v-8.39c0-.06-.06,0,0,0h16.89c.06,0,0-.06,0,0v8.39c0,.06.06,0,0,0h-8.45Z"/>
  <path class="st1" d="M375.65,708.56h-8.45c-.06,0,0,.06,0,0v-8.39c0-.06-.06,0,0,0h16.89c.06,0,0-.06,0,0v8.39c0,.06.06,0,0,0h-8.45Z"/>
  <path class="st1" d="M409.66,708.56h-8.45c-.06,0,0,.06,0,0v-8.39c0-.06-.06,0,0,0h16.89c.06,0,0-.06,0,0v8.39c0,.06.06,0,0,0h-8.45Z"/>
  <path class="st1" d="M443.68,708.56h-8.45c-.06,0,0,.06,0,0v-8.39c0-.06-.06,0,0,0h16.89c.06,0,0-.06,0,0v8.39c0,.06.06,0,0,0h-8.45Z"/>
  <path class="st1" d="M477.69,708.56h-8.45c-.06,0,0,.06,0,0v-8.39c0-.06-.06,0,0,0h16.89c.06,0,0-.06,0,0v8.39c0,.06.06,0,0,0h-8.45Z"/>
  <path class="st1" d="M511.71,708.56h-8.45c-.06,0,0,.06,0,0v-8.39c0-.06-.06,0,0,0h16.89c.06,0,0-.06,0,0v8.39c0,.06.06,0,0,0h-8.45Z"/>
  <path class="st0" d="M544.31,625.16h-24.09s-.06.03-.06.06v8.45c0,.06.06,0,0,0h-16.89c-.06,0,0,.06,0,0v-8.45s-.03-.06-.06-.06h-17.01s-.06.03-.06.06v8.45c0,.06.06,0,0,0h-16.89c-.06,0,0,.06,0,0v-8.45s-.03-.06-.06-.06h-17.01s-.06.03-.06.06v8.45c0,.06.06,0,0,0h-16.89c-.06,0,0,.06,0,0v-8.45s-.03-.06-.06-.06h-17.01s-.06.03-.06.06v8.45c0,.06.06,0,0,0h-16.89c-.06,0,0,.06,0,0v-8.45s-.03-.06-.06-.06h-17.01s-.06.03-.06.06v8.45c0,.06.06,0,0,0h-16.89c-.06,0,0,.06,0,0v-8.45s-.03-.06-.06-.06h-17.01s-.06.03-.06.06v8.45c0,.06.06,0,0,0h-16.89c-.06,0,0,.06,0,0v-8.45s-.03-.06-.06-.06h-17.01s-.06.03-.06.06v8.45c0,.06.06,0,0,0h-16.89c-.06,0,0,.06,0,0v-8.45s-.03-.06-.06-.06h-17.01s-.06.03-.06.06v8.45c0,.06.06,0,0,0h-16.89c-.06,0,0,.06,0,0v-8.45s-.03-.06-.06-.06h-17.01s-.06.03-.06.06v8.45c0,.06.06,0,0,0h-16.89c-.06,0,0,.06,0,0v-8.45s-.03-.06-.06-.06h-17.01s-.06.03-.06.06v8.45c0,.06.06,0,0,0h-16.89c-.06,0,0,.06,0,0v-8.45s-.03-.06-.06-.06h-17.01s-.06.03-.06.06v8.45c0,.06.06,0,0,0h-16.89c-.06,0,0,.06,0,0v-8.45s-.03-.06-.06-.06h-17.01s-.06.03-.06.06v8.45c0,.06.06,0,0,0h-16.89c-.06,0,0,.06,0,0v-8.45s-.03-.06-.06-.06h-17.01s-.06.03-.06.06v8.45c0,.06.06,0,0,0h-16.89c-.06,0,0,.06,0,0v-8.45s-.03-.06-.06-.06h-17.01s-.06.03-.06.06v8.45c0,.06.06,0,0,0h-16.89c-.06,0,0,.06,0,0v-8.45s-.03-.06-.06-.06h-24.09"/>
  <line class="st0" x1="28.4" y1="625.16" x2="36.91" y2="625.16"/>
  <line class="st0" x1="544.31" y1="625.16" x2="552.81" y2="625.16"/>
  <line class="st0" x1="28.35" y1="700.11" x2="28.35" y2="708.61"/>
  <path class="st0" d="M28.35,633.72v24.69s.03.06.06.06h8.45c.06,0,0-.06,0,0v16.89c0,.06.06,0,0,0h-8.45s-.06.02-.06.06v24.69"/>
  <line class="st0" x1="28.35" y1="625.21" x2="28.35" y2="633.72"/>
  <path class="st0" d="M552.87,708.61v-33.19s-.03-.06-.06-.06h-8.45c-.06,0,0,.06,0,0v-16.89c0-.06-.06,0,0,0h8.45s.06-.03.06-.06v-33.2"/>
  <line class="st0" x1="28.35" y1="708.61" x2="552.87" y2="708.61"/>
  <path class="st1" d="M290.61,674.41c-18.89,0-34.2,15.31-34.2,34.2h68.41c0-18.89-15.31-34.2-34.2-34.2Z"/>
  <path class="st0" d="M29.82,608.21h31.12c.06,0,0-.06,0,0v8.45s.03.06.06.06h17.01s.06-.03.06-.06v-8.45c0-.06-.06,0,0,0h16.89c.06,0,0-.06,0,0v8.45s.03.06.06.06h17.01s.06-.03.06-.06v-8.45c0-.06-.06,0,0,0h16.89c.06,0,0-.06,0,0v8.45s.03.06.06.06h17.01s.06-.03.06-.06v-8.45c0-.06-.06,0,0,0h16.89c.06,0,0-.06,0,0v8.45s.03.06.06.06h17.01s.06-.03.06-.06v-8.45c0-.06-.06,0,0,0h16.89c.06,0,0-.06,0,0v8.45s.03.06.06.06h17.01s.06-.03.06-.06v-8.45c0-.06-.06,0,0,0h16.89c.06,0,0-.06,0,0v8.45s.03.06.06.06h17.01s.06-.03.06-.06v-8.45c0-.06-.06,0,0,0h16.89c.06,0,0-.06,0,0v8.45s.03.06.06.06h17.01s.06-.03.06-.06v-8.45c0-.06-.06,0,0,0h16.89c.06,0,0-.06,0,0v8.45s.03.06.06.06h17.01s.06-.03.06-.06v-8.45c0-.06-.06,0,0,0h16.89c.06,0,0-.06,0,0v8.45s.03.06.06.06h17.01s.06-.03.06-.06v-8.45c0-.06-.06,0,0,0h16.89c.06,0,0-.06,0,0v8.45s.03.06.06.06h17.01s.06-.03.06-.06v-8.45c0-.06-.06,0,0,0h16.89c.06,0,0-.06,0,0v8.45s.03.06.06.06h17.01s.06-.03.06-.06v-8.45c0-.06-.06,0,0,0h16.89c.06,0,0-.06,0,0v8.45s.03.06.06.06h17.01s.06-.03.06-.06v-8.45c0-.06-.06,0,0,0h16.89c.06,0,0-.06,0,0v8.45s.03.06.06.06h17.01s.06-.03.06-.06v-8.45c0-.06-.06,0,0,0h31.12s.06-.03.06-.06v-16.95c0-.06-.06,0,0,0h8.45s.06-.03.06-.06v-17.01s-.03-.06-.06-.06h-8.45c-.06,0,0,.06,0,0v-16.89c0-.06-.06,0,0,0h8.45s.06-.03.06-.06v-17.01s-.03-.06-.06-.06h-8.45c-.06,0,0,.06,0,0v-16.95s-.03-.06-.06-.06H29.82s-.06.03-.06.06v16.95c0,.06.06,0,0,0h-8.45s-.06.03-.06.06v17.01s.03.06.06.06h8.45c.06,0,0-.06,0,0v16.89c0,.06.06,0,0,0h-8.45s-.06.03-.06.06v17.01s.03.06.06.06h8.45c.06,0,0-.06,0,0v16.95s.03.06.06.06Z"/>
  <path class="st0" d="M29.82,510.3h31.12c.06,0,0-.06,0,0v8.45s.03.06.06.06h17.01s.06-.03.06-.06v-8.45c0-.06-.06,0,0,0h16.89c.06,0,0-.06,0,0v8.45s.03.06.06.06h17.01s.06-.03.06-.06v-8.45c0-.06-.06,0,0,0h16.89c.06,0,0-.06,0,0v8.45s.03.06.06.06h17.01s.06-.03.06-.06v-8.45c0-.06-.06,0,0,0h16.89c.06,0,0-.06,0,0v8.45s.03.06.06.06h17.01s.06-.03.06-.06v-8.45c0-.06-.06,0,0,0h16.89c.06,0,0-.06,0,0v8.45s.03.06.06.06h17.01s.06-.03.06-.06v-8.45c0-.06-.06,0,0,0h16.89c.06,0,0-.06,0,0v8.45s.03.06.06.06h17.01s.06-.03.06-.06v-8.45c0-.06-.06,0,0,0h16.89c.06,0,0-.06,0,0v8.45s.03.06.06.06h17.01s.06-.03.06-.06v-8.45c0-.06-.06,0,0,0h16.89c.06,0,0-.06,0,0v8.45s.03.06.06.06h17.01s.06-.03.06-.06v-8.45c0-.06-.06,0,0,0h16.89c.06,0,0-.06,0,0v8.45s.03.06.06.06h17.01s.06-.03.06-.06v-8.45c0-.06-.06,0,0,0h39.63s.06-.03.06-.06v-17.01s-.03-.06-.06-.06h-8.45c-.06,0,0,.06,0,0v-16.89c0-.06-.06,0,0,0h8.45s.06-.03.06-.06v-17.01s-.03-.06-.06-.06h-8.45c-.06,0,0,.06,0,0v-16.89c0-.06-.06,0,0,0h8.45s.06-.03.06-.06v-17.01s-.03-.06-.06-.06H21.32s-.06.03-.06.06v17.01s.03.06.06.06h8.45c.06,0,0-.06,0,0v16.89c0,.06.06,0,0,0h-8.45s-.06.03-.06.06v17.01s.03.06.06.06h8.45c.06,0,0-.06,0,0v16.89c0,.06.06,0,0,0h-8.45s-.06.03-.06.06v17.01s.03.06.06.06h8.5Z"/>
  <path class="st0" d="M538.72,608.21h31.12c.06,0,0-.06,0,0v8.45s.03.06.06.06h17.01s.06-.03.06-.06v-8.45c0-.06-.06,0,0,0h16.89c.06,0,0-.06,0,0v8.45s.03.06.06.06h17.01s.06-.03.06-.06v-8.45c0-.06-.06,0,0,0h16.89c.06,0,0-.06,0,0v8.45s.03.06.06.06h17.01s.06-.03.06-.06v-8.45c0-.06-.06,0,0,0h16.89c.06,0,0-.06,0,0v8.45s.03.06.06.06h17.01s.06-.03.06-.06v-8.45c0-.06-.06,0,0,0h16.89c.06,0,0-.06,0,0v8.45s.03.06.06.06h17.01s.06-.03.06-.06v-8.45c0-.06-.06,0,0,0h16.89c.06,0,0-.06,0,0v8.45s.03.06.06.06h17.01s.06-.03.06-.06v-8.45c0-.06-.06,0,0,0h16.89c.06,0,0-.06,0,0v8.45s.03.06.06.06h17.01s.06-.03.06-.06v-8.45c0-.06-.06,0,0,0h16.89c.06,0,0-.06,0,0v8.45s.03.06.06.06h17.01s.06-.03.06-.06v-8.45c0-.06-.06,0,0,0h16.89c.06,0,0-.06,0,0v8.45s.03.06.06.06h17.01s.06-.03.06-.06v-8.45c0-.06-.06,0,0,0h39.63s.06-.03.06-.06v-17.01s-.03-.06-.06-.06h-8.45c-.06,0,0,.06,0,0v-16.89c0-.06-.06,0,0,0h8.45s.06-.03.06-.06v-17.01s-.03-.06-.06-.06h-8.45c-.06,0,0,.06,0,0v-16.89c0-.06-.06,0,0,0h8.45s.06-.03.06-.06v-17.01s-.03-.06-.06-.06h-368.5s-.06.03-.06.06v17.01s.03.06.06.06h8.45c.06,0,0-.06,0,0v16.89c0,.06.06,0,0,0h-8.45s-.06.03-.06.06v17.01s.03.06.06.06h8.45c.06,0,0-.06,0,0v16.89c0,.06.06,0,0,0h-8.45s-.06.03-.06.06v17.01s.03.06.06.06h8.5Z"/>
  <path class="st0" d="M29.82,415.71h31.18s.06-.03.06-.06v-8.45c0-.06-.06,0,0,0h16.89c.06,0,0-.06,0,0v8.45s.03.06.06.06h17.01s.06-.03.06-.06v-8.45c0-.06-.06,0,0,0h16.89c.06,0,0-.06,0,0v8.45s.03.06.06.06h17.01s.06-.03.06-.06v-8.45c0-.06-.06,0,0,0h16.89c.06,0,0-.06,0,0v8.45s.03.06.06.06h17.01s.06-.03.06-.06v-8.45c0-.06-.06,0,0,0h16.89c.06,0,0-.06,0,0v8.45s.03.06.06.06h17.01s.06-.03.06-.06v-8.45c0-.06-.06,0,0,0h16.89c.06,0,0-.06,0,0v8.45s.03.06.06.06h17.01s.06-.03.06-.06v-8.45c0-.06-.06,0,0,0h16.89c.06,0,0-.06,0,0v8.45s.03.06.06.06h17.01s.06-.03.06-.06v-8.45c0-.06-.06,0,0,0h16.89c.06,0,0-.06,0,0v8.45s.03.06.06.06h17.01s.06-.03.06-.06v-8.45c0-.06-.06,0,0,0h16.89c.06,0,0-.06,0,0v8.45s.03.06.06.06h17.01s.06-.03.06-.06v-8.45c0-.06-.06,0,0,0h16.89c.06,0,0-.06,0,0v8.45s.03.06.06.06h17.01s.06-.03.06-.06v-8.45c0-.06-.06,0,0,0h16.89c.06,0,0-.06,0,0v8.45s.03.06.06.06h17.01s.06-.03.06-.06v-8.45c0-.06-.06,0,0,0h16.89c.06,0,0-.06,0,0v8.45s.03.06.06.06h17.01s.06-.03.06-.06v-8.45c0-.06-.06,0,0,0h16.89c.06,0,0-.06,0,0v8.45s.03.06.06.06h17.01s.06-.03.06-.06v-8.45c0-.06-.06,0,0,0h16.89c.06,0,0-.06,0,0v8.45s.03.06.06.06h31.18M21.32,415.71h8.5M517.38,415.71h8.5M517.38,47.09h-31.18s-.06.03-.06.06v8.45c0,.06.06,0,0,0h-16.89c-.06,0,0,.06,0,0v-8.45s-.03-.06-.06-.06h-17.01s-.06.03-.06.06v8.45c0,.06.06,0,0,0h-16.89c-.06,0,0,.06,0,0v-8.45s-.03-.06-.06-.06h-17.01s-.06.03-.06.06v8.45c0,.06.06,0,0,0h-16.89c-.06,0,0,.06,0,0v-8.45s-.03-.06-.06-.06h-17.01s-.06.03-.06.06v8.45c0,.06.06,0,0,0h-16.89c-.06,0,0,.06,0,0v-8.45s-.03-.06-.06-.06h-17.01s-.06.03-.06.06v8.45c0,.06.06,0,0,0h-16.89c-.06,0,0,.06,0,0v-8.45s-.03-.06-.06-.06h-17.01s-.06.03-.06.06v8.45c0,.06.06,0,0,0h-16.89c-.06,0,0,.06,0,0v-8.45s-.03-.06-.06-.06h-17.01s-.06.03-.06.06v8.45c0,.06.06,0,0,0h-16.89c-.06,0,0,.06,0,0v-8.45s-.03-.06-.06-.06h-17.01s-.06.03-.06.06v8.45c0,.06.06,0,0,0h-16.89c-.06,0,0,.06,0,0v-8.45s-.03-.06-.06-.06h-17.01s-.06.03-.06.06v8.45c0,.06.06,0,0,0h-16.89c-.06,0,0,.06,0,0v-8.45s-.03-.06-.06-.06h-17.01s-.06.03-.06.06v8.45c0,.06.06,0,0,0h-16.89c-.06,0,0,.06,0,0v-8.45s-.03-.06-.06-.06h-17.01s-.06.03-.06.06v8.45c0,.06.06,0,0,0h-16.89c-.06,0,0,.06,0,0v-8.45s-.03-.06-.06-.06h-17.01s-.06.03-.06.06v8.45c0,.06.06,0,0,0h-16.89c-.06,0,0,.06,0,0v-8.45s-.03-.06-.06-.06h-17.01s-.06.03-.06.06v8.45c0,.06.06,0,0,0h-16.89c-.06,0,0,.06,0,0v-8.45s-.03-.06-.06-.06h-31.18M21.32,47.09h8.5M517.38,47.09h8.5M21.26,55.65v31.18s.03.06.06.06h8.45c.06,0,0-.06,0,0v16.89c0,.06.06,0,0,0h-8.45s-.06.03-.06.06v17.01s.03.06.06.06h8.45c.06,0,0-.06,0,0v16.89c0,.06.06,0,0,0h-8.45s-.06.03-.06.06v17.01s.03.06.06.06h8.45c.06,0,0-.06,0,0v16.89c0,.06.06,0,0,0h-8.45s-.06.03-.06.06v17.01s.03.06.06.06h8.45c.06,0,0-.06,0,0v16.89c0,.06.06,0,0,0h-8.45s-.06.03-.06.06v17.01s.03.06.06.06h8.45c.06,0,0-.06,0,0v16.89c0,.06.06,0,0,0h-8.45s-.06.03-.06.06v17.01s.03.06.06.06h8.45c.06,0,0-.06,0,0v16.89c0,.06.06,0,0,0h-8.45s-.06.03-.06.06v17.01s.03.06.06.06h8.45c.06,0,0-.06,0,0v16.89c0,.06.06,0,0,0h-8.45s-.06.03-.06.06v17.01s.03.06.06.06h8.45c.06,0,0-.06,0,0v16.89c0,.06.06,0,0,0h-8.45s-.06.03-.06.06v17.01s.03.06.06.06h8.45c.06,0,0-.06,0,0v16.89c0,.06.06,0,0,0h-8.45s-.06.03-.06.06v31.18M21.26,47.15v8.5M21.26,407.15v8.5M525.94,407.15v-31.18s-.03-.06-.06-.06h-8.45c-.06,0,0,.06,0,0v-16.89c0-.06-.06,0,0,0h8.45s.06-.03.06-.06v-17.01s-.03-.06-.06-.06h-8.45c-.06,0,0,.06,0,0v-16.89c0-.06-.06,0,0,0h8.45s.06-.03.06-.06v-17.01s-.03-.06-.06-.06h-8.45c-.06,0,0,.06,0,0v-16.89c0-.06-.06,0,0,0h8.45s.06-.03.06-.06v-17.01s-.03-.06-.06-.06h-8.45c-.06,0,0,.06,0,0v-16.89c0-.06-.06,0,0,0h8.45s.06-.03.06-.06v-17.01s-.03-.06-.06-.06h-8.45c-.06,0,0,.06,0,0v-16.89c0-.06-.06,0,0,0h8.45s.06-.03.06-.06v-17.01s-.03-.06-.06-.06h-8.45c-.06,0,0,.06,0,0v-16.89c0-.06-.06,0,0,0h8.45s.06-.03.06-.06v-17.01s-.03-.06-.06-.06h-8.45c-.06,0,0,.06,0,0v-16.89c0-.06-.06,0,0,0h8.45s.06-.03.06-.06v-17.01s-.03-.06-.06-.06h-8.45c-.06,0,0,.06,0,0v-16.89c0-.06-.06,0,0,0h8.45s.06-.03.06-.06v-17.01s-.03-.06-.06-.06h-8.45c-.06,0,0,.06,0,0v-16.89c0-.06-.06,0,0,0h8.45s.06-.03.06-.06v-39.69M525.94,415.65v-8.5"/>
  <path class="st1" d="M273.6,81.35c18.89,0,34.2-15.31,34.2-34.2h-68.41c0,18.89,15.31,34.2,34.2,34.2Z"/>
  <path class="st1" d="M273.6,381.45c-18.89,0-34.2,15.31-34.2,34.2h68.41c0-18.89-15.31-34.2-34.2-34.2Z"/>
  <path class="st1" d="M273.6,582.51c-18.89,0-34.2,15.31-34.2,34.2h68.41c0-18.89-15.31-34.2-34.2-34.2Z"/>
  <path class="st0" d="M1120.08,705.24h31.12c.06,0,0-.06,0,0v8.45s.03.06.06.06h17.01s.06-.03.06-.06v-8.45c0-.06-.06,0,0,0h16.89c.06,0,0-.06,0,0v8.45s.03.06.06.06h17.01s.06-.03.06-.06v-8.45c0-.06-.06,0,0,0h16.89c.06,0,0-.06,0,0v8.45s.03.06.06.06h17.01s.06-.03.06-.06v-8.45c0-.06-.06,0,0,0h16.89c.06,0,0-.06,0,0v8.45s.03.06.06.06h17.01s.06-.03.06-.06v-8.45c0-.06-.06,0,0,0h16.89c.06,0,0-.06,0,0v8.45s.03.06.06.06h17.01s.06-.03.06-.06v-8.45c0-.06-.06,0,0,0h16.89c.06,0,0-.06,0,0v8.45s.03.06.06.06h17.01s.06-.03.06-.06v-8.45c0-.06-.06,0,0,0h16.89c.06,0,0-.06,0,0v8.45s.03.06.06.06h17.01s.06-.03.06-.06v-8.45c0-.06-.06,0,0,0h16.89c.06,0,0-.06,0,0v8.45s.03.06.06.06h17.01s.06-.03.06-.06v-8.45c0-.06-.06,0,0,0h16.89c.06,0,0-.06,0,0v8.45s.03.06.06.06h17.01s.06-.03.06-.06v-8.45c0-.06-.06,0,0,0h16.89c.06,0,0-.06,0,0v8.45s.03.06.06.06h17.01s.06-.03.06-.06v-8.45c0-.06-.06,0,0,0h16.89c.06,0,0-.06,0,0v8.45s.03.06.06.06h17.01s.06-.03.06-.06v-8.45c0-.06-.06,0,0,0h16.89c.06,0,0-.06,0,0v8.45s.03.06.06.06h17.01s.06-.03.06-.06v-8.45c0-.06-.06,0,0,0h16.89c.06,0,0-.06,0,0v8.45s.03.06.06.06h17.01s.06-.03.06-.06v-8.45c0-.06-.06,0,0,0h31.12s.06-.03.06-.06v-16.95c0-.06-.06,0,0,0h8.45s.06-.03.06-.06v-17.01s-.03-.06-.06-.06h-8.45c-.06,0,0,.06,0,0v-16.89c0-.06-.06,0,0,0h8.45s.06-.03.06-.06v-17.01s-.03-.06-.06-.06h-8.45c-.06,0,0,.06,0,0v-16.95s-.03-.06-.06-.06h-487.56s-.06.03-.06.06v16.95c0,.06.06,0,0,0h-8.45s-.06.03-.06.06v17.01s.03.06.06.06h8.45c.06,0,0-.06,0,0v16.89c0,.06.06,0,0,0h-8.45s-.06.03-.06.06v17.01s.03.06.06.06h8.45c.06,0,0-.06,0,0v16.95s.03.06.06.06Z"/>
  <path class="st1" d="M1363.86,679.54c-18.89,0-34.2,15.31-34.2,34.2h68.41c0-18.89-15.31-34.2-34.2-34.2Z"/>
</svg>