<?xml version="1.0" encoding="UTF-8"?>
<svg id="Layer_1" xmlns="http://www.w3.org/2000/svg" version="1.1" xmlns:cc="http://creativecommons.org/ns#" xmlns:dc="http://purl.org/dc/elements/1.1/" xmlns:inkscape="http://www.inkscape.org/namespaces/inkscape" xmlns:rdf="http://www.w3.org/1999/02/22-rdf-syntax-ns#" xmlns:svg="http://www.w3.org/2000/svg" viewBox="0 0 1251.72 2553">
  <!-- Generator: Adobe Illustrator 29.4.0, SVG Export Plug-In . SVG Version: 2.1.0 Build 152)  -->
  <defs>
    <style>
      .st0 {
        stroke: #212529;
        stroke-linejoin: bevel;
        stroke-width: 1.98px;
      }

      .st0, .st1, .st2 {
        fill: none;
        stroke-linecap: round;
      }

      .st1 {
        stroke: #000;
      }

      .st1, .st2 {
        stroke-linejoin: round;
        stroke-width: .14px;
      }

      .st3 {
        fill: red;
        font-family: ArialMT, Arial;
        font-size: 17.01px;
        isolation: isolate;
      }

      .st2 {
        stroke: blue;
      }
    </style>
  </defs>
  <g id="p-0">
    <path class="st1" d="M28.4,2524.65h283.46v-28.35H28.4v28.35Z"/>
    <text class="st3" transform="translate(79.86 2516.57)"><tspan x="0" y="0">100.0mm, burn:0.02mm</tspan></text>
  </g>
  <g id="p-1">
    <path class="st1" d="M36.91,2483.43h30.42c.06,0,0-.06,0,0v8.45s.03.06.06.06h17.01s.06-.03.06-.06v-8.45c0-.06-.06,0,0,0h16.89c.06,0,0-.06,0,0v8.45s.03.06.06.06h17.01s.06-.03.06-.06v-8.45c0-.06-.06,0,0,0h16.89c.06,0,0-.06,0,0v8.45s.03.06.06.06h17.01s.06-.03.06-.06v-8.45c0-.06-.06,0,0,0h16.89c.06,0,0-.06,0,0v8.45s.03.06.06.06h17.01s.06-.03.06-.06v-8.45c0-.06-.06,0,0,0h16.89c.06,0,0-.06,0,0v8.45s.03.06.06.06h17.01s.06-.03.06-.06v-8.45c0-.06-.06,0,0,0h30.42s.06-.03.06-.06v-26.87c0-.06-.06,0,0,0h8.45s.06-.03.06-.06v-17.01s-.03-.06-.06-.06h-8.45c-.06,0,0,.06,0,0v-16.89c0-.06-.06,0,0,0h8.45s.06-.03.06-.06v-17.01s-.03-.06-.06-.06h-8.45c-.06,0,0,.06,0,0v-16.89c0-.06-.06,0,0,0h8.45s.06-.03.06-.06v-17.01s-.03-.06-.06-.06h-8.45c-.06,0,0,.06,0,0v-16.89c0-.06-.06,0,0,0h8.45s.06-.03.06-.06v-17.01s-.03-.06-.06-.06h-8.45c-.06,0,0,.06,0,0v-16.89c0-.06-.06,0,0,0h8.45s.06-.03.06-.06v-17.01s-.03-.06-.06-.06h-8.45c-.06,0,0,.06,0,0v-16.89c0-.06-.06,0,0,0h8.45s.06-.03.06-.06v-17.01s-.03-.06-.06-.06h-8.45c-.06,0,0,.06,0,0v-16.89c0-.06-.06,0,0,0h8.45s.06-.03.06-.06v-17.01s-.03-.06-.06-.06h-8.45c-.06,0,0,.06,0,0v-16.89c0-.06-.06,0,0,0h8.45s.06-.03.06-.06v-17.01s-.03-.06-.06-.06h-8.45c-.06,0,0,.06,0,0v-16.89c0-.06-.06,0,0,0h8.45s.06-.03.06-.06v-17.01s-.03-.06-.06-.06h-8.45c-.06,0,0,.06,0,0v-16.89c0-.06-.06,0,0,0h8.45s.06-.03.06-.06v-17.01s-.03-.06-.06-.06h-8.45c-.06,0,0,.06,0,0v-16.89c0-.06-.06,0,0,0h8.45s.06-.03.06-.06v-17.01s-.03-.06-.06-.06h-8.45c-.06,0,0,.06,0,0v-16.89c0-.06-.06,0,0,0h8.45s.06-.03.06-.06v-17.01s-.03-.06-.06-.06h-8.45c-.06,0,0,.06,0,0v-16.89c0-.06-.06,0,0,0h8.45s.06-.03.06-.06v-17.01s-.03-.06-.06-.06h-8.45c-.06,0,0,.06,0,0v-16.89c0-.06-.06,0,0,0h8.45s.06-.03.06-.06v-17.01s-.03-.06-.06-.06h-8.45c-.06,0,0,.06,0,0v-16.89c0-.06-.06,0,0,0h8.45s.06-.03.06-.06v-17.01s-.03-.06-.06-.06h-8.45c-.06,0,0,.06,0,0v-16.89c0-.06-.06,0,0,0h8.45s.06-.03.06-.06v-17.01s-.03-.06-.06-.06h-8.45c-.06,0,0,.06,0,0v-16.89c0-.06-.06,0,0,0h8.45s.06-.03.06-.06v-17.01s-.03-.06-.06-.06h-8.45c-.06,0,0,.06,0,0v-16.89c0-.06-.06,0,0,0h8.45s.06-.03.06-.06v-17.01s-.03-.06-.06-.06h-8.45c-.06,0,0,.06,0,0v-16.89c0-.06-.06,0,0,0h8.45s.06-.03.06-.06v-17.01s-.03-.06-.06-.06h-8.45c-.06,0,0,.06,0,0v-16.89c0-.06-.06,0,0,0h8.45s.06-.03.06-.06v-17.01s-.03-.06-.06-.06h-8.45c-.06,0,0,.06,0,0v-16.89c0-.06-.06,0,0,0h8.45s.06-.03.06-.06v-17.01s-.03-.06-.06-.06h-8.45c-.06,0,0,.06,0,0v-16.89c0-.06-.06,0,0,0h8.45s.06-.03.06-.06v-17.01s-.03-.06-.06-.06h-8.45c-.06,0,0,.06,0,0v-16.89c0-.06-.06,0,0,0h8.45s.06-.03.06-.06v-17.01s-.03-.06-.06-.06h-8.45c-.06,0,0,.06,0,0v-16.89c0-.06-.06,0,0,0h8.45s.06-.03.06-.06v-17.01s-.03-.06-.06-.06h-8.45c-.06,0,0,.06,0,0v-16.89c0-.06-.06,0,0,0h8.45s.06-.03.06-.06v-17.01s-.03-.06-.06-.06h-8.45c-.06,0,0,.06,0,0v-16.89c0-.06-.06,0,0,0h8.45s.06-.03.06-.06v-17.01s-.03-.06-.06-.06h-8.45c-.06,0,0,.06,0,0v-26.87s-.03-.06-.06-.06H36.91s-.06.03-.06.06v26.87c0,.06.06,0,0,0h-8.45s-.06.03-.06.06v17.01s.03.06.06.06h8.45c.06,0,0-.06,0,0v16.89c0,.06.06,0,0,0h-8.45s-.06.03-.06.06v17.01s.03.06.06.06h8.45c.06,0,0-.06,0,0v16.89c0,.06.06,0,0,0h-8.45s-.06.03-.06.06v17.01s.03.06.06.06h8.45c.06,0,0-.06,0,0v16.89c0,.06.06,0,0,0h-8.45s-.06.03-.06.06v17.01s.03.06.06.06h8.45c.06,0,0-.06,0,0v16.89c0,.06.06,0,0,0h-8.45s-.06.03-.06.06v17.01s.03.06.06.06h8.45c.06,0,0-.06,0,0v16.89c0,.06.06,0,0,0h-8.45s-.06.03-.06.06v17.01s.03.06.06.06h8.45c.06,0,0-.06,0,0v16.89c0,.06.06,0,0,0h-8.45s-.06.03-.06.06v17.01s.03.06.06.06h8.45c.06,0,0-.06,0,0v16.89c0,.06.06,0,0,0h-8.45s-.06.03-.06.06v17.01s.03.06.06.06h8.45c.06,0,0-.06,0,0v16.89c0,.06.06,0,0,0h-8.45s-.06.03-.06.06v17.01s.03.06.06.06h8.45c.06,0,0-.06,0,0v16.89c0,.06.06,0,0,0h-8.45s-.06.03-.06.06v17.01s.03.06.06.06h8.45c.06,0,0-.06,0,0v16.89c0,.06.06,0,0,0h-8.45s-.06.03-.06.06v17.01s.03.06.06.06h8.45c.06,0,0-.06,0,0v16.89c0,.06.06,0,0,0h-8.45s-.06.03-.06.06v17.01s.03.06.06.06h8.45c.06,0,0-.06,0,0v16.89c0,.06.06,0,0,0h-8.45s-.06.03-.06.06v17.01s.03.06.06.06h8.45c.06,0,0-.06,0,0v16.89c0,.06.06,0,0,0h-8.45s-.06.03-.06.06v17.01s.03.06.06.06h8.45c.06,0,0-.06,0,0v16.89c0,.06.06,0,0,0h-8.45s-.06.03-.06.06v17.01s.03.06.06.06h8.45c.06,0,0-.06,0,0v16.89c0,.06.06,0,0,0h-8.45s-.06.03-.06.06v17.01s.03.06.06.06h8.45c.06,0,0-.06,0,0v16.89c0,.06.06,0,0,0h-8.45s-.06.03-.06.06v17.01s.03.06.06.06h8.45c.06,0,0-.06,0,0v16.89c0,.06.06,0,0,0h-8.45s-.06.03-.06.06v17.01s.03.06.06.06h8.45c.06,0,0-.06,0,0v16.89c0,.06.06,0,0,0h-8.45s-.06.03-.06.06v17.01s.03.06.06.06h8.45c.06,0,0-.06,0,0v16.89c0,.06.06,0,0,0h-8.45s-.06.03-.06.06v17.01s.03.06.06.06h8.45c.06,0,0-.06,0,0v16.89c0,.06.06,0,0,0h-8.45s-.06.03-.06.06v17.01s.03.06.06.06h8.45c.06,0,0-.06,0,0v16.89c0,.06.06,0,0,0h-8.45s-.06.03-.06.06v17.01s.03.06.06.06h8.45c.06,0,0-.06,0,0v16.89c0,.06.06,0,0,0h-8.45s-.06.03-.06.06v17.01s.03.06.06.06h8.45c.06,0,0-.06,0,0v16.89c0,.06.06,0,0,0h-8.45s-.06.03-.06.06v17.01s.03.06.06.06h8.45c.06,0,0-.06,0,0v16.89c0,.06.06,0,0,0h-8.45s-.06.03-.06.06v17.01s.03.06.06.06h8.45c.06,0,0-.06,0,0v16.89c0,.06.06,0,0,0h-8.45s-.06.03-.06.06v17.01s.03.06.06.06h8.45c.06,0,0-.06,0,0v26.87s.03.06.06.06Z"/>
  </g>
  <g id="p-2">
    <path class="st1" d="M516.73,2483.43h30.42c.06,0,0-.06,0,0v8.45s.03.06.06.06h17.01s.06-.03.06-.06v-8.45c0-.06-.06,0,0,0h16.89c.06,0,0-.06,0,0v8.45s.03.06.06.06h17.01s.06-.03.06-.06v-8.45c0-.06-.06,0,0,0h16.89c.06,0,0-.06,0,0v8.45s.03.06.06.06h17.01s.06-.03.06-.06v-8.45c0-.06-.06,0,0,0h16.89c.06,0,0-.06,0,0v8.45s.03.06.06.06h17.01s.06-.03.06-.06v-8.45c0-.06-.06,0,0,0h16.89c.06,0,0-.06,0,0v8.45s.03.06.06.06h17.01s.06-.03.06-.06v-8.45c0-.06-.06,0,0,0h30.42s.06-.03.06-.06v-26.87c0-.06-.06,0,0,0h8.45s.06-.03.06-.06v-17.01s-.03-.06-.06-.06h-8.45c-.06,0,0,.06,0,0v-16.89c0-.06-.06,0,0,0h8.45s.06-.03.06-.06v-17.01s-.03-.06-.06-.06h-8.45c-.06,0,0,.06,0,0v-16.89c0-.06-.06,0,0,0h8.45s.06-.03.06-.06v-17.01s-.03-.06-.06-.06h-8.45c-.06,0,0,.06,0,0v-16.89c0-.06-.06,0,0,0h8.45s.06-.03.06-.06v-17.01s-.03-.06-.06-.06h-8.45c-.06,0,0,.06,0,0v-16.89c0-.06-.06,0,0,0h8.45s.06-.03.06-.06v-17.01s-.03-.06-.06-.06h-8.45c-.06,0,0,.06,0,0v-16.89c0-.06-.06,0,0,0h8.45s.06-.03.06-.06v-17.01s-.03-.06-.06-.06h-8.45c-.06,0,0,.06,0,0v-16.89c0-.06-.06,0,0,0h8.45s.06-.03.06-.06v-17.01s-.03-.06-.06-.06h-8.45c-.06,0,0,.06,0,0v-16.89c0-.06-.06,0,0,0h8.45s.06-.03.06-.06v-17.01s-.03-.06-.06-.06h-8.45c-.06,0,0,.06,0,0v-16.89c0-.06-.06,0,0,0h8.45s.06-.03.06-.06v-17.01s-.03-.06-.06-.06h-8.45c-.06,0,0,.06,0,0v-16.89c0-.06-.06,0,0,0h8.45s.06-.03.06-.06v-17.01s-.03-.06-.06-.06h-8.45c-.06,0,0,.06,0,0v-16.89c0-.06-.06,0,0,0h8.45s.06-.03.06-.06v-17.01s-.03-.06-.06-.06h-8.45c-.06,0,0,.06,0,0v-16.89c0-.06-.06,0,0,0h8.45s.06-.03.06-.06v-17.01s-.03-.06-.06-.06h-8.45c-.06,0,0,.06,0,0v-16.89c0-.06-.06,0,0,0h8.45s.06-.03.06-.06v-17.01s-.03-.06-.06-.06h-8.45c-.06,0,0,.06,0,0v-16.89c0-.06-.06,0,0,0h8.45s.06-.03.06-.06v-17.01s-.03-.06-.06-.06h-8.45c-.06,0,0,.06,0,0v-16.89c0-.06-.06,0,0,0h8.45s.06-.03.06-.06v-17.01s-.03-.06-.06-.06h-8.45c-.06,0,0,.06,0,0v-16.89c0-.06-.06,0,0,0h8.45s.06-.03.06-.06v-17.01s-.03-.06-.06-.06h-8.45c-.06,0,0,.06,0,0v-16.89c0-.06-.06,0,0,0h8.45s.06-.03.06-.06v-17.01s-.03-.06-.06-.06h-8.45c-.06,0,0,.06,0,0v-16.89c0-.06-.06,0,0,0h8.45s.06-.03.06-.06v-17.01s-.03-.06-.06-.06h-8.45c-.06,0,0,.06,0,0v-16.89c0-.06-.06,0,0,0h8.45s.06-.03.06-.06v-17.01s-.03-.06-.06-.06h-8.45c-.06,0,0,.06,0,0v-16.89c0-.06-.06,0,0,0h8.45s.06-.03.06-.06v-17.01s-.03-.06-.06-.06h-8.45c-.06,0,0,.06,0,0v-16.89c0-.06-.06,0,0,0h8.45s.06-.03.06-.06v-17.01s-.03-.06-.06-.06h-8.45c-.06,0,0,.06,0,0v-16.89c0-.06-.06,0,0,0h8.45s.06-.03.06-.06v-17.01s-.03-.06-.06-.06h-8.45c-.06,0,0,.06,0,0v-16.89c0-.06-.06,0,0,0h8.45s.06-.03.06-.06v-17.01s-.03-.06-.06-.06h-8.45c-.06,0,0,.06,0,0v-16.89c0-.06-.06,0,0,0h8.45s.06-.03.06-.06v-17.01s-.03-.06-.06-.06h-8.45c-.06,0,0,.06,0,0v-16.89c0-.06-.06,0,0,0h8.45s.06-.03.06-.06v-17.01s-.03-.06-.06-.06h-8.45c-.06,0,0,.06,0,0v-16.89c0-.06-.06,0,0,0h8.45s.06-.03.06-.06v-17.01s-.03-.06-.06-.06h-8.45c-.06,0,0,.06,0,0v-26.87s-.03-.06-.06-.06h-214.02s-.06.03-.06.06v26.87c0,.06.06,0,0,0h-8.45s-.06.03-.06.06v17.01s.03.06.06.06h8.45c.06,0,0-.06,0,0v16.89c0,.06.06,0,0,0h-8.45s-.06.03-.06.06v17.01s.03.06.06.06h8.45c.06,0,0-.06,0,0v16.89c0,.06.06,0,0,0h-8.45s-.06.03-.06.06v17.01s.03.06.06.06h8.45c.06,0,0-.06,0,0v16.89c0,.06.06,0,0,0h-8.45s-.06.03-.06.06v17.01s.03.06.06.06h8.45c.06,0,0-.06,0,0v16.89c0,.06.06,0,0,0h-8.45s-.06.03-.06.06v17.01s.03.06.06.06h8.45c.06,0,0-.06,0,0v16.89c0,.06.06,0,0,0h-8.45s-.06.03-.06.06v17.01s.03.06.06.06h8.45c.06,0,0-.06,0,0v16.89c0,.06.06,0,0,0h-8.45s-.06.03-.06.06v17.01s.03.06.06.06h8.45c.06,0,0-.06,0,0v16.89c0,.06.06,0,0,0h-8.45s-.06.03-.06.06v17.01s.03.06.06.06h8.45c.06,0,0-.06,0,0v16.89c0,.06.06,0,0,0h-8.45s-.06.03-.06.06v17.01s.03.06.06.06h8.45c.06,0,0-.06,0,0v16.89c0,.06.06,0,0,0h-8.45s-.06.03-.06.06v17.01s.03.06.06.06h8.45c.06,0,0-.06,0,0v16.89c0,.06.06,0,0,0h-8.45s-.06.03-.06.06v17.01s.03.06.06.06h8.45c.06,0,0-.06,0,0v16.89c0,.06.06,0,0,0h-8.45s-.06.03-.06.06v17.01s.03.06.06.06h8.45c.06,0,0-.06,0,0v16.89c0,.06.06,0,0,0h-8.45s-.06.03-.06.06v17.01s.03.06.06.06h8.45c.06,0,0-.06,0,0v16.89c0,.06.06,0,0,0h-8.45s-.06.03-.06.06v17.01s.03.06.06.06h8.45c.06,0,0-.06,0,0v16.89c0,.06.06,0,0,0h-8.45s-.06.03-.06.06v17.01s.03.06.06.06h8.45c.06,0,0-.06,0,0v16.89c0,.06.06,0,0,0h-8.45s-.06.03-.06.06v17.01s.03.06.06.06h8.45c.06,0,0-.06,0,0v16.89c0,.06.06,0,0,0h-8.45s-.06.03-.06.06v17.01s.03.06.06.06h8.45c.06,0,0-.06,0,0v16.89c0,.06.06,0,0,0h-8.45s-.06.03-.06.06v17.01s.03.06.06.06h8.45c.06,0,0-.06,0,0v16.89c0,.06.06,0,0,0h-8.45s-.06.03-.06.06v17.01s.03.06.06.06h8.45c.06,0,0-.06,0,0v16.89c0,.06.06,0,0,0h-8.45s-.06.03-.06.06v17.01s.03.06.06.06h8.45c.06,0,0-.06,0,0v16.89c0,.06.06,0,0,0h-8.45s-.06.03-.06.06v17.01s.03.06.06.06h8.45c.06,0,0-.06,0,0v16.89c0,.06.06,0,0,0h-8.45s-.06.03-.06.06v17.01s.03.06.06.06h8.45c.06,0,0-.06,0,0v16.89c0,.06.06,0,0,0h-8.45s-.06.03-.06.06v17.01s.03.06.06.06h8.45c.06,0,0-.06,0,0v16.89c0,.06.06,0,0,0h-8.45s-.06.03-.06.06v17.01s.03.06.06.06h8.45c.06,0,0-.06,0,0v16.89c0,.06.06,0,0,0h-8.45s-.06.03-.06.06v17.01s.03.06.06.06h8.45c.06,0,0-.06,0,0v16.89c0,.06.06,0,0,0h-8.45s-.06.03-.06.06v17.01s.03.06.06.06h8.45c.06,0,0-.06,0,0v26.87s.03.06.06.06Z"/>
  </g>
  <g id="p-3">
    <path class="st1" d="M491.95,1827.1c-.06,0,0,.06,0,0v-16.89c0-.06-.06,0,0,0h8.45s.06-.03.06-.06v-17.01s-.03-.06-.06-.06h-8.45c-.06,0,0,.06,0,0v-16.89c0-.06-.06,0,0,0h8.45s.06-.03.06-.06v-17.01s-.03-.06-.06-.06h-8.45c-.06,0,0,.06,0,0v-16.89c0-.06-.06,0,0,0h8.45s.06-.03.06-.06v-17.01s-.03-.06-.06-.06h-8.45c-.06,0,0,.06,0,0v-16.89c0-.06-.06,0,0,0h8.45s.06-.03.06-.06v-17.01s-.03-.06-.06-.06h-8.45c-.06,0,0,.06,0,0v-16.89c0-.06-.06,0,0,0h8.45s.06-.03.06-.06v-17.01s-.03-.06-.06-.06h-8.45c-.06,0,0,.06,0,0v-16.89c0-.06-.06,0,0,0h8.45s.06-.03.06-.06v-17.01s-.03-.06-.06-.06h-8.45c-.06,0,0,.06,0,0v-16.89c0-.06-.06,0,0,0h8.45s.06-.03.06-.06v-17.01s-.03-.06-.06-.06h-8.45c-.06,0,0,.06,0,0v-26.87s-.03-.06-.06-.06h-214.02s-.06.03-.06.06v26.87c0,.06.06,0,0,0h-8.45s-.06.03-.06.06v17.01s.03.06.06.06h8.45c.06,0,0-.06,0,0v16.89c0,.06.06,0,0,0h-8.45s-.06.03-.06.06v17.01s.03.06.06.06h8.45c.06,0,0-.06,0,0v16.89c0,.06.06,0,0,0h-8.45s-.06.03-.06.06v17.01s.03.06.06.06h8.45c.06,0,0-.06,0,0v16.89c0,.06.06,0,0,0h-8.45s-.06.03-.06.06v17.01s.03.06.06.06h8.45c.06,0,0-.06,0,0v16.89c0,.06.06,0,0,0h-8.45s-.06.03-.06.06v17.01s.03.06.06.06h8.45c.06,0,0-.06,0,0v16.89c0,.06.06,0,0,0h-8.45s-.06.03-.06.06v17.01s.03.06.06.06h8.45c.06,0,0-.06,0,0v16.89c0,.06.06,0,0,0h-8.45s-.06.03-.06.06v17.01s.03.06.06.06h8.45c.06,0,0-.06,0,0v16.89c0,.06.06,0,0,0h-8.45s-.06.03-.06.06v17.01s.03.06.06.06h8.45c.06,0,0-.06,0,0v16.89c0,.06.06,0,0,0h-8.45s-.06.03-.06.06v17.01s.03.06.06.06h8.45c.06,0,0-.06,0,0v16.89c0,.06.06,0,0,0h-8.45s-.06.03-.06.06v17.01s.03.06.06.06h8.45c.06,0,0-.06,0,0v16.89c0,.06.06,0,0,0h-8.45s-.06.03-.06.06v17.01s.03.06.06.06h8.45c.06,0,0-.06,0,0v16.89c0,.06.06,0,0,0h-8.45s-.06.03-.06.06v17.01s.03.06.06.06h8.45c.06,0,0-.06,0,0v16.89c0,.06.06,0,0,0h-8.45s-.06.03-.06.06v17.01s.03.06.06.06h8.45c.06,0,0-.06,0,0v16.89c0,.06.06,0,0,0h-8.45s-.06.03-.06.06v17.01s.03.06.06.06h8.45c.06,0,0-.06,0,0v16.89c0,.06.06,0,0,0h-8.45s-.06.03-.06.06v17.01s.03.06.06.06h8.45c.06,0,0-.06,0,0v16.89c0,.06.06,0,0,0h-8.45s-.06.03-.06.06v17.01s.03.06.06.06h8.45c.06,0,0-.06,0,0v16.89c0,.06.06,0,0,0h-8.45s-.06.03-.06.06v17.01s.03.06.06.06h8.45c.06,0,0-.06,0,0v16.89c0,.06.06,0,0,0h-8.45s-.06.03-.06.06v17.01s.03.06.06.06h8.45c.06,0,0-.06,0,0v16.89c0,.06.06,0,0,0h-8.45s-.06.03-.06.06v17.01s.03.06.06.06h8.45c.06,0,0-.06,0,0v16.89c0,.06.06,0,0,0h-8.45s-.06.03-.06.06v17.01s.03.06.06.06h8.45c.06,0,0-.06,0,0v16.89c0,.06.06,0,0,0h-8.45s-.06.03-.06.06v17.01s.03.06.06.06h8.45c.06,0,0-.06,0,0v16.89c0,.06.06,0,0,0h-8.45s-.06.03-.06.06v17.01s.03.06.06.06h8.45c.06,0,0-.06,0,0v16.89c0,.06.06,0,0,0h-8.45s-.06.03-.06.06v17.01s.03.06.06.06h8.45c.06,0,0-.06,0,0v16.89c0,.06.06,0,0,0h-8.45s-.06.03-.06.06v17.01s.03.06.06.06h8.45c.06,0,0-.06,0,0v16.89c0,.06.06,0,0,0h-8.45s-.06.03-.06.06v17.01s.03.06.06.06h8.45c.06,0,0-.06,0,0v16.89c0,.06.06,0,0,0h-8.45s-.06.03-.06.06v17.01s.03.06.06.06h8.45c.06,0,0-.06,0,0v26.87s.03.06.06.06h30.42c.06,0,0-.06,0,0v8.45s.03.06.06.06h17.01s.06-.03.06-.06v-8.45c0-.06-.06,0,0,0h16.89c.06,0,0-.06,0,0v8.45s.03.06.06.06h17.01s.06-.03.06-.06v-8.45c0-.06-.06,0,0,0h16.89c.06,0,0-.06,0,0v8.45s.03.06.06.06h17.01s.06-.03.06-.06v-8.45c0-.06-.06,0,0,0h16.89c.06,0,0-.06,0,0v8.45s.03.06.06.06h17.01s.06-.03.06-.06v-8.45c0-.06-.06,0,0,0h16.89c.06,0,0-.06,0,0v8.45s.03.06.06.06h17.01s.06-.03.06-.06v-8.45c0-.06-.06,0,0,0h30.42s.06-.03.06-.06v-26.87c0-.06-.06,0,0,0h8.45s.06-.03.06-.06v-17.01s-.03-.06-.06-.06h-8.45c-.06,0,0,.06,0,0v-16.89c0-.06-.06,0,0,0h8.45s.06-.03.06-.06v-17.01s-.03-.06-.06-.06h-8.45c-.06,0,0,.06,0,0v-16.89c0-.06-.06,0,0,0h8.45s.06-.03.06-.06v-17.01s-.03-.06-.06-.06h-8.45c-.06,0,0,.06,0,0v-16.89c0-.06-.06,0,0,0h8.45s.06-.03.06-.06v-17.01s-.03-.06-.06-.06h-8.45c-.06,0,0,.06,0,0v-16.89c0-.06-.06,0,0,0h8.45s.06-.03.06-.06v-17.01s-.03-.06-.06-.06h-8.45c-.06,0,0,.06,0,0v-16.89c0-.06-.06,0,0,0h8.45s.06-.03.06-.06v-17.01s-.03-.06-.06-.06h-8.45c-.06,0,0,.06,0,0v-16.89c0-.06-.06,0,0,0h8.45s.06-.03.06-.06v-17.01s-.03-.06-.06-.06h-8.45c-.06,0,0,.06,0,0v-16.89c0-.06-.06,0,0,0"/>
    <line class="st1" x1="491.95" y1="1827.1" x2="491.95" y2="2218.39"/>
  </g>
  <path class="st2" d="M75.88,478.81h-8.45c-.06,0,0,.06,0,0v-8.39c0-.06-.06,0,0,0h16.89c.06,0,0-.06,0,0v8.39c0,.06.06,0,0,0h-8.45Z"/>
  <path class="st2" d="M109.9,478.81h-8.45c-.06,0,0,.06,0,0v-8.39c0-.06-.06,0,0,0h16.89c.06,0,0-.06,0,0v8.39c0,.06.06,0,0,0h-8.45Z"/>
  <path class="st2" d="M143.91,478.81h-8.45c-.06,0,0,.06,0,0v-8.39c0-.06-.06,0,0,0h16.89c.06,0,0-.06,0,0v8.39c0,.06.06,0,0,0h-8.45Z"/>
  <path class="st2" d="M177.93,478.81h-8.45c-.06,0,0,.06,0,0v-8.39c0-.06-.06,0,0,0h16.89c.06,0,0-.06,0,0v8.39c0,.06.06,0,0,0h-8.45Z"/>
  <path class="st2" d="M211.95,478.81h-8.45c-.06,0,0,.06,0,0v-8.39c0-.06-.06,0,0,0h16.89c.06,0,0-.06,0,0v8.39c0,.06.06,0,0,0h-8.45Z"/>
  <path class="st2" d="M75.88,245.8h-8.45c-.06,0,0,.06,0,0v-8.39c0-.06-.06,0,0,0h16.89c.06,0,0-.06,0,0v8.39c0,.06.06,0,0,0h-8.45Z"/>
  <path class="st2" d="M109.9,245.8h-8.45c-.06,0,0,.06,0,0v-8.39c0-.06-.06,0,0,0h16.89c.06,0,0-.06,0,0v8.39c0,.06.06,0,0,0h-8.45Z"/>
  <path class="st2" d="M143.91,245.8h-8.45c-.06,0,0,.06,0,0v-8.39c0-.06-.06,0,0,0h16.89c.06,0,0-.06,0,0v8.39c0,.06.06,0,0,0h-8.45Z"/>
  <path class="st2" d="M177.93,245.8h-8.45c-.06,0,0,.06,0,0v-8.39c0-.06-.06,0,0,0h16.89c.06,0,0-.06,0,0v8.39c0,.06.06,0,0,0h-8.45Z"/>
  <path class="st2" d="M211.95,245.8h-8.45c-.06,0,0,.06,0,0v-8.39c0-.06-.06,0,0,0h16.89c.06,0,0-.06,0,0v8.39c0,.06.06,0,0,0h-8.45Z"/>
  <path class="st1" d="M623.68,627.88H28.4s-.05.02-.05.05v26.93s.02.06.05.06h8.45v16.89h-8.45s-.05.03-.05.06v17.01s.02.05.05.05h8.45v16.9h-8.45s-.05.02-.05.05v17.01s.02.06.05.06h8.45v16.89h-8.45s-.05.03-.05.06v17.01s.02.05.05.05h8.45v16.9h-8.45s-.05.02-.05.06v17s.02.06.05.06h8.45v16.9h-8.45s-.05.02-.05.05v17.01s.02.06.05.06h8.45v16.89h-8.45s-.05.03-.05.06v17.01s.02.05.05.05h8.45v16.9h-8.45s-.05.02-.05.05v17.01s.02.06.05.06h8.45v16.89h-8.45s-.05.03-.05.06v17.01s.02.05.05.05h8.45v16.9h-8.45s-.05.02-.05.05v17.01s.02.06.05.06h8.45v16.89h-8.45s-.05.03-.05.06v17.01s.02.06.05.06h8.45v16.89h-8.45s-.05.02-.05.06v17s.02.06.05.06h8.45v16.9h-8.45s-.05.02-.05.05v17.01s.02.06.05.06h8.45v16.89h-8.45s-.05.03-.05.06v17.01s.02.05.05.05h8.45v16.9h-8.45s-.05.02-.05.05v17.01s.02.06.05.06h8.45v16.89h-8.45s-.05.03-.05.06v17.01s.02.05.05.05h8.45v16.9h-8.45s-.05.02-.05.05v17.01s.02.06.05.06h8.45v16.89h-8.45s-.05.03-.05.06v17.01s.02.06.05.06h8.45v16.89h-8.45s-.05.03-.05.06v17s.02.06.05.06h8.45v16.9h-8.45s-.05.02-.05.05v17.01s.02.06.05.06h8.45v16.89h-8.45s-.05.03-.05.06v17.01s.02.05.05.05h8.45v16.9h-8.45s-.05.02-.05.05v17.01s.02.06.05.06h8.45v16.89h-8.45s-.05.03-.05.06v17.01s.02.05.05.05h8.45v16.9h-8.45s-.05.02-.05.06v17s.02.06.05.06h8.45v16.89h-8.45s-.05.03-.05.06v17.01s.02.06.05.06h8.45v16.89h-8.45s-.05.03-.05.06v17s.02.06.05.06h8.45v16.9h-8.45s-.05.02-.05.05v26.93s.02.06.05.06h32.14v8.45s.03.05.06.05h17s.06-.02.06-.05v-8.45h16.9v8.45s.02.05.05.05h17.01s.06-.02.06-.05v-8.45h16.89v8.45s.03.05.06.05h17.01s.05-.02.05-.05v-8.45h16.9v8.45s.02.05.05.05h17.01s.06-.02.06-.05v-8.45h16.89v8.45s.03.05.06.05h17.01s.05-.02.05-.05v-8.45h50.79v8.45s.03.05.06.05h17.01s.05-.02.05-.05v-8.45h16.9v8.45s.02.05.05.05h17.01s.06-.02.06-.05v-8.45h16.89v8.45s.03.05.06.05h17.01s.05-.02.05-.05v-8.45h16.9v8.45s.02.05.06.05h17s.06-.02.06-.05v-8.45h16.9v8.45s.02.05.05.05h17.01s.06-.02.06-.05v-8.45h16.89v8.45s.03.05.06.05h17.01s.05-.02.05-.05v-8.45h52.74v8.45s.02.05.05.05h17.01s.06-.02.06-.05v-8.45h16.89v8.45s.03.05.06.05h17.01s.05-.02.05-.05v-8.45h16.9v8.45s.02.05.05.05h17.01s.06-.02.06-.05v-8.45h34.08s.06-.03.06-.06v-921.26s-.03-.05-.06-.05ZM184.13,1083.47h-38.17c-1.68,0-3-1.46-2.82-3.14l38.17-358.16c.38-3.56,5.65-3.28,5.65.3v358.16c0,1.57-1.27,2.83-2.83,2.83ZM170.6,666.5l-44.16,414.44c-.15,1.44-1.37,2.53-2.82,2.53h-40.76c-1.57,0-2.83-1.27-2.83-2.83v-414.44c0-1.57,1.27-2.83,2.83-2.83h84.93c1.68,0,3,1.46,2.82,3.14ZM123.84,1105.29l-38.17,358.16c-.38,3.56-5.65,3.28-5.65-.3v-358.16c0-1.57,1.27-2.83,2.83-2.83h38.17c1.68,0,3,1.46,2.82,3.14ZM96.38,1519.13l44.16-414.44c.15-1.44,1.37-2.53,2.82-2.53h40.76c1.57,0,2.83,1.27,2.83,2.83v414.44c0,1.57-1.27,2.83-2.83,2.83h-84.93c-1.68,0-3-1.46-2.82-3.14ZM245.8,1522.21h-8.39v-16.9h8.39v16.9ZM245.8,1488.19h-8.39v-16.89h8.39v16.89ZM245.8,1454.17h-8.39v-16.89h8.39v16.89ZM245.8,1420.16h-8.39v-16.9h8.39v16.9ZM245.8,1386.14h-8.39v-16.89h8.39v16.89ZM245.8,1352.13h-8.39v-16.9h8.39v16.9ZM245.8,1318.11h-8.39v-16.89h8.39v16.89ZM245.8,1284.1h-8.39v-16.9h8.39v16.9ZM245.8,1250.08h-8.39v-16.89h8.39v16.89ZM245.8,1216.06h-8.39v-16.89h8.39v16.89ZM245.8,1182.05h-8.39v-16.9h8.39v16.9ZM245.8,1148.03h-8.39v-16.89h8.39v16.89ZM245.8,1114.02h-8.39v-16.9h8.39v16.9ZM245.8,1080h-8.39v-16.89h8.39v16.89ZM245.8,1045.99h-8.39v-16.9h8.39v16.9ZM245.8,1011.97h-8.39v-16.89h8.39v16.89ZM245.8,977.95h-8.39v-16.89h8.39v16.89ZM245.8,943.94h-8.39v-16.9h8.39v16.9ZM245.8,909.92h-8.39v-16.89h8.39v16.89ZM245.8,875.91h-8.39v-16.9h8.39v16.9ZM245.8,841.89h-8.39v-16.89h8.39v16.89ZM245.8,807.88h-8.39v-16.9h8.39v16.9ZM245.8,773.86h-8.39v-16.9h8.39v16.9ZM245.8,739.84h-8.39v-16.89h8.39v16.89ZM245.8,705.83h-8.39v-16.9h8.39v16.9ZM245.8,671.81h-8.39v-16.89h8.39v16.89ZM408.08,1083.47h-40.76c-1.45,0-2.67-1.09-2.82-2.53l-44.16-414.44c-.18-1.67,1.13-3.14,2.82-3.14h84.93c1.57,0,2.83,1.27,2.83,2.83v414.44c0,1.57-1.27,2.83-2.83,2.83ZM369.91,1102.16h38.17c1.57,0,2.83,1.27,2.83,2.83v358.16c0,3.58-5.27,3.86-5.65.3l-38.17-358.16c-.18-1.67,1.13-3.14,2.82-3.14ZM344.98,1083.47h-38.17c-1.57,0-2.83-1.27-2.83-2.83v-358.16c0-3.58,5.27-3.86,5.65-.3l38.17,358.16c.18,1.67-1.13,3.14-2.82,3.14ZM303.98,1519.43v-414.44c0-1.57,1.27-2.83,2.83-2.83h40.76c1.45,0,2.67,1.09,2.82,2.53l44.16,414.44c.18,1.67-1.13,3.14-2.82,3.14h-84.93c-1.57,0-2.83-1.27-2.83-2.83ZM478.81,1522.21h-8.39v-16.9h8.39v16.9ZM478.81,1488.19h-8.39v-16.89h8.39v16.89ZM478.81,1454.17h-8.39v-16.89h8.39v16.89ZM478.81,1420.16h-8.39v-16.9h8.39v16.9ZM478.81,1386.14h-8.39v-16.89h8.39v16.89ZM478.81,1352.13h-8.39v-16.9h8.39v16.9ZM478.81,1318.11h-8.39v-16.89h8.39v16.89ZM478.81,1284.1h-8.39v-16.9h8.39v16.9ZM478.81,1250.08h-8.39v-16.89h8.39v16.89ZM478.81,1216.06h-8.39v-16.89h8.39v16.89ZM478.81,1182.05h-8.39v-16.9h8.39v16.9ZM478.81,1148.03h-8.39v-16.89h8.39v16.89ZM478.81,1114.02h-8.39v-16.9h8.39v16.9ZM478.81,1080h-8.39v-16.89h8.39v16.89ZM478.81,1045.99h-8.39v-16.9h8.39v16.9ZM478.81,1011.97h-8.39v-16.89h8.39v16.89ZM478.81,977.95h-8.39v-16.89h8.39v16.89ZM478.81,943.94h-8.39v-16.9h8.39v16.9ZM478.81,909.92h-8.39v-16.89h8.39v16.89ZM478.81,875.91h-8.39v-16.9h8.39v16.9ZM478.81,841.89h-8.39v-16.89h8.39v16.89ZM478.81,807.88h-8.39v-16.9h8.39v16.9ZM478.81,773.86h-8.39v-16.9h8.39v16.9ZM478.81,739.84h-8.39v-16.89h8.39v16.89ZM478.81,705.83h-8.39v-16.9h8.39v16.9ZM478.81,671.81h-8.39v-16.89h8.39v16.89Z"/>
  <path class="st1" d="M1186,627.88h-543.96s-.05.02-.05.05v26.93s.02.06.05.06h8.45v16.89h-8.45s-.05.03-.05.06v17.01s.02.05.05.05h8.45v16.9h-8.45s-.05.02-.05.05v17.01s.02.06.05.06h8.45v16.89h-8.45s-.05.03-.05.06v17.01s.02.05.05.05h8.45v16.9h-8.45s-.05.02-.05.06v17s.02.06.05.06h8.45v16.9h-8.45s-.05.02-.05.05v17.01s.02.06.05.06h8.45v16.89h-8.45s-.05.03-.05.06v17.01s.02.05.05.05h8.45v16.9h-8.45s-.05.02-.05.05v17.01s.02.06.05.06h8.45v16.89h-8.45s-.05.03-.05.06v17.01s.02.05.05.05h8.45v16.9h-8.45s-.05.02-.05.05v17.01s.02.06.05.06h8.45v16.89h-8.45s-.05.03-.05.06v17.01s.02.06.05.06h8.45v16.89h-8.45s-.05.02-.05.06v17s.02.06.05.06h8.45v16.9h-8.45s-.05.02-.05.05v17.01s.02.06.05.06h8.45v16.89h-8.45s-.05.03-.05.06v17.01s.02.05.05.05h8.45v16.9h-8.45s-.05.02-.05.05v17.01s.02.06.05.06h8.45v16.89h-8.45s-.05.03-.05.06v17.01s.02.05.05.05h8.45v16.9h-8.45s-.05.02-.05.05v17.01s.02.06.05.06h8.45v16.89h-8.45s-.05.03-.05.06v17.01s.02.06.05.06h8.45v16.89h-8.45s-.05.03-.05.06v17s.02.06.05.06h8.45v16.9h-8.45s-.05.02-.05.05v17.01s.02.06.05.06h8.45v16.89h-8.45s-.05.03-.05.06v17.01s.02.05.05.05h8.45v16.9h-8.45s-.05.02-.05.05v17.01s.02.06.05.06h8.45v16.89h-8.45s-.05.03-.05.06v17.01s.02.05.05.05h8.45v16.9h-8.45s-.05.02-.05.06v17s.02.06.05.06h8.45v16.89h-8.45s-.05.03-.05.06v17.01s.02.06.05.06h8.45v16.89h-8.45s-.05.03-.05.06v17s.02.06.05.06h8.45v16.9h-8.45s-.05.02-.05.05v26.93s.02.06.05.06h32.14v8.45s.03.05.06.05h17s.06-.02.06-.05v-8.45h16.9v8.45s.02.05.05.05h17.01s.06-.02.06-.05v-8.45h16.89v8.45s.03.05.06.05h17.01s.05-.02.05-.05v-8.45h16.9v8.45s.02.05.05.05h17.01s.06-.02.06-.05v-8.45h16.89v8.45s.03.05.06.05h17.01s.05-.02.05-.05v-8.45h50.79v8.45s.03.05.06.05h17.01s.05-.02.05-.05v-8.45h16.9v8.45s.02.05.05.05h17.01s.06-.02.06-.05v-8.45h16.89v8.45s.03.05.06.05h17.01s.05-.02.05-.05v-8.45h16.9v8.45s.02.05.06.05h17s.06-.02.06-.05v-8.45h16.9v8.45s.02.05.05.05h17.01s.06-.02.06-.05v-8.45h16.89v8.45s.03.05.06.05h17.01s.05-.02.05-.05v-8.45h52.74v8.45s.02.05.05.05h17.01s.06-.02.06-.05v-8.45h16.89v8.45s.03.05.06.05h17.01s.05-.02.05-.05v-8.45h16.78v-921.37ZM917.62,722.47c0-3.58,5.27-3.86,5.65-.3l18.21,170.86h-23.86v-170.56ZM851.05,654.92h8.39v16.89h-8.39v-16.89ZM851.05,688.93h8.39v16.9h-8.39v-16.9ZM851.05,722.95h8.39v16.89h-8.39v-16.89ZM851.05,756.96h8.39v16.9h-8.39v-16.9ZM851.05,790.98h8.39v16.9h-8.39v-16.9ZM851.05,825h8.39v16.89h-8.39v-16.89ZM851.05,859.01h8.39v16.9h-8.39v-16.9ZM800.6,722.47v170.56h-23.86l18.21-170.86c.38-3.56,5.65-3.28,5.65.3ZM693.66,666.2c0-1.57,1.27-2.84,2.84-2.84h84.93c1.68,0,2.99,1.47,2.82,3.14l-44.17,414.44c-.15,1.44-1.37,2.53-2.82,2.53h-40.76c-1.57,0-2.84-1.27-2.84-2.84v-414.43ZM699.32,1463.46c-.38,3.56-5.66,3.28-5.66-.3v-358.16c0-1.57,1.27-2.84,2.84-2.84h38.17c1.68,0,2.99,1.46,2.81,3.14l-38.16,358.16ZM800.6,1519.43c0,1.57-1.27,2.84-2.83,2.84h-84.93c-1.68,0-3-1.47-2.82-3.14l24.16-226.71h32.87c.56.12,1.14.18,1.73.18h31.82v226.83ZM859.44,1522.21h-8.39v-16.9h8.39v16.9ZM859.44,1488.19h-8.39v-16.89h8.39v16.89ZM859.44,1454.17h-8.39v-16.89h8.39v16.89ZM859.44,1420.16h-8.39v-16.9h8.39v16.9ZM859.44,1386.14h-8.39v-16.89h8.39v16.89ZM859.44,1352.13h-8.39v-16.9h8.39v16.9ZM859.44,1318.11h-8.39v-16.89h8.39v16.89ZM795.17,1274.23c-4.69,0-8.5-3.8-8.5-8.5v-345.83c0-4.69,3.81-8.5,8.5-8.5h201.26c4.7,0,8.51,3.81,8.51,8.5v345.83c0,4.7-3.81,8.5-8.51,8.5h-201.26ZM1005.38,1522.27h-84.93c-1.56,0-2.83-1.27-2.83-2.84v-226.83h66.44l24.14,226.53c.18,1.67-1.13,3.14-2.82,3.14ZM1024.56,1463.16c0,3.58-5.28,3.86-5.66.3l-18.2-170.86h22.13c.59,0,1.17-.06,1.73-.18v170.74ZM1024.56,893.21c-.56-.12-1.14-.18-1.73-.18h-64.71l-24.14-226.53c-.18-1.67,1.13-3.14,2.82-3.14h84.92c1.57,0,2.84,1.27,2.84,2.84v227.01ZM1092.45,1522.21h-8.39v-16.9h8.39v16.9ZM1092.45,1488.19h-8.39v-16.89h8.39v16.89ZM1092.45,1454.17h-8.39v-16.89h8.39v16.89ZM1092.45,1420.16h-8.39v-16.9h8.39v16.9ZM1092.45,1386.14h-8.39v-16.89h8.39v16.89ZM1092.45,1352.13h-8.39v-16.9h8.39v16.9ZM1092.45,1318.11h-8.39v-16.89h8.39v16.89ZM1092.45,1284.1h-8.39v-16.9h8.39v16.9ZM1092.45,1250.08h-8.39v-16.89h8.39v16.89ZM1092.45,1216.06h-8.39v-16.89h8.39v16.89ZM1092.45,1182.05h-8.39v-16.9h8.39v16.9ZM1092.45,1148.03h-8.39v-16.89h8.39v16.89ZM1092.45,1114.02h-8.39v-16.9h8.39v16.9ZM1092.45,1080h-8.39v-16.89h8.39v16.89ZM1092.45,1045.99h-8.39v-16.9h8.39v16.9ZM1092.45,1011.97h-8.39v-16.89h8.39v16.89ZM1092.45,977.95h-8.39v-16.89h8.39v16.89ZM1092.45,943.94h-8.39v-16.9h8.39v16.9ZM1092.45,909.92h-8.39v-16.89h8.39v16.89ZM1092.45,875.91h-8.39v-16.9h8.39v16.9ZM1092.45,841.89h-8.39v-16.89h8.39v16.89ZM1092.45,807.88h-8.39v-16.9h8.39v16.9ZM1092.45,773.86h-8.39v-16.9h8.39v16.9ZM1092.45,739.84h-8.39v-16.89h8.39v16.89ZM1092.45,705.83h-8.39v-16.9h8.39v16.9ZM1092.45,671.81h-8.39v-16.89h8.39v16.89Z"/>
  <path class="st1" d="M259.43,28.35h-38.98s-.06.03-.06.06v8.45h-16.89v-8.45s-.03-.06-.06-.06h-17.01s-.06.03-.06.06v8.45h-16.89v-8.45s-.03-.06-.06-.06h-17.01s-.06.03-.06.06v8.45h-16.89v-8.45s-.03-.06-.06-.06h-17.01s-.06.03-.06.06v8.45h-16.89v-8.45s-.03-.06-.06-.06h-17.01s-.06.03-.06.06v8.45h-16.89v-8.45s-.03-.06-.06-.06H28.4l-.06.06v32.19s.03.06.06.06h8.45v16.89h-8.45s-.06.03-.06.06v17.01s.03.06.06.06h8.45v16.89h-8.45s-.06.03-.06.06v17.01s.03.06.06.06h8.45v16.89h-8.45s-.06.03-.06.06v17.01s.03.06.06.06h8.45v16.89h-8.45s-.06.03-.06.06v17.01s.03.06.06.06h8.45v16.89h-8.45s-.06.03-.06.06v50.9s.03.06.06.06h8.45v16.89h-8.45s-.06.03-.06.06v17.01s.03.06.06.06h8.45v16.89h-8.45s-.06.03-.06.06v17.01s.03.06.06.06h8.45v16.89h-8.45s-.06.03-.06.06v17.01s.03.06.06.06h8.45v16.89h-8.45s-.06.03-.06.06v17.01s.03.06.06.06h8.45v16.89h-8.45s-.06.03-.06.06v17.01s.03.06.06.06h8.45v16.89h-8.45s-.06.03-.06.06v52.85s.03.06.06.06h8.45v16.89h-8.45s-.06.03-.06.06v17.01s.03.06.06.06h8.45v16.89h-8.45s-.06.03-.06.06v17.01s.03.06.06.06h8.45v16.89h-8.45s-.06.03-.06.06v34.14l.06.06h179.4v-51.62h51.62v.47s.06-.03.06-.06v-17.01s-.03-.06-.06-.06h-8.45v-16.89h8.45s.06-.03.06-.06v-17.01s-.03-.06-.06-.06h-8.45v-16.89h8.45s.06-.03.06-.06v-52.85s-.03-.06-.06-.06h-8.45v-16.89h8.45s.06-.03.06-.06v-17.01s-.03-.06-.06-.06h-8.45v-16.89h8.45s.06-.03.06-.06v-17.01s-.03-.06-.06-.06h-8.45v-16.89h8.45s.06-.03.06-.06v-17.01s-.03-.06-.06-.06h-8.45v-16.89h8.45s.06-.03.06-.06v-17.01s-.03-.06-.06-.06h-8.45v-16.89h8.45s.06-.03.06-.06v-17.01s-.03-.06-.06-.06h-8.45v-16.89h8.45s.06-.03.06-.06v-50.9s-.03-.06-.06-.06h-8.45v-16.89h8.45s.06-.03.06-.06v-17.01s-.03-.06-.06-.06h-8.45v-16.89h8.45s.06-.03.06-.06v-17.01s-.03-.06-.06-.06h-8.45v-16.89h8.45s.06-.03.06-.06v-17.01s-.03-.06-.06-.06h-8.45v-16.89h8.45s.06-.03.06-.06v-17.01s-.03-.06-.06-.06h-8.45v-16.89h8.45s.06-.03.06-.06V28.4l-.06-.06Z"/>
  <line class="st1" x1="194.94" y1="1985.19" x2="194.93" y2="1985.19"/>
  <line class="st0" x1="53.21" y1="1985.19" x2="53.2" y2="1985.19"/>
  <line class="st1" x1="194.94" y1="2068.81" x2="194.93" y2="2068.81"/>
  <line class="st0" x1="53.21" y1="2068.81" x2="53.2" y2="2068.81"/>
  <path class="st0" d="M747.02,1561.04v931.91h233.28v-931.91h-233.28ZM812.91,2409.04h-39.67v-340.16h39.67v340.16ZM812.91,1985.26h-39.67v-340.16h39.67v340.16ZM883.79,2409.04h-39.7v-340.16h39.7v340.16ZM883.79,1985.26h-39.7v-340.16h39.7v340.16ZM954.64,2409.04h-39.68v-340.16h39.68v340.16ZM954.64,1985.26h-39.68v-340.16h39.68v340.16Z"/>
  <rect class="st1" x="186.14" y="1636.74" width="57.29" height="356.74"/>
  <rect class="st1" x="115.27" y="1636.74" width="57.29" height="356.74"/>
  <rect class="st1" x="44.69" y="1636.74" width="57.29" height="356.74"/>
  <rect class="st1" x="186.14" y="2060.52" width="57.29" height="356.74"/>
  <rect class="st1" x="115.27" y="2060.52" width="57.29" height="356.74"/>
  <rect class="st1" x="44.69" y="2060.52" width="57.29" height="356.74"/>
  <line class="st1" x1="435.91" y1="1985.19" x2="435.9" y2="1985.19"/>
  <line class="st1" x1="435.91" y1="2068.81" x2="435.9" y2="2068.81"/>
  <rect class="st1" x="427.1" y="1636.74" width="57.29" height="356.74"/>
  <rect class="st1" x="356.23" y="1636.74" width="57.29" height="356.74"/>
  <rect class="st1" x="285.65" y="1636.74" width="57.29" height="356.74"/>
  <rect class="st1" x="427.1" y="2060.52" width="57.29" height="356.74"/>
  <rect class="st1" x="356.23" y="2060.52" width="57.29" height="356.74"/>
  <rect class="st1" x="285.65" y="2060.52" width="57.29" height="356.74"/>
  <path class="st0" d="M995.08,1561.04v931.91h219.11v-931.91h-219.11ZM1053.88,2409.04h-39.67v-340.16h39.67v340.16ZM1053.88,1985.26h-39.67v-340.16h39.67v340.16ZM1124.76,2409.04h-39.7v-340.16h39.7v340.16ZM1124.76,1985.26h-39.7v-340.16h39.7v340.16ZM1195.61,2409.04h-39.68v-340.16h39.68v340.16ZM1195.61,1985.26h-39.68v-340.16h39.68v340.16Z"/>
</svg>