<?xml version="1.0" encoding="UTF-8"?>
<svg id="Layer_1" xmlns="http://www.w3.org/2000/svg" version="1.1" xmlns:cc="http://creativecommons.org/ns#" xmlns:dc="http://purl.org/dc/elements/1.1/" xmlns:inkscape="http://www.inkscape.org/namespaces/inkscape" xmlns:rdf="http://www.w3.org/1999/02/22-rdf-syntax-ns#" xmlns:svg="http://www.w3.org/2000/svg" viewBox="0 0 1251.72 1560.87">
  <!-- Generator: Adobe Illustrator 29.4.0, SVG Export Plug-In . SVG Version: 2.1.0 Build 152)  -->
  <defs>
    <style>
      .st0 {
        stroke: #212529;
        stroke-linejoin: bevel;
        stroke-width: 1.98px;
      }

      .st0, .st1 {
        fill: none;
        stroke-linecap: round;
      }

      .st1 {
        stroke: #000;
        stroke-linejoin: round;
        stroke-width: .14px;
      }

      .st2 {
        fill: red;
        font-family: ArialMT, Arial;
        font-size: 17.01px;
        isolation: isolate;
      }
    </style>
  </defs>
  <g id="p-0">
    <path class="st1" d="M28.4,1532.52h283.46v-28.35H28.4v28.35Z"/>
    <text class="st2" transform="translate(79.86 1524.44)"><tspan x="0" y="0">100.0mm, burn:0.02mm</tspan></text>
  </g>
  <g id="p-5">
    <path class="st1" d="M597.48,600.54H14.22s-.05.02-.05.05v17.02s.03.06.06.06h8.44v16.89h-8.45s-.05.02-.05.05v17.02s.02.05.05.05h8.45v16.9h-8.45s-.05.02-.05.05v17.01s.03.06.06.06h8.44v16.89h-8.44s-.06.03-.06.06v17.01s.02.05.05.05h8.45v16.9h-8.45s-.05.02-.05.05v17.01s.03.06.06.06h8.44v16.89h-8.45s-.05.02-.05.05v17.02s.02.05.05.05h8.45v16.9h-8.45s-.05.02-.05.06v17s.03.06.06.06h8.44v16.9h-8.45s-.05.02-.05.05v17.01s.03.06.06.06h8.44v16.89h-8.45s-.05.02-.05.05v17.02s.02.05.05.05h8.45v16.9h-8.45s-.05.02-.05.05v17.01s.03.06.06.06h8.44v16.89h-8.45s-.05.02-.05.05v17.02s.02.05.05.05h8.45v16.9h-8.45s-.05.02-.05.05v17.01s.03.06.06.06h8.44v16.89h-8.45s-.05.02-.05.05v25.58h583.37c6.64,0,12.02-5.38,12.02-12.02v-44.02c0-6.64-5.38-12.02-12.02-12.02h-44.56c-13.96,0-25.27-11.32-25.27-25.27v-247.15c0-13.96,11.32-25.27,25.27-25.27h44.56c6.64,0,12.02-5.38,12.02-12.02v-43.96c0-6.64-5.44-12.08-12.08-12.08ZM114.1,1011.37c0,4.7-3.81,8.51-8.51,8.51h-33.03c-4.7,0-8.51-3.81-8.51-8.51v-387.84c0-4.7,3.81-8.5,8.51-8.5h33.03c4.7,0,8.51,3.8,8.51,8.5v387.84ZM164.81,617.67v16.89h-8.39v-16.89h8.39ZM164.81,668.58h-8.39v-16.9h8.39v16.9ZM164.81,702.59h-8.39v-16.89h8.39v16.89ZM164.81,736.61h-8.39v-16.9h8.39v16.9ZM164.81,770.62h-8.39v-16.89h8.39v16.89ZM164.81,804.64h-8.39v-16.9h8.39v16.9ZM164.81,838.66h-8.39v-16.9h8.39v16.9ZM164.81,872.67h-8.39v-16.89h8.39v16.89ZM164.81,906.69h-8.39v-16.9h8.39v16.9ZM164.81,940.7h-8.39v-16.89h8.39v16.89ZM164.81,974.72h-8.39v-16.9h8.39v16.9ZM156.42,1008.73v-16.89h8.39v16.89h-8.39ZM446.7,1008.76h-253.4c-3.13,0-5.67-2.54-5.67-5.67v-351.72c0-5.51,7.05-7.78,10.27-3.32l253.4,351.73c2.7,3.75.02,8.98-4.6,8.98ZM472.56,975.03c0,5.51-7.05,7.78-10.26,3.32l-253.41-351.73c-2.7-3.75-.02-8.98,4.6-8.98h253.41c3.13,0,5.66,2.54,5.66,5.67v351.72ZM499.38,617.67v16.89h-8.39v-16.89h8.39ZM499.38,668.58h-8.39v-16.9h8.39v16.9ZM499.38,702.59h-8.39v-16.89h8.39v16.89ZM499.38,736.61h-8.39v-16.9h8.39v16.9ZM499.38,770.62h-8.39v-16.89h8.39v16.89ZM499.38,804.64h-8.39v-16.9h8.39v16.9ZM499.38,838.66h-8.39v-16.9h8.39v16.9ZM499.38,872.67h-8.39v-16.89h8.39v16.89ZM499.38,906.69h-8.39v-16.9h8.39v16.9ZM499.38,940.7h-8.39v-16.89h8.39v16.89ZM499.38,974.72h-8.39v-16.9h8.39v16.9ZM490.99,1008.73v-16.89h8.39v16.89h-8.39Z"/>
  </g>
  <path class="st1" d="M680.82,1100.85s.06-.03.06-.06v-17.01s-.03-.06-.06-.06h-8.45v-16.95s-.03-.06-.06-.06h-181.42s-.06.03-.06.06v16.95h-8.45s-.06.03-.06.06v17.01s.03.06.06.06h8.45v16.89h-8.45s-.06.03-.06.06v17.01s.03.06.06.06h8.45v16.89h-8.45s-.06.03-.06.06v17.01s.03.06.06.06h8.45v16.89h-8.45s-.06.03-.06.06v17.01s.03.06.06.06h8.45v16.89h-8.45s-.06.03-.06.06v17.01s.03.06.06.06h8.45v16.89h-8.45s-.06.03-.06.06v17.01s.03.06.06.06h8.45v16.89h-8.45s-.06.03-.06.06v17.01s.03.06.06.06h8.45v16.89h-8.45s-.06.03-.06.06v17.01s.03.06.06.06h8.45v16.89h-8.45s-.06.03-.06.06v17.01s.03.06.06.06h8.45v16.89h-8.45s-.06.03-.06.06v17.01s.03.06.06.06h8.45v16.89h-8.45s-.06.03-.06.06v17.01s.03.06.06.06h8.45v16.89h-8.45s-.06.03-.06.06v17.01s.03.06.06.06h8.45v25.51h181.53v-25.51h8.45s.06-.03.06-.06v-17.01s-.03-.06-.06-.06h-8.45v-16.89h8.45s.06-.03.06-.06v-17.01s-.03-.06-.06-.06h-8.45v-16.89h8.45s.06-.03.06-.06v-17.01s-.03-.06-.06-.06h-8.45v-16.89h8.45s.06-.03.06-.06v-17.01s-.03-.06-.06-.06h-8.45v-16.89h8.45s.06-.03.06-.06v-17.01s-.03-.06-.06-.06h-8.45v-16.89h8.45s.06-.03.06-.06v-17.01s-.03-.06-.06-.06h-8.45v-16.89h8.45s.06-.03.06-.06v-17.01s-.03-.06-.06-.06h-8.45v-16.89h8.45s.06-.03.06-.06v-17.01s-.03-.06-.06-.06h-8.45v-16.89h8.45s.06-.03.06-.06v-17.01s-.03-.06-.06-.06h-8.45v-16.89h8.45s.06-.03.06-.06v-17.01s-.03-.06-.06-.06h-8.45v-16.89h8.45s.06-.03.06-.06v-17.01s-.03-.06-.06-.06h-8.45v-16.89h8.45Z"/>
  <g>
    <rect class="st0" x="718.54" y="1112.83" width="141.73" height="340.16"/>
    <rect class="st0" x="699" y="1066.05" width="180.85" height="433.7"/>
  </g>
  <g>
    <path class="st1" d="M222.78,1100.85s.06-.03.06-.06v-17.01s-.03-.06-.06-.06h-8.45v-16.95s-.03-.06-.06-.06H32.86s-.06.03-.06.06v16.95h-8.45s-.06.03-.06.06v17.01s.03.06.06.06h8.45v16.89h-8.45s-.06.03-.06.06v17.01s.03.06.06.06h8.45v16.89h-8.45s-.06.03-.06.06v17.01s.03.06.06.06h8.45v16.89h-8.45s-.06.03-.06.06v17.01s.03.06.06.06h8.45v16.89h-8.45s-.06.03-.06.06v17.01s.03.06.06.06h8.45v16.89h-8.45s-.06.03-.06.06v17.01s.03.06.06.06h8.45v16.89h-8.45s-.06.03-.06.06v17.01s.03.06.06.06h8.45v16.89h-8.45s-.06.03-.06.06v17.01s.03.06.06.06h8.45v16.89h-8.45s-.06.03-.06.06v17.01s.03.06.06.06h8.45v16.89h-8.45s-.06.03-.06.06v17.01s.03.06.06.06h8.45v16.89h-8.45s-.06.03-.06.06v17.01s.03.06.06.06h8.45v16.89h-8.45s-.06.03-.06.06v17.01s.03.06.06.06h8.45v25.51h181.53v-25.51h8.45s.06-.03.06-.06v-17.01s-.03-.06-.06-.06h-8.45v-16.89h8.45s.06-.03.06-.06v-17.01s-.03-.06-.06-.06h-8.45v-16.89h8.45s.06-.03.06-.06v-17.01s-.03-.06-.06-.06h-8.45v-16.89h8.45s.06-.03.06-.06v-17.01s-.03-.06-.06-.06h-8.45v-16.89h8.45s.06-.03.06-.06v-17.01s-.03-.06-.06-.06h-8.45v-16.89h8.45s.06-.03.06-.06v-17.01s-.03-.06-.06-.06h-8.45v-16.89h8.45s.06-.03.06-.06v-17.01s-.03-.06-.06-.06h-8.45v-16.89h8.45s.06-.03.06-.06v-17.01s-.03-.06-.06-.06h-8.45v-16.89h8.45s.06-.03.06-.06v-17.01s-.03-.06-.06-.06h-8.45v-16.89h8.45s.06-.03.06-.06v-17.01s-.03-.06-.06-.06h-8.45v-16.89h8.45s.06-.03.06-.06v-17.01s-.03-.06-.06-.06h-8.45v-16.89h8.45Z"/>
    <rect class="st0" x="44.3" y="1103.73" width="158.55" height="359.79"/>
  </g>
  <g>
    <path class="st1" d="M456.75,1100.85s.06-.03.06-.06v-17.01s-.03-.06-.06-.06h-8.45v-16.95s-.03-.06-.06-.06h-181.42s-.06.03-.06.06v16.95h-8.45s-.06.03-.06.06v17.01s.03.06.06.06h8.45v16.89h-8.45s-.06.03-.06.06v17.01s.03.06.06.06h8.45v16.89h-8.45s-.06.03-.06.06v17.01s.03.06.06.06h8.45v16.89h-8.45s-.06.03-.06.06v17.01s.03.06.06.06h8.45v16.89h-8.45s-.06.03-.06.06v17.01s.03.06.06.06h8.45v16.89h-8.45s-.06.03-.06.06v17.01s.03.06.06.06h8.45v16.89h-8.45s-.06.03-.06.06v17.01s.03.06.06.06h8.45v16.89h-8.45s-.06.03-.06.06v17.01s.03.06.06.06h8.45v16.89h-8.45s-.06.03-.06.06v17.01s.03.06.06.06h8.45v16.89h-8.45s-.06.03-.06.06v17.01s.03.06.06.06h8.45v16.89h-8.45s-.06.03-.06.06v17.01s.03.06.06.06h8.45v16.89h-8.45s-.06.03-.06.06v17.01s.03.06.06.06h8.45v25.51h181.53v-25.51h8.45s.06-.03.06-.06v-17.01s-.03-.06-.06-.06h-8.45v-16.89h8.45s.06-.03.06-.06v-17.01s-.03-.06-.06-.06h-8.45v-16.89h8.45s.06-.03.06-.06v-17.01s-.03-.06-.06-.06h-8.45v-16.89h8.45s.06-.03.06-.06v-17.01s-.03-.06-.06-.06h-8.45v-16.89h8.45s.06-.03.06-.06v-17.01s-.03-.06-.06-.06h-8.45v-16.89h8.45s.06-.03.06-.06v-17.01s-.03-.06-.06-.06h-8.45v-16.89h8.45s.06-.03.06-.06v-17.01s-.03-.06-.06-.06h-8.45v-16.89h8.45s.06-.03.06-.06v-17.01s-.03-.06-.06-.06h-8.45v-16.89h8.45s.06-.03.06-.06v-17.01s-.03-.06-.06-.06h-8.45v-16.89h8.45s.06-.03.06-.06v-17.01s-.03-.06-.06-.06h-8.45v-16.89h8.45s.06-.03.06-.06v-17.01s-.03-.06-.06-.06h-8.45v-16.89h8.45Z"/>
    <rect class="st0" x="278.26" y="1103.73" width="158.55" height="359.79"/>
  </g>
  <g id="p-51" data-name="p-5">
    <path class="st1" d="M1209.17,600.54h-583.26s-.05.02-.05.05v17.02s.03.06.06.06h8.44v16.89h-8.45s-.05.02-.05.05v17.02s.02.05.05.05h8.45v16.9h-8.45s-.05.02-.05.05v17.01s.03.06.06.06h8.44v16.89h-8.44s-.06.03-.06.06v17.01s.02.05.05.05h8.45v16.9h-8.45s-.05.02-.05.05v17.01s.03.06.06.06h8.44v16.89h-8.45s-.05.02-.05.05v17.02s.02.05.05.05h8.45v16.9h-8.45s-.05.02-.05.06v17s.03.06.06.06h8.44v16.9h-8.45s-.05.02-.05.05v17.01s.03.06.06.06h8.44v16.89h-8.45s-.05.02-.05.05v17.02s.02.05.05.05h8.45v16.9h-8.45s-.05.02-.05.05v17.01s.03.06.06.06h8.44v16.89h-8.45s-.05.02-.05.05v17.02s.02.05.05.05h8.45v16.9h-8.45s-.05.02-.05.05v17.01s.03.06.06.06h8.44v16.89h-8.45s-.05.02-.05.05v25.58h583.37c6.64,0,12.02-5.38,12.02-12.02v-44.02c0-6.64-5.38-12.02-12.02-12.02h-44.56c-13.96,0-25.27-11.32-25.27-25.27v-247.15c0-13.96,11.32-25.27,25.27-25.27h44.56c6.64,0,12.02-5.38,12.02-12.02v-43.96c0-6.64-5.44-12.08-12.08-12.08ZM725.79,1011.37c0,4.7-3.81,8.51-8.51,8.51h-33.03c-4.7,0-8.51-3.81-8.51-8.51v-387.84c0-4.7,3.81-8.5,8.51-8.5h33.03c4.7,0,8.51,3.8,8.51,8.5v387.84ZM776.5,617.67v16.89h-8.39v-16.89h8.39ZM776.5,668.58h-8.39v-16.9h8.39v16.9ZM776.5,702.59h-8.39v-16.89h8.39v16.89ZM776.5,736.61h-8.39v-16.9h8.39v16.9ZM776.5,770.62h-8.39v-16.89h8.39v16.89ZM776.5,804.64h-8.39v-16.9h8.39v16.9ZM776.5,838.66h-8.39v-16.9h8.39v16.9ZM776.5,872.67h-8.39v-16.89h8.39v16.89ZM776.5,906.69h-8.39v-16.9h8.39v16.9ZM776.5,940.7h-8.39v-16.89h8.39v16.89ZM776.5,974.72h-8.39v-16.9h8.39v16.9ZM768.11,1008.73v-16.89h8.39v16.89h-8.39ZM1058.39,1008.76h-253.4c-3.13,0-5.67-2.54-5.67-5.67v-351.72c0-5.51,7.05-7.78,10.27-3.32l253.4,351.73c2.7,3.75.02,8.98-4.6,8.98ZM1084.25,975.03c0,5.51-7.05,7.78-10.26,3.32l-253.41-351.73c-2.7-3.75-.02-8.98,4.6-8.98h253.41c3.13,0,5.66,2.54,5.66,5.67v351.72ZM1111.07,617.67v16.89h-8.39v-16.89h8.39ZM1111.07,668.58h-8.39v-16.9h8.39v16.9ZM1111.07,702.59h-8.39v-16.89h8.39v16.89ZM1111.07,736.61h-8.39v-16.9h8.39v16.9ZM1111.07,770.62h-8.39v-16.89h8.39v16.89ZM1111.07,804.64h-8.39v-16.9h8.39v16.9ZM1111.07,838.66h-8.39v-16.9h8.39v16.9ZM1111.07,872.67h-8.39v-16.89h8.39v16.89ZM1111.07,906.69h-8.39v-16.9h8.39v16.9ZM1111.07,940.7h-8.39v-16.89h8.39v16.89ZM1111.07,974.72h-8.39v-16.9h8.39v16.9ZM1102.68,1008.73v-16.89h8.39v16.89h-8.39Z"/>
  </g>
</svg>