<?xml version="1.0" encoding="UTF-8"?>
<svg id="Layer_1" xmlns="http://www.w3.org/2000/svg" version="1.1" xmlns:cc="http://creativecommons.org/ns#" xmlns:dc="http://purl.org/dc/elements/1.1/" xmlns:inkscape="http://www.inkscape.org/namespaces/inkscape" xmlns:rdf="http://www.w3.org/1999/02/22-rdf-syntax-ns#" xmlns:svg="http://www.w3.org/2000/svg" viewBox="0 0 2136.25 950.12">
  <!-- Generator: Adobe Illustrator 29.4.0, SVG Export Plug-In . SVG Version: 2.1.0 Build 152)  -->
  <defs>
    <style>
      .st0 {
        stroke: #000;
      }

      .st0, .st1, .st2 {
        fill: none;
        stroke-linecap: round;
      }

      .st0, .st2 {
        stroke-linejoin: round;
        stroke-width: .14px;
      }

      .st1 {
        stroke: #212529;
        stroke-linejoin: bevel;
        stroke-width: 1.98px;
      }

      .st2 {
        stroke: blue;
      }

      .st3 {
        fill: red;
        font-family: ArialMT, Arial;
        font-size: 17.01px;
        isolation: isolate;
      }
    </style>
  </defs>
  <path class="st0" d="M28.4,921.77h283.46v-28.35H28.4v28.35Z"/>
  <text class="st3" transform="translate(79.86 913.69)"><tspan x="0" y="0">100.0mm, burn:0.02mm</tspan></text>
  <rect class="st2" x="163.01" y="404.2" width="8.4" height="16.89"/>
  <rect class="st2" x="163.01" y="370.18" width="8.4" height="16.9"/>
  <rect class="st2" x="163.01" y="336.17" width="8.4" height="16.89"/>
  <rect class="st2" x="163.01" y="302.15" width="8.4" height="16.89"/>
  <rect class="st2" x="163.01" y="268.13" width="8.4" height="16.9"/>
  <rect class="st2" x="163.01" y="234.12" width="8.4" height="16.89"/>
  <rect class="st2" x="163.01" y="200.1" width="8.4" height="16.9"/>
  <rect class="st2" x="163.01" y="166.09" width="8.4" height="16.89"/>
  <rect class="st2" x="163.01" y="132.07" width="8.4" height="16.9"/>
  <rect class="st2" x="163.01" y="98.06" width="8.4" height="16.89"/>
  <rect class="st2" x="163.01" y="64.04" width="8.4" height="16.89"/>
  <rect class="st2" x="163.01" y="30.02" width="8.4" height="16.9"/>
  <path class="st0" d="M529.13,489.38s.06-.03.06-.06v-17.01s-.03-.05-.06-.05h-8.45v-16.95s-.02-.06-.05-.06H18.89s-.05.02-.05.06v16.95h-8.45s-.06.02-.06.05v17.01s.03.06.06.06h8.45v16.89h-8.45s-.06.03-.06.06v17.01s.03.05.06.05h8.45v16.9h-8.45s-.06.02-.06.05v17.01s.03.06.06.06h8.45v16.89h-8.45s-.06.03-.06.06v17.01s.03.06.06.06h8.45v16.89h-8.45s-.06.03-.06.06v17s.03.06.06.06h8.45v16.9h-8.45s-.06.02-.06.05v17.01s.03.06.06.06h8.45v16.89h-8.45s-.06.03-.06.06v17.01s.03.05.06.05h8.45v16.9h-8.45s-.06.02-.06.05v17.01s.03.06.06.06h8.45v16.89h-8.45s-.06.03-.06.06v17.01s.03.05.06.05h8.45v16.9h-8.45s-.06.02-.06.06v17s.03.06.06.06h8.45v16.89h-8.45s-.06.03-.06.06v17.01s.03.06.06.06h8.45v16.89h-8.45s-.06.03-.06.06v17s.03.06.06.06h8.45v25.51h501.84v-25.51h8.45s.06-.02.06-.06v-17s-.03-.06-.06-.06h-8.45v-16.89h8.45s.06-.03.06-.06v-17.01s-.03-.06-.06-.06h-8.45v-16.89h8.45s.06-.03.06-.06v-17s-.03-.06-.06-.06h-8.45v-16.9h8.45s.06-.02.06-.05v-17.01s-.03-.06-.06-.06h-8.45v-16.89h8.45s.06-.03.06-.06v-17.01s-.03-.05-.06-.05h-8.45v-16.9h8.45s.06-.02.06-.05v-17.01s-.03-.06-.06-.06h-8.45v-16.89h8.45s.06-.03.06-.06v-17.01s-.03-.05-.06-.05h-8.45v-16.9h8.45s.06-.02.06-.06v-17s-.03-.06-.06-.06h-8.45v-16.89h8.45s.06-.03.06-.06v-17.01s-.03-.06-.06-.06h-8.45v-16.89h8.45s.06-.03.06-.06v-17.01s-.03-.05-.06-.05h-8.45v-16.9h8.45s.06-.02.06-.05v-17.01s-.03-.06-.06-.06h-8.45v-16.89h8.45ZM441.86,489.63c0-3.13,2.54-5.67,5.67-5.67h28.49c3.14,0,5.67,2.54,5.67,5.67v93.34c0,3.13-2.53,5.67-5.67,5.67h-28.49c-3.13,0-5.67-2.54-5.67-5.67v-93.34ZM59.4,489.63c0-3.13,2.53-5.67,5.66-5.67h28.5c3.13,0,5.67,2.54,5.67,5.67v93.34c0,3.13-2.54,5.67-5.67,5.67h-28.5c-3.13,0-5.66-2.54-5.66-5.67v-93.34ZM126.16,863.11H54.37c-3.13,0-5.67-2.54-5.67-5.67v-71.79c0-5.05,6.11-7.58,9.68-4.01l71.79,71.79c3.57,3.57,1.04,9.68-4.01,9.68ZM492.29,857.44c0,3.13-2.54,5.67-5.67,5.67h-71.79c-5.05,0-7.58-6.11-4.01-9.68l71.79-71.79c3.57-3.57,9.68-1.04,9.68,4.01v71.79ZM511.31,650.43c0,1.79-1.45,3.23-3.23,3.23h-68.09c-1.78,0-3.23,1.45-3.23,3.24v82.21c0,1.79-1.45,3.23-3.24,3.23h-59.4c-1.79,0-3.24,1.45-3.24,3.24v92.59c0,1.79-1.44,3.24-3.23,3.24h-195.78c-1.79,0-3.24-1.45-3.24-3.24v-92.59c0-1.79-1.44-3.24-3.23-3.24h-59.4c-1.79,0-3.24-1.44-3.24-3.23v-82.21c0-1.79-1.45-3.24-3.23-3.24H31.44c-1.78,0-3.23-1.44-3.23-3.23v-17.19c0-1.79,1.45-3.24,3.23-3.24h107.89c1.79,0,3.23-1.44,3.23-3.23v-126.81c0-1.78,1.45-3.23,3.24-3.23h247.92c1.79,0,3.23,1.45,3.23,3.23v126.81c0,1.79,1.45,3.23,3.24,3.23h107.89c.89,0,1.7.36,2.28.95.59.58.95,1.4.95,2.29v17.19Z"/>
  <path class="st0" d="M1072.37,489.38s.06-.03.06-.06v-17.01s-.03-.05-.06-.05h-8.45v-16.95s-.02-.06-.05-.06h-501.74s-.05.02-.05.06v16.95h-8.45s-.06.02-.06.05v17.01s.03.06.06.06h8.45v16.89h-8.45s-.06.03-.06.06v17.01s.03.05.06.05h8.45v16.9h-8.45s-.06.02-.06.05v17.01s.03.06.06.06h8.45v16.89h-8.45s-.06.03-.06.06v17.01s.03.06.06.06h8.45v16.89h-8.45s-.06.03-.06.06v17s.03.06.06.06h8.45v16.9h-8.45s-.06.02-.06.05v17.01s.03.06.06.06h8.45v16.89h-8.45s-.06.03-.06.06v17.01s.03.05.06.05h8.45v16.9h-8.45s-.06.02-.06.05v17.01s.03.06.06.06h8.45v16.89h-8.45s-.06.03-.06.06v17.01s.03.05.06.05h8.45v16.9h-8.45s-.06.02-.06.06v17s.03.06.06.06h8.45v16.89h-8.45s-.06.03-.06.06v17.01s.03.06.06.06h8.45v16.89h-8.45s-.06.03-.06.06v17s.03.06.06.06h8.45v25.51h501.84v-25.51h8.45s.06-.02.06-.06v-17s-.03-.06-.06-.06h-8.45v-16.89h8.45s.06-.03.06-.06v-17.01s-.03-.06-.06-.06h-8.45v-16.89h8.45s.06-.03.06-.06v-17s-.03-.06-.06-.06h-8.45v-16.9h8.45s.06-.02.06-.05v-17.01s-.03-.06-.06-.06h-8.45v-16.89h8.45s.06-.03.06-.06v-17.01s-.03-.05-.06-.05h-8.45v-16.9h8.45s.06-.02.06-.05v-17.01s-.03-.06-.06-.06h-8.45v-16.89h8.45s.06-.03.06-.06v-17.01s-.03-.05-.06-.05h-8.45v-16.9h8.45s.06-.02.06-.06v-17s-.03-.06-.06-.06h-8.45v-16.89h8.45s.06-.03.06-.06v-17.01s-.03-.06-.06-.06h-8.45v-16.89h8.45s.06-.03.06-.06v-17.01s-.03-.05-.06-.05h-8.45v-16.9h8.45s.06-.02.06-.05v-17.01s-.03-.06-.06-.06h-8.45v-16.89h8.45ZM985.1,489.63c0-3.13,2.54-5.67,5.67-5.67h28.49c3.14,0,5.67,2.54,5.67,5.67v93.34c0,3.13-2.53,5.67-5.67,5.67h-28.49c-3.13,0-5.67-2.54-5.67-5.67v-93.34ZM602.64,489.63c0-3.13,2.53-5.67,5.66-5.67h28.5c3.13,0,5.67,2.54,5.67,5.67v93.34c0,3.13-2.54,5.67-5.67,5.67h-28.5c-3.13,0-5.66-2.54-5.66-5.67v-93.34ZM669.4,863.11h-71.79c-3.13,0-5.67-2.54-5.67-5.67v-71.79c0-5.05,6.11-7.58,9.68-4.01l71.79,71.79c3.57,3.57,1.04,9.68-4.01,9.68ZM1035.53,857.44c0,3.13-2.54,5.67-5.67,5.67h-71.79c-5.05,0-7.58-6.11-4.01-9.68l71.79-71.79c3.57-3.57,9.68-1.04,9.68,4.01v71.79ZM1054.55,650.43c0,1.79-1.45,3.23-3.23,3.23h-68.09c-1.78,0-3.23,1.45-3.23,3.24v82.21c0,1.79-1.45,3.23-3.24,3.23h-59.4c-1.79,0-3.24,1.45-3.24,3.24v92.59c0,1.79-1.44,3.24-3.23,3.24h-195.78c-1.79,0-3.24-1.45-3.24-3.24v-92.59c0-1.79-1.44-3.24-3.23-3.24h-59.4c-1.79,0-3.24-1.44-3.24-3.23v-82.21c0-1.79-1.45-3.24-3.23-3.24h-68.09c-1.78,0-3.23-1.44-3.23-3.23v-17.19c0-1.79,1.45-3.24,3.23-3.24h107.89c1.79,0,3.23-1.44,3.23-3.23v-126.81c0-1.78,1.45-3.23,3.24-3.23h247.92c1.79,0,3.23,1.45,3.23,3.23v126.81c0,1.79,1.45,3.23,3.24,3.23h107.89c.89,0,1.7.36,2.28.95.59.58.95,1.4.95,2.29v17.19Z"/>
  <rect class="st0" x="756.57" y="319.07" width="0" height="1.56"/>
  <path class="st0" d="M616.15,66.8V27.08c0-7.83-6.35-14.18-14.18-14.18H20.82s-.06.03-.06.06v17.01s.02.05.05.05h8.46v16.9h-8.45s-.06.03-.06.06v17s.03.06.06.06h8.45v16.89h-8.45s-.06.03-.06.06v17.01s.03.06.06.06h8.45v16.89h-8.45s-.06.03-.06.06v17s.03.06.06.06h8.45v16.9h-8.46s-.05.02-.05.05v17.01s.03.06.06.06h8.45v16.89h-8.45s-.06.03-.06.06v17.01s.02.05.05.05h8.46v16.9h-8.45s-.06.03-.06.06v17s.03.06.06.06h8.45v16.89h-8.45s-.06.03-.06.06v17.01s.02.05.05.05h8.46v16.9h-8.45s-.06.03-.06.06v17s.03.06.06.06h8.45v16.89h-8.45s-.06.03-.06.06v17.01s.03.06.06.06h8.45v16.89h-8.45s-.06.03-.06.06v17.01s.02.05.05.05h8.46v16.9h-8.45s-.06.03-.06.06v17s.03.06.06.06h8.45v16.89h-8.45s-.06.03-.06.06v25.57h581.26c7.8,0,14.13-6.33,14.13-14.13v-48.28c0-7.8-6.33-14.13-14.13-14.13h-124.27c-16.63,0-30.11-13.48-30.11-30.11V111.04c0-16.63,13.48-30.11,30.11-30.11h124.27c7.8,0,14.13-6.33,14.13-14.13ZM115.22,412.64c0,4.7-3.81,8.51-8.51,8.51h-23.71c-4.7,0-8.51-3.81-8.51-8.51V46.98c0-4.7,3.81-8.51,8.51-8.51h23.71c4.7,0,8.51,3.81,8.51,8.51v365.66ZM171.41,421.09h-8.4v-16.89h8.4v16.89ZM171.41,387.08h-8.4v-16.9h8.4v16.9ZM171.41,353.06h-8.4v-16.89h8.4v16.89ZM171.41,319.04h-8.4v-16.89h8.4v16.89ZM171.41,285.03h-8.4v-16.9h8.4v16.9ZM171.41,251.01h-8.4v-16.89h8.4v16.89ZM171.41,217h-8.4v-16.9h8.4v16.9ZM171.41,182.98h-8.4v-16.89h8.4v16.89ZM171.41,148.97h-8.4v-16.9h8.4v16.9ZM171.41,114.95h-8.4v-16.89h8.4v16.89ZM171.41,80.93h-8.4v-16.89h8.4v16.89ZM171.41,46.92h-8.4v-16.9h8.4v16.9ZM397.09,412.64c0,4.7-3.81,8.51-8.51,8.51h-184.43c-4.7,0-8.51-3.81-8.51-8.51V46.98c0-4.7,3.81-8.51,8.51-8.51h184.43c4.7,0,8.51,3.81,8.51,8.51v365.66ZM425.79,421.09h-8.39v-16.89h8.39v16.89ZM425.79,387.08h-8.39v-16.9h8.39v16.9ZM425.79,353.06h-8.39v-16.89h8.39v16.89ZM425.79,319.04h-8.39v-16.89h8.39v16.89ZM425.79,285.03h-8.39v-16.9h8.39v16.9ZM425.79,251.01h-8.39v-16.89h8.39v16.89ZM425.79,217h-8.39v-16.9h8.39v16.9ZM425.79,182.98h-8.39v-16.89h8.39v16.89ZM425.79,148.97h-8.39v-16.9h8.39v16.9ZM425.79,114.95h-8.39v-16.89h8.39v16.89ZM425.79,80.93h-8.39v-16.89h8.39v16.89ZM425.79,46.92h-8.39v-16.9h8.39v16.9Z"/>
  <path class="st0" d="M1605.46,489.37s.06-.03.06-.06v-17.01s-.03-.06-.06-.06h-8.45v-16.95s-.03-.06-.06-.06h-42.96c-19.24,61.86-105,108.5-207.9,108.5s-188.66-46.64-207.9-108.5h-42.96s-.06.03-.06.06v16.95h-8.45s-.06.03-.06.06v17.01s.03.06.06.06h8.45v16.89h-8.45s-.06.03-.06.06v17.01s.03.06.06.06h8.45v16.89h-8.45s-.06.03-.06.06v17.01s.03.06.06.06h8.45v16.89h-8.45s-.06.03-.06.06v17.01s.03.06.06.06h8.45v16.89h-8.45s-.06.03-.06.06v17.01s.03.06.06.06h8.45v16.89h-8.45s-.06.03-.06.06v17.01s.03.06.06.06h8.45v16.89h-8.45s-.06.03-.06.06v17.01s.03.06.06.06h8.45v16.89h-8.45s-.06.03-.06.06v17.01s.03.06.06.06h8.45v16.89h-8.45s-.06.03-.06.06v17.01s.03.06.06.06h8.45v16.89h-8.45s-.06.03-.06.06v17.01s.03.06.06.06h8.45v16.89h-8.45s-.06.03-.06.06v17.01s.03.06.06.06h8.45v16.89h-8.45s-.06.03-.06.06v17.01s.03.06.06.06h8.45v25.51h50.73c18.95-99.96,101.38-175.19,200.19-175.19s181.24,75.23,200.19,175.19h50.73v-25.51h8.45s.06-.03.06-.06v-17.01s-.03-.06-.06-.06h-8.45v-16.89h8.45s.06-.03.06-.06v-17.01s-.03-.06-.06-.06h-8.45v-16.89h8.45s.06-.03.06-.06v-17.01s-.03-.06-.06-.06h-8.45v-16.89h8.45s.06-.03.06-.06v-17.01s-.03-.06-.06-.06h-8.45v-16.89h8.45s.06-.03.06-.06v-17.01s-.03-.06-.06-.06h-8.45v-16.89h8.45s.06-.03.06-.06v-17.01s-.03-.06-.06-.06h-8.45v-16.89h8.45s.06-.03.06-.06v-17.01s-.03-.06-.06-.06h-8.45v-16.89h8.45s.06-.03.06-.06v-17.01s-.03-.06-.06-.06h-8.45v-16.89h8.45s.06-.03.06-.06v-17.01s-.03-.06-.06-.06h-8.45v-16.89h8.45s.06-.03.06-.06v-17.01s-.03-.06-.06-.06h-8.45v-16.89h8.45s.06-.03.06-.06v-17.01s-.03-.06-.06-.06h-8.45v-16.89h8.45Z"/>
  <path class="st1" d="M1794.87,12.96h-516.75v433.7h516.75V12.96ZM1695.16,205.71l-6.85,82.21h-41.14v2.83h-22.69v99.21h-175.65v-99.21h-22.69v-2.83h-41.14l-6.85-82.21h-72.52v-8.5h119.14v-48.19h7.09v-79.37h212.43v79.37h7.09v48.19h116.3v8.5h-72.52Z"/>
  <rect class="st1" x="1624.9" y="455.25" width="490.21" height="133.28"/>
  <path class="st0" d="M1238.49,66.8V27.08c0-7.83-6.35-14.18-14.18-14.18h-581.15s-.06.03-.06.06v17.01s.02.05.05.05h8.46v16.9h-8.45s-.06.03-.06.06v17s.03.06.06.06h8.45v16.89h-8.45s-.06.03-.06.06v17.01s.03.06.06.06h8.45v16.89h-8.45s-.06.03-.06.06v17s.03.06.06.06h8.45v16.9h-8.46s-.05.02-.05.05v17.01s.03.06.06.06h8.45v16.89h-8.45s-.06.03-.06.06v17.01s.02.05.05.05h8.46v16.9h-8.45s-.06.03-.06.06v17s.03.06.06.06h8.45v16.89h-8.45s-.06.03-.06.06v17.01s.02.05.05.05h8.46v16.9h-8.45s-.06.03-.06.06v17s.03.06.06.06h8.45v16.89h-8.45s-.06.03-.06.06v17.01s.03.06.06.06h8.45v16.89h-8.45s-.06.03-.06.06v17.01s.02.05.05.05h8.46v16.9h-8.45s-.06.03-.06.06v17s.03.06.06.06h8.45v16.89h-8.45s-.06.03-.06.06v25.57h581.26c7.8,0,14.13-6.33,14.13-14.13v-48.28c0-7.8-6.33-14.13-14.13-14.13h-124.27c-16.63,0-30.11-13.48-30.11-30.11V111.04c0-16.63,13.48-30.11,30.11-30.11h124.27c7.8,0,14.13-6.33,14.13-14.13ZM737.56,412.64c0,4.7-3.81,8.51-8.51,8.51h-23.71c-4.7,0-8.51-3.81-8.51-8.51V46.98c0-4.7,3.81-8.51,8.51-8.51h23.71c4.7,0,8.51,3.81,8.51,8.51v365.66ZM793.75,421.09h-8.4v-16.89h8.4v16.89ZM793.75,387.08h-8.4v-16.9h8.4v16.9ZM793.75,353.06h-8.4v-16.89h8.4v16.89ZM793.75,319.04h-8.4v-16.89h8.4v16.89ZM793.75,285.03h-8.4v-16.9h8.4v16.9ZM793.75,251.01h-8.4v-16.89h8.4v16.89ZM793.75,217h-8.4v-16.9h8.4v16.9ZM793.75,182.98h-8.4v-16.89h8.4v16.89ZM793.75,148.97h-8.4v-16.9h8.4v16.9ZM793.75,114.95h-8.4v-16.89h8.4v16.89ZM793.75,80.93h-8.4v-16.89h8.4v16.89ZM793.75,46.92h-8.4v-16.9h8.4v16.9ZM1019.43,412.64c0,4.7-3.81,8.51-8.51,8.51h-184.43c-4.7,0-8.51-3.81-8.51-8.51V46.98c0-4.7,3.81-8.51,8.51-8.51h184.43c4.7,0,8.51,3.81,8.51,8.51v365.66ZM1048.13,421.09h-8.39v-16.89h8.39v16.89ZM1048.13,387.08h-8.39v-16.9h8.39v16.9ZM1048.13,353.06h-8.39v-16.89h8.39v16.89ZM1048.13,319.04h-8.39v-16.89h8.39v16.89ZM1048.13,285.03h-8.39v-16.9h8.39v16.9ZM1048.13,251.01h-8.39v-16.89h8.39v16.89ZM1048.13,217h-8.39v-16.9h8.39v16.9ZM1048.13,182.98h-8.39v-16.89h8.39v16.89ZM1048.13,148.97h-8.39v-16.9h8.39v16.9ZM1048.13,114.95h-8.39v-16.89h8.39v16.89ZM1048.13,80.93h-8.39v-16.89h8.39v16.89ZM1048.13,46.92h-8.39v-16.9h8.39v16.9Z"/>
</svg>