<?xml version="1.0" encoding="UTF-8"?>
<svg id="Layer_1" xmlns="http://www.w3.org/2000/svg" version="1.1" xmlns:cc="http://creativecommons.org/ns#" xmlns:dc="http://purl.org/dc/elements/1.1/" xmlns:inkscape="http://www.inkscape.org/namespaces/inkscape" xmlns:rdf="http://www.w3.org/1999/02/22-rdf-syntax-ns#" xmlns:svg="http://www.w3.org/2000/svg" viewBox="0 0 745.66 732.6">
  <!-- Generator: Adobe Illustrator 29.4.0, SVG Export Plug-In . SVG Version: 2.1.0 Build 152)  -->
  <defs>
    <style>
      .st0 {
        font-size: 11.34px;
      }

      .st0, .st1, .st2 {
        isolation: isolate;
      }

      .st0, .st2 {
        fill: red;
        font-family: ArialMT, Arial;
      }

      .st3 {
        fill: none;
        stroke: #000;
        stroke-linecap: round;
        stroke-linejoin: round;
        stroke-width: .23px;
      }

      .st2 {
        font-size: 17.01px;
      }
    </style>
  </defs>
  <g id="p-0">
    <path class="st3" d="M25.74,716.52h283.46v-28.35H25.74v28.35Z"/>
    <g class="st1">
      <text class="st2" transform="translate(77.2 708.44)"><tspan x="0" y="0">100.0mm, burn:0.04mm</tspan></text>
    </g>
  </g>
  <g class="st1">
    <text class="st0" transform="translate(82.37 385.77)"><tspan x="0" y="0">Wall 3</tspan></text>
  </g>
  <g id="p-5">
    <g class="st1">
      <text class="st0" transform="translate(235.15 58.15)"><tspan x="0" y="0">Top</tspan></text>
    </g>
    <path class="st3" d="M183.35,71.09h18.31c.11,0,0-.11,0,0v8.39c0,.06.05.11.11.11h17.01c.06,0,.11-.05.11-.11v-8.39c0-.11-.11,0,0,0h16.78c.11,0,0-.11,0,0v8.39c0,.06.05.11.11.11h17.01c.06,0,.11-.05.11-.11v-8.39c0-.11-.11,0,0,0h16.78c.11,0,0-.11,0,0v8.39c0,.06.05.11.11.11h17.01c.06,0,.11-.05.11-.11v-8.39c0-.11-.11,0,0,0h18.31c.06,0,.11-.05.11-.11v-8.39c0-.11-.11,0,0,0h8.39c.06,0,.11-.05.11-.11v-17.01c0-.06-.05-.11-.11-.11h-8.39c-.11,0,0,.11,0,0v-8.39c0-.06-.05-.11-.11-.11h-18.31c-.11,0,0,.11,0,0v-8.39c0-.06-.05-.11-.11-.11h-17.01c-.06,0-.11.05-.11.11v8.39c0,.11.11,0,0,0h-16.78c-.11,0,0,.11,0,0v-8.39c0-.06-.05-.11-.11-.11h-17.01c-.06,0-.11.05-.11.11v8.39c0,.11.11,0,0,0h-16.78c-.11,0,0,.11,0,0v-8.39c0-.06-.05-.11-.11-.11h-17.01c-.06,0-.11.05-.11.11v8.39c0,.11.11,0,0,0h-18.31c-.06,0-.11.05-.11.11v8.39c0,.11.11,0,0,0h-8.39c-.06,0-.11.05-.11.11v17.01c0,.06.05.11.11.11h8.39c.11,0,0-.11,0,0v8.39c0,.06.05.11.11.11"/>
  </g>
  <g id="p-6">
    <g class="st1">
      <text class="st0" transform="translate(81.2 58.15)"><tspan x="0" y="0">Bottom</tspan></text>
    </g>
    <path class="st3" d="M38.21,71.09h18.31c.11,0,0-.11,0,0v8.39c0,.06.05.11.11.11h17.01c.06,0,.11-.05.11-.11v-8.39c0-.11-.11,0,0,0h16.78c.11,0,0-.11,0,0v8.39c0,.06.05.11.11.11h17.01c.06,0,.11-.05.11-.11v-8.39c0-.11-.11,0,0,0h16.78c.11,0,0-.11,0,0v8.39c0,.06.05.11.11.11h17.01c.06,0,.11-.05.11-.11v-8.39c0-.11-.11,0,0,0h18.31c.06,0,.11-.05.11-.11v-8.39c0-.11-.11,0,0,0h8.39c.06,0,.11-.05.11-.11v-17.01c0-.06-.05-.11-.11-.11h-8.39c-.11,0,0,.11,0,0v-8.39c0-.06-.05-.11-.11-.11h-18.31c-.11,0,0,.11,0,0v-8.39c0-.06-.05-.11-.11-.11h-17.01c-.06,0-.11.05-.11.11v8.39c0,.11.11,0,0,0h-16.78c-.11,0,0,.11,0,0v-8.39c0-.06-.05-.11-.11-.11h-17.01c-.06,0-.11.05-.11.11v8.39c0,.11.11,0,0,0h-16.78c-.11,0,0,.11,0,0v-8.39c0-.06-.05-.11-.11-.11h-17.01c-.06,0-.11.05-.11.11v8.39c0,.11.11,0,0,0h-18.31c-.06,0-.11.05-.11.11v8.39c0,.11.11,0,0,0h-8.39c-.06,0-.11.05-.11.11v17.01c0,.06.05.11.11.11h8.39c.11,0,0-.11,0,0v8.39c0,.06.05.11.11.11"/>
  </g>
  <path class="st3" d="M158.97,118.1v16.78h8.39c.06,0,.11.05.11.11v17.01c0,.06-.05.11-.11.11h-8.39v16.78h8.39c.06,0,.11.05.11.11v17.01c0,.07-.05.12-.11.12h-8.39v16.78h8.39c.06,0,.11.05.11.11v17.01c0,.06-.05.11-.11.11h-8.39v16.78h8.39c.06,0,.11.05.11.11v17.02c0,.06-.05.11-.11.11h-8.39v16.78h8.39c.06,0,.11.05.11.11v17.01c0,.06-.05.11-.11.11h-8.39v16.79h8.39c.06,0,.11.05.11.11v17.01c0,.06-.05.11-.11.11h-8.39v16.78h8.39c.06,0,.11.05.11.11v17.02c0,.06-.05.11-.11.11h-8.39v16.78h8.39c.06,0,.11.05.11.11v17.01c0,.06-.05.11-.11.11h-8.39v16.78h8.39c.06,0,.11.05.11.12v17c0,.07-.05.12-.11.12h-8.39v16.78h8.39c.06,0,.11.05.11.11v17.01c0,.06-.05.11-.11.11h-8.39v16.78h8.39c.06,0,.11.05.11.11v17.02c0,.06-.05.11-.11.11h-8.39v16.78h8.39c.06,0,.11.05.11.11v17.01c0,.06-.05.11-.11.11h-8.39v16.79h8.39c.06,0,.11.05.11.11v17.01c0,.06-.05.11-.11.11h-8.39v16.78h8.39c.06,0,.11.05.11.11v17.01c0,.07-.05.12-.11.12h-8.39v16.78h8.39c.06,0,.11.05.11.11v17.01c0,.06-.05.11-.11.11h-8.39v16.78h8.39c.06,0,.11.05.11.12v34.01c0,.07-.05.12-.12.12h-26.92c-.07,0-.12-.05-.12-.12v-8.39h-16.78v8.39c0,.07-.05.12-.12.12h-17c-.06,0-.11-.05-.11-.11v-8.4h-16.78v8.39c0,.07-.05.12-.12.12h-17c-.07,0-.12-.06-.12-.12v-8.39h-16.78v8.39c0,.07-.05.12-.12.12h-26.92c-.06,0-.11-.05-.11-.11v-34.02c0-.07.05-.12.11-.12h8.39v-16.78h-8.39c-.06,0-.11-.05-.11-.11v-17.01c0-.06.05-.11.11-.11h8.39v-16.78h-8.39c-.06,0-.11-.05-.11-.12v-17.01c0-.06.05-.11.11-.11h8.39v-16.78h-8.39c-.06,0-.11-.05-.11-.11v-17.01c0-.06.05-.11.11-.11h8.39v-16.79h-8.39c-.06,0-.11-.05-.11-.11v-17.01c0-.06.05-.11.11-.11h8.39v-16.78h-8.39c-.06,0-.11-.05-.11-.11v-17.01c0-.07.05-.12.12-.12h8.38v-16.78h-8.39c-.06,0-.11-.05-.11-.11v-17.01c0-.06.05-.11.11-.11h8.39v-16.78h-8.39c-.06,0-.11-.05-.11-.12v-17c0-.07.05-.12.11-.12h8.39v-16.78h-8.39c-.06,0-.11-.05-.11-.11v-17.01c0-.06.05-.11.11-.11h8.39v-16.78h-8.38c-.07,0-.12-.05-.12-.12v-17.01c0-.06.05-.11.11-.11h8.39v-16.78h-8.39c-.06,0-.11-.05-.11-.11v-17.01c0-.06.05-.11.11-.11h8.39v-16.79h-8.39c-.06,0-.11-.05-.11-.11v-17.01c0-.06.05-.11.11-.11h8.39v-16.78h-8.39c-.06,0-.11-.05-.11-.11v-17.01c0-.07.05-.12.12-.12h8.38v-16.78h-8.39c-.06,0-.11-.05-.11-.11v-17.01c0-.06.05-.11.11-.11h8.39v-16.78h-8.39c-.06,0-.11-.05-.11-.12v-17c0-.07.05-.12.12-.12h8.38v-16.78h-8.39c-.06,0-.11-.05-.11-.11v-17.01c0-.06.05-.11.11-.11h8.39v-16.78h-8.39c-.06,0-.11-.05-.11-.11v-34.02c0-.07.05-.12.12-.12h0c11.75,0,21.27,9.52,21.27,21.27v234.08h5.65c.06,0,.11.05.11.12v8.39h16.78v-8.39c0-.07.05-.12.12-.12h17c.07,0,.12.05.12.12v8.39h16.78v-8.39c0-.07.05-.12.11-.12h17.01c.06,0,.11.05.11.12v8.39h16.78v-8.39c0-.07.06-.12.12-.12h5.64V105.12c0-11.75,9.52-21.27,21.27-21.27h0c.07,0,.12.05.12.12v34.01c0,.07-.05.12-.12.12h-8.38,0Z"/>
  <g>
    <g class="st1">
      <text class="st0" transform="translate(181.81 385.77)"><tspan x="0" y="0">Wall 4</tspan></text>
    </g>
    <path class="st3" d="M188.84,83.85h-8.5c-.06,0-.11.05-.11.11v33.9c0,.11.11,0,0,0h-8.39c-.06,0-.11.05-.11.11v17.01c0,.06.05.11.11.11h8.39c.11,0,0-.11,0,0v16.78c0,.11.11,0,0,0h-8.39c-.06,0-.11.05-.11.11v17.01c0,.06.05.11.11.11h8.39c.11,0,0-.11,0,0v16.78c0,.11.11,0,0,0h-8.39c-.06,0-.11.05-.11.11v17.01c0,.06.05.11.11.11h8.39c.11,0,0-.11,0,0v16.78c0,.11.11,0,0,0h-8.39c-.06,0-.11.05-.11.11v17.01c0,.06.05.11.11.11h8.39c.11,0,0-.11,0,0v16.78c0,.11.11,0,0,0h-8.39c-.06,0-.11.05-.11.11v17.01c0,.06.05.11.11.11h8.39c.11,0,0-.11,0,0v16.78c0,.11.11,0,0,0h-8.39c-.06,0-.11.05-.11.11v17.01c0,.06.05.11.11.11h8.39c.11,0,0-.11,0,0v16.78c0,.11.11,0,0,0h-8.39c-.06,0-.11.05-.11.11v17.01c0,.06.05.11.11.11h8.39c.11,0,0-.11,0,0v16.78c0,.11.11,0,0,0h-8.39c-.06,0-.11.05-.11.11v17.01c0,.06.05.11.11.11h8.39c.11,0,0-.11,0,0v16.78c0,.11.11,0,0,0h-8.39c-.06,0-.11.05-.11.11v17.01c0,.06.05.11.11.11h8.39c.11,0,0-.11,0,0v16.78c0,.11.11,0,0,0h-8.39c-.06,0-.11.05-.11.11v17.01c0,.06.05.11.11.11h8.39c.11,0,0-.11,0,0v16.78c0,.11.11,0,0,0h-8.39c-.06,0-.11.05-.11.11v17.01c0,.06.05.11.11.11h8.39c.11,0,0-.11,0,0v16.78c0,.11.11,0,0,0h-8.39c-.06,0-.11.05-.11.11v17.01c0,.06.05.11.11.11h8.39c.11,0,0-.11,0,0v16.78c0,.11.11,0,0,0h-8.39c-.06,0-.11.05-.11.11v17.01c0,.06.05.11.11.11h8.39c.11,0,0-.11,0,0v16.78c0,.11.11,0,0,0h-8.39c-.06,0-.11.05-.11.11v17.01c0,.06.05.11.11.11h8.39c.11,0,0-.11,0,0v16.78c0,.11.11,0,0,0h-8.39c-.06,0-.11.05-.11.11v17.01c0,.06.05.11.11.11h8.39c.11,0,0-.11,0,0v16.78c0,.11.11,0,0,0h-8.39c-.06,0-.11.05-.11.11v17.01c0,.06.05.11.11.11h8.39c.11,0,0-.11,0,0v33.9c0,.06.05.11.11.11"/>
    <path class="st3" d="M180.34,679.35h8.5c.06,0,.11-.05.11-.11v-8.39c0-.11-.11,0,0,0h16.78c.11,0,0-.11,0,0v8.39c0,.06.05.11.11.11h8.5c.06,0,.11-.05.11-.11v-33.9c0-.11-.11,0,0,0h8.39c.06,0,.11-.05.11-.11v-17.01c0-.06-.05-.11-.11-.11h-8.39c-.11,0,0,.11,0,0v-16.78c0-.11-.11,0,0,0h8.39c.06,0,.11-.05.11-.11v-17.01c0-.06-.05-.11-.11-.11h-8.39c-.11,0,0,.11,0,0v-16.78c0-.11-.11,0,0,0h8.39c.06,0,.11-.05.11-.11v-17.01c0-.06-.05-.11-.11-.11h-8.39c-.11,0,0,.11,0,0v-16.78c0-.11-.11,0,0,0h8.39c.06,0,.11-.05.11-.11v-17.01c0-.06-.05-.11-.11-.11h-8.39c-.11,0,0,.11,0,0v-16.78c0-.11-.11,0,0,0h8.39c.06,0,.11-.05.11-.11v-17.01c0-.06-.05-.11-.11-.11h-8.39c-.11,0,0,.11,0,0v-16.78c0-.11-.11,0,0,0h8.39c.06,0,.11-.05.11-.11v-17.01c0-.06-.05-.11-.11-.11h-8.39c-.11,0,0,.11,0,0v-16.78c0-.11-.11,0,0,0h8.39c.06,0,.11-.05.11-.11v-17.01c0-.06-.05-.11-.11-.11h-8.39c-.11,0,0,.11,0,0v-16.78c0-.11-.11,0,0,0h8.39c.06,0,.11-.05.11-.11v-17.01c0-.06-.05-.11-.11-.11h-8.39c-.11,0,0,.11,0,0v-16.78c0-.11-.11,0,0,0h8.39c.06,0,.11-.05.11-.11v-17.01c0-.06-.05-.11-.11-.11h-8.39c-.11,0,0,.11,0,0v-16.78c0-.11-.11,0,0,0h8.39c.06,0,.11-.05.11-.11v-17.01c0-.06-.05-.11-.11-.11h-8.39c-.11,0,0,.11,0,0v-16.78c0-.11-.11,0,0,0h8.39c.06,0,.11-.05.11-.11v-17.01c0-.06-.05-.11-.11-.11h-8.39c-.11,0,0,.11,0,0v-16.78c0-.11-.11,0,0,0h8.39c.06,0,.11-.05.11-.11v-17.01c0-.06-.05-.11-.11-.11h-8.39c-.11,0,0,.11,0,0v-16.78c0-.11-.11,0,0,0h8.39c.06,0,.11-.05.11-.11v-17.01c0-.06-.05-.11-.11-.11h-8.39c-.11,0,0,.11,0,0v-16.78c0-.11-.11,0,0,0h8.39c.06,0,.11-.05.11-.11v-17.01c0-.06-.05-.11-.11-.11h-8.39c-.11,0,0,.11,0,0v-16.78c0-.11-.11,0,0,0h8.39c.06,0,.11-.05.11-.11v-17.01c0-.06-.05-.11-.11-.11h-8.39c-.11,0,0,.11,0,0v-16.78c0-.11-.11,0,0,0h8.39c.06,0,.11-.05.11-.11v-17.01c0-.06-.05-.11-.11-.11h-8.39c-.11,0,0,.11,0,0v-33.9c0-.06-.05-.11-.11-.11h-8.5"/>
    <path class="st3" d="M205.85,339.2c-.07,0-.12.05-.12.12v8.39h-16.78v-8.39c0-.07-.05-.12-.11-.12h17.01Z"/>
    <line class="st3" x1="188.84" y1="83.85" x2="205.85" y2="83.85"/>
  </g>
  <g class="st1">
    <text class="st0" transform="translate(282.12 385.77)"><tspan x="0" y="0">Wall 3</tspan></text>
  </g>
  <path class="st3" d="M358.72,118.1v16.78h8.39c.06,0,.11.05.11.11v17.01c0,.06-.05.11-.11.11h-8.39v16.78h8.39c.06,0,.11.05.11.11v17.01c0,.07-.05.12-.11.12h-8.39v16.78h8.39c.06,0,.11.05.11.11v17.01c0,.06-.05.11-.11.11h-8.39v16.78h8.39c.06,0,.11.05.11.11v17.02c0,.06-.05.11-.11.11h-8.39v16.78h8.39c.06,0,.11.05.11.11v17.01c0,.06-.05.11-.11.11h-8.39v16.79h8.39c.06,0,.11.05.11.11v17.01c0,.06-.05.11-.11.11h-8.39v16.78h8.39c.06,0,.11.05.11.11v17.02c0,.06-.05.11-.11.11h-8.39v16.78h8.39c.06,0,.11.05.11.11v17.01c0,.06-.05.11-.11.11h-8.39v16.78h8.39c.06,0,.11.05.11.12v17c0,.07-.05.12-.11.12h-8.39v16.78h8.39c.06,0,.11.05.11.11v17.01c0,.06-.05.11-.11.11h-8.39v16.78h8.39c.06,0,.11.05.11.11v17.02c0,.06-.05.11-.11.11h-8.39v16.78h8.39c.06,0,.11.05.11.11v17.01c0,.06-.05.11-.11.11h-8.39v16.79h8.39c.06,0,.11.05.11.11v17.01c0,.06-.05.11-.11.11h-8.39v16.78h8.39c.06,0,.11.05.11.11v17.01c0,.07-.05.12-.11.12h-8.39v16.78h8.39c.06,0,.11.05.11.11v17.01c0,.06-.05.11-.11.11h-8.39v16.78h-.24c.06,0,.11.05.11.12v34.01c0,.07-.05.12-.12.12h-18.29c-.07,0-.12-.05-.12-.12v-8.39h-16.78v8.39c0,.07-.05.12-.12.12h-17c-.06,0-.11-.05-.11-.11v-8.4h-16.78v8.39c0,.07-.05.12-.12.12h-17c-.07,0-.12-.06-.12-.12v-8.39h-16.78v8.39c0,.07-.05.12-.12.12h-18.47c-.06,0-.11-.05-.11-.11v-34.02c0-.07.05-.12.11-.12h-.06v-16.78h-8.39c-.06,0-.11-.05-.11-.11v-17.01c0-.06.05-.11.11-.11h8.39v-16.78h-8.39c-.06,0-.11-.05-.11-.12v-17.01c0-.06.05-.11.11-.11h8.39v-16.78h-8.39c-.06,0-.11-.05-.11-.11v-17.01c0-.06.05-.11.11-.11h8.39v-16.79h-8.39c-.06,0-.11-.05-.11-.11v-17.01c0-.06.05-.11.11-.11h8.39v-16.78h-8.39c-.06,0-.11-.05-.11-.11v-17.01c0-.07.05-.12.12-.12h8.38v-16.78h-8.39c-.06,0-.11-.05-.11-.11v-17.01c0-.06.05-.11.11-.11h8.39v-16.78h-8.39c-.06,0-.11-.05-.11-.12v-17c0-.07.05-.12.11-.12h8.39v-16.78h-8.39c-.06,0-.11-.05-.11-.11v-17.01c0-.06.05-.11.11-.11h8.39v-16.78h-8.38c-.07,0-.12-.05-.12-.12v-17.01c0-.06.05-.11.11-.11h8.39v-16.78h-8.39c-.06,0-.11-.05-.11-.11v-17.01c0-.06.05-.11.11-.11h8.39v-16.79h-8.39c-.06,0-.11-.05-.11-.11v-17.01c0-.06.05-.11.11-.11h8.39v-16.78h-8.39c-.06,0-.11-.05-.11-.11v-17.01c0-.07.05-.12.12-.12h8.38v-16.78h-8.39c-.06,0-.11-.05-.11-.11v-17.01c0-.06.05-.11.11-.11h8.39v-16.78h-8.39c-.06,0-.11-.05-.11-.12v-17c0-.07.05-.12.12-.12h8.38v-16.78h-8.39c-.06,0-.11-.05-.11-.11v-17.01c0-.06.05-.11.11-.11h8.39v-16.78h-8.39c-.06,0-.11-.05-.11-.11v-34.02c0-.07.05-.12.12-.12h0c11.75,0,21.27,9.52,21.27,21.27v234.08h5.65c.06,0,.11.05.11.12v8.39h16.78v-8.39c0-.07.05-.12.12-.12h17c.07,0,.12.05.12.12v8.39h16.78v-8.39c0-.07.05-.12.11-.12h17.01c.06,0,.11.05.11.12v8.39h16.78v-8.39c0-.07.06-.12.12-.12h5.64V105.12c0-11.75,9.52-21.27,21.27-21.27h0c.07,0,.12.05.12.12v34.01c0,.07-.05.12-.12.12h-8.38,0Z"/>
  <g class="st1">
    <text class="st0" transform="translate(457.99 385.77)"><tspan x="0" y="0">Wall 4</tspan></text>
  </g>
  <path class="st3" d="M578.84,334.94h122.16V79.69h8.46v-12.86h-11.11c-14.28,0-25.85,11.58-25.85,25.85v208.24h-65.2V92.68c0-14.28-11.58-25.85-25.85-25.85h-11.11v12.76h8.5v255.35Z"/>
  <g>
    <polygon class="st3" points="473.53 807.27 475.71 805.08 471.34 805.08 473.53 807.27"/>
    <path class="st3" d="M578.15,661.44v17.91h-96.16s-.08-.05-.08-.1v-8.39c.11,0,0-.11,0,0h-16.78c0-.11-.11,0,0,0v8.39s-.03.09-.08.1h-96.15v-17.91h46.2l32.81-32.81.62-.62h7.88v-16.78c.11,0,0-.11,0,0h-8.39c-.06,0-.11-.05-.11-.11v-17.01c0-.06.05-.11.11-.11h8.39c0,.11.11,0,0,0v-16.78c.11,0,0-.11,0,0h-8.39c-.06,0-.11-.05-.11-.11v-17.01c0-.06.05-.11.11-.11h8.39c0,.11.11,0,0,0v-16.78c.11,0,0-.11,0,0h-8.39c-.06,0-.11-.05-.11-.11v-17.01c0-.06.05-.11.11-.11h8.39c0,.11.11,0,0,0v-16.78c.11,0,0-.11,0,0h-8.39c-.06,0-.11-.05-.11-.11v-17.01c0-.06.05-.11.11-.11h8.39c0,.11.11,0,0,0v-16.78c.11,0,0-.11,0,0h-8.39c-.06,0-.11-.05-.11-.11v-17.01c0-.06.05-.11.11-.11h8.39c0,.11.11,0,0,0v-16.78c.11,0,0-.11,0,0h-8.39c-.06,0-.11-.05-.11-.11v-17.01c0-.06.05-.11.11-.11h8.39c0,.11.11,0,0,0v-16.78c.11,0,0-.11,0,0h-8.39c-.06,0-.11-.05-.11-.11v-17.01c0-.06.05-.11.11-.11h8.39c0,.11.11,0,0,0v-16.78c.11,0,0-.11,0,0h-8.39c-.06,0-.11-.05-.11-.11v-17.01c0-.06.05-.11.11-.11h8.39c0,.11.11,0,0,0v-16.78c.11,0,0-.11,0,0h-8.39c-.06,0-.11-.05-.11-.11v-17.01c0-.06.05-.11.11-.11h8.39c0,.11.11,0,0,0v-16.78c.11,0,0-.11,0,0h-8.39c-.06,0-.11-.05-.11-.11v-17.01c0-.06.05-.11.11-.11h8.39c0,.11.11,0,0,0v-16.78c.11,0,0-.11,0,0h-8.39c-.06,0-.11-.05-.11-.11v-17.01c0-.06.05-.11.11-.11h8.39c0,.11.11,0,0,0v-16.78c.11,0,0-.11,0,0h-8.39c-.06,0-.11-.05-.11-.11v-17.01c0-.06.05-.11.11-.11h8.39c0,.11.11,0,0,0v-16.78c.11,0,0-.11,0,0h-8.39c-.06,0-.11-.05-.11-.11v-17.01c0-.06.05-.11.11-.11h8.39c0,.11.11,0,0,0v-16.78c.11,0,0-.11,0,0h-8.39c-.06,0-.11-.05-.11-.11v-17.01c0-.06.05-.11.11-.11h8.39c0,.11.11,0,0,0v-16.78c.11,0,0-.11,0,0h-8.39c-.06,0-.11-.05-.11-.11v-17.01c0-.06.05-.11.11-.11h8.39c0,.11.11,0,0,0v-33.9c0-.06.05-.11.11-.11h33.85c.06,0,.26.15.26.21v33.9c-.11,0,0,.11,0,0h8.39c.06,0,.11.05.11.11v17.01c0,.06-.05.11-.11.11h-8.39c0-.11-.11,0,0,0v16.78c-.11,0,0,.11,0,0h8.39c.06,0,.11.05.11.11v17.01c0,.06-.05.11-.11.11h-8.39c0-.11-.11,0,0,0v16.78c-.11,0,0,.11,0,0h8.39c.06,0,.11.05.11.11v17.01c0,.06-.05.11-.11.11h-8.39c0-.11-.11,0,0,0v16.78c-.11,0,0,.11,0,0h8.39c.06,0,.11.05.11.11v17.01c0,.06-.05.11-.11.11h-8.39c0-.11-.11,0,0,0v16.78c-.11,0,0,.11,0,0h8.39c.06,0,.11.05.11.11v17.01c0,.06-.05.11-.11.11h-8.39c0-.11-.11,0,0,0v16.78c-.11,0,0,.11,0,0h8.39c.06,0,.11.05.11.11v17.01c0,.06-.05.11-.11.11h-8.39c0-.11-.11,0,0,0v16.78c-.11,0,0,.11,0,0h8.39c.06,0,.11.05.11.11v17.01c0,.06-.05.11-.11.11h-8.39c0-.11-.11,0,0,0v16.78c-.11,0,0,.11,0,0h8.39c.06,0,.11.05.11.11v17.01c0,.06-.05.11-.11.11h-8.39c0-.11-.11,0,0,0v16.78c-.11,0,0,.11,0,0h8.39c.06,0,.11.05.11.11v17.01c0,.06-.05.11-.11.11h-8.39c0-.11-.11,0,0,0v16.78c-.11,0,0,.11,0,0h8.39c.06,0,.11.05.11.11v17.01c0,.06-.05.11-.11.11h-8.39c0-.11-.11,0,0,0v16.78c-.11,0,0,.11,0,0h8.39c.06,0,.11.05.11.11v17.01c0,.06-.05.11-.11.11h-8.39c0-.11-.11,0,0,0v16.78c-.11,0,0,.11,0,0h8.39c.06,0,.11.05.11.11v17.01c0,.06-.05.11-.11.11h-8.39c0-.11-.11,0,0,0v16.78c-.11,0,0,.11,0,0h8.39c.06,0,.11.05.11.11v17.01c0,.06-.05.11-.11.11h-8.39c0-.11-.11,0,0,0v16.78c-.11,0,0,.11,0,0h8.39c.06,0,.11.05.11.11v17.01c0,.06-.05.11-.11.11h-8.39c0-.11-.11,0,0,0v16.78c-.11,0,0,.11,0,0h8.39c.06,0,.11.05.11.11v17.01c0,.06-.05.11-.11.11h-8.39c0-.11-.11,0,0,0v16.78h8l33.33,33.33h46.19Z"/>
    <path class="st3" d="M465.13,670.86c-.11,0,0-.11,0,0h0Z"/>
    <path class="st3" d="M481.91,670.86c0-.11.11,0,0,0h0Z"/>
    <path class="st3" d="M465.05,679.35s.08-.05.08-.1v-8.39h16.78v8.39s.03.09.08.1"/>
  </g>
  <path class="st3" d="M481.99,679.35s.02.01.03.01h8.5"/>
  <path class="st3" d="M456.52,679.36h8.5s.02,0,.03-.01"/>
</svg>