<?xml version="1.0" encoding="UTF-8"?>
<svg id="Layer_1" xmlns="http://www.w3.org/2000/svg" version="1.1" xmlns:cc="http://creativecommons.org/ns#" xmlns:dc="http://purl.org/dc/elements/1.1/" xmlns:inkscape="http://www.inkscape.org/namespaces/inkscape" xmlns:rdf="http://www.w3.org/1999/02/22-rdf-syntax-ns#" xmlns:svg="http://www.w3.org/2000/svg" viewBox="0 0 1032.11 945.38">
  <!-- Generator: Adobe Illustrator 29.4.0, SVG Export Plug-In . SVG Version: 2.1.0 Build 152)  -->
  <defs>
    <style>
      .st0 {
        stroke: blue;
      }

      .st0, .st1, .st2 {
        fill: none;
        stroke-linecap: round;
      }

      .st0, .st2 {
        stroke-linejoin: round;
        stroke-width: .4px;
      }

      .st1 {
        stroke: #212529;
        stroke-linejoin: bevel;
        stroke-width: 1.98px;
      }

      .st3 {
        fill: red;
        font-family: ArialMT, Arial;
        font-size: 17.01px;
        isolation: isolate;
      }

      .st2 {
        stroke: #000;
      }
    </style>
  </defs>
  <g id="p-0">
    <path class="st2" d="M28.54,917.03h283.46v-28.35H28.54v28.35Z"/>
    <text class="st3" transform="translate(80 908.95)"><tspan x="0" y="0">100.0mm, burn:0.07mm</tspan></text>
  </g>
  <g id="p-3">
    <path class="st2" d="M420.52,875.53h25.31c.2,0,0-.2,0,0v8.31c0,.11.09.2.2.2h17.01c.11,0,.2-.09.2-.2v-8.31c0-.2-.2,0,0,0h16.61c.2,0,0-.2,0,0v8.31c0,.11.09.2.2.2h17.01c.11,0,.2-.09.2-.2v-8.31c0-.2-.2,0,0,0h16.61c.2,0,0-.2,0,0v8.31c0,.11.09.2.2.2h17.01c.11,0,.2-.09.2-.2v-8.31c0-.2-.2,0,0,0h16.61c.2,0,0-.2,0,0v8.31c0,.11.09.2.2.2h17.01c.11,0,.2-.09.2-.2v-8.31c0-.2-.2,0,0,0h25.31c.11,0,.2-.09.2-.2v-32.4c0-.2-.2,0,0,0h8.31c.11,0,.2-.09.2-.2v-17.01c0-.11-.09-.2-.2-.2h-8.31c-.2,0,0,.2,0,0v-16.61c0-.2-.2,0,0,0h8.31c.11,0,.2-.09.2-.2v-17.01c0-.11-.09-.2-.2-.2h-8.31c-.2,0,0,.2,0,0v-16.61c0-.2-.2,0,0,0h8.31c.11,0,.2-.09.2-.2v-17.01c0-.11-.09-.2-.2-.2h-8.31c-.2,0,0,.2,0,0v-16.61c0-.2-.2,0,0,0h8.31c.11,0,.2-.09.2-.2v-17.01c0-.11-.09-.2-.2-.2h-8.31c-.2,0,0,.2,0,0v-16.61c0-.2-.2,0,0,0h8.31c.11,0,.2-.09.2-.2v-17.01c0-.11-.09-.2-.2-.2h-8.31c-.2,0,0,.2,0,0v-16.61c0-.2-.2,0,0,0h8.31c.11,0,.2-.09.2-.2v-17.01c0-.11-.09-.2-.2-.2h-8.31c-.2,0,0,.2,0,0v-16.61c0-.2-.2,0,0,0h8.31c.11,0,.2-.09.2-.2v-17.01c0-.11-.09-.2-.2-.2h-8.31c-.2,0,0,.2,0,0v-16.61c0-.2-.2,0,0,0h8.31c.11,0,.2-.09.2-.2v-17.01c0-.11-.09-.2-.2-.2h-8.31c-.2,0,0,.2,0,0v-16.61c0-.2-.2,0,0,0h8.31c.11,0,.2-.09.2-.2v-17.01c0-.11-.09-.2-.2-.2h-8.31c-.2,0,0,.2,0,0v-16.61c0-.2-.2,0,0,0h8.31c.11,0,.2-.09.2-.2v-17.01c0-.11-.09-.2-.2-.2h-8.31c-.2,0,0,.2,0,0v-16.61c0-.2-.2,0,0,0h8.31c.11,0,.2-.09.2-.2v-17.01c0-.11-.09-.2-.2-.2h-8.31c-.2,0,0,.2,0,0v-32.4c0-.11-.09-.2-.2-.2h-170.08c-.11,0-.2.09-.2.2v32.4c0,.2.2,0,0,0h-8.31c-.11,0-.2.09-.2.2v17.01c0,.11.09.2.2.2h8.31c.2,0,0-.2,0,0v16.61c0,.2.2,0,0,0h-8.31c-.11,0-.2.09-.2.2v17.01c0,.11.09.2.2.2h8.31c.2,0,0-.2,0,0v16.61c0,.2.2,0,0,0h-8.31c-.11,0-.2.09-.2.2v17.01c0,.11.09.2.2.2h8.31c.2,0,0-.2,0,0v16.61c0,.2.2,0,0,0h-8.31c-.11,0-.2.09-.2.2v17.01c0,.11.09.2.2.2h8.31c.2,0,0-.2,0,0v16.61c0,.2.2,0,0,0h-8.31c-.11,0-.2.09-.2.2v17.01c0,.11.09.2.2.2h8.31c.2,0,0-.2,0,0v16.61c0,.2.2,0,0,0h-8.31c-.11,0-.2.09-.2.2v17.01c0,.11.09.2.2.2h8.31c.2,0,0-.2,0,0v16.61c0,.2.2,0,0,0h-8.31c-.11,0-.2.09-.2.2v17.01c0,.11.09.2.2.2h8.31c.2,0,0-.2,0,0v16.61c0,.2.2,0,0,0h-8.31c-.11,0-.2.09-.2.2v17.01c0,.11.09.2.2.2h8.31c.2,0,0-.2,0,0v16.61c0,.2.2,0,0,0h-8.31c-.11,0-.2.09-.2.2v17.01c0,.11.09.2.2.2h8.31c.2,0,0-.2,0,0v16.61c0,.2.2,0,0,0h-8.31c-.11,0-.2.09-.2.2v17.01c0,.11.09.2.2.2h8.31c.2,0,0-.2,0,0v16.61c0,.2.2,0,0,0h-8.31c-.11,0-.2.09-.2.2v17.01c0,.11.09.2.2.2h8.31c.2,0,0-.2,0,0v32.4c0,.11.09.2.2.2Z"/>
  </g>
  <g id="p-5">
    <path class="st0" d="M157.61,398.71v8.31c0,.2.2,0,0,0h-8.11c-.2,0,0,.2,0,0v-16.61c0-.2-.2,0,0,0h8.11c.2,0,0-.2,0,0v8.31Z"/>
    <path class="st0" d="M157.61,364.7v8.31c0,.2.2,0,0,0h-8.11c-.2,0,0,.2,0,0v-16.61c0-.2-.2,0,0,0h8.11c.2,0,0-.2,0,0v8.31Z"/>
    <path class="st0" d="M157.61,330.68v8.31c0,.2.2,0,0,0h-8.11c-.2,0,0,.2,0,0v-16.61c0-.2-.2,0,0,0h8.11c.2,0,0-.2,0,0v8.31Z"/>
    <path class="st0" d="M157.61,296.67v8.31c0,.2.2,0,0,0h-8.11c-.2,0,0,.2,0,0v-16.61c0-.2-.2,0,0,0h8.11c.2,0,0-.2,0,0v8.31Z"/>
    <path class="st0" d="M157.61,262.65v8.31c0,.2.2,0,0,0h-8.11c-.2,0,0,.2,0,0v-16.61c0-.2-.2,0,0,0h8.11c.2,0,0-.2,0,0v8.31Z"/>
    <path class="st0" d="M157.61,228.64v8.31c0,.2.2,0,0,0h-8.11c-.2,0,0,.2,0,0v-16.61c0-.2-.2,0,0,0h8.11c.2,0,0-.2,0,0v8.31Z"/>
    <path class="st0" d="M157.61,194.62v8.31c0,.2.2,0,0,0h-8.11c-.2,0,0,.2,0,0v-16.61c0-.2-.2,0,0,0h8.11c.2,0,0-.2,0,0v8.31Z"/>
    <path class="st0" d="M157.61,160.6v8.31c0,.2.2,0,0,0h-8.11c-.2,0,0,.2,0,0v-16.61c0-.2-.2,0,0,0h8.11c.2,0,0-.2,0,0v8.31Z"/>
    <path class="st0" d="M157.61,126.59v8.31c0,.2.2,0,0,0h-8.11c-.2,0,0,.2,0,0v-16.61c0-.2-.2,0,0,0h8.11c.2,0,0-.2,0,0v8.31Z"/>
    <path class="st0" d="M157.61,92.57v8.31c0,.2.2,0,0,0h-8.11c-.2,0,0,.2,0,0v-16.61c0-.2-.2,0,0,0h8.11c.2,0,0-.2,0,0v8.31Z"/>
    <path class="st0" d="M157.61,58.56v8.31c0,.2.2,0,0,0h-8.11c-.2,0,0,.2,0,0v-16.61c0-.2-.2,0,0,0h8.11c.2,0,0-.2,0,0v8.31Z"/>
    <path class="st0" d="M428.03,398.71v8.31c0,.2.2,0,0,0h-8.11c-.2,0,0,.2,0,0v-16.61c0-.2-.2,0,0,0h8.11c.2,0,0-.2,0,0v8.31Z"/>
    <path class="st0" d="M428.03,364.7v8.31c0,.2.2,0,0,0h-8.11c-.2,0,0,.2,0,0v-16.61c0-.2-.2,0,0,0h8.11c.2,0,0-.2,0,0v8.31Z"/>
    <path class="st0" d="M428.03,330.68v8.31c0,.2.2,0,0,0h-8.11c-.2,0,0,.2,0,0v-16.61c0-.2-.2,0,0,0h8.11c.2,0,0-.2,0,0v8.31Z"/>
    <path class="st0" d="M428.03,296.67v8.31c0,.2.2,0,0,0h-8.11c-.2,0,0,.2,0,0v-16.61c0-.2-.2,0,0,0h8.11c.2,0,0-.2,0,0v8.31Z"/>
    <path class="st0" d="M428.03,262.65v8.31c0,.2.2,0,0,0h-8.11c-.2,0,0,.2,0,0v-16.61c0-.2-.2,0,0,0h8.11c.2,0,0-.2,0,0v8.31Z"/>
    <path class="st0" d="M428.03,228.64v8.31c0,.2.2,0,0,0h-8.11c-.2,0,0,.2,0,0v-16.61c0-.2-.2,0,0,0h8.11c.2,0,0-.2,0,0v8.31Z"/>
    <path class="st0" d="M428.03,194.62v8.31c0,.2.2,0,0,0h-8.11c-.2,0,0,.2,0,0v-16.61c0-.2-.2,0,0,0h8.11c.2,0,0-.2,0,0v8.31Z"/>
    <path class="st0" d="M428.03,160.6v8.31c0,.2.2,0,0,0h-8.11c-.2,0,0,.2,0,0v-16.61c0-.2-.2,0,0,0h8.11c.2,0,0-.2,0,0v8.31Z"/>
    <path class="st0" d="M428.03,126.59v8.31c0,.2.2,0,0,0h-8.11c-.2,0,0,.2,0,0v-16.61c0-.2-.2,0,0,0h8.11c.2,0,0-.2,0,0v8.31Z"/>
    <path class="st0" d="M428.03,92.57v8.31c0,.2.2,0,0,0h-8.11c-.2,0,0,.2,0,0v-16.61c0-.2-.2,0,0,0h8.11c.2,0,0-.2,0,0v8.31Z"/>
    <path class="st0" d="M428.03,58.56v8.31c0,.2.2,0,0,0h-8.11c-.2,0,0,.2,0,0v-16.61c0-.2-.2,0,0,0h8.11c.2,0,0-.2,0,0v8.31Z"/>
    <path class="st2" d="M623.82,17.26H28.54c-.11,0-.2.09-.2.2v32.6c0,.11.09.2.2.2h8.31v16.61h-8.31c-.11,0-.2.09-.2.2v17.01c0,.11.09.2.2.2h8.31v16.61h-8.31c-.11,0-.2.09-.2.2v17.01c0,.11.09.2.2.2h8.31v16.61h-8.31c-.11,0-.2.09-.2.2v17.01c0,.11.09.2.2.2h8.31v16.61h-8.31c-.11,0-.2.09-.2.2v17.01c0,.11.09.2.2.2h8.31v16.61h-8.31c-.11,0-.2.09-.2.2v17.01c0,.11.09.2.2.2h8.31v16.61h-8.31c-.11,0-.2.09-.2.2v17.01c0,.11.09.2.2.2h8.31v16.61h-8.31c-.11,0-.2.09-.2.2v17.01c0,.11.09.2.2.2h8.31v16.61h-8.31c-.11,0-.2.09-.2.2v17.01c0,.11.09.2.2.2h8.31v16.61h-8.31c-.11,0-.2.09-.2.2v17.01c0,.11.09.2.2.2h8.31v16.61h-8.31c-.11,0-.2.09-.2.2v17.01c0,.11.09.2.2.2h8.31v16.61h-8.31c-.11,0-.2.09-.2.2v41.3h595.67V17.45c0-.11-.09-.2-.2-.2Z"/>
  </g>
  <path class="st2" d="M407.36,502.77c.11,0,.2-.08.2-.19v-17.01c0-.11-.09-.2-.2-.2h-8.3v-32.4c0-.11-.09-.2-.2-.2h-170.08c-.11,0-.2.09-.2.2v32.4h-8.31c-.11,0-.19.09-.19.2v17.01c0,.11.08.19.19.19h8.31v16.62h-8.31c-.11,0-.19.08-.19.19v17.01c0,.11.08.2.19.2h8.31v16.61h-8.31c-.11,0-.19.09-.19.2v17.01c0,.11.08.2.19.2h8.31v16.61h-8.31c-.11,0-.19.09-.19.2v17c0,.11.08.2.19.2h8.31v16.61h-8.31c-.11,0-.19.09-.19.2v17.01c0,.11.08.2.19.2h8.31v16.61h-8.31c-.11,0-.19.09-.19.2v17.01c0,.11.08.19.19.19h8.31v16.61h-8.31c-.11,0-.19.09-.19.2v17.01c0,.11.08.2.19.2h8.31v16.61h-8.31c-.11,0-.19.09-.19.2v17.01c0,.11.08.2.19.2h8.31v16.61h-8.31c-.11,0-.19.08-.19.19v17.01c0,.11.08.2.19.2h8.31v16.61h-8.31c-.11,0-.19.09-.19.2v17.01c0,.11.08.2.19.2h8.31v16.61h-8.31c-.11,0-.19.09-.19.2v17c0,.11.08.2.19.2h8.31v41.1h170.48v-41.1h8.3c.11,0,.2-.09.2-.2v-17c0-.11-.09-.2-.2-.2h-8.3v-16.61h8.3c.11,0,.2-.09.2-.2v-17.01c0-.11-.09-.2-.2-.2h-8.3v-16.61h8.3c.11,0,.2-.09.2-.2v-17.01c0-.11-.09-.19-.2-.19h-8.3v-16.61h8.3c.11,0,.2-.09.2-.2v-17.01c0-.11-.09-.2-.2-.2h-8.3v-16.61h8.3c.11,0,.2-.09.2-.2v-17.01c0-.11-.09-.2-.2-.2h-8.3v-16.61h8.3c.11,0,.2-.08.2-.19v-17.01c0-.11-.09-.2-.2-.2h-8.3v-16.61h8.3c.11,0,.2-.09.2-.2v-17.01c0-.11-.09-.2-.2-.2h-8.3v-16.61h8.3c.11,0,.2-.09.2-.2v-17c0-.11-.09-.2-.2-.2h-8.3v-16.61h8.3c.11,0,.2-.09.2-.2v-17.01c0-.11-.09-.2-.2-.2h-8.3v-16.61h8.3c.11,0,.2-.09.2-.2v-17.01c0-.11-.09-.19-.2-.19h-8.3v-16.62h8.3ZM387.41,848.68h-45.96v-29.11h-101.22v-314.04h101.22v-17.4h45.96v360.55Z"/>
  <path class="st1" d="M635.85,451.66v433.53h189.96v-433.53h-189.96ZM794.55,839.9h-17.01v-36.85h-110.55v-283.47h110.55v-22.68h17.01v343Z"/>
  <path class="st2" d="M215.63,502.77c.11,0,.2-.08.2-.19v-17.01c0-.11-.09-.2-.2-.2h-8.3v-32.4c0-.11-.09-.2-.2-.2H37.05c-.11,0-.2.09-.2.2v32.4h-8.31c-.11,0-.19.09-.19.2v17.01c0,.11.08.19.19.19h8.31v16.62h-8.31c-.11,0-.19.08-.19.19v17.01c0,.11.08.2.19.2h8.31v16.61h-8.31c-.11,0-.19.09-.19.2v17.01c0,.11.08.2.19.2h8.31v16.61h-8.31c-.11,0-.19.09-.19.2v17c0,.11.08.2.19.2h8.31v16.61h-8.31c-.11,0-.19.09-.19.2v17.01c0,.11.08.2.19.2h8.31v16.61h-8.31c-.11,0-.19.09-.19.2v17.01c0,.11.08.19.19.19h8.31v16.61h-8.31c-.11,0-.19.09-.19.2v17.01c0,.11.08.2.19.2h8.31v16.61h-8.31c-.11,0-.19.09-.19.2v17.01c0,.11.08.2.19.2h8.31v16.61h-8.31c-.11,0-.19.08-.19.19v17.01c0,.11.08.2.19.2h8.31v16.61h-8.31c-.11,0-.19.09-.19.2v17.01c0,.11.08.2.19.2h8.31v16.61h-8.31c-.11,0-.19.09-.19.2v17c0,.11.08.2.19.2h8.31v41.1h170.48v-41.1h8.3c.11,0,.2-.09.2-.2v-17c0-.11-.09-.2-.2-.2h-8.3v-16.61h8.3c.11,0,.2-.09.2-.2v-17.01c0-.11-.09-.2-.2-.2h-8.3v-16.61h8.3c.11,0,.2-.09.2-.2v-17.01c0-.11-.09-.19-.2-.19h-8.3v-16.61h8.3c.11,0,.2-.09.2-.2v-17.01c0-.11-.09-.2-.2-.2h-8.3v-16.61h8.3c.11,0,.2-.09.2-.2v-17.01c0-.11-.09-.2-.2-.2h-8.3v-16.61h8.3c.11,0,.2-.08.2-.19v-17.01c0-.11-.09-.2-.2-.2h-8.3v-16.61h8.3c.11,0,.2-.09.2-.2v-17.01c0-.11-.09-.2-.2-.2h-8.3v-16.61h8.3c.11,0,.2-.09.2-.2v-17c0-.11-.09-.2-.2-.2h-8.3v-16.61h8.3c.11,0,.2-.09.2-.2v-17.01c0-.11-.09-.2-.2-.2h-8.3v-16.61h8.3c.11,0,.2-.09.2-.2v-17.01c0-.11-.09-.19-.2-.19h-8.3v-16.62h8.3ZM195.68,848.68h-45.96v-29.11H48.5v-314.04h101.22v-17.4h45.96v360.55Z"/>
  <path class="st1" d="M840.55,451.66v433.53h175.79v-433.53h-175.79ZM992.17,839.9h-17.01v-36.85h-110.55v-283.47h110.55v-22.68h17.01v343Z"/>
</svg>