<?xml version="1.0" encoding="UTF-8"?>
<svg id="Layer_1" xmlns="http://www.w3.org/2000/svg" version="1.1" xmlns:cc="http://creativecommons.org/ns#" xmlns:dc="http://purl.org/dc/elements/1.1/" xmlns:inkscape="http://www.inkscape.org/namespaces/inkscape" xmlns:rdf="http://www.w3.org/1999/02/22-rdf-syntax-ns#" xmlns:svg="http://www.w3.org/2000/svg" viewBox="0 0 1795.18 1278.99">
  <!-- Generator: Adobe Illustrator 29.4.0, SVG Export Plug-In . SVG Version: 2.1.0 Build 152)  -->
  <defs>
    <style>
      .st0, .st1 {
        stroke: #000;
      }

      .st0, .st2 {
        fill: none;
        stroke-linecap: round;
        stroke-linejoin: round;
        stroke-width: .57px;
      }

      .st1 {
        fill: #fff;
        stroke-miterlimit: 10;
      }

      .st2 {
        stroke: blue;
      }

      .st3 {
        fill: red;
        font-family: ArialMT, Arial;
        font-size: 17.01px;
        isolation: isolate;
      }
    </style>
  </defs>
  <g id="p-0">
    <path class="st0" d="M1766.55,28.35h-283.46v28.35h283.46v-28.35Z"/>
    <text class="st3" transform="translate(1715.09 36.43) rotate(-180)"><tspan x="0" y="0">100.0mm, burn:0.10mm</tspan></text>
  </g>
  <g id="p-1">
    <path class="st0" d="M1758.05,70.02h-16.55c-.28,0,0,.28,0,0v-8.22c0-.16-.12-.28-.28-.28h-17.01c-.16,0-.28.13-.28.28v8.22c0,.28.28,0,0,0h-50.63c-.28,0,0,.28,0,0v-8.22c0-.16-.13-.28-.28-.28h-17.01c-.16,0-.28.13-.28.28v8.22c0,.28.28,0,0,0h-16.44c-.28,0,0,.28,0,0v-8.22c0-.16-.13-.28-.28-.28h-17.01c-.16,0-.28.13-.28.28v8.22c0,.28.28,0,0,0h-16.44c-.28,0,0,.28,0,0v-8.22c0-.16-.13-.28-.28-.28h-17.01c-.16,0-.28.13-.28.28v8.22c0,.28.28,0,0,0h-16.44c-.28,0,0,.28,0,0v-8.22c0-.16-.13-.28-.28-.28h-17.01c-.16,0-.28.13-.28.28v8.22c0,.28.28,0,0,0h-16.44c-.28,0,0,.28,0,0v-8.22c0-.16-.13-.28-.28-.28h-17.01c-.16,0-.28.13-.28.28v8.22c0,.28.28,0,0,0h-16.44c-.28,0,0,.28,0,0v-8.22c0-.16-.13-.28-.28-.28h-17.01c-.16,0-.28.13-.28.28v8.22c0,.28.28,0,0,0h-16.44c-.28,0,0,.28,0,0v-8.22c0-.16-.13-.28-.28-.28h-17.01c-.16,0-.28.13-.28.28v8.22c0,.28.28,0,0,0h-50.63c-.28,0,0,.28,0,0v-8.22c0-.16-.13-.28-.28-.28h-17.01c-.16,0-.28.13-.28.28v8.22c0,.28.28,0,0,0h-16.55c-.16,0-.28.13-.28.28v20.98c0,.28.28,0,0,0h-8.22c-.16,0-.28.13-.28.28v17.01c0,.16.13.28.28.28h8.22c.28,0,0-.28,0,0v16.44c0,.28.28,0,0,0h-8.22c-.16,0-.28.13-.28.28v17.01c0,.16.13.28.28.28h8.22c.28,0,0-.28,0,0v16.44c0,.28.28,0,0,0h-8.22c-.16,0-.28.13-.28.28v17.01c0,.16.13.28.28.28h8.22c.28,0,0-.28,0,0v16.44c0,.28.28,0,0,0h-8.22c-.16,0-.28.13-.28.28v17.01c0,.16.13.28.28.28h8.22c.28,0,0-.28,0,0v16.44c0,.28.28,0,0,0h-8.22c-.16,0-.28.13-.28.28v17.01c0,.16.13.28.28.28h8.22c.28,0,0-.28,0,0v16.44c0,.28.28,0,0,0h-8.22c-.16,0-.28.13-.28.28v17.01c0,.16.13.28.28.28h8.22c.28,0,0-.28,0,0v16.44c0,.28.28,0,0,0h-8.22c-.16,0-.28.13-.28.28v17.01c0,.16.13.28.28.28h8.22c.28,0,0-.28,0,0v16.44c0,.28.28,0,0,0h-8.22c-.16,0-.28.13-.28.28v17.01c0,.16.13.28.28.28h8.22c.28,0,0-.28,0,0v16.44c0,.28.28,0,0,0h-8.22c-.16,0-.28.13-.28.28v17.01c0,.16.13.28.28.28h8.22c.28,0,0-.28,0,0v16.44c0,.28.28,0,0,0h-8.22c-.16,0-.28.13-.28.28v17.01c0,.16.13.28.28.28h8.22c.28,0,0-.28,0,0v20.98c0,.16.13.28.28.28h391.18c.16,0,.28-.13.28-.28v-20.98c0-.28-.28,0,0,0h8.22c.16,0,.28-.13.28-.28v-17.01c0-.16-.13-.28-.28-.28h-8.22c-.28,0,0,.28,0,0v-16.44c0-.28-.28,0,0,0h8.22c.16,0,.28-.13.28-.28v-17.01c0-.16-.13-.28-.28-.28h-8.22c-.28,0,0,.28,0,0v-16.44c0-.28-.28,0,0,0h8.22c.16,0,.28-.13.28-.28v-17.01c0-.16-.13-.28-.28-.28h-8.22c-.28,0,0,.28,0,0v-16.44c0-.28-.28,0,0,0h8.22c.16,0,.28-.13.28-.28v-17.01c0-.16-.13-.28-.28-.28h-8.22c-.28,0,0,.28,0,0v-16.44c0-.28-.28,0,0,0h8.22c.16,0,.28-.13.28-.28v-17.01c0-.16-.13-.28-.28-.28h-8.22c-.28,0,0,.28,0,0v-16.44c0-.28-.28,0,0,0h8.22c.16,0,.28-.13.28-.28v-17.01c0-.16-.13-.28-.28-.28h-8.22c-.28,0,0,.28,0,0v-16.44c0-.28-.28,0,0,0h8.22c.16,0,.28-.13.28-.28v-17.01c0-.16-.13-.28-.28-.28h-8.22c-.28,0,0,.28,0,0v-16.44c0-.28-.28,0,0,0h8.22c.16,0,.28-.13.28-.28v-17.01c0-.16-.13-.28-.28-.28h-8.22c-.28,0,0,.28,0,0v-16.44c0-.28-.28,0,0,0h8.22c.16,0,.28-.13.28-.28v-17.01c0-.16-.13-.28-.28-.28h-8.22c-.28,0,0,.28,0,0v-16.44c0-.28-.28,0,0,0h8.22c.16,0,.28-.13.28-.28v-17.01c0-.16-.13-.28-.28-.28h-8.22c-.28,0,0,.28,0,0v-20.98c0-.16-.13-.28-.28-.28Z"/>
    <path class="st2" d="M1699.16,100.06v-8.22c0-.28-.28,0,0,0h7.94c.28,0,0-.28,0,0v16.44c0,.28.28,0,0,0h-7.94c-.28,0,0,.28,0,0v-8.22Z"/>
    <path class="st2" d="M1699.16,134.08v-8.22c0-.28-.28,0,0,0h7.94c.28,0,0-.28,0,0v16.44c0,.28.28,0,0,0h-7.94c-.28,0,0,.28,0,0v-8.22Z"/>
    <path class="st2" d="M1699.16,168.09v-8.22c0-.28-.28,0,0,0h7.94c.28,0,0-.28,0,0v16.44c0,.28.28,0,0,0h-7.94c-.28,0,0,.28,0,0v-8.22Z"/>
    <path class="st2" d="M1699.16,202.11v-8.22c0-.28-.28,0,0,0h7.94c.28,0,0-.28,0,0v16.44c0,.28.28,0,0,0h-7.94c-.28,0,0,.28,0,0v-8.22Z"/>
    <path class="st2" d="M1699.16,236.13v-8.22c0-.28-.28,0,0,0h7.94c.28,0,0-.28,0,0v16.44c0,.28.28,0,0,0h-7.94c-.28,0,0,.28,0,0v-8.22Z"/>
    <path class="st2" d="M1699.16,270.14v-8.22c0-.28-.28,0,0,0h7.94c.28,0,0-.28,0,0v16.44c0,.28.28,0,0,0h-7.94c-.28,0,0,.28,0,0v-8.22Z"/>
    <path class="st2" d="M1699.16,304.16v-8.22c0-.28-.28,0,0,0h7.94c.28,0,0-.28,0,0v16.44c0,.28.28,0,0,0h-7.94c-.28,0,0,.28,0,0v-8.22Z"/>
    <path class="st2" d="M1699.16,338.17v-8.22c0-.28-.28,0,0,0h7.94c.28,0,0-.28,0,0v16.44c0,.28.28,0,0,0h-7.94c-.28,0,0,.28,0,0v-8.22Z"/>
    <path class="st2" d="M1699.16,372.19v-8.22c0-.28-.28,0,0,0h7.94c.28,0,0-.28,0,0v16.44c0,.28.28,0,0,0h-7.94c-.28,0,0,.28,0,0v-8.22Z"/>
    <path class="st2" d="M1699.16,406.2v-8.22c0-.28-.28,0,0,0h7.94c.28,0,0-.28,0,0v16.44c0,.28.28,0,0,0h-7.94c-.28,0,0,.28,0,0v-8.22Z"/>
    <path class="st2" d="M1417.82,100.06v-8.22c0-.28-.28,0,0,0h7.94c.28,0,0-.28,0,0v16.44c0,.28.28,0,0,0h-7.94c-.28,0,0,.28,0,0v-8.22Z"/>
    <path class="st2" d="M1417.82,134.08v-8.22c0-.28-.28,0,0,0h7.94c.28,0,0-.28,0,0v16.44c0,.28.28,0,0,0h-7.94c-.28,0,0,.28,0,0v-8.22Z"/>
    <path class="st2" d="M1417.82,168.09v-8.22c0-.28-.28,0,0,0h7.94c.28,0,0-.28,0,0v16.44c0,.28.28,0,0,0h-7.94c-.28,0,0,.28,0,0v-8.22Z"/>
    <path class="st2" d="M1417.82,202.11v-8.22c0-.28-.28,0,0,0h7.94c.28,0,0-.28,0,0v16.44c0,.28.28,0,0,0h-7.94c-.28,0,0,.28,0,0v-8.22Z"/>
    <path class="st2" d="M1417.82,236.13v-8.22c0-.28-.28,0,0,0h7.94c.28,0,0-.28,0,0v16.44c0,.28.28,0,0,0h-7.94c-.28,0,0,.28,0,0v-8.22Z"/>
    <path class="st2" d="M1417.82,270.14v-8.22c0-.28-.28,0,0,0h7.94c.28,0,0-.28,0,0v16.44c0,.28.28,0,0,0h-7.94c-.28,0,0,.28,0,0v-8.22Z"/>
    <path class="st2" d="M1417.82,304.16v-8.22c0-.28-.28,0,0,0h7.94c.28,0,0-.28,0,0v16.44c0,.28.28,0,0,0h-7.94c-.28,0,0,.28,0,0v-8.22Z"/>
    <path class="st2" d="M1417.82,338.17v-8.22c0-.28-.28,0,0,0h7.94c.28,0,0-.28,0,0v16.44c0,.28.28,0,0,0h-7.94c-.28,0,0,.28,0,0v-8.22Z"/>
    <path class="st2" d="M1417.82,372.19v-8.22c0-.28-.28,0,0,0h7.94c.28,0,0-.28,0,0v16.44c0,.28.28,0,0,0h-7.94c-.28,0,0,.28,0,0v-8.22Z"/>
    <path class="st2" d="M1417.82,406.2v-8.22c0-.28-.28,0,0,0h7.94c.28,0,0-.28,0,0v16.44c0,.28.28,0,0,0h-7.94c-.28,0,0,.28,0,0v-8.22Z"/>
  </g>
  <g id="p-2">
    <path class="st0" d="M1345.04,70.02h-16.55c-.28,0,0,.28,0,0v-8.22c0-.16-.13-.28-.28-.28h-17.01c-.16,0-.28.13-.28.28v8.22c0,.28.28,0,0,0h-16.55c-.16,0-.28.13-.28.28v182.55c0,.28.28,0,0,0h-7.94c-.28,0,0,.28,0,0V70.3c0-.16-.13-.28-.28-.28h-25.58c-.28,0,0,.28,0,0v-8.22c0-.16-.13-.28-.28-.28h-17.01c-.16,0-.28.13-.28.28v8.22c0,.28.28,0,0,0h-16.44c-.28,0,0,.28,0,0v-8.22c0-.16-.13-.28-.28-.28h-17.01c-.16,0-.28.13-.28.28v8.22c0,.28.28,0,0,0h-16.44c-.28,0,0,.28,0,0v-8.22c0-.16-.13-.28-.28-.28h-17.01c-.16,0-.28.13-.28.28v8.22c0,.28.28,0,0,0h-16.44c-.28,0,0,.28,0,0v-8.22c0-.16-.13-.28-.28-.28h-17.01c-.16,0-.28.13-.28.28v8.22c0,.28.28,0,0,0h-16.44c-.28,0,0,.28,0,0v-8.22c0-.16-.13-.28-.28-.28h-17.01c-.16,0-.28.13-.28.28v8.22c0,.28.28,0,0,0h-16.44c-.28,0,0,.28,0,0v-8.22c0-.16-.13-.28-.28-.28h-17.01c-.16,0-.28.13-.28.28v8.22c0,.28.28,0,0,0h-16.44c-.28,0,0,.28,0,0v-8.22c0-.16-.13-.28-.28-.28h-17.01c-.16,0-.28.13-.28.28v8.22c0,.28.28,0,0,0h-25.58c-.16,0-.28.13-.28.28v182.55c0,.28.28,0,0,0h-7.94c-.28,0,0,.28,0,0V70.3c0-.16-.13-.28-.28-.28h-16.55c-.28,0,0,.28,0,0v-8.22c0-.16-.13-.28-.28-.28h-17.01c-.16,0-.28.13-.28.28v8.22c0,.28.28,0,0,0h-16.55c-.16,0-.28.13-.28.28v20.98c0,.28.28,0,0,0h-8.22c-.16,0-.28.13-.28.28v17.01c0,.16.13.28.28.28h8.22c.28,0,0-.28,0,0v16.44c0,.28.28,0,0,0h-8.22c-.16,0-.28.13-.28.28v17.01c0,.16.13.28.28.28h8.22c.28,0,0-.28,0,0v16.44c0,.28.28,0,0,0h-8.22c-.16,0-.28.13-.28.28v17.01c0,.16.13.28.28.28h8.22c.28,0,0-.28,0,0v16.44c0,.28.28,0,0,0h-8.22c-.16,0-.28.13-.28.28v17.01c0,.16.13.28.28.28h8.22c.28,0,0-.28,0,0v16.44c0,.28.28,0,0,0h-8.22c-.16,0-.28.13-.28.28v17.01c0,.16.13.28.28.28h8.22c.28,0,0-.28,0,0v16.44c0,.28.28,0,0,0h-8.22c-.16,0-.28.13-.28.28v17.01c0,.16.13.28.28.28h8.22c.28,0,0-.28,0,0v16.44c0,.28.28,0,0,0h-8.22c-.16,0-.28.13-.28.28v17.01c0,.16.13.28.28.28h8.22c.28,0,0-.28,0,0v16.44c0,.28.28,0,0,0h-8.22c-.16,0-.28.13-.28.28v17.01c0,.16.13.28.28.28h8.22c.28,0,0-.28,0,0v16.44c0,.28.28,0,0,0h-8.22c-.16,0-.28.13-.28.28v17.01c0,.16.13.28.28.28h8.22c.28,0,0-.28,0,0v16.44c0,.28.28,0,0,0h-8.22c-.16,0-.28.13-.28.28v17.01c0,.16.13.28.28.28h8.22c.28,0,0-.28,0,0v20.98c0,.16.13.28.28.28h391.18c.16,0,.28-.13.28-.28v-20.98c0-.28-.28,0,0,0h8.22c.16,0,.28-.13.28-.28v-17.01c0-.16-.13-.28-.28-.28h-8.22c-.28,0,0,.28,0,0v-16.44c0-.28-.28,0,0,0h8.22c.16,0,.28-.13.28-.28v-17.01c0-.16-.13-.28-.28-.28h-8.22c-.28,0,0,.28,0,0v-16.44c0-.28-.28,0,0,0h8.22c.16,0,.28-.13.28-.28v-17.01c0-.16-.13-.28-.28-.28h-8.22c-.28,0,0,.28,0,0v-16.44c0-.28-.28,0,0,0h8.22c.16,0,.28-.13.28-.28v-17.01c0-.16-.13-.28-.28-.28h-8.22c-.28,0,0,.28,0,0v-16.44c0-.28-.28,0,0,0h8.22c.16,0,.28-.13.28-.28v-17.01c0-.16-.13-.28-.28-.28h-8.22c-.28,0,0,.28,0,0v-16.44c0-.28-.28,0,0,0h8.22c.16,0,.28-.13.28-.28v-17.01c0-.16-.13-.28-.28-.28h-8.22c-.28,0,0,.28,0,0v-16.44c0-.28-.28,0,0,0h8.22c.16,0,.28-.13.28-.28v-17.01c0-.16-.13-.28-.28-.28h-8.22c-.28,0,0,.28,0,0v-16.44c0-.28-.28,0,0,0h8.22c.16,0,.28-.13.28-.28v-17.01c0-.16-.13-.28-.28-.28h-8.22c-.28,0,0,.28,0,0v-16.44c0-.28-.28,0,0,0h8.22c.16,0,.28-.13.28-.28v-17.01c0-.16-.13-.28-.28-.28h-8.22c-.28,0,0,.28,0,0v-16.44c0-.28-.28,0,0,0h8.22c.16,0,.28-.13.28-.28v-17.01c0-.16-.13-.28-.28-.28h-8.22c-.28,0,0,.28,0,0v-20.98c0-.16-.13-.28-.28-.28Z"/>
  </g>
  <g id="p-3">
    <path class="st0" d="M932.03,70.02h-16.55c-.28,0,0,.28,0,0v-8.22c0-.16-.12-.28-.28-.28h-17.01c-.16,0-.28.13-.28.28v8.22c0,.28.28,0,0,0h-16.55c-.16,0-.28.13-.28.28v182.55c0,.28.28,0,0,0h-7.94c-.28,0,0,.28,0,0V70.3c0-.16-.13-.28-.28-.28h-25.58c-.28,0,0,.28,0,0v-8.22c0-.16-.13-.28-.28-.28h-17.01c-.16,0-.28.13-.28.28v8.22c0,.28.28,0,0,0h-16.44c-.28,0,0,.28,0,0v-8.22c0-.16-.13-.28-.28-.28h-17.01c-.16,0-.28.13-.28.28v8.22c0,.28.28,0,0,0h-16.44c-.28,0,0,.28,0,0v-8.22c0-.16-.13-.28-.28-.28h-17.01c-.16,0-.28.13-.28.28v8.22c0,.28.28,0,0,0h-16.44c-.28,0,0,.28,0,0v-8.22c0-.16-.13-.28-.28-.28h-17.01c-.16,0-.28.13-.28.28v8.22c0,.28.28,0,0,0h-16.44c-.28,0,0,.28,0,0v-8.22c0-.16-.13-.28-.28-.28h-17.01c-.16,0-.28.13-.28.28v8.22c0,.28.28,0,0,0h-16.44c-.28,0,0,.28,0,0v-8.22c0-.16-.13-.28-.28-.28h-17.01c-.16,0-.28.13-.28.28v8.22c0,.28.28,0,0,0h-16.44c-.28,0,0,.28,0,0v-8.22c0-.16-.13-.28-.28-.28h-17.01c-.16,0-.28.13-.28.28v8.22c0,.28.28,0,0,0h-25.58c-.16,0-.28.13-.28.28v182.55c0,.28.28,0,0,0h-7.94c-.28,0,0,.28,0,0V70.3c0-.16-.13-.28-.28-.28h-16.55c-.28,0,0,.28,0,0v-8.22c0-.16-.13-.28-.28-.28h-17.01c-.16,0-.29.13-.29.28v8.22c0,.28.29,0,0,0h-16.55c-.16,0-.28.13-.28.28v20.98c0,.28.28,0,0,0h-8.22c-.16,0-.28.13-.28.28v17.01c0,.16.13.28.28.28h8.22c.28,0,0-.28,0,0v16.44c0,.28.28,0,0,0h-8.22c-.16,0-.28.13-.28.28v17.01c0,.16.13.28.28.28h8.22c.28,0,0-.28,0,0v16.44c0,.28.28,0,0,0h-8.22c-.16,0-.28.13-.28.28v17.01c0,.16.13.28.28.28h8.22c.28,0,0-.28,0,0v16.44c0,.28.28,0,0,0h-8.22c-.16,0-.28.13-.28.28v17.01c0,.16.13.28.28.28h8.22c.28,0,0-.28,0,0v16.44c0,.28.28,0,0,0h-8.22c-.16,0-.28.13-.28.28v17.01c0,.16.13.28.28.28h8.22c.28,0,0-.28,0,0v16.44c0,.28.28,0,0,0h-8.22c-.16,0-.28.13-.28.28v17.01c0,.16.13.28.28.28h8.22c.28,0,0-.28,0,0v16.44c0,.28.28,0,0,0h-8.22c-.16,0-.28.13-.28.28v17.01c0,.16.13.28.28.28h8.22c.28,0,0-.28,0,0v16.44c0,.28.28,0,0,0h-8.22c-.16,0-.28.13-.28.28v17.01c0,.16.13.28.28.28h8.22c.28,0,0-.28,0,0v16.44c0,.28.28,0,0,0h-8.22c-.16,0-.28.13-.28.28v17.01c0,.16.13.28.28.28h8.22c.28,0,0-.28,0,0v16.44c0,.28.28,0,0,0h-8.22c-.16,0-.28.13-.28.28v17.01c0,.16.13.28.28.28h8.22c.28,0,0-.28,0,0v20.98c0,.16.13.28.28.28h391.18c.16,0,.28-.13.28-.28v-20.98c0-.28-.28,0,0,0h8.22c.16,0,.28-.13.28-.28v-17.01c0-.16-.13-.28-.28-.28h-8.22c-.28,0,0,.28,0,0v-16.44c0-.28-.28,0,0,0h8.22c.16,0,.28-.13.28-.28v-17.01c0-.16-.13-.28-.28-.28h-8.22c-.28,0,0,.28,0,0v-16.44c0-.28-.28,0,0,0h8.22c.16,0,.28-.13.28-.28v-17.01c0-.16-.13-.28-.28-.28h-8.22c-.28,0,0,.28,0,0v-16.44c0-.28-.28,0,0,0h8.22c.16,0,.28-.13.28-.28v-17.01c0-.16-.13-.28-.28-.28h-8.22c-.28,0,0,.28,0,0v-16.44c0-.28-.28,0,0,0h8.22c.16,0,.28-.13.28-.28v-17.01c0-.16-.13-.28-.28-.28h-8.22c-.28,0,0,.28,0,0v-16.44c0-.28-.28,0,0,0h8.22c.16,0,.28-.13.28-.28v-17.01c0-.16-.13-.28-.28-.28h-8.22c-.28,0,0,.28,0,0v-16.44c0-.28-.28,0,0,0h8.22c.16,0,.28-.13.28-.28v-17.01c0-.16-.13-.28-.28-.28h-8.22c-.28,0,0,.28,0,0v-16.44c0-.28-.28,0,0,0h8.22c.16,0,.28-.13.28-.28v-17.01c0-.16-.13-.28-.28-.28h-8.22c-.28,0,0,.28,0,0v-16.44c0-.28-.28,0,0,0h8.22c.16,0,.28-.13.28-.28v-17.01c0-.16-.13-.28-.28-.28h-8.22c-.28,0,0,.28,0,0v-16.44c0-.28-.28,0,0,0h8.22c.16,0,.28-.13.28-.28v-17.01c0-.16-.13-.28-.28-.28h-8.22c-.28,0,0,.28,0,0v-20.98c0-.16-.13-.28-.28-.28Z"/>
  </g>
  <g id="p-4">
    <path class="st0" d="M519.02,70.02h-16.55c-.28,0,0,.28,0,0v-8.22c0-.16-.13-.28-.28-.28h-17.01c-.16,0-.29.13-.29.28v8.22c0,.28.29,0,0,0h-50.64c-.28,0,0,.28,0,0v-8.22c0-.16-.13-.28-.28-.28h-17.01c-.16,0-.28.13-.28.28v8.22c0,.28.28,0,0,0h-16.44c-.28,0,0,.28,0,0v-8.22c0-.16-.13-.28-.28-.28h-17.01c-.16,0-.28.13-.28.28v8.22c0,.28.28,0,0,0h-16.44c-.28,0,0,.28,0,0v-8.22c0-.16-.13-.28-.28-.28h-17.01c-.16,0-.28.13-.28.28v8.22c0,.28.28,0,0,0h-16.44c-.28,0,0,.28,0,0v-8.22c0-.16-.13-.28-.28-.28h-17.01c-.16,0-.28.13-.28.28v8.22c0,.28.28,0,0,0h-16.44c-.28,0,0,.28,0,0v-8.22c0-.16-.13-.28-.28-.28h-17.01c-.16,0-.28.13-.28.28v8.22c0,.28.28,0,0,0h-16.44c-.28,0,0,.28,0,0v-8.22c0-.16-.13-.28-.28-.28h-17.01c-.16,0-.28.13-.28.28v8.22c0,.28.28,0,0,0h-16.44c-.28,0,0,.28,0,0v-8.22c0-.16-.13-.28-.28-.28h-17.01c-.16,0-.28.13-.28.28v8.22c0,.28.28,0,0,0h-50.63c-.29,0,0,.28,0,0v-8.22c0-.16-.13-.28-.29-.28h-17.01c-.16,0-.28.13-.28.28v8.22c0,.28.28,0,0,0h-16.55c-.16,0-.28.13-.28.28v20.98c0,.28.28,0,0,0h-8.22c-.16,0-.28.13-.28.28v17.01c0,.16.13.28.28.28h8.22c.28,0,0-.28,0,0v16.44c0,.28.28,0,0,0h-8.22c-.16,0-.28.13-.28.28v17.01c0,.16.13.28.28.28h8.22c.28,0,0-.28,0,0v16.44c0,.28.28,0,0,0h-8.22c-.16,0-.28.13-.28.28v17.01c0,.16.13.28.28.28h8.22c.28,0,0-.28,0,0v16.44c0,.28.28,0,0,0h-8.22c-.16,0-.28.13-.28.28v17.01c0,.16.13.28.28.28h8.22c.28,0,0-.28,0,0v16.44c0,.28.28,0,0,0h-8.22c-.16,0-.28.13-.28.28v17.01c0,.16.13.28.28.28h8.22c.28,0,0-.28,0,0v16.44c0,.28.28,0,0,0h-8.22c-.16,0-.28.13-.28.28v17.01c0,.16.13.28.28.28h8.22c.28,0,0-.28,0,0v16.44c0,.28.28,0,0,0h-8.22c-.16,0-.28.13-.28.28v17.01c0,.16.13.28.28.28h8.22c.28,0,0-.28,0,0v16.44c0,.28.28,0,0,0h-8.22c-.16,0-.28.13-.28.28v17.01c0,.16.13.28.28.28h8.22c.28,0,0-.28,0,0v16.44c0,.28.28,0,0,0h-8.22c-.16,0-.28.13-.28.28v17.01c0,.16.13.28.28.28h8.22c.28,0,0-.28,0,0v16.44c0,.28.28,0,0,0h-8.22c-.16,0-.28.13-.28.28v17.01c0,.16.13.28.28.28h8.22c.28,0,0-.28,0,0v20.98c0,.16.13.28.28.28h391.18c.16,0,.28-.13.28-.28v-20.98c0-.28-.28,0,0,0h8.22c.16,0,.28-.13.28-.28v-17.01c0-.16-.13-.28-.28-.28h-8.22c-.28,0,0,.28,0,0v-16.44c0-.28-.28,0,0,0h8.22c.16,0,.28-.13.28-.28v-17.01c0-.16-.13-.28-.28-.28h-8.22c-.28,0,0,.28,0,0v-16.44c0-.28-.28,0,0,0h8.22c.16,0,.28-.13.28-.28v-17.01c0-.16-.13-.28-.28-.28h-8.22c-.28,0,0,.28,0,0v-16.44c0-.28-.28,0,0,0h8.22c.16,0,.28-.13.28-.28v-17.01c0-.16-.13-.28-.28-.28h-8.22c-.28,0,0,.28,0,0v-16.44c0-.28-.28,0,0,0h8.22c.16,0,.28-.13.28-.28v-17.01c0-.16-.13-.28-.28-.28h-8.22c-.28,0,0,.28,0,0v-16.44c0-.28-.28,0,0,0h8.22c.16,0,.28-.13.28-.28v-17.01c0-.16-.13-.28-.28-.28h-8.22c-.28,0,0,.28,0,0v-16.44c0-.28-.28,0,0,0h8.22c.16,0,.28-.13.28-.28v-17.01c0-.16-.13-.28-.28-.28h-8.22c-.28,0,0,.28,0,0v-16.44c0-.28-.28,0,0,0h8.22c.16,0,.28-.13.28-.28v-17.01c0-.16-.13-.28-.28-.28h-8.22c-.28,0,0,.28,0,0v-16.44c0-.28-.28,0,0,0h8.22c.16,0,.28-.13.28-.28v-17.01c0-.16-.13-.28-.28-.28h-8.22c-.28,0,0,.28,0,0v-16.44c0-.28-.28,0,0,0h8.22c.16,0,.28-.13.28-.28v-17.01c0-.16-.13-.28-.28-.28h-8.22c-.28,0,0,.28,0,0v-20.98c0-.16-.13-.28-.28-.28Z"/>
    <path class="st2" d="M460.13,100.06v-8.22c0-.28-.28,0,0,0h7.94c.28,0,0-.28,0,0v16.44c0,.28.28,0,0,0h-7.94c-.28,0,0,.28,0,0v-8.22Z"/>
    <path class="st2" d="M460.13,134.08v-8.22c0-.28-.28,0,0,0h7.94c.28,0,0-.28,0,0v16.44c0,.28.28,0,0,0h-7.94c-.28,0,0,.28,0,0v-8.22Z"/>
    <path class="st2" d="M460.13,168.09v-8.22c0-.28-.28,0,0,0h7.94c.28,0,0-.28,0,0v16.44c0,.28.28,0,0,0h-7.94c-.28,0,0,.28,0,0v-8.22Z"/>
    <path class="st2" d="M460.13,202.11v-8.22c0-.28-.28,0,0,0h7.94c.28,0,0-.28,0,0v16.44c0,.28.28,0,0,0h-7.94c-.28,0,0,.28,0,0v-8.22Z"/>
    <path class="st2" d="M460.13,236.13v-8.22c0-.28-.28,0,0,0h7.94c.28,0,0-.28,0,0v16.44c0,.28.28,0,0,0h-7.94c-.28,0,0,.28,0,0v-8.22Z"/>
    <path class="st2" d="M460.13,270.14v-8.22c0-.28-.28,0,0,0h7.94c.28,0,0-.28,0,0v16.44c0,.28.28,0,0,0h-7.94c-.28,0,0,.28,0,0v-8.22Z"/>
    <path class="st2" d="M460.13,304.16v-8.22c0-.28-.28,0,0,0h7.94c.28,0,0-.28,0,0v16.44c0,.28.28,0,0,0h-7.94c-.28,0,0,.28,0,0v-8.22Z"/>
    <path class="st2" d="M460.13,338.17v-8.22c0-.28-.28,0,0,0h7.94c.28,0,0-.28,0,0v16.44c0,.28.28,0,0,0h-7.94c-.28,0,0,.28,0,0v-8.22Z"/>
    <path class="st2" d="M460.13,372.19v-8.22c0-.28-.28,0,0,0h7.94c.28,0,0-.28,0,0v16.44c0,.28.28,0,0,0h-7.94c-.28,0,0,.28,0,0v-8.22Z"/>
    <path class="st2" d="M460.13,406.2v-8.22c0-.28-.28,0,0,0h7.94c.28,0,0-.28,0,0v16.44c0,.28.28,0,0,0h-7.94c-.28,0,0,.28,0,0v-8.22Z"/>
    <path class="st2" d="M178.8,100.06v-8.22c0-.28-.28,0,0,0h7.94c.28,0,0-.28,0,0v16.44c0,.28.28,0,0,0h-7.94c-.28,0,0,.28,0,0v-8.22Z"/>
    <path class="st2" d="M178.8,134.08v-8.22c0-.28-.28,0,0,0h7.94c.28,0,0-.28,0,0v16.44c0,.28.28,0,0,0h-7.94c-.28,0,0,.28,0,0v-8.22Z"/>
    <path class="st2" d="M178.8,168.09v-8.22c0-.28-.28,0,0,0h7.94c.28,0,0-.28,0,0v16.44c0,.28.28,0,0,0h-7.94c-.28,0,0,.28,0,0v-8.22Z"/>
    <path class="st2" d="M178.8,202.11v-8.22c0-.28-.28,0,0,0h7.94c.28,0,0-.28,0,0v16.44c0,.28.28,0,0,0h-7.94c-.28,0,0,.28,0,0v-8.22Z"/>
    <path class="st2" d="M178.8,236.13v-8.22c0-.28-.28,0,0,0h7.94c.28,0,0-.28,0,0v16.44c0,.28.28,0,0,0h-7.94c-.28,0,0,.28,0,0v-8.22Z"/>
    <path class="st2" d="M178.8,270.14v-8.22c0-.28-.28,0,0,0h7.94c.28,0,0-.28,0,0v16.44c0,.28.28,0,0,0h-7.94c-.28,0,0,.28,0,0v-8.22Z"/>
    <path class="st2" d="M178.8,304.16v-8.22c0-.28-.28,0,0,0h7.94c.28,0,0-.28,0,0v16.44c0,.28.28,0,0,0h-7.94c-.28,0,0,.28,0,0v-8.22Z"/>
    <path class="st2" d="M178.8,338.17v-8.22c0-.28-.28,0,0,0h7.94c.28,0,0-.28,0,0v16.44c0,.28.28,0,0,0h-7.94c-.28,0,0,.28,0,0v-8.22Z"/>
    <path class="st2" d="M178.8,372.19v-8.22c0-.28-.28,0,0,0h7.94c.28,0,0-.28,0,0v16.44c0,.28.28,0,0,0h-7.94c-.28,0,0,.28,0,0v-8.22Z"/>
    <path class="st2" d="M178.8,406.2v-8.22c0-.28-.28,0,0,0h7.94c.28,0,0-.28,0,0v16.44c0,.28.28,0,0,0h-7.94c-.28,0,0,.28,0,0v-8.22Z"/>
  </g>
  <g id="p-5">
    <path class="st0" d="M1758.05,449.01h-21.89c-.28,0,0,.28,0,0v-8.22c0-.16-.13-.28-.28-.28h-17.01c-.16,0-.28.13-.28.28v8.22c0,.28.28,0,0,0h-56.63c-.28,0,0,.28,0,0v-8.22c0-.16-.13-.28-.28-.28h-17.01c-.16,0-.28.13-.28.28v8.22c0,.28.28,0,0,0h-16.44c-.28,0,0,.28,0,0v-8.22c0-.16-.13-.28-.28-.28h-17.01c-.16,0-.28.13-.28.28v8.22c0,.28.28,0,0,0h-16.44c-.28,0,0,.28,0,0v-8.22c0-.16-.13-.28-.28-.28h-17.01c-.16,0-.28.13-.28.28v8.22c0,.28.28,0,0,0h-16.44c-.28,0,0,.28,0,0v-8.22c0-.16-.13-.28-.28-.28h-17.01c-.16,0-.28.13-.28.28v8.22c0,.28.28,0,0,0h-16.44c-.28,0,0,.28,0,0v-8.22c0-.16-.13-.28-.28-.28h-17.01c-.16,0-.28.13-.28.28v8.22c0,.28.28,0,0,0h-16.44c-.28,0,0,.28,0,0v-8.22c0-.16-.13-.28-.28-.28h-17.01c-.16,0-.28.13-.28.28v8.22c0,.28.28,0,0,0h-16.44c-.28,0,0,.28,0,0v-8.22c0-.16-.13-.28-.28-.28h-17.01c-.16,0-.28.13-.28.28v8.22c0,.28.28,0,0,0h-56.63c-.28,0,0,.28,0,0v-8.22c0-.16-.12-.28-.28-.28h-17.01c-.16,0-.28.13-.28.28v8.22c0,.28.28,0,0,0h-30.39c-.16,0-.28.13-.28.28v21.26c0,.16.13.28.28.28h8.22c.28,0,0-.28,0,0v16.44c0,.28.28,0,0,0h-8.22c-.16,0-.28.13-.28.28v17.01c0,.16.13.28.28.28h8.22c.28,0,0-.28,0,0v16.44c0,.28.28,0,0,0h-8.22c-.16,0-.28.13-.28.28v17.01c0,.16.13.28.28.28h8.22c.28,0,0-.28,0,0v16.44c0,.28.28,0,0,0h-8.22c-.16,0-.28.13-.28.28v17.01c0,.16.13.28.28.28h8.22c.28,0,0-.28,0,0v16.44c0,.28.28,0,0,0h-8.22c-.16,0-.28.13-.28.28v17.01c0,.16.13.28.28.28h8.22c.28,0,0-.28,0,0v16.44c0,.28.28,0,0,0h-8.22c-.16,0-.28.13-.28.28v17.01c0,.16.13.28.28.28h8.22c.28,0,0-.28,0,0v16.44c0,.28.28,0,0,0h-8.22c-.16,0-.28.13-.28.28v17.01c0,.16.13.28.28.28h8.22c.28,0,0-.28,0,0v16.44c0,.28.28,0,0,0h-8.22c-.16,0-.28.13-.28.28v17.01c0,.16.13.28.28.28h8.22c.28,0,0-.28,0,0v16.44c0,.28.28,0,0,0h-8.22c-.16,0-.28.13-.28.28v17.01c0,.16.13.28.28.28h8.22c.28,0,0-.28,0,0v16.44c0,.28.28,0,0,0h-8.22c-.16,0-.28.13-.28.28v17.01c0,.16.13.28.28.28h8.22c.28,0,0-.28,0,0v16.44c0,.28.28,0,0,0h-8.22c-.16,0-.28.13-.28.28v21.26c0,.16.13.28.28.28h430.87c.16,0,.28-.13.28-.28v-21.26c0-.16-.13-.28-.28-.28h-8.22c-.28,0,0,.28,0,0v-16.44c0-.28-.28,0,0,0h8.22c.16,0,.28-.13.28-.28v-17.01c0-.16-.13-.28-.28-.28h-8.22c-.28,0,0,.28,0,0v-16.44c0-.28-.28,0,0,0h8.22c.16,0,.28-.13.28-.28v-17.01c0-.16-.13-.28-.28-.28h-8.22c-.28,0,0,.28,0,0v-16.44c0-.28-.28,0,0,0h8.22c.16,0,.28-.13.28-.28v-17.01c0-.16-.13-.28-.28-.28h-8.22c-.28,0,0,.28,0,0v-16.44c0-.28-.28,0,0,0h8.22c.16,0,.28-.13.28-.28v-17.01c0-.16-.13-.28-.28-.28h-8.22c-.28,0,0,.28,0,0v-16.44c0-.28-.28,0,0,0h8.22c.16,0,.28-.13.28-.28v-17.01c0-.16-.13-.28-.28-.28h-8.22c-.28,0,0,.28,0,0v-16.44c0-.28-.28,0,0,0h8.22c.16,0,.28-.13.28-.28v-17.01c0-.16-.13-.28-.28-.28h-8.22c-.28,0,0,.28,0,0v-16.44c0-.28-.28,0,0,0h8.22c.16,0,.28-.13.28-.28v-17.01c0-.16-.13-.28-.28-.28h-8.22c-.28,0,0,.28,0,0v-16.44c0-.28-.28,0,0,0h8.22c.16,0,.28-.13.28-.28v-17.01c0-.16-.13-.28-.28-.28h-8.22c-.28,0,0,.28,0,0v-16.44c0-.28-.28,0,0,0h8.22c.16,0,.28-.13.28-.28v-17.01c0-.16-.13-.28-.28-.28h-8.22c-.28,0,0,.28,0,0v-16.44c0-.28-.28,0,0,0h8.22c.16,0,.28-.13.28-.28v-21.26c0-.16-.13-.28-.28-.28h-8.5Z"/>
    <path class="st2" d="M1688.47,479.06v-8.22c0-.28-.28,0,0,0h7.94c.28,0,0-.28,0,0v16.44c0,.28.28,0,0,0h-7.94c-.28,0,0,.28,0,0v-8.22Z"/>
    <path class="st2" d="M1688.47,513.07v-8.22c0-.28-.28,0,0,0h7.94c.28,0,0-.28,0,0v16.44c0,.28.28,0,0,0h-7.94c-.28,0,0,.28,0,0v-8.22Z"/>
    <path class="st2" d="M1688.47,547.09v-8.22c0-.28-.28,0,0,0h7.94c.28,0,0-.28,0,0v16.44c0,.28.28,0,0,0h-7.94c-.28,0,0,.28,0,0v-8.22Z"/>
    <path class="st2" d="M1688.47,581.1v-8.22c0-.28-.28,0,0,0h7.94c.28,0,0-.28,0,0v16.44c0,.28.28,0,0,0h-7.94c-.28,0,0,.28,0,0v-8.22Z"/>
    <path class="st2" d="M1688.47,615.12v-8.22c0-.28-.28,0,0,0h7.94c.28,0,0-.28,0,0v16.44c0,.28.28,0,0,0h-7.94c-.28,0,0,.28,0,0v-8.22Z"/>
    <path class="st2" d="M1688.47,649.13v-8.22c0-.28-.28,0,0,0h7.94c.28,0,0-.28,0,0v16.44c0,.28.28,0,0,0h-7.94c-.28,0,0,.28,0,0v-8.22Z"/>
    <path class="st2" d="M1688.47,683.15v-8.22c0-.28-.28,0,0,0h7.94c.28,0,0-.28,0,0v16.44c0,.28.28,0,0,0h-7.94c-.28,0,0,.28,0,0v-8.22Z"/>
    <path class="st2" d="M1688.47,717.17v-8.22c0-.28-.28,0,0,0h7.94c.28,0,0-.28,0,0v16.44c0,.28.28,0,0,0h-7.94c-.28,0,0,.28,0,0v-8.22Z"/>
    <path class="st2" d="M1688.47,751.18v-8.22c0-.28-.28,0,0,0h7.94c.28,0,0-.28,0,0v16.44c0,.28.28,0,0,0h-7.94c-.28,0,0,.28,0,0v-8.22Z"/>
    <path class="st2" d="M1688.47,785.2v-8.22c0-.28-.28,0,0,0h7.94c.28,0,0-.28,0,0v16.44c0,.28.28,0,0,0h-7.94c-.28,0,0,.28,0,0v-8.22Z"/>
    <path class="st2" d="M1405.83,479.06v-8.22c0-.28-.28,0,0,0h7.94c.28,0,0-.28,0,0v16.44c0,.28.28,0,0,0h-7.94c-.28,0,0,.28,0,0v-8.22Z"/>
    <path class="st2" d="M1405.83,513.07v-8.22c0-.28-.28,0,0,0h7.94c.28,0,0-.28,0,0v16.44c0,.28.28,0,0,0h-7.94c-.28,0,0,.28,0,0v-8.22Z"/>
    <path class="st2" d="M1405.83,547.09v-8.22c0-.28-.28,0,0,0h7.94c.28,0,0-.28,0,0v16.44c0,.28.28,0,0,0h-7.94c-.28,0,0,.28,0,0v-8.22Z"/>
    <path class="st2" d="M1405.83,581.1v-8.22c0-.28-.28,0,0,0h7.94c.28,0,0-.28,0,0v16.44c0,.28.28,0,0,0h-7.94c-.28,0,0,.28,0,0v-8.22Z"/>
    <path class="st2" d="M1405.83,615.12v-8.22c0-.28-.28,0,0,0h7.94c.28,0,0-.28,0,0v16.44c0,.28.28,0,0,0h-7.94c-.28,0,0,.28,0,0v-8.22Z"/>
    <path class="st2" d="M1405.83,649.13v-8.22c0-.28-.28,0,0,0h7.94c.28,0,0-.28,0,0v16.44c0,.28.28,0,0,0h-7.94c-.28,0,0,.28,0,0v-8.22Z"/>
    <path class="st2" d="M1405.83,683.15v-8.22c0-.28-.28,0,0,0h7.94c.28,0,0-.28,0,0v16.44c0,.28.28,0,0,0h-7.94c-.28,0,0,.28,0,0v-8.22Z"/>
    <path class="st2" d="M1405.83,717.17v-8.22c0-.28-.28,0,0,0h7.94c.28,0,0-.28,0,0v16.44c0,.28.28,0,0,0h-7.94c-.28,0,0,.28,0,0v-8.22Z"/>
    <path class="st2" d="M1405.83,751.18v-8.22c0-.28-.28,0,0,0h7.94c.28,0,0-.28,0,0v16.44c0,.28.28,0,0,0h-7.94c-.28,0,0,.28,0,0v-8.22Z"/>
    <path class="st2" d="M1405.83,785.2v-8.22c0-.28-.28,0,0,0h7.94c.28,0,0-.28,0,0v16.44c0,.28.28,0,0,0h-7.94c-.28,0,0,.28,0,0v-8.22Z"/>
  </g>
  <g id="p-6">
    <path class="st0" d="M1322.36,449.01h-21.89c-.28,0,0,.28,0,0v-8.22c0-.16-.13-.28-.28-.28h-17.01c-.16,0-.28.13-.28.28v8.22c0,.28.28,0,0,0h-56.63c-.28,0,0,.28,0,0v-8.22c0-.16-.13-.28-.28-.28h-17.01c-.16,0-.28.13-.28.28v8.22c0,.28.28,0,0,0h-16.44c-.28,0,0,.28,0,0v-8.22c0-.16-.13-.28-.28-.28h-17.01c-.16,0-.28.13-.28.28v8.22c0,.28.28,0,0,0h-16.44c-.28,0,0,.28,0,0v-8.22c0-.16-.13-.28-.28-.28h-17.01c-.16,0-.28.13-.28.28v8.22c0,.28.28,0,0,0h-16.44c-.28,0,0,.28,0,0v-8.22c0-.16-.13-.28-.28-.28h-17.01c-.16,0-.28.13-.28.28v8.22c0,.28.28,0,0,0h-16.44c-.28,0,0,.28,0,0v-8.22c0-.16-.13-.28-.28-.28h-17.01c-.16,0-.28.13-.28.28v8.22c0,.28.28,0,0,0h-16.44c-.28,0,0,.28,0,0v-8.22c0-.16-.13-.28-.28-.28h-17.01c-.16,0-.28.13-.28.28v8.22c0,.28.28,0,0,0h-16.44c-.28,0,0,.28,0,0v-8.22c0-.16-.13-.28-.28-.28h-17.01c-.16,0-.28.13-.28.28v8.22c0,.28.28,0,0,0h-56.63c-.28,0,0,.28,0,0v-8.22c0-.16-.12-.28-.28-.28h-17.01c-.16,0-.28.13-.28.28v8.22c0,.28.28,0,0,0h-21.89c-.16,0-.28.13-.28.28v20.98c0,.28.28,0,0,0h-8.22c-.16,0-.28.13-.28.28v17.01c0,.16.13.28.28.28h8.22c.28,0,0-.28,0,0v16.44c0,.28.28,0,0,0h-8.22c-.16,0-.28.13-.28.28v17.01c0,.16.13.28.28.28h8.22c.28,0,0-.28,0,0v16.44c0,.28.28,0,0,0h-8.22c-.16,0-.28.13-.28.28v17.01c0,.16.13.28.28.28h8.22c.28,0,0-.28,0,0v16.44c0,.28.28,0,0,0h-8.22c-.16,0-.28.13-.28.28v17.01c0,.16.13.28.28.28h8.22c.28,0,0-.28,0,0v16.44c0,.28.28,0,0,0h-8.22c-.16,0-.28.13-.28.28v17.01c0,.16.13.28.28.28h8.22c.28,0,0-.28,0,0v16.44c0,.28.28,0,0,0h-8.22c-.16,0-.28.13-.28.28v17.01c0,.16.13.28.28.28h8.22c.28,0,0-.28,0,0v16.44c0,.28.28,0,0,0h-8.22c-.16,0-.28.13-.28.28v17.01c0,.16.13.28.28.28h8.22c.28,0,0-.28,0,0v16.44c0,.28.28,0,0,0h-8.22c-.16,0-.28.13-.28.28v17.01c0,.16.13.28.28.28h8.22c.28,0,0-.28,0,0v16.44c0,.28.28,0,0,0h-8.22c-.16,0-.28.13-.28.28v17.01c0,.16.13.28.28.28h8.22c.28,0,0-.28,0,0v16.44c0,.28.28,0,0,0h-8.22c-.16,0-.28.13-.28.28v17.01c0,.16.13.28.28.28h8.22c.28,0,0-.28,0,0v20.98c0,.16.13.28.28.28h61.36c.16,0,.28-.13.28-.28v-182.55c0-.28-.28,0,0,0h7.94c.28,0,0-.28,0,0v182.55c0,.16.13.28.28.28h274.14c.16,0,.28-.13.28-.28v-182.55c0-.28-.28,0,0,0h7.94c.28,0,0-.28,0,0v182.55c0,.16.13.28.28.28h61.36c.16,0,.28-.13.28-.28v-20.98c0-.28-.28,0,0,0h8.22c.16,0,.28-.13.28-.28v-17.01c0-.16-.13-.28-.28-.28h-8.22c-.28,0,0,.28,0,0v-16.44c0-.28-.28,0,0,0h8.22c.16,0,.28-.13.28-.28v-17.01c0-.16-.13-.28-.28-.28h-8.22c-.28,0,0,.28,0,0v-16.44c0-.28-.28,0,0,0h8.22c.16,0,.28-.13.28-.28v-17.01c0-.16-.13-.28-.28-.28h-8.22c-.28,0,0,.28,0,0v-16.44c0-.28-.28,0,0,0h8.22c.16,0,.28-.13.28-.28v-17.01c0-.16-.13-.28-.28-.28h-8.22c-.28,0,0,.28,0,0v-16.44c0-.28-.28,0,0,0h8.22c.16,0,.28-.13.28-.28v-17.01c0-.16-.13-.28-.28-.28h-8.22c-.28,0,0,.28,0,0v-16.44c0-.28-.28,0,0,0h8.22c.16,0,.28-.13.28-.28v-17.01c0-.16-.13-.28-.28-.28h-8.22c-.28,0,0,.28,0,0v-16.44c0-.28-.28,0,0,0h8.22c.16,0,.28-.13.28-.28v-17.01c0-.16-.13-.28-.28-.28h-8.22c-.28,0,0,.28,0,0v-16.44c0-.28-.28,0,0,0h8.22c.16,0,.28-.13.28-.28v-17.01c0-.16-.13-.28-.28-.28h-8.22c-.28,0,0,.28,0,0v-16.44c0-.28-.28,0,0,0h8.22c.16,0,.28-.13.28-.28v-17.01c0-.16-.13-.28-.28-.28h-8.22c-.28,0,0,.28,0,0v-16.44c0-.28-.28,0,0,0h8.22c.16,0,.28-.13.28-.28v-17.01c0-.16-.13-.28-.28-.28h-8.22c-.28,0,0,.28,0,0v-20.98c0-.16-.13-.28-.28-.28Z"/>
  </g>
  <g id="p-7">
    <path class="st0" d="M886.68,449.01h-21.89c-.28,0,0,.28,0,0v-8.22c0-.16-.13-.28-.28-.28h-17.01c-.16,0-.28.13-.28.28v8.22c0,.28.28,0,0,0h-56.63c-.28,0,0,.28,0,0v-8.22c0-.16-.13-.28-.28-.28h-17.01c-.16,0-.28.13-.28.28v8.22c0,.28.28,0,0,0h-16.44c-.28,0,0,.28,0,0v-8.22c0-.16-.13-.28-.28-.28h-17.01c-.16,0-.28.13-.28.28v8.22c0,.28.28,0,0,0h-16.44c-.28,0,0,.28,0,0v-8.22c0-.16-.13-.28-.28-.28h-17.01c-.16,0-.28.13-.28.28v8.22c0,.28.28,0,0,0h-16.44c-.28,0,0,.28,0,0v-8.22c0-.16-.13-.28-.28-.28h-17.01c-.16,0-.28.13-.28.28v8.22c0,.28.28,0,0,0h-16.44c-.28,0,0,.28,0,0v-8.22c0-.16-.13-.28-.28-.28h-17.01c-.16,0-.28.13-.28.28v8.22c0,.28.28,0,0,0h-16.44c-.28,0,0,.28,0,0v-8.22c0-.16-.13-.28-.28-.28h-17.01c-.16,0-.28.13-.28.28v8.22c0,.28.28,0,0,0h-16.44c-.28,0,0,.28,0,0v-8.22c0-.16-.13-.28-.28-.28h-17.01c-.16,0-.28.13-.28.28v8.22c0,.28.28,0,0,0h-56.63c-.28,0,0,.28,0,0v-8.22c0-.16-.12-.28-.28-.28h-17.01c-.16,0-.28.13-.28.28v8.22c0,.28.28,0,0,0h-21.89c-.16,0-.28.13-.28.28v20.98c0,.28.28,0,0,0h-8.22c-.16,0-.28.13-.28.28v17.01c0,.16.13.28.28.28h8.22c.28,0,0-.28,0,0v16.44c0,.28.28,0,0,0h-8.22c-.16,0-.28.13-.28.28v17.01c0,.16.13.28.28.28h8.22c.28,0,0-.28,0,0v16.44c0,.28.28,0,0,0h-8.22c-.16,0-.28.13-.28.28v17.01c0,.16.13.28.28.28h8.22c.28,0,0-.28,0,0v16.44c0,.28.28,0,0,0h-8.22c-.16,0-.28.13-.28.28v17.01c0,.16.13.28.28.28h8.22c.28,0,0-.28,0,0v16.44c0,.28.28,0,0,0h-8.22c-.16,0-.28.13-.28.28v17.01c0,.16.13.28.28.28h8.22c.28,0,0-.28,0,0v16.44c0,.28.28,0,0,0h-8.22c-.16,0-.28.13-.28.28v17.01c0,.16.13.28.28.28h8.22c.28,0,0-.28,0,0v16.44c0,.28.28,0,0,0h-8.22c-.16,0-.28.13-.28.28v17.01c0,.16.13.28.28.28h8.22c.28,0,0-.28,0,0v16.44c0,.28.28,0,0,0h-8.22c-.16,0-.28.13-.28.28v17.01c0,.16.13.28.28.28h8.22c.28,0,0-.28,0,0v16.44c0,.28.28,0,0,0h-8.22c-.16,0-.28.13-.28.28v17.01c0,.16.13.28.28.28h8.22c.28,0,0-.28,0,0v16.44c0,.28.28,0,0,0h-8.22c-.16,0-.28.13-.28.28v17.01c0,.16.13.28.28.28h8.22c.28,0,0-.28,0,0v20.98c0,.16.13.28.28.28h61.36c.16,0,.28-.13.28-.28v-182.55c0-.28-.28,0,0,0h7.94c.28,0,0-.28,0,0v182.55c0,.16.13.28.28.28h274.14c.16,0,.28-.13.28-.28v-182.55c0-.28-.28,0,0,0h7.94c.28,0,0-.28,0,0v182.55c0,.16.13.28.28.28h61.36c.16,0,.28-.13.28-.28v-20.98c0-.28-.28,0,0,0h8.22c.16,0,.28-.13.28-.28v-17.01c0-.16-.13-.28-.28-.28h-8.22c-.28,0,0,.28,0,0v-16.44c0-.28-.28,0,0,0h8.22c.16,0,.28-.13.28-.28v-17.01c0-.16-.13-.28-.28-.28h-8.22c-.28,0,0,.28,0,0v-16.44c0-.28-.28,0,0,0h8.22c.16,0,.28-.13.28-.28v-17.01c0-.16-.13-.28-.28-.28h-8.22c-.28,0,0,.28,0,0v-16.44c0-.28-.28,0,0,0h8.22c.16,0,.28-.13.28-.28v-17.01c0-.16-.13-.28-.28-.28h-8.22c-.28,0,0,.28,0,0v-16.44c0-.28-.28,0,0,0h8.22c.16,0,.28-.13.28-.28v-17.01c0-.16-.13-.28-.28-.28h-8.22c-.28,0,0,.28,0,0v-16.44c0-.28-.28,0,0,0h8.22c.16,0,.28-.13.28-.28v-17.01c0-.16-.13-.28-.28-.28h-8.22c-.28,0,0,.28,0,0v-16.44c0-.28-.28,0,0,0h8.22c.16,0,.28-.13.28-.28v-17.01c0-.16-.13-.28-.28-.28h-8.22c-.28,0,0,.28,0,0v-16.44c0-.28-.28,0,0,0h8.22c.16,0,.28-.13.28-.28v-17.01c0-.16-.13-.28-.28-.28h-8.22c-.28,0,0,.28,0,0v-16.44c0-.28-.28,0,0,0h8.22c.16,0,.28-.13.28-.28v-17.01c0-.16-.13-.28-.28-.28h-8.22c-.28,0,0,.28,0,0v-16.44c0-.28-.28,0,0,0h8.22c.16,0,.28-.13.28-.28v-17.01c0-.16-.13-.28-.28-.28h-8.22c-.28,0,0,.28,0,0v-20.98c0-.16-.13-.28-.28-.28Z"/>
  </g>
  <g id="p-8">
    <path class="st0" d="M450.99,449.01h-21.89c-.28,0,0,.28,0,0v-8.22c0-.16-.13-.28-.28-.28h-17.01c-.16,0-.28.13-.28.28v8.22c0,.28.28,0,0,0h-56.63c-.28,0,0,.28,0,0v-8.22c0-.16-.13-.28-.28-.28h-17.01c-.16,0-.28.13-.28.28v8.22c0,.28.28,0,0,0h-16.44c-.28,0,0,.28,0,0v-8.22c0-.16-.13-.28-.28-.28h-17.01c-.16,0-.28.13-.28.28v8.22c0,.28.28,0,0,0h-16.44c-.28,0,0,.28,0,0v-8.22c0-.16-.13-.28-.28-.28h-17.01c-.16,0-.28.13-.28.28v8.22c0,.28.28,0,0,0h-16.44c-.28,0,0,.28,0,0v-8.22c0-.16-.13-.28-.28-.28h-17.01c-.16,0-.28.13-.28.28v8.22c0,.28.28,0,0,0h-16.44c-.28,0,0,.28,0,0v-8.22c0-.16-.13-.28-.28-.28h-17.01c-.16,0-.28.13-.28.28v8.22c0,.28.28,0,0,0h-16.44c-.28,0,0,.28,0,0v-8.22c0-.16-.13-.28-.28-.28h-17.01c-.16,0-.28.13-.28.28v8.22c0,.28.28,0,0,0h-16.44c-.28,0,0,.28,0,0v-8.22c0-.16-.13-.28-.28-.28h-17.01c-.16,0-.28.13-.28.28v8.22c0,.28.28,0,0,0h-56.63c-.28,0,0,.28,0,0v-8.22c0-.16-.12-.28-.28-.28h-17.01c-.16,0-.28.13-.28.28v8.22c0,.28.28,0,0,0h-30.39c-.16,0-.28.13-.28.28v21.26c0,.16.13.28.28.28h8.22c.28,0,0-.28,0,0v16.44c0,.28.28,0,0,0h-8.22c-.16,0-.28.13-.28.28v17.01c0,.16.13.28.28.28h8.22c.28,0,0-.28,0,0v16.44c0,.28.28,0,0,0h-8.22c-.16,0-.28.13-.28.28v17.01c0,.16.13.28.28.28h8.22c.28,0,0-.28,0,0v16.44c0,.28.28,0,0,0h-8.22c-.16,0-.28.13-.28.28v17.01c0,.16.13.28.28.28h8.22c.28,0,0-.28,0,0v16.44c0,.28.28,0,0,0h-8.22c-.16,0-.28.13-.28.28v17.01c0,.16.13.28.28.28h8.22c.28,0,0-.28,0,0v16.44c0,.28.28,0,0,0h-8.22c-.16,0-.28.13-.28.28v17.01c0,.16.13.28.28.28h8.22c.28,0,0-.28,0,0v16.44c0,.28.28,0,0,0h-8.22c-.16,0-.28.13-.28.28v17.01c0,.16.13.28.28.28h8.22c.28,0,0-.28,0,0v16.44c0,.28.28,0,0,0h-8.22c-.16,0-.28.13-.28.28v17.01c0,.16.13.28.28.28h8.22c.28,0,0-.28,0,0v16.44c0,.28.28,0,0,0h-8.22c-.16,0-.28.13-.28.28v17.01c0,.16.13.28.28.28h8.22c.28,0,0-.28,0,0v16.44c0,.28.28,0,0,0h-8.22c-.16,0-.28.13-.28.28v17.01c0,.16.13.28.28.28h8.22c.28,0,0-.28,0,0v16.44c0,.28.28,0,0,0h-8.22c-.16,0-.28.13-.28.28v21.26c0,.16.13.28.28.28h430.87c.16,0,.28-.13.28-.28v-21.26c0-.16-.13-.28-.28-.28h-8.22c-.28,0,0,.28,0,0v-16.44c0-.28-.28,0,0,0h8.22c.16,0,.28-.13.28-.28v-17.01c0-.16-.13-.28-.28-.28h-8.22c-.28,0,0,.28,0,0v-16.44c0-.28-.28,0,0,0h8.22c.16,0,.28-.13.28-.28v-17.01c0-.16-.13-.28-.28-.28h-8.22c-.28,0,0,.28,0,0v-16.44c0-.28-.28,0,0,0h8.22c.16,0,.28-.13.28-.28v-17.01c0-.16-.13-.28-.28-.28h-8.22c-.28,0,0,.28,0,0v-16.44c0-.28-.28,0,0,0h8.22c.16,0,.28-.13.28-.28v-17.01c0-.16-.13-.28-.28-.28h-8.22c-.28,0,0,.28,0,0v-16.44c0-.28-.28,0,0,0h8.22c.16,0,.28-.13.28-.28v-17.01c0-.16-.13-.28-.28-.28h-8.22c-.28,0,0,.28,0,0v-16.44c0-.28-.28,0,0,0h8.22c.16,0,.28-.13.28-.28v-17.01c0-.16-.13-.28-.28-.28h-8.22c-.28,0,0,.28,0,0v-16.44c0-.28-.28,0,0,0h8.22c.16,0,.28-.13.28-.28v-17.01c0-.16-.13-.28-.28-.28h-8.22c-.28,0,0,.28,0,0v-16.44c0-.28-.28,0,0,0h8.22c.16,0,.28-.13.28-.28v-17.01c0-.16-.13-.28-.28-.28h-8.22c-.28,0,0,.28,0,0v-16.44c0-.28-.28,0,0,0h8.22c.16,0,.28-.13.28-.28v-17.01c0-.16-.13-.28-.28-.28h-8.22c-.28,0,0,.28,0,0v-16.44c0-.28-.28,0,0,0h8.22c.16,0,.28-.13.28-.28v-21.26c0-.16-.13-.28-.28-.28h-8.5Z"/>
    <path class="st2" d="M381.42,479.06v-8.22c0-.28-.28,0,0,0h7.94c.28,0,0-.28,0,0v16.44c0,.28.28,0,0,0h-7.94c-.28,0,0,.28,0,0v-8.22Z"/>
    <path class="st2" d="M381.42,513.07v-8.22c0-.28-.28,0,0,0h7.94c.28,0,0-.28,0,0v16.44c0,.28.28,0,0,0h-7.94c-.28,0,0,.28,0,0v-8.22Z"/>
    <path class="st2" d="M381.42,547.09v-8.22c0-.28-.28,0,0,0h7.94c.28,0,0-.28,0,0v16.44c0,.28.28,0,0,0h-7.94c-.28,0,0,.28,0,0v-8.22Z"/>
    <path class="st2" d="M381.42,581.1v-8.22c0-.28-.28,0,0,0h7.94c.28,0,0-.28,0,0v16.44c0,.28.28,0,0,0h-7.94c-.28,0,0,.28,0,0v-8.22Z"/>
    <path class="st2" d="M381.42,615.12v-8.22c0-.28-.28,0,0,0h7.94c.28,0,0-.28,0,0v16.44c0,.28.28,0,0,0h-7.94c-.28,0,0,.28,0,0v-8.22Z"/>
    <path class="st2" d="M381.42,649.13v-8.22c0-.28-.28,0,0,0h7.94c.28,0,0-.28,0,0v16.44c0,.28.28,0,0,0h-7.94c-.28,0,0,.28,0,0v-8.22Z"/>
    <path class="st2" d="M381.42,683.15v-8.22c0-.28-.28,0,0,0h7.94c.28,0,0-.28,0,0v16.44c0,.28.28,0,0,0h-7.94c-.28,0,0,.28,0,0v-8.22Z"/>
    <path class="st2" d="M381.42,717.17v-8.22c0-.28-.28,0,0,0h7.94c.28,0,0-.28,0,0v16.44c0,.28.28,0,0,0h-7.94c-.28,0,0,.28,0,0v-8.22Z"/>
    <path class="st2" d="M381.42,751.18v-8.22c0-.28-.28,0,0,0h7.94c.28,0,0-.28,0,0v16.44c0,.28.28,0,0,0h-7.94c-.28,0,0,.28,0,0v-8.22Z"/>
    <path class="st2" d="M381.42,785.2v-8.22c0-.28-.28,0,0,0h7.94c.28,0,0-.28,0,0v16.44c0,.28.28,0,0,0h-7.94c-.28,0,0,.28,0,0v-8.22Z"/>
    <path class="st2" d="M98.77,479.06v-8.22c0-.28-.28,0,0,0h7.94c.28,0,0-.28,0,0v16.44c0,.28.28,0,0,0h-7.94c-.28,0,0,.28,0,0v-8.22Z"/>
    <path class="st2" d="M98.77,513.07v-8.22c0-.28-.28,0,0,0h7.94c.28,0,0-.28,0,0v16.44c0,.28.28,0,0,0h-7.94c-.28,0,0,.28,0,0v-8.22Z"/>
    <path class="st2" d="M98.77,547.09v-8.22c0-.28-.28,0,0,0h7.94c.28,0,0-.28,0,0v16.44c0,.28.28,0,0,0h-7.94c-.28,0,0,.28,0,0v-8.22Z"/>
    <path class="st2" d="M98.77,581.1v-8.22c0-.28-.28,0,0,0h7.94c.28,0,0-.28,0,0v16.44c0,.28.28,0,0,0h-7.94c-.28,0,0,.28,0,0v-8.22Z"/>
    <path class="st2" d="M98.77,615.12v-8.22c0-.28-.28,0,0,0h7.94c.28,0,0-.28,0,0v16.44c0,.28.28,0,0,0h-7.94c-.28,0,0,.28,0,0v-8.22Z"/>
    <path class="st2" d="M98.77,649.13v-8.22c0-.28-.28,0,0,0h7.94c.28,0,0-.28,0,0v16.44c0,.28.28,0,0,0h-7.94c-.28,0,0,.28,0,0v-8.22Z"/>
    <path class="st2" d="M98.77,683.15v-8.22c0-.28-.28,0,0,0h7.94c.28,0,0-.28,0,0v16.44c0,.28.28,0,0,0h-7.94c-.28,0,0,.28,0,0v-8.22Z"/>
    <path class="st2" d="M98.77,717.17v-8.22c0-.28-.28,0,0,0h7.94c.28,0,0-.28,0,0v16.44c0,.28.28,0,0,0h-7.94c-.28,0,0,.28,0,0v-8.22Z"/>
    <path class="st2" d="M98.77,751.18v-8.22c0-.28-.28,0,0,0h7.94c.28,0,0-.28,0,0v16.44c0,.28.28,0,0,0h-7.94c-.28,0,0,.28,0,0v-8.22Z"/>
    <path class="st2" d="M98.77,785.2v-8.22c0-.28-.28,0,0,0h7.94c.28,0,0-.28,0,0v16.44c0,.28.28,0,0,0h-7.94c-.28,0,0,.28,0,0v-8.22Z"/>
  </g>
  <path class="st2" d="M1732.71,889.64h8.22c.28,0,0-.28,0,0v7.94c0,.28.28,0,0,0h-16.44c-.28,0,0,.28,0,0v-7.94c0-.28-.28,0,0,0h8.22Z"/>
  <path class="st2" d="M1392.2,889.64h8.22c.28,0,0-.28,0,0v7.94c0,.28.28,0,0,0h-16.44c-.28,0,0,.28,0,0v-7.94c0-.28-.28,0,0,0h8.22Z"/>
  <path class="st2" d="M1732.71,1172.28h8.22c.28,0,0-.28,0,0v7.94c0,.28.28,0,0,0h-16.44c-.28,0,0,.28,0,0v-7.94c0-.28-.28,0,0,0h8.22Z"/>
  <path class="st2" d="M1392.2,1172.28h8.22c.29,0,0-.28,0,0v7.94c0,.28.29,0,0,0h-16.44c-.28,0,0,.28,0,0v-7.94c0-.28-.28,0,0,0h8.22Z"/>
  <path class="st2" d="M1699.16,858.68v-8.22c0-.28-.28,0,0,0h7.94c.28,0,0-.28,0,0v16.44c0,.28.28,0,0,0h-7.94c-.28,0,0,.28,0,0v-8.22Z"/>
  <path class="st2" d="M1699.16,1211.18v-8.22c0-.28-.28,0,0,0h7.94c.28,0,0-.28,0,0v16.44c0,.28.28,0,0,0h-7.94c-.28,0,0,.28,0,0v-8.22Z"/>
  <path class="st2" d="M1417.82,858.68v-8.22c0-.28-.28,0,0,0h7.94c.28,0,0-.28,0,0v16.44c0,.28.28,0,0,0h-7.94c-.28,0,0,.28,0,0v-8.22Z"/>
  <path class="st2" d="M1417.82,1211.18v-8.22c0-.28-.28,0,0,0h7.94c.28,0,0-.28,0,0v16.44c0,.28.28,0,0,0h-7.94c-.28,0,0,.28,0,0v-8.22Z"/>
  <path class="st0" d="M1766.55,1250.65h-25.34c-.16,0-.28-.13-.28-.28v-8.22c0-.28.28,0,0,0h-16.44c-.28,0,0-.28,0,0v8.22c0,.16-.12.28-.28.28h-51.2c-.16,0-.28-.13-.28-.28v-8.22c0-.28.28,0,0,0h-16.44c-.28,0,0-.28,0,0v8.22c0,.16-.13.28-.28.28h-17.01c-.16,0-.28-.13-.28-.28v-8.22c0-.28.28,0,0,0h-16.44c-.28,0,0-.28,0,0v8.22c0,.16-.13.28-.28.28h-17.01c-.16,0-.28-.13-.28-.28v-8.22c0-.28.28,0,0,0h-16.44c-.28,0,0-.28,0,0v8.22c0,.16-.13.28-.28.28h-17.01c-.16,0-.28-.13-.28-.28v-8.22c0-.28.28,0,0,0h-16.44c-.28,0,0-.28,0,0v8.22c0,.16-.13.28-.28.28h-17.01c-.16,0-.28-.13-.28-.28v-8.22c0-.28.28,0,0,0h-16.44c-.28,0,0-.28,0,0v8.22c0,.16-.13.28-.28.28h-17.01c-.16,0-.28-.13-.28-.28v-8.22c0-.28.28,0,0,0h-16.44c-.28,0,0-.28,0,0v8.22c0,.16-.13.28-.28.28h-17.01c-.16,0-.28-.13-.28-.28v-8.22c0-.28.28,0,0,0h-16.44c-.28,0,0-.28,0,0v8.22c0,.16-.13.28-.28.28h-51.2c-.16,0-.28-.13-.28-.28v-8.22c0-.28.28,0,0,0h-16.44c-.28,0,0-.28,0,0v8.22c0,.16-.13.28-.28.28h-25.34l-.28-.28v-30.68c0-.16.13-.28.28-.28h8.22c.28,0,0,.28,0,0v-16.44c0-.28.28,0,0,0h-8.22c-.16,0-.28-.13-.28-.28v-57.2c0-.16.13-.28.28-.28h8.22c.28,0,0,.28,0,0v-16.44c0-.28.28,0,0,0h-8.22c-.16,0-.28-.13-.28-.28v-17.01c0-.16.13-.28.28-.28h8.22c.28,0,0,.28,0,0v-16.44c0-.28.28,0,0,0h-8.22c-.16,0-.28-.13-.28-.28v-17.01c0-.16.13-.28.28-.28h8.22c.28,0,0,.28,0,0v-16.44c0-.28.28,0,0,0h-8.22c-.16,0-.28-.13-.28-.28v-17.01c0-.16.13-.28.28-.28h8.22c.28,0,0,.28,0,0v-16.44c0-.28.28,0,0,0h-8.22c-.16,0-.28-.13-.28-.28v-17.01c0-.16.13-.28.28-.28h8.22c.28,0,0,.28,0,0v-16.44c0-.28.28,0,0,0h-8.22c-.16,0-.28-.13-.28-.28v-17.01c0-.16.13-.28.28-.28h8.22c.28,0,0,.28,0,0v-16.44c0-.28.28,0,0,0h-8.22c-.16,0-.28-.13-.28-.28v-17.01c0-.16.13-.28.28-.28h8.22c.28,0,0,.28,0,0v-16.44c0-.28.28,0,0,0h-8.22c-.16,0-.28-.13-.28-.28v-57.2c0-.16.13-.28.28-.28h8.22c.28,0,0,.28,0,0v-16.44c0-.28.28,0,0,0h-8.22c-.16,0-.28-.12-.28-.28v-30.68l.28-.28h25.34c.16,0,.28.13.28.28v8.22c0,.28-.28,0,0,0h16.44c.29,0,0,.28,0,0v-8.22c0-.16.12-.28.28-.28h51.2c.16,0,.28.13.28.28v8.22c0,.28-.28,0,0,0h16.44c.28,0,0,.28,0,0v-8.22c0-.16.13-.28.28-.28h17.01c.16,0,.28.13.28.28v8.22c0,.28-.28,0,0,0h16.44c.28,0,0,.28,0,0v-8.22c0-.16.13-.28.28-.28h17.01c.16,0,.28.13.28.28v8.22c0,.28-.28,0,0,0h16.44c.28,0,0,.28,0,0v-8.22c0-.16.13-.28.28-.28h17.01c.16,0,.28.13.28.28v8.22c0,.28-.28,0,0,0h16.44c.28,0,0,.28,0,0v-8.22c0-.16.13-.28.28-.28h17.01c.16,0,.28.13.28.28v8.22c0,.28-.28,0,0,0h16.44c.28,0,0,.28,0,0v-8.22c0-.16.13-.28.28-.28h17.01c.16,0,.28.13.28.28v8.22c0,.28-.28,0,0,0h16.44c.28,0,0,.28,0,0v-8.22c0-.16.13-.28.28-.28h17.01c.16,0,.28.13.28.28v8.22c0,.28-.28,0,0,0h16.44c.28,0,0,.28,0,0v-8.22c0-.16.13-.28.28-.28h51.2c.16,0,.28.13.28.28v8.22c0,.28-.28,0,0,0h16.44c.28,0,0,.28,0,0v-8.22c0-.16.13-.28.28-.28h25.34l.28.28v30.68c0,.16-.13.28-.28.28h-8.22c-.28,0,0-.28,0,0v16.44c0,.28-.28,0,0,0h8.22c.16,0,.28.13.28.28v57.2c0,.16-.13.28-.28.28h-8.22c-.28,0,0-.28,0,0v16.44c0,.28-.28,0,0,0h8.22c.16,0,.28.13.28.28v17.01c0,.16-.13.28-.28.28h-8.22c-.28,0,0-.28,0,0v16.44c0,.28-.28,0,0,0h8.22c.16,0,.28.13.28.28v17.01c0,.16-.13.28-.28.28h-8.22c-.28,0,0-.28,0,0v16.44c0,.28-.28,0,0,0h8.22c.16,0,.28.13.28.28v17.01c0,.16-.13.28-.28.28h-8.22c-.28,0,0-.28,0,0v16.44c0,.28-.28,0,0,0h8.22c.16,0,.28.13.28.28v17.01c0,.16-.13.28-.28.28h-8.22c-.28,0,0-.28,0,0v16.44c0,.28-.28,0,0,0h8.22c.16,0,.28.13.28.28v17.01c0,.16-.13.28-.28.28h-8.22c-.28,0,0-.28,0,0v16.44c0,.28-.28,0,0,0h8.22c.16,0,.28.13.28.28v17.01c0,.16-.13.28-.28.28h-8.22c-.28,0,0-.28,0,0v16.44c0,.28-.28,0,0,0h8.22c.16,0,.28.13.28.28v57.2c0,.16-.13.28-.28.28h-8.22c-.28,0,0-.28,0,0v16.44c0,.28-.28,0,0,0h8.22c.16,0,.28.12.28.28v30.68"/>
  <ellipse class="st1" cx="1551.12" cy="627.87" rx="111.79" ry="157.32"/>
  <ellipse class="st1" cx="1562.46" cy="248.88" rx="111.79" ry="157.32"/>
  <ellipse class="st1" cx="244.06" cy="627.87" rx="111.79" ry="157.32"/>
  <ellipse class="st1" cx="323.43" cy="248.88" rx="111.79" ry="157.32"/>
  <rect class="st1" x="989.82" y="461.61" width="251.23" height="222.28" rx="16.97" ry="16.97" transform="translate(2230.87 1145.51) rotate(180)"/>
  <rect class="st1" x="554.13" y="461.61" width="251.23" height="222.28" rx="16.97" ry="16.97" transform="translate(1359.5 1145.51) rotate(180)"/>
  <g>
    <path class="st1" d="M1672.72,889.64c.28,0,0-.28,0,0h0Z"/>
    <path class="st1" d="M1656.28,889.64c0-.28-.28,0,0,0h0Z"/>
    <path class="st1" d="M1622.27,889.64c0-.28-.28,0,0,0h0Z"/>
    <path class="st1" d="M1638.71,889.64c.28,0,0-.28,0,0h0Z"/>
    <path class="st1" d="M1604.69,889.64c.28,0,0-.28,0,0h0Z"/>
    <path class="st1" d="M1588.25,889.64c0-.28-.28,0,0,0h0Z"/>
    <path class="st1" d="M1570.68,889.64c.28,0,0-.28,0,0h0Z"/>
    <path class="st1" d="M1554.24,889.64c0-.28-.28,0,0,0h0Z"/>
    <path class="st1" d="M1520.22,889.64c0-.28-.28,0,0,0h0Z"/>
    <path class="st1" d="M1536.66,889.64c.28,0,0-.28,0,0h0Z"/>
    <path class="st1" d="M1502.65,889.64c.28,0,0-.28,0,0h0Z"/>
    <path class="st1" d="M1486.2,889.64c0-.28-.28,0,0,0h0Z"/>
    <path class="st1" d="M1468.63,889.64c.28,0,0-.28,0,0h0Z"/>
    <path class="st1" d="M1452.19,889.64c0-.28-.28,0,0,0h0Z"/>
    <path class="st1" d="M1656.28,1180.22c-.28,0,0,.28,0,0h0Z"/>
    <path class="st1" d="M1672.72,1180.22c0,.28.28,0,0,0h0Z"/>
    <path class="st1" d="M1638.71,1180.22c0,.28.28,0,0,0h0Z"/>
    <path class="st1" d="M1622.27,1180.22c-.28,0,0,.28,0,0h0Z"/>
    <path class="st1" d="M1604.69,1180.22c0,.28.28,0,0,0h0Z"/>
    <path class="st1" d="M1588.25,1180.22c-.28,0,0,.28,0,0h0Z"/>
    <path class="st1" d="M1570.68,1180.22c0,.28.28,0,0,0h0Z"/>
    <path class="st1" d="M1554.24,1180.22c-.28,0,0,.28,0,0h0Z"/>
    <path class="st1" d="M1520.22,1180.22c-.28,0,0,.28,0,0h0Z"/>
    <path class="st1" d="M1536.66,1180.22c0,.28.28,0,0,0h0Z"/>
    <path class="st1" d="M1502.65,1180.22c0,.28.28,0,0,0h0Z"/>
    <path class="st1" d="M1486.2,1180.22c-.28,0,0,.28,0,0h0Z"/>
    <path class="st1" d="M1468.63,1180.22c0,.28.28,0,0,0h0Z"/>
    <path class="st1" d="M1452.19,1180.22c-.28,0,0,.28,0,0h0Z"/>
    <path class="st1" d="M1707.09,924.66c.28,0,0-.28,0,0h0Z"/>
    <path class="st1" d="M1707.09,941.1c0,.28.28,0,0,0h0Z"/>
    <polygon class="st1" points="1707.09 941.1 1707.09 924.66 1699.16 924.66 1699.16 897.58 1672.72 897.58 1672.72 889.64 1664.5 889.64 1656.28 889.64 1656.28 897.58 1638.71 897.58 1638.71 889.64 1630.49 889.64 1622.27 889.64 1622.27 897.58 1604.69 897.58 1604.69 889.64 1596.47 889.64 1588.25 889.64 1588.25 897.58 1570.68 897.58 1570.68 889.64 1562.46 889.64 1554.24 889.64 1554.24 897.58 1536.66 897.58 1536.66 889.64 1528.44 889.64 1520.22 889.64 1520.22 897.58 1502.65 897.58 1502.65 889.64 1494.43 889.64 1486.2 889.64 1486.2 897.58 1468.63 897.58 1468.63 889.64 1460.41 889.64 1452.19 889.64 1452.19 897.58 1425.76 897.58 1425.76 924.66 1417.82 924.66 1417.82 932.88 1417.82 941.1 1425.76 941.1 1425.76 958.68 1417.82 958.68 1417.82 966.9 1417.82 975.12 1425.76 975.12 1425.76 992.69 1417.82 992.69 1417.82 1000.91 1417.82 1009.13 1425.76 1009.13 1425.76 1026.71 1417.82 1026.71 1417.82 1034.93 1417.82 1043.15 1425.76 1043.15 1425.76 1060.72 1417.82 1060.72 1417.82 1068.94 1417.82 1077.17 1425.76 1077.17 1425.76 1094.74 1417.82 1094.74 1417.82 1102.96 1417.82 1111.18 1425.76 1111.18 1425.76 1128.76 1417.82 1128.76 1417.82 1136.98 1417.82 1145.2 1425.76 1145.2 1425.76 1172.28 1452.19 1172.28 1452.19 1180.22 1468.63 1180.22 1468.63 1172.28 1486.2 1172.28 1486.2 1180.22 1502.65 1180.22 1502.65 1172.28 1520.22 1172.28 1520.22 1180.22 1536.66 1180.22 1536.66 1172.28 1554.24 1172.28 1554.24 1180.22 1570.68 1180.22 1570.68 1172.28 1588.25 1172.28 1588.25 1180.22 1604.69 1180.22 1604.69 1172.28 1622.27 1172.28 1622.27 1180.22 1638.71 1180.22 1638.71 1172.28 1656.28 1172.28 1656.28 1180.22 1672.72 1180.22 1672.72 1172.28 1699.16 1172.28 1699.16 1145.2 1707.09 1145.2 1707.09 1128.76 1699.16 1128.76 1699.16 1111.18 1707.09 1111.18 1707.09 1094.74 1699.16 1094.74 1699.16 1077.17 1707.09 1077.17 1707.09 1060.72 1699.16 1060.72 1699.16 1043.15 1707.09 1043.15 1707.09 1026.71 1699.16 1026.71 1699.16 1009.13 1707.09 1009.13 1707.09 992.69 1699.16 992.69 1699.16 975.12 1707.09 975.12 1707.09 958.68 1699.16 958.68 1699.16 941.1 1707.09 941.1"/>
    <path class="st1" d="M1707.09,958.68c.28,0,0-.28,0,0h0Z"/>
    <path class="st1" d="M1707.09,975.12c0,.28.28,0,0,0h0Z"/>
    <path class="st1" d="M1707.09,1009.13c0,.28.28,0,0,0h0Z"/>
    <path class="st1" d="M1707.09,992.69c.28,0,0-.28,0,0h0Z"/>
    <path class="st1" d="M1707.09,1043.15c0,.28.28,0,0,0h0Z"/>
    <path class="st1" d="M1707.09,1026.71c.28,0,0-.28,0,0h0Z"/>
    <path class="st1" d="M1707.09,1060.72c.28,0,0-.28,0,0h0Z"/>
    <path class="st1" d="M1707.09,1077.17c0,.28.28,0,0,0h0Z"/>
    <path class="st1" d="M1707.09,1094.74c.28,0,0-.28,0,0h0Z"/>
    <path class="st1" d="M1707.09,1111.18c0,.28.28,0,0,0h0Z"/>
    <path class="st1" d="M1707.09,1145.2c0,.28.28,0,0,0h0Z"/>
    <path class="st1" d="M1707.09,1128.76c.28,0,0-.28,0,0h0Z"/>
    <path class="st1" d="M1417.82,924.66c0-.28-.28,0,0,0h0Z"/>
    <path class="st1" d="M1417.82,941.1c-.28,0,0,.28,0,0h0Z"/>
    <path class="st1" d="M1417.82,975.12c-.28,0,0,.28,0,0h0Z"/>
    <path class="st1" d="M1417.82,958.68c0-.28-.28,0,0,0h0Z"/>
    <path class="st1" d="M1417.82,1009.13c-.28,0,0,.28,0,0h0Z"/>
    <path class="st1" d="M1417.82,992.69c0-.28-.28,0,0,0h0Z"/>
    <path class="st1" d="M1417.82,1043.15c-.28,0,0,.28,0,0h0Z"/>
    <path class="st1" d="M1417.82,1026.71c0-.28-.28,0,0,0h0Z"/>
    <path class="st1" d="M1417.82,1060.72c0-.28-.28,0,0,0h0Z"/>
    <path class="st1" d="M1417.82,1077.17c-.28,0,0,.28,0,0h0Z"/>
    <path class="st1" d="M1417.82,1111.18c-.28,0,0,.28,0,0h0Z"/>
    <path class="st1" d="M1417.82,1094.74c0-.28-.28,0,0,0h0Z"/>
    <path class="st1" d="M1417.82,1128.76c0-.28-.28,0,0,0h0Z"/>
    <path class="st1" d="M1417.82,1145.2c-.28,0,0,.28,0,0h0Z"/>
  </g>
  <polygon class="st0" points="1241.05 889.29 1209.87 889.29 1209.87 858.11 881.05 858.11 881.05 889.29 849.87 889.29 849.87 1218.11 881.05 1218.11 881.05 1249.29 1209.87 1249.29 1209.87 1218.11 1241.05 1218.11 1241.05 889.29"/>
  <rect class="st0" x="840.52" y="837.32" width="409.88" height="432.77"/>
  <rect class="st0" x="395.05" y="827.93" width="409.88" height="432.77"/>
  <rect class="st0" x="463.29" y="906.96" width="273.4" height="274.71"/>
</svg>