<?xml version="1.0" encoding="UTF-8"?>
<svg id="Layer_1" xmlns="http://www.w3.org/2000/svg" version="1.1" xmlns:cc="http://creativecommons.org/ns#" xmlns:dc="http://purl.org/dc/elements/1.1/" xmlns:inkscape="http://www.inkscape.org/namespaces/inkscape" xmlns:rdf="http://www.w3.org/1999/02/22-rdf-syntax-ns#" xmlns:svg="http://www.w3.org/2000/svg" viewBox="0 0 701.89 1178.48">
  <!-- Generator: Adobe Illustrator 29.4.0, SVG Export Plug-In . SVG Version: 2.1.0 Build 152)  -->
  <defs>
    <style>
      .st0 {
        stroke: #000;
      }

      .st0, .st1 {
        fill: none;
        stroke-linecap: round;
        stroke-linejoin: round;
        stroke-width: .14px;
      }

      .st1 {
        stroke: blue;
      }

      .st2 {
        fill: red;
        font-family: ArialMT, Arial;
        font-size: 17.01px;
        isolation: isolate;
      }
    </style>
  </defs>
  <path class="st0" d="M28.4,1150.13h283.46v-28.35H28.4v28.35Z"/>
  <text class="st2" transform="translate(79.86 1142.05)"><tspan x="0" y="0">100.0mm, burn:0.02mm</tspan></text>
  <path class="st0" d="M51.55,368.62h614.65s.06-.03.06-.06v-16.95c0-.06-.06,0,0,0h8.45s.06-.03.06-.06v-17.01s-.03-.06-.06-.06h-8.45c-.06,0,0,.06,0,0v-16.89c0-.06-.06,0,0,0h8.45s.06-.03.06-.06v-17.01s-.03-.06-.06-.06h-8.45c-.06,0,0,.06,0,0v-16.89c0-.06-.06,0,0,0h8.45s.06-.03.06-.06V36.91s-.03-.06-.06-.06h-28.29c-.06,0,0,.06,0,0v-8.45s-.03-.06-.06-.06h-17.01s-.06.03-.06.06v8.45c0,.06.06,0,0,0h-16.89c-.06,0,0,.06,0,0v-8.45s-.03-.06-.06-.06h-17.01s-.06.03-.06.06v8.45c0,.06.06,0,0,0h-28.29s-.06.03-.06.06v76.48c0,.06.06,0,0,0h-22.56c-.06,0,0,.06,0,0v-8.45s-.03-.06-.06-.06h-17.01s-.06.03-.06.06v8.45c0,.06.06,0,0,0h-16.89c-.06,0,0,.06,0,0v-8.45s-.03-.06-.06-.06h-17.01s-.06.03-.06.06v8.45c0,.06.06,0,0,0h-16.89c-.06,0,0,.06,0,0v-8.45s-.03-.06-.06-.06h-17.01s-.06.03-.06.06v8.45c0,.06.06,0,0,0h-16.89c-.06,0,0,.06,0,0v-8.45s-.03-.06-.06-.06h-17.01s-.06.03-.06.06v8.45c0,.06.06,0,0,0h-16.89c-.06,0,0,.06,0,0v-8.45s-.03-.06-.06-.06h-17.01s-.06.03-.06.06v8.45c0,.06.06,0,0,0h-16.89c-.06,0,0,.06,0,0v-8.45s-.03-.06-.06-.06h-17.01s-.06.03-.06.06v8.45c0,.06.06,0,0,0h-16.89c-.06,0,0,.06,0,0v-8.45s-.03-.06-.06-.06h-17.01s-.06.03-.06.06v8.45c0,.06.06,0,0,0h-16.89c-.06,0,0,.06,0,0v-8.45s-.03-.06-.06-.06h-17.01s-.06.03-.06.06v8.45c0,.06.06,0,0,0h-16.89c-.06,0,0,.06,0,0v-8.45s-.03-.06-.06-.06h-17.01s-.06.03-.06.06v8.45c0,.06.06,0,0,0h-16.89c-.06,0,0,.06,0,0v-8.45s-.03-.06-.06-.06h-17.01s-.06.03-.06.06v8.45c0,.06.06,0,0,0h-22.56c-.06,0,0,.06,0,0V36.91s-.03-.06-.06-.06h-25.46c-.06,0,0,.06,0,0v-8.45s-.03-.06-.06-.06h-17.01s-.06.03-.06.06v8.45c0,.06.06,0,0,0h-16.89c-.06,0,0,.06,0,0v-8.45s-.03-.06-.06-.06h-17.01s-.06.03-.06.06v8.45c0,.06.06,0,0,0h-16.89c-.06,0,0,.06,0,0v-8.45s-.03-.06-.06-.06h-17.01s-.06.03-.06.06v8.45c0,.06.06,0,0,0h-16.89c-.06,0,0,.06,0,0v-8.45s-.03-.06-.06-.06h-17.01s-.06.03-.06.06v8.45c0,.06.06,0,0,0h-25.46s-.06.03-.06.06v308.5c0,12.76,10.44,23.21,23.21,23.21Z"/>
  <path class="st0" d="M262.48,254.74l-159.9,49.98c-3.53,1.1-6.86-2.82-6.86-8.09v-99.96c0-5.27,3.33-9.19,6.86-8.09l159.9,49.98c7.93,2.48,7.93,13.7,0,16.18Z"/>
  <path class="st0" d="M352.74,266.77l147.92,46.24c6.65,2.08,5.61,16.36-1.19,16.36H203.63c-6.8,0-7.84-14.29-1.19-16.36l147.92-46.24c.77-.24,1.6-.24,2.37,0Z"/>
  <path class="st0" d="M440.63,238.56l159.9-49.98c3.53-1.1,6.86,2.82,6.86,8.09v99.96c0,5.27-3.33,9.19-6.86,8.09l-159.9-49.98c-7.93-2.48-7.93-13.7,0-16.18Z"/>
  <path class="st0" d="M500.66,180.29l-147.92,46.24c-.77.24-1.6.24-2.37,0l-147.92-46.24c-6.65-2.08-5.61-16.36,1.19-16.36h295.84c6.8,0,7.84,14.29,1.19,16.36Z"/>
  <path class="st1" d="M230.03,1083.4v8.45c0,.06.06,0,0,0h-8.39c-.06,0,0,.06,0,0v-16.89c0-.06-.06,0,0,0h8.39c.06,0,0-.06,0,0v8.45Z"/>
  <path class="st1" d="M230.03,1049.39v8.45c0,.06.06,0,0,0h-8.39c-.06,0,0,.06,0,0v-16.89c0-.06-.06,0,0,0h8.39c.06,0,0-.06,0,0v8.45Z"/>
  <path class="st1" d="M230.03,1015.37v8.45c0,.06.06,0,0,0h-8.39c-.06,0,0,.06,0,0v-16.89c0-.06-.06,0,0,0h8.39c.06,0,0-.06,0,0v8.45Z"/>
  <path class="st1" d="M230.03,981.35v8.45c0,.06.06,0,0,0h-8.39c-.06,0,0,.06,0,0v-16.89c0-.06-.06,0,0,0h8.39c.06,0,0-.06,0,0v8.45Z"/>
  <path class="st0" d="M45.41,1117.47h232.36s.06-.03.06-.06v-170.08s-.03-.06-.06-.06H28.4s-.06.03-.06.06v170.08s.03.06.06.06h17.01Z"/>
  <path class="st1" d="M36.96,981.35v-8.45c0-.06-.06,0,0,0h8.39c.06,0,0-.06,0,0v16.89c0,.06.06,0,0,0h-8.39c-.06,0,0,.06,0,0v-8.45Z"/>
  <path class="st1" d="M36.96,1015.37v-8.45c0-.06-.06,0,0,0h8.39c.06,0,0-.06,0,0v16.89c0,.06.06,0,0,0h-8.39c-.06,0,0,.06,0,0v-8.45Z"/>
  <path class="st1" d="M36.96,1049.39v-8.45c0-.06-.06,0,0,0h8.39c.06,0,0-.06,0,0v16.89c0,.06.06,0,0,0h-8.39c-.06,0,0,.06,0,0v-8.45Z"/>
  <path class="st1" d="M36.96,1083.4v-8.45c0-.06-.06,0,0,0h8.39c.06,0,0-.06,0,0v16.89c0,.06.06,0,0,0h-8.39c-.06,0,0,.06,0,0v-8.45Z"/>
  <path class="st0" d="M269.27,574.41H28.4s-.05.03-.05.06v368.5s.02.06.05.06h215.74v-321.79c0-10.58,8.58-19.15,19.15-19.15h6.03v-27.62s-.02-.06-.05-.06ZM45.35,597.2v16.9h-8.39v-16.9h8.39ZM45.35,648.11h-8.39v-16.89h8.39v16.89ZM45.35,682.13h-8.39v-16.9h8.39v16.9ZM45.35,716.14h-8.39v-16.89h8.39v16.89ZM45.35,750.16h-8.39v-16.89h8.39v16.89ZM45.35,784.18h-8.39v-16.9h8.39v16.9ZM45.35,818.19h-8.39v-16.89h8.39v16.89ZM45.35,852.21h-8.39v-16.9h8.39v16.9ZM45.35,886.22h-8.39v-16.89h8.39v16.89ZM36.96,920.24v-16.9h8.39v16.9h-8.39Z"/>
  <path class="st1" d="M230.03,533.25v8.45c0,.06.06,0,0,0h-8.39c-.06,0,0,.06,0,0v-16.89c0-.06-.06,0,0,0h8.39c.06,0,0-.06,0,0v8.45Z"/>
  <path class="st1" d="M230.03,499.24v8.45c0,.06.06,0,0,0h-8.39c-.06,0,0,.06,0,0v-16.89c0-.06-.06,0,0,0h8.39c.06,0,0-.06,0,0v8.45Z"/>
  <path class="st0" d="M45.41,570.16h223.82s.06-.03.06-.06v-107.72s-.03-.06-.06-.06H28.4s-.06.03-.06.06v107.72s.03.06.06.06h17.01Z"/>
  <path class="st1" d="M36.96,499.24v-8.45c0-.06-.06,0,0,0h8.39c.06,0,0-.06,0,0v16.89c0,.06.06,0,0,0h-8.39c-.06,0,0,.06,0,0v-8.45Z"/>
  <path class="st1" d="M36.96,533.25v-8.45c0-.06-.06,0,0,0h8.39c.06,0,0-.06,0,0v16.89c0,.06.06,0,0,0h-8.39c-.06,0,0,.06,0,0v-8.45Z"/>
  <path class="st1" d="M230.03,432.51v8.45c0,.06.06,0,0,0h-8.39c-.06,0,0,.06,0,0v-16.89c0-.06-.06,0,0,0h8.39c.06,0,0-.06,0,0v8.45Z"/>
  <path class="st1" d="M230.03,398.49v8.45c0,.06.06,0,0,0h-8.39c-.06,0,0,.06,0,0v-16.89c0-.06-.06,0,0,0h8.39c.06,0,0-.06,0,0v8.45Z"/>
  <path class="st0" d="M269.26,458.08s.06-.03.06-.06v-85.04s-.03-.06-.06-.06"/>
  <path class="st0" d="M45.41,372.93h-17.01s-.06.03-.06.06v85.04s.03.06.06.06h17.01"/>
  <path class="st1" d="M36.96,398.49v-8.45c0-.06-.06,0,0,0h8.39c.06,0,0-.06,0,0v16.89c0,.06.06,0,0,0h-8.39c-.06,0,0,.06,0,0v-8.45Z"/>
  <path class="st1" d="M36.96,432.51v-8.45c0-.06-.06,0,0,0h8.39c.06,0,0-.06,0,0v16.89c0,.06.06,0,0,0h-8.39c-.06,0,0,.06,0,0v-8.45Z"/>
  <path class="st0" d="M320.94,399.25v614.65s.03.06.06.06h16.95c.06,0,0-.06,0,0v8.45s.03.06.06.06h17.01s.06-.03.06-.06v-8.45c0-.06-.06,0,0,0h16.89c.06,0,0-.06,0,0v8.45s.03.06.06.06h17.01s.06-.03.06-.06v-8.45c0-.06-.06,0,0,0h16.89c.06,0,0-.06,0,0v8.45s.03.06.06.06h246.61s.06-.03.06-.06v-28.29c0-.06-.06,0,0,0h8.45s.06-.03.06-.06v-17.01s-.03-.06-.06-.06h-8.45c-.06,0,0,.06,0,0v-16.89c0-.06-.06,0,0,0h8.45s.06-.03.06-.06v-17.01s-.03-.06-.06-.06h-8.45c-.06,0,0,.06,0,0v-28.29s-.03-.06-.06-.06h-76.48c-.06,0,0,.06,0,0v-22.56c0-.06-.06,0,0,0h8.45s.06-.03.06-.06v-17.01s-.03-.06-.06-.06h-8.45c-.06,0,0,.06,0,0v-16.89c0-.06-.06,0,0,0h8.45s.06-.03.06-.06v-17.01s-.03-.06-.06-.06h-8.45c-.06,0,0,.06,0,0v-16.89c0-.06-.06,0,0,0h8.45s.06-.03.06-.06v-17.01s-.03-.06-.06-.06h-8.45c-.06,0,0,.06,0,0v-16.89c0-.06-.06,0,0,0h8.45s.06-.03.06-.06v-17.01s-.03-.06-.06-.06h-8.45c-.06,0,0,.06,0,0v-16.89c0-.06-.06,0,0,0h8.45s.06-.03.06-.06v-17.01s-.03-.06-.06-.06h-8.45c-.06,0,0,.06,0,0v-16.89c0-.06-.06,0,0,0h8.45s.06-.03.06-.06v-17.01s-.03-.06-.06-.06h-8.45c-.06,0,0,.06,0,0v-16.89c0-.06-.06,0,0,0h8.45s.06-.03.06-.06v-17.01s-.03-.06-.06-.06h-8.45c-.06,0,0,.06,0,0v-16.89c0-.06-.06,0,0,0h8.45s.06-.03.06-.06v-17.01s-.03-.06-.06-.06h-8.45c-.06,0,0,.06,0,0v-16.89c0-.06-.06,0,0,0h8.45s.06-.03.06-.06v-17.01s-.03-.06-.06-.06h-8.45c-.06,0,0,.06,0,0v-16.89c0-.06-.06,0,0,0h8.45s.06-.03.06-.06v-17.01s-.03-.06-.06-.06h-8.45c-.06,0,0,.06,0,0v-22.56c0-.06-.06,0,0,0h76.48s.06-.03.06-.06v-25.46c0-.06-.06,0,0,0h8.45s.06-.03.06-.06v-17.01s-.03-.06-.06-.06h-8.45c-.06,0,0,.06,0,0v-16.89c0-.06-.06,0,0,0h8.45s.06-.03.06-.06v-17.01s-.03-.06-.06-.06h-8.45c-.06,0,0,.06,0,0v-16.89c0-.06-.06,0,0,0h8.45s.06-.03.06-.06v-17.01s-.03-.06-.06-.06h-8.45c-.06,0,0,.06,0,0v-16.89c0-.06-.06,0,0,0h8.45s.06-.03.06-.06v-17.01s-.03-.06-.06-.06h-8.45c-.06,0,0,.06,0,0v-25.46s-.03-.06-.06-.06h-308.5c-12.76,0-23.21,10.44-23.21,23.21Z"/>
  <path class="st0" d="M434.82,610.18l-49.98-159.9c-1.1-3.53,2.82-6.86,8.09-6.86h99.96c5.27,0,9.19,3.33,8.09,6.86l-49.98,159.9c-2.48,7.93-13.7,7.93-16.18,0Z"/>
  <path class="st0" d="M422.79,700.44l-46.24,147.92c-2.08,6.65-16.36,5.61-16.36-1.19v-295.84c0-6.8,14.29-7.84,16.36-1.19l46.24,147.92c.24.77.24,1.6,0,2.37Z"/>
  <path class="st0" d="M451,788.33l49.98,159.9c1.1,3.53-2.82,6.86-8.09,6.86h-99.96c-5.27,0-9.19-3.33-8.09-6.86l49.98-159.9c2.48-7.93,13.7-7.93,16.18,0Z"/>
  <path class="st0" d="M509.27,848.36l-46.24-147.92c-.24-.77-.24-1.6,0-2.37l46.24-147.92c2.08-6.65,16.36-5.61,16.36,1.19v295.84c0,6.8-14.29,7.84-16.36,1.19Z"/>
  <rect class="st0" x="28.35" y="372.98" width="240.94" height="85.04"/>
  <rect class="st0" x="221.64" y="597.2" width="8.39" height="16.9"/>
  <rect class="st0" x="221.64" y="631.22" width="8.39" height="16.89"/>
  <rect class="st0" x="221.64" y="665.23" width="8.39" height="16.9"/>
  <rect class="st0" x="221.64" y="699.25" width="8.39" height="16.89"/>
  <rect class="st0" x="221.64" y="733.27" width="8.39" height="16.89"/>
  <rect class="st0" x="221.64" y="767.28" width="8.39" height="16.9"/>
  <rect class="st0" x="221.64" y="801.3" width="8.39" height="16.89"/>
  <rect class="st0" x="221.64" y="835.31" width="8.39" height="16.9"/>
  <rect class="st0" x="221.64" y="869.33" width="8.39" height="16.89"/>
  <rect class="st0" x="221.64" y="903.34" width="8.39" height="16.9"/>
</svg>