  0
SECTION
  2
HEADER
  9
$ACADVER
  1
AC1032
  9
$ACADMAINTVER
 90
      329
  9
$DWGCODEPAGE
  3
ANSI_1252
  9
$REQUIREDVERSIONS
160
                 0
  9
$INSBASE
 10
0.0
 20
0.0
 30
0.0
  9
$EXTMIN
 10
1.000000000000000E+20
 20
1.000000000000000E+20
 30
1.000000000000000E+20
  9
$EXTMAX
 10
-1.000000000000000E+20
 20
-1.000000000000000E+20
 30
-1.000000000000000E+20
  9
$LIMMIN
 10
0.0
 20
0.0
  9
$LIMMAX
 10
12.0
 20
9.0
  9
$ORTHOMODE
 70
     0
  9
$REGENMODE
 70
     1
  9
$FILLMODE
 70
     1
  9
$QTEXTMODE
 70
     0
  9
$MIRRTEXT
 70
     0
  9
$LTSCALE
 40
1.0
  9
$ATTMODE
 70
     1
  9
$TEXTSIZE
 40
0.2
  9
$TRACEWID
 40
0.05
  9
$TEXTSTYLE
  7
Standard
  9
$CLAYER
  8
0
  9
$CELTYPE
  6
ByLayer
  9
$CECOLOR
 62
   256
  9
$CELTSCALE
 40
1.0
  9
$DISPSILH
 70
     0
  9
$DIMSCALE
 40
1.0
  9
$DIMASZ
 40
0.18
  9
$DIMEXO
 40
0.0625
  9
$DIMDLI
 40
0.38
  9
$DIMRND
 40
0.0
  9
$DIMDLE
 40
0.0
  9
$DIMEXE
 40
0.18
  9
$DIMTP
 40
0.0
  9
$DIMTM
 40
0.0
  9
$DIMTXT
 40
0.18
  9
$DIMCEN
 40
0.09
  9
$DIMTSZ
 40
0.0
  9
$DIMTOL
 70
     0
  9
$DIMLIM
 70
     0
  9
$DIMTIH
 70
     1
  9
$DIMTOH
 70
     1
  9
$DIMSE1
 70
     0
  9
$DIMSE2
 70
     0
  9
$DIMTAD
 70
     0
  9
$DIMZIN
 70
     0
  9
$DIMBLK
  1

  9
$DIMASO
 70
     1
  9
$DIMSHO
 70
     1
  9
$DIMPOST
  1

  9
$DIMAPOST
  1

  9
$DIMALT
 70
     0
  9
$DIMALTD
 70
     2
  9
$DIMALTF
 40
25.4
  9
$DIMLFAC
 40
1.0
  9
$DIMTOFL
 70
     0
  9
$DIMTVP
 40
0.0
  9
$DIMTIX
 70
     0
  9
$DIMSOXD
 70
     0
  9
$DIMSAH
 70
     0
  9
$DIMBLK1
  1

  9
$DIMBLK2
  1

  9
$DIMSTYLE
  2
Standard
  9
$DIMCLRD
 70
     0
  9
$DIMCLRE
 70
     0
  9
$DIMCLRT
 70
     0
  9
$DIMTFAC
 40
1.0
  9
$DIMGAP
 40
0.09
  9
$DIMJUST
 70
     0
  9
$DIMSD1
 70
     0
  9
$DIMSD2
 70
     0
  9
$DIMTOLJ
 70
     1
  9
$DIMTZIN
 70
     0
  9
$DIMALTZ
 70
     0
  9
$DIMALTTZ
 70
     0
  9
$DIMUPT
 70
     0
  9
$DIMDEC
 70
     4
  9
$DIMTDEC
 70
     4
  9
$DIMALTU
 70
     2
  9
$DIMALTTD
 70
     2
  9
$DIMTXSTY
  7
Standard
  9
$DIMAUNIT
 70
     0
  9
$DIMADEC
 70
     0
  9
$DIMALTRND
 40
0.0
  9
$DIMAZIN
 70
     0
  9
$DIMDSEP
 70
    46
  9
$DIMATFIT
 70
     3
  9
$DIMFRAC
 70
     0
  9
$DIMLDRBLK
  1

  9
$DIMLUNIT
 70
     2
  9
$DIMLWD
 70
    -2
  9
$DIMLWE
 70
    -2
  9
$DIMTMOVE
 70
     0
  9
$DIMFXL
 40
1.0
  9
$DIMFXLON
 70
     0
  9
$DIMJOGANG
 40
0.7853981633974483
  9
$DIMTFILL
 70
     0
  9
$DIMTFILLCLR
 70
     0
  9
$DIMARCSYM
 70
     0
  9
$DIMLTYPE
  6

  9
$DIMLTEX1
  6

  9
$DIMLTEX2
  6

  9
$DIMTXTDIRECTION
 70
     0
  9
$LUNITS
 70
     2
  9
$LUPREC
 70
     4
  9
$SKETCHINC
 40
0.1
  9
$FILLETRAD
 40
0.0
  9
$AUNITS
 70
     0
  9
$AUPREC
 70
     0
  9
$MENU
  1
.
  9
$ELEVATION
 40
0.0
  9
$PELEVATION
 40
0.0
  9
$THICKNESS
 40
0.0
  9
$LIMCHECK
 70
     0
  9
$CHAMFERA
 40
0.0
  9
$CHAMFERB
 40
0.0
  9
$CHAMFERC
 40
0.0
  9
$CHAMFERD
 40
0.0
  9
$SKPOLY
 70
     0
  9
$TDCREATE
 40
2460836.917314815
  9
$TDUCREATE
 40
2460836.833981481
  9
$TDUPDATE
 40
2460836.917314815
  9
$TDUUPDATE
 40
2460836.833981481
  9
$TDINDWG
 40
0.0000000000
  9
$TDUSRTIMER
 40
0.0000000000
  9
$USRTIMER
 70
     1
  9
$ANGBASE
 50
0.0
  9
$ANGDIR
 70
     0
  9
$PDMODE
 70
     0
  9
$PDSIZE
 40
0.0
  9
$PLINEWID
 40
0.0
  9
$SPLFRAME
 70
     0
  9
$SPLINETYPE
 70
     6
  9
$SPLINESEGS
 70
     8
  9
$HANDSEED
  5
B8
  9
$SURFTAB1
 70
     6
  9
$SURFTAB2
 70
     6
  9
$SURFTYPE
 70
     6
  9
$SURFU
 70
     6
  9
$SURFV
 70
     6
  9
$UCSBASE
  2

  9
$UCSNAME
  2

  9
$UCSORG
 10
0.0
 20
0.0
 30
0.0
  9
$UCSXDIR
 10
1.0
 20
0.0
 30
0.0
  9
$UCSYDIR
 10
0.0
 20
1.0
 30
0.0
  9
$UCSORTHOREF
  2

  9
$UCSORTHOVIEW
 70
     0
  9
$UCSORGTOP
 10
0.0
 20
0.0
 30
0.0
  9
$UCSORGBOTTOM
 10
0.0
 20
0.0
 30
0.0
  9
$UCSORGLEFT
 10
0.0
 20
0.0
 30
0.0
  9
$UCSORGRIGHT
 10
0.0
 20
0.0
 30
0.0
  9
$UCSORGFRONT
 10
0.0
 20
0.0
 30
0.0
  9
$UCSORGBACK
 10
0.0
 20
0.0
 30
0.0
  9
$PUCSBASE
  2

  9
$PUCSNAME
  2

  9
$PUCSORG
 10
0.0
 20
0.0
 30
0.0
  9
$PUCSXDIR
 10
1.0
 20
0.0
 30
0.0
  9
$PUCSYDIR
 10
0.0
 20
1.0
 30
0.0
  9
$PUCSORTHOREF
  2

  9
$PUCSORTHOVIEW
 70
     0
  9
$PUCSORGTOP
 10
0.0
 20
0.0
 30
0.0
  9
$PUCSORGBOTTOM
 10
0.0
 20
0.0
 30
0.0
  9
$PUCSORGLEFT
 10
0.0
 20
0.0
 30
0.0
  9
$PUCSORGRIGHT
 10
0.0
 20
0.0
 30
0.0
  9
$PUCSORGFRONT
 10
0.0
 20
0.0
 30
0.0
  9
$PUCSORGBACK
 10
0.0
 20
0.0
 30
0.0
  9
$USERI1
 70
     0
  9
$USERI2
 70
     0
  9
$USERI3
 70
     0
  9
$USERI4
 70
     0
  9
$USERI5
 70
     0
  9
$USERR1
 40
0.0
  9
$USERR2
 40
0.0
  9
$USERR3
 40
0.0
  9
$USERR4
 40
0.0
  9
$USERR5
 40
0.0
  9
$WORLDVIEW
 70
     1
  9
$SHADEDGE
 70
     3
  9
$SHADEDIF
 70
    70
  9
$TILEMODE
 70
     1
  9
$MAXACTVP
 70
    64
  9
$PINSBASE
 10
0.0
 20
0.0
 30
0.0
  9
$PLIMCHECK
 70
     0
  9
$PEXTMIN
 10
1.000000000000000E+20
 20
1.000000000000000E+20
 30
1.000000000000000E+20
  9
$PEXTMAX
 10
-1.000000000000000E+20
 20
-1.000000000000000E+20
 30
-1.000000000000000E+20
  9
$PLIMMIN
 10
0.0
 20
0.0
  9
$PLIMMAX
 10
12.0
 20
9.0
  9
$UNITMODE
 70
     0
  9
$VISRETAIN
 70
     1
  9
$PLINEGEN
 70
     0
  9
$PSLTSCALE
 70
     1
  9
$TREEDEPTH
 70
  3020
  9
$CMLSTYLE
  2
Standard
  9
$CMLJUST
 70
     0
  9
$CMLSCALE
 40
1.0
  9
$PROXYGRAPHICS
 70
     1
  9
$MEASUREMENT
 70
     0
  9
$CELWEIGHT
370
    -1
  9
$ENDCAPS
280
     0
  9
$JOINSTYLE
280
     0
  9
$LWDISPLAY
290
     1
  9
$INSUNITS
 70
     4
  9
$HYPERLINKBASE
  1

  9
$STYLESHEET
  1

  9
$XEDIT
290
     1
  9
$CEPSNTYPE
380
     0
  9
$PSTYLEMODE
290
     1
  9
$FINGERPRINTGUID
  2
{107599D7-BE52-B849-9DA2-987BD8E7EB0B}
  9
$VERSIONGUID
  2
{1D62AF90-B5F4-C247-B418-171870D1EE86}
  9
$EXTNAMES
290
     1
  9
$PSVPSCALE
 40
0.0
  9
$OLESTARTUP
290
     0
  9
$SORTENTS
280
   127
  9
$INDEXCTL
280
     0
  9
$HIDETEXT
280
     1
  9
$XCLIPFRAME
280
     2
  9
$HALOGAP
280
     0
  9
$OBSCOLOR
 70
   257
  9
$OBSLTYPE
280
     0
  9
$INTERSECTIONDISPLAY
280
     0
  9
$INTERSECTIONCOLOR
 70
   257
  9
$DIMASSOC
280
     2
  9
$PROJECTNAME
  1

  9
$CAMERADISPLAY
290
     0
  9
$LENSLENGTH
 40
50.0
  9
$CAMERAHEIGHT
 40
0.0
  9
$STEPSPERSEC
 40
2.0
  9
$STEPSIZE
 40
6.0
  9
$3DDWFPREC
 40
2.0
  9
$PSOLWIDTH
 40
0.25
  9
$PSOLHEIGHT
 40
4.0
  9
$LOFTANG1
 40
1.570796326794896
  9
$LOFTANG2
 40
1.570796326794896
  9
$LOFTMAG1
 40
0.0
  9
$LOFTMAG2
 40
0.0
  9
$LOFTPARAM
 70
     7
  9
$LOFTNORMALS
280
     1
  9
$LATITUDE
 40
37.795
  9
$LONGITUDE
 40
-122.394
  9
$NORTHDIRECTION
 40
0.0
  9
$TIMEZONE
 70
 -8000
  9
$LIGHTGLYPHDISPLAY
280
     1
  9
$TILEMODELIGHTSYNCH
280
     1
  9
$CMATERIAL
347
11
  9
$SOLIDHIST
280
     0
  9
$SHOWHIST
280
     1
  9
$DWFFRAME
280
     2
  9
$DGNFRAME
280
     0
  9
$REALWORLDSCALE
290
     1
  9
$INTERFERECOLOR
 62
     1
  9
$INTERFEREOBJVS
345
33
  9
$INTERFEREVPVS
346
30
  9
$CSHADOW
280
     0
  9
$SHADOWPLANELOCATION
 40
0.0
  0
ENDSEC
  0
SECTION
  2
CLASSES
  0
CLASS
  1
ACDBDICTIONARYWDFLT
  2
AcDbDictionaryWithDefault
  3
ObjectDBX Classes
 90
        0
 91
        1
280
     0
281
     0
  0
CLASS
  1
MATERIAL
  2
AcDbMaterial
  3
ObjectDBX Classes
 90
     1153
 91
        3
280
     0
281
     0
  0
CLASS
  1
VISUALSTYLE
  2
AcDbVisualStyle
  3
ObjectDBX Classes
 90
     4095
 91
       24
280
     0
281
     0
  0
CLASS
  1
SCALE
  2
AcDbScale
  3
ObjectDBX Classes
 90
     1153
 91
       17
280
     0
281
     0
  0
CLASS
  1
TABLESTYLE
  2
AcDbTableStyle
  3
ObjectDBX Classes
 90
     4095
 91
        1
280
     0
281
     0
  0
CLASS
  1
MLEADERSTYLE
  2
AcDbMLeaderStyle
  3
ACDB_MLEADERSTYLE_CLASS
 90
     4095
 91
        1
280
     0
281
     0
  0
CLASS
  1
ACDBSECTIONVIEWSTYLE
  2
AcDbSectionViewStyle
  3
ObjectDBX Classes
 90
     1025
 91
        1
280
     0
281
     0
  0
CLASS
  1
ACDBDETAILVIEWSTYLE
  2
AcDbDetailViewStyle
  3
ObjectDBX Classes
 90
     1025
 91
        1
280
     0
281
     0
  0
CLASS
  1
DICTIONARYVAR
  2
AcDbDictionaryVar
  3
ObjectDBX Classes
 90
        0
 91
        5
280
     0
281
     0
  0
CLASS
  1
CELLSTYLEMAP
  2
AcDbCellStyleMap
  3
ObjectDBX Classes
 90
     1152
 91
        1
280
     0
281
     0
  0
ENDSEC
  0
SECTION
  2
TABLES
  0
TABLE
  2
VPORT
  5
8
330
0
100
AcDbSymbolTable
 70
     1
  0
VPORT
  5
57
330
8
100
AcDbSymbolTableRecord
100
AcDbViewportTableRecord
  2
*Active
 70
     0
 10
0.0
 20
0.0
 11
1.0
 21
1.0
 12
0.0
 22
0.0
 13
0.0
 23
0.0
 14
1.0
 24
1.0
 15
0.0
 25
0.0
 16
0.0
 26
0.0
 36
1.0
 17
123.806235193635
 27
207.8699991342304
 37
0.0
 40
424.05479823383
 41
0.5955945336473886
 42
50.0
 43
0.0
 44
0.0
 50
0.0
 51
0.0
 71
     0
 72
   100
 73
     1
 74
     1
 75
     0
 76
     0
 77
     0
 78
     0
281
     0
 65
     1
110
0.0
120
0.0
130
0.0
111
1.0
121
0.0
131
0.0
112
0.0
122
1.0
132
0.0
 79
     0
146
0.0
 60
     3
 61
     5
292
     1
282
     1
141
0.0
142
0.0
 63
   250
421
  3355443
  0
ENDTAB
  0
TABLE
  2
LTYPE
  5
5
330
0
100
AcDbSymbolTable
 70
     1
  0
LTYPE
  5
5B
330
5
100
AcDbSymbolTableRecord
100
AcDbLinetypeTableRecord
  2
ByBlock
 70
     0
  3

 72
    65
 73
     0
 40
0.0
  0
LTYPE
  5
5C
330
5
100
AcDbSymbolTableRecord
100
AcDbLinetypeTableRecord
  2
ByLayer
 70
     0
  3

 72
    65
 73
     0
 40
0.0
  0
LTYPE
  5
5D
330
5
100
AcDbSymbolTableRecord
100
AcDbLinetypeTableRecord
  2
Continuous
 70
     0
  3
Solid line
 72
    65
 73
     0
 40
0.0
  0
ENDTAB
  0
TABLE
  2
LAYER
  5
2
330
0
100
AcDbSymbolTable
 70
     2
  0
LAYER
  5
54
330
2
100
AcDbSymbolTableRecord
100
AcDbLayerTableRecord
  2
0
 70
     0
 62
     7
  6
Continuous
370
    -3
390
F
347
21
348
0
  0
LAYER
  5
78
330
2
100
AcDbSymbolTableRecord
100
AcDbLayerTableRecord
  2
Layer 1
 70
     0
 62
     7
  6
Continuous
370
     0
390
F
347
21
348
0
  0
ENDTAB
  0
TABLE
  2
STYLE
  5
3
330
0
100
AcDbSymbolTable
 70
     2
  0
STYLE
  5
55
330
3
100
AcDbSymbolTableRecord
100
AcDbTextStyleTableRecord
  2
Standard
 70
     0
 40
0.0
 41
1.0
 50
0.0
 71
     0
 42
0.2
  3
txt
  4

  0
STYLE
  5
5A
330
3
100
AcDbSymbolTableRecord
100
AcDbTextStyleTableRecord
  2
Annotative
 70
     0
 40
0.0
 41
1.0
 50
0.0
 71
     0
 42
0.2
  3
txt
  4

1001
AcadAnnotative
1000
AnnotativeData
1002
{
1070
     1
1070
     1
1002
}
  0
ENDTAB
  0
TABLE
  2
VIEW
  5
6
330
0
100
AcDbSymbolTable
 70
     0
  0
ENDTAB
  0
TABLE
  2
UCS
  5
7
330
0
100
AcDbSymbolTable
 70
     0
  0
ENDTAB
  0
TABLE
  2
APPID
  5
9
330
0
100
AcDbSymbolTable
 70
     2
  0
APPID
  5
56
330
9
100
AcDbSymbolTableRecord
100
AcDbRegAppTableRecord
  2
ACAD
 70
     0
  0
APPID
  5
5E
330
9
100
AcDbSymbolTableRecord
100
AcDbRegAppTableRecord
  2
AcadAnnotative
 70
     0
  0
ENDTAB
  0
TABLE
  2
DIMSTYLE
  5
A
330
0
100
AcDbSymbolTable
 70
     2
100
AcDbDimStyleTable
 71
     0
  0
DIMSTYLE
105
58
330
A
100
AcDbSymbolTableRecord
100
AcDbDimStyleTableRecord
  2
Standard
 70
     0
340
55
  0
DIMSTYLE
105
59
330
A
100
AcDbSymbolTableRecord
100
AcDbDimStyleTableRecord
  2
Annotative
 70
     0
340
55
1001
AcadAnnotative
1000
AnnotativeData
1002
{
1070
     1
1070
     1
1002
}
  0
ENDTAB
  0
TABLE
  2
BLOCK_RECORD
  5
1
330
0
100
AcDbSymbolTable
 70
     1
  0
BLOCK_RECORD
  5
70
330
1
100
AcDbSymbolTableRecord
100
AcDbBlockTableRecord
  2
*Model_Space
340
73
 70
     0
280
     1
281
     0
  0
BLOCK_RECORD
  5
6C
330
1
100
AcDbSymbolTableRecord
100
AcDbBlockTableRecord
  2
*Paper_Space
340
6F
 70
     0
280
     1
281
     0
  0
BLOCK_RECORD
  5
74
330
1
100
AcDbSymbolTableRecord
100
AcDbBlockTableRecord
  2
*Paper_Space0
340
77
 70
     0
280
     1
281
     0
  0
ENDTAB
  0
ENDSEC
  0
SECTION
  2
BLOCKS
  0
BLOCK
  5
71
330
70
100
AcDbEntity
  8
0
100
AcDbBlockBegin
  2
*Model_Space
 70
     0
 10
0.0
 20
0.0
 30
0.0
  3
*Model_Space
  1

  0
ENDBLK
  5
72
330
70
100
AcDbEntity
  8
0
100
AcDbBlockEnd
  0
BLOCK
  5
6D
330
6C
100
AcDbEntity
 67
     1
  8
0
100
AcDbBlockBegin
  2
*Paper_Space
 70
     0
 10
0.0
 20
0.0
 30
0.0
  3
*Paper_Space
  1

  0
ENDBLK
  5
6E
330
6C
100
AcDbEntity
 67
     1
  8
0
100
AcDbBlockEnd
  0
BLOCK
  5
75
330
74
100
AcDbEntity
 67
     1
  8
0
100
AcDbBlockBegin
  2
*Paper_Space0
 70
     0
 10
0.0
 20
0.0
 30
0.0
  3
*Paper_Space0
  1

  0
ENDBLK
  5
76
330
74
100
AcDbEntity
 67
     1
  8
0
100
AcDbBlockEnd
  0
ENDSEC
  0
SECTION
  2
ENTITIES
  0
SPLINE
  5
79
330
70
100
AcDbEntity
  8
Layer 1
 62
    18
420
        0
370
     5
100
AcDbSpline
210
0.0
220
0.0
230
1.0
 70
    11
 71
     3
 72
    17
 73
    13
 74
     0
 42
0.0000000001
 43
0.0000000001
 40
0.0
 40
0.0
 40
0.0
 40
0.0
 40
1.0
 40
1.0
 40
1.0
 40
2.0
 40
2.0
 40
2.0
 40
3.0
 40
3.0
 40
3.0
 40
4.0
 40
4.0
 40
4.0
 40
4.0
 10
10.02000073397
 20
10.00002601091477
 30
0.0
 10
10.02000073397
 20
10.00002601091477
 30
0.0
 10
110.0199996758227
 20
10.00002601091477
 30
0.0
 10
110.0199996758227
 20
10.00002601091477
 30
0.0
 10
110.0199996758227
 20
10.00002601091477
 30
0.0
 10
110.0199996758227
 20
20.00002628656978
 30
0.0
 10
110.0199996758227
 20
20.00002628656978
 30
0.0
 10
110.0199996758227
 20
20.00002628656978
 30
0.0
 10
10.02000073397
 20
20.00002628656978
 30
0.0
 10
10.02000073397
 20
20.00002628656978
 30
0.0
 10
10.02000073397
 20
20.00002628656978
 30
0.0
 10
10.02000073397
 20
10.00002601091477
 30
0.0
 10
10.02000073397
 20
10.00002601091477
 30
0.0
  0
MTEXT
  5
7A
330
70
100
AcDbEntity
  8
Layer 1
100
AcDbMText
 10
28.1729573497276
 20
12.85083821294681
 30
0.0
 40
0.2
 41
0.0
 46
0.0
 71
     7
 72
     1
  1
\C1;\c255;\FArial|b0|i0|c1;\H4.248000;\W1.000000;100.0mm, burn:0.02mm
 73
     1
 44
1.0
  0
SPLINE
  5
7B
330
70
100
AcDbEntity
  8
Layer 1
 62
    18
420
        0
370
     5
100
AcDbSpline
210
0.0
220
0.0
230
1.0
 70
     9
 71
     3
 72
   497
 73
   493
 74
     0
 42
0.0000000001
 43
0.0000000001
 40
0.0
 40
0.0
 40
0.0
 40
0.0
 40
1.0
 40
1.0
 40
1.0
 40
2.0
 40
2.0
 40
2.0
 40
3.0
 40
3.0
 40
3.0
 40
4.0
 40
4.0
 40
4.0
 40
5.0
 40
5.0
 40
5.0
 40
6.0
 40
6.0
 40
6.0
 40
7.0
 40
7.0
 40
7.0
 40
8.0
 40
8.0
 40
8.0
 40
9.0
 40
9.0
 40
9.0
 40
10.0
 40
10.0
 40
10.0
 40
11.0
 40
11.0
 40
11.0
 40
12.0
 40
12.0
 40
12.0
 40
13.0
 40
13.0
 40
13.0
 40
14.0
 40
14.0
 40
14.0
 40
15.0
 40
15.0
 40
15.0
 40
16.0
 40
16.0
 40
16.0
 40
17.0
 40
17.0
 40
17.0
 40
18.0
 40
18.0
 40
18.0
 40
19.0
 40
19.0
 40
19.0
 40
20.0
 40
20.0
 40
20.0
 40
21.0
 40
21.0
 40
21.0
 40
22.0
 40
22.0
 40
22.0
 40
23.0
 40
23.0
 40
23.0
 40
24.0
 40
24.0
 40
24.0
 40
25.0
 40
25.0
 40
25.0
 40
26.0
 40
26.0
 40
26.0
 40
27.0
 40
27.0
 40
27.0
 40
28.0
 40
28.0
 40
28.0
 40
29.0
 40
29.0
 40
29.0
 40
30.0
 40
30.0
 40
30.0
 40
31.0
 40
31.0
 40
31.0
 40
32.0
 40
32.0
 40
32.0
 40
33.0
 40
33.0
 40
33.0
 40
34.0
 40
34.0
 40
34.0
 40
35.0
 40
35.0
 40
35.0
 40
36.0
 40
36.0
 40
36.0
 40
37.0
 40
37.0
 40
37.0
 40
38.0
 40
38.0
 40
38.0
 40
39.0
 40
39.0
 40
39.0
 40
40.0
 40
40.0
 40
40.0
 40
41.0
 40
41.0
 40
41.0
 40
42.0
 40
42.0
 40
42.0
 40
43.0
 40
43.0
 40
43.0
 40
44.0
 40
44.0
 40
44.0
 40
45.0
 40
45.0
 40
45.0
 40
46.0
 40
46.0
 40
46.0
 40
47.0
 40
47.0
 40
47.0
 40
48.0
 40
48.0
 40
48.0
 40
49.0
 40
49.0
 40
49.0
 40
50.0
 40
50.0
 40
50.0
 40
51.0
 40
51.0
 40
51.0
 40
52.0
 40
52.0
 40
52.0
 40
53.0
 40
53.0
 40
53.0
 40
54.0
 40
54.0
 40
54.0
 40
55.0
 40
55.0
 40
55.0
 40
56.0
 40
56.0
 40
56.0
 40
57.0
 40
57.0
 40
57.0
 40
58.0
 40
58.0
 40
58.0
 40
59.0
 40
59.0
 40
59.0
 40
60.0
 40
60.0
 40
60.0
 40
61.0
 40
61.0
 40
61.0
 40
62.0
 40
62.0
 40
62.0
 40
63.0
 40
63.0
 40
63.0
 40
64.0
 40
64.0
 40
64.0
 40
65.0
 40
65.0
 40
65.0
 40
66.0
 40
66.0
 40
66.0
 40
67.0
 40
67.0
 40
67.0
 40
68.0
 40
68.0
 40
68.0
 40
69.0
 40
69.0
 40
69.0
 40
70.0
 40
70.0
 40
70.0
 40
71.0
 40
71.0
 40
71.0
 40
72.0
 40
72.0
 40
72.0
 40
73.0
 40
73.0
 40
73.0
 40
74.0
 40
74.0
 40
74.0
 40
75.0
 40
75.0
 40
75.0
 40
76.0
 40
76.0
 40
76.0
 40
77.0
 40
77.0
 40
77.0
 40
78.0
 40
78.0
 40
78.0
 40
79.0
 40
79.0
 40
79.0
 40
80.0
 40
80.0
 40
80.0
 40
81.0
 40
81.0
 40
81.0
 40
82.0
 40
82.0
 40
82.0
 40
83.0
 40
83.0
 40
83.0
 40
84.0
 40
84.0
 40
84.0
 40
85.0
 40
85.0
 40
85.0
 40
86.0
 40
86.0
 40
86.0
 40
87.0
 40
87.0
 40
87.0
 40
88.0
 40
88.0
 40
88.0
 40
89.0
 40
89.0
 40
89.0
 40
90.0
 40
90.0
 40
90.0
 40
91.0
 40
91.0
 40
91.0
 40
92.0
 40
92.0
 40
92.0
 40
93.0
 40
93.0
 40
93.0
 40
94.0
 40
94.0
 40
94.0
 40
95.0
 40
95.0
 40
95.0
 40
96.0
 40
96.0
 40
96.0
 40
97.0
 40
97.0
 40
97.0
 40
98.0
 40
98.0
 40
98.0
 40
99.0
 40
99.0
 40
99.0
 40
100.0
 40
100.0
 40
100.0
 40
101.0
 40
101.0
 40
101.0
 40
102.0
 40
102.0
 40
102.0
 40
103.0
 40
103.0
 40
103.0
 40
104.0
 40
104.0
 40
104.0
 40
105.0
 40
105.0
 40
105.0
 40
106.0
 40
106.0
 40
106.0
 40
107.0
 40
107.0
 40
107.0
 40
108.0
 40
108.0
 40
108.0
 40
109.0
 40
109.0
 40
109.0
 40
110.0
 40
110.0
 40
110.0
 40
111.0
 40
111.0
 40
111.0
 40
112.0
 40
112.0
 40
112.0
 40
113.0
 40
113.0
 40
113.0
 40
114.0
 40
114.0
 40
114.0
 40
115.0
 40
115.0
 40
115.0
 40
116.0
 40
116.0
 40
116.0
 40
117.0
 40
117.0
 40
117.0
 40
118.0
 40
118.0
 40
118.0
 40
119.0
 40
119.0
 40
119.0
 40
120.0
 40
120.0
 40
120.0
 40
121.0
 40
121.0
 40
121.0
 40
122.0
 40
122.0
 40
122.0
 40
123.0
 40
123.0
 40
123.0
 40
124.0
 40
124.0
 40
124.0
 40
125.0
 40
125.0
 40
125.0
 40
126.0
 40
126.0
 40
126.0
 40
127.0
 40
127.0
 40
127.0
 40
128.0
 40
128.0
 40
128.0
 40
129.0
 40
129.0
 40
129.0
 40
130.0
 40
130.0
 40
130.0
 40
131.0
 40
131.0
 40
131.0
 40
132.0
 40
132.0
 40
132.0
 40
133.0
 40
133.0
 40
133.0
 40
134.0
 40
134.0
 40
134.0
 40
135.0
 40
135.0
 40
135.0
 40
136.0
 40
136.0
 40
136.0
 40
137.0
 40
137.0
 40
137.0
 40
138.0
 40
138.0
 40
138.0
 40
139.0
 40
139.0
 40
139.0
 40
140.0
 40
140.0
 40
140.0
 40
141.0
 40
141.0
 40
141.0
 40
142.0
 40
142.0
 40
142.0
 40
143.0
 40
143.0
 40
143.0
 40
144.0
 40
144.0
 40
144.0
 40
145.0
 40
145.0
 40
145.0
 40
146.0
 40
146.0
 40
146.0
 40
147.0
 40
147.0
 40
147.0
 40
148.0
 40
148.0
 40
148.0
 40
149.0
 40
149.0
 40
149.0
 40
150.0
 40
150.0
 40
150.0
 40
151.0
 40
151.0
 40
151.0
 40
152.0
 40
152.0
 40
152.0
 40
153.0
 40
153.0
 40
153.0
 40
154.0
 40
154.0
 40
154.0
 40
155.0
 40
155.0
 40
155.0
 40
156.0
 40
156.0
 40
156.0
 40
157.0
 40
157.0
 40
157.0
 40
158.0
 40
158.0
 40
158.0
 40
159.0
 40
159.0
 40
159.0
 40
160.0
 40
160.0
 40
160.0
 40
161.0
 40
161.0
 40
161.0
 40
162.0
 40
162.0
 40
162.0
 40
163.0
 40
163.0
 40
163.0
 40
164.0
 40
164.0
 40
164.0
 40
164.0
 10
18.18662112137956
 20
285.7000305589655
 30
0.0
 10
18.18662112137956
 20
285.7000305589655
 30
0.0
 10
235.0200107509051
 20
285.7000305589655
 30
0.0
 10
235.0200107509051
 20
285.7000305589655
 30
0.0
 10
235.0310047087277
 20
285.7000305589655
 30
0.0
 10
235.039999765128
 20
285.7090256153658
 30
0.0
 10
235.039999765128
 20
285.7200195731884
 30
0.0
 10
235.039999765128
 20
285.7200195731884
 30
0.0
 10
235.039999765128
 20
291.7000230949637
 30
0.0
 10
235.039999765128
 20
291.7000230949637
 30
0.0
 10
235.039999765128
 20
291.7200273679761
 30
0.0
 10
235.0200107509051
 20
291.7000230949637
 30
0.0
 10
235.039999765128
 20
291.7000230949637
 30
0.0
 10
235.039999765128
 20
291.7000230949637
 30
0.0
 10
238.0200108336016
 20
291.7000230949637
 30
0.0
 10
238.0200108336016
 20
291.7000230949637
 30
0.0
 10
238.0310047914242
 20
291.7000230949637
 30
0.0
 10
238.0399998478245
 20
291.7090181513641
 30
0.0
 10
238.0399998478245
 20
291.7200121091866
 30
0.0
 10
238.0399998478245
 20
291.7200121091866
 30
0.0
 10
238.0399998478245
 20
297.7200275333691
 30
0.0
 10
238.0399998478245
 20
297.7200275333691
 30
0.0
 10
238.0399998478245
 20
297.7310256873586
 30
0.0
 10
238.0310013581967
 20
297.7400241769867
 30
0.0
 10
238.0200032042068
 20
297.7400241769867
 30
0.0
 10
238.0200032042068
 20
297.7400241769867
 30
0.0
 10
235.039999765128
 20
297.7400241769867
 30
0.0
 10
235.039999765128
 20
297.7400241769867
 30
0.0
 10
235.0200107509051
 20
297.7400241769867
 30
0.0
 10
235.039999765128
 20
297.7200275333691
 30
0.0
 10
235.039999765128
 20
297.7400241769867
 30
0.0
 10
235.039999765128
 20
297.7400241769867
 30
0.0
 10
235.039999765128
 20
303.7000234257498
 30
0.0
 10
235.039999765128
 20
303.7000234257498
 30
0.0
 10
235.039999765128
 20
303.7200276987621
 30
0.0
 10
235.0200107509051
 20
303.7000234257498
 30
0.0
 10
235.039999765128
 20
303.7000234257498
 30
0.0
 10
235.039999765128
 20
303.7000234257498
 30
0.0
 10
238.0200108336016
 20
303.7000234257498
 30
0.0
 10
238.0200108336016
 20
303.7000234257498
 30
0.0
 10
238.0310047914242
 20
303.7000234257498
 30
0.0
 10
238.0399998478245
 20
303.70901848215
 30
0.0
 10
238.0399998478245
 20
303.7200124399727
 30
0.0
 10
238.0399998478245
 20
303.7200124399727
 30
0.0
 10
238.0399998478245
 20
309.7200278641552
 30
0.0
 10
238.0399998478245
 20
309.7200278641552
 30
0.0
 10
238.0399998478245
 20
309.7310260181446
 30
0.0
 10
238.0310013581967
 20
309.7400245077728
 30
0.0
 10
238.0200032042068
 20
309.7400245077728
 30
0.0
 10
238.0200032042068
 20
309.7400245077728
 30
0.0
 10
235.039999765128
 20
309.7400245077728
 30
0.0
 10
235.039999765128
 20
309.7400245077728
 30
0.0
 10
235.0200107509051
 20
309.7400245077728
 30
0.0
 10
235.039999765128
 20
309.7200278641552
 30
0.0
 10
235.039999765128
 20
309.7400245077728
 30
0.0
 10
235.039999765128
 20
309.7400245077728
 30
0.0
 10
235.039999765128
 20
315.7000237565358
 30
0.0
 10
235.039999765128
 20
315.7000237565358
 30
0.0
 10
235.039999765128
 20
315.7200280295481
 30
0.0
 10
235.0200107509051
 20
315.7000237565358
 30
0.0
 10
235.039999765128
 20
315.7000237565358
 30
0.0
 10
235.039999765128
 20
315.7000237565358
 30
0.0
 10
238.0200108336016
 20
315.7000237565358
 30
0.0
 10
238.0200108336016
 20
315.7000237565358
 30
0.0
 10
238.0310047914242
 20
315.7000237565358
 30
0.0
 10
238.0399998478245
 20
315.7090188129361
 30
0.0
 10
238.0399998478245
 20
315.7200127707587
 30
0.0
 10
238.0399998478245
 20
315.7200127707587
 30
0.0
 10
238.0399998478245
 20
402.7200266130493
 30
0.0
 10
238.0399998478245
 20
402.7200266130493
 30
0.0
 10
238.0399998478245
 20
402.7310268651225
 30
0.0
 10
238.0309996415828
 20
402.7400270713643
 30
0.0
 10
238.0199993895095
 20
402.7400270713643
 30
0.0
 10
238.0199993895095
 20
402.7400270713643
 30
0.0
 10
228.0399995721694
 20
402.7400270713643
 30
0.0
 10
228.0399995721694
 20
402.7400270713643
 30
0.0
 10
228.0200105579466
 20
402.7400270713643
 30
0.0
 10
228.0399995721694
 20
402.7200266130493
 30
0.0
 10
228.0399995721694
 20
402.7400270713643
 30
0.0
 10
228.0399995721694
 20
402.7400270713643
 30
0.0
 10
228.0399995721694
 20
405.7200266957458
 30
0.0
 10
228.0399995721694
 20
405.7200266957458
 30
0.0
 10
228.0399995721694
 20
405.7310269478191
 30
0.0
 10
228.0309993659277
 20
405.7400271540608
 30
0.0
 10
228.0199991138545
 20
405.7400271540608
 30
0.0
 10
228.0199991138545
 20
405.7400271540608
 30
0.0
 10
222.0200103925535
 20
405.7400271540608
 30
0.0
 10
222.0200103925535
 20
405.7400271540608
 30
0.0
 10
222.0090080423968
 20
405.7400271540608
 30
0.0
 10
222.0000061195412
 20
405.7310252312052
 30
0.0
 10
222.0000061195412
 20
405.7200228810485
 30
0.0
 10
222.0000061195412
 20
405.7200228810485
 30
0.0
 10
222.0000061195412
 20
402.7400270713643
 30
0.0
 10
222.0000061195412
 20
402.7400270713643
 30
0.0
 10
222.0000061195412
 20
402.7200266130493
 30
0.0
 10
222.0200103925535
 20
402.7400270713643
 30
0.0
 10
222.0000061195412
 20
402.7400270713643
 30
0.0
 10
222.0000061195412
 20
402.7400270713643
 30
0.0
 10
216.0399992413835
 20
402.7400270713643
 30
0.0
 10
216.0399992413835
 20
402.7400270713643
 30
0.0
 10
216.0200102271605
 20
402.7400270713643
 30
0.0
 10
216.0399992413835
 20
402.7200266130493
 30
0.0
 10
216.0399992413835
 20
402.7400270713643
 30
0.0
 10
216.0399992413835
 20
402.7400270713643
 30
0.0
 10
216.0399992413835
 20
405.7200266957458
 30
0.0
 10
216.0399992413835
 20
405.7200266957458
 30
0.0
 10
216.0399992413835
 20
405.7310269478191
 30
0.0
 10
216.0309990351418
 20
405.7400271540608
 30
0.0
 10
216.0199987830684
 20
405.7400271540608
 30
0.0
 10
216.0199987830684
 20
405.7400271540608
 30
0.0
 10
210.0200100617676
 20
405.7400271540608
 30
0.0
 10
210.0200100617676
 20
405.7400271540608
 30
0.0
 10
210.0090077116108
 20
405.7400271540608
 30
0.0
 10
210.0000057887552
 20
405.7310252312052
 30
0.0
 10
210.0000057887552
 20
405.7200228810485
 30
0.0
 10
210.0000057887552
 20
405.7200228810485
 30
0.0
 10
210.0000057887552
 20
402.7400270713643
 30
0.0
 10
210.0000057887552
 20
402.7400270713643
 30
0.0
 10
210.0000057887552
 20
402.7200266130493
 30
0.0
 10
210.0200100617676
 20
402.7400270713643
 30
0.0
 10
210.0000057887552
 20
402.7400270713643
 30
0.0
 10
210.0000057887552
 20
402.7400270713643
 30
0.0
 10
200.0200097861125
 20
402.7400270713643
 30
0.0
 10
200.0200097861125
 20
402.7400270713643
 30
0.0
 10
200.0090074359558
 20
402.7400270713643
 30
0.0
 10
200.0000055131002
 20
402.7310251485086
 30
0.0
 10
200.0000055131002
 20
402.7200227983519
 30
0.0
 10
200.0000055131002
 20
402.7200227983519
 30
0.0
 10
200.0000055131002
 20
375.7400263270958
 30
0.0
 10
200.0000055131002
 20
375.7400263270958
 30
0.0
 10
200.0000055131002
 20
375.7200258687808
 30
0.0
 10
200.0200097861125
 20
375.7400263270958
 30
0.0
 10
200.0000055131002
 20
375.7400263270958
 30
0.0
 10
200.0000055131002
 20
375.7400263270958
 30
0.0
 10
192.0399985798114
 20
375.7400263270958
 30
0.0
 10
192.0399985798114
 20
375.7400263270958
 30
0.0
 10
192.0200095655885
 20
375.7400263270958
 30
0.0
 10
192.0399985798114
 20
375.7200258687808
 30
0.0
 10
192.0399985798114
 20
375.7400263270958
 30
0.0
 10
192.0399985798114
 20
375.7400263270958
 30
0.0
 10
192.0399985798114
 20
378.7200259514774
 30
0.0
 10
192.0399985798114
 20
378.7200259514774
 30
0.0
 10
192.0399985798114
 20
378.7310262035506
 30
0.0
 10
192.0309983735697
 20
378.7400264097923
 30
0.0
 10
192.0199981214964
 20
378.7400264097923
 30
0.0
 10
192.0199981214964
 20
378.7400264097923
 30
0.0
 10
186.0200094001955
 20
378.7400264097923
 30
0.0
 10
186.0200094001955
 20
378.7400264097923
 30
0.0
 10
186.0090070500388
 20
378.7400264097923
 30
0.0
 10
186.0000051271832
 20
378.7310244869367
 30
0.0
 10
186.0000051271832
 20
378.7200221367799
 30
0.0
 10
186.0000051271832
 20
378.7200221367799
 30
0.0
 10
186.0000051271832
 20
375.7400263270958
 30
0.0
 10
186.0000051271832
 20
375.7400263270958
 30
0.0
 10
186.0000051271832
 20
375.7200258687808
 30
0.0
 10
186.0200094001955
 20
375.7400263270958
 30
0.0
 10
186.0000051271832
 20
375.7400263270958
 30
0.0
 10
186.0000051271832
 20
375.7400263270958
 30
0.0
 10
180.0399982490254
 20
375.7400263270958
 30
0.0
 10
180.0399982490254
 20
375.7400263270958
 30
0.0
 10
180.0200092348025
 20
375.7400263270958
 30
0.0
 10
180.0399982490254
 20
375.7200258687808
 30
0.0
 10
180.0399982490254
 20
375.7400263270958
 30
0.0
 10
180.0399982490254
 20
375.7400263270958
 30
0.0
 10
180.0399982490254
 20
378.7200259514774
 30
0.0
 10
180.0399982490254
 20
378.7200259514774
 30
0.0
 10
180.0399982490254
 20
378.7310262035506
 30
0.0
 10
180.0309980427837
 20
378.7400264097923
 30
0.0
 10
180.0199977907104
 20
378.7400264097923
 30
0.0
 10
180.0199977907104
 20
378.7400264097923
 30
0.0
 10
174.0200090694095
 20
378.7400264097923
 30
0.0
 10
174.0200090694095
 20
378.7400264097923
 30
0.0
 10
174.0090067192528
 20
378.7400264097923
 30
0.0
 10
174.0000047963971
 20
378.7310244869367
 30
0.0
 10
174.0000047963971
 20
378.7200221367799
 30
0.0
 10
174.0000047963971
 20
378.7200221367799
 30
0.0
 10
174.0000047963971
 20
375.7400263270958
 30
0.0
 10
174.0000047963971
 20
375.7400263270958
 30
0.0
 10
174.0000047963971
 20
375.7200258687808
 30
0.0
 10
174.0200090694095
 20
375.7400263270958
 30
0.0
 10
174.0000047963971
 20
375.7400263270958
 30
0.0
 10
174.0000047963971
 20
375.7400263270958
 30
0.0
 10
168.0399979182394
 20
375.7400263270958
 30
0.0
 10
168.0399979182394
 20
375.7400263270958
 30
0.0
 10
168.0200089040165
 20
375.7400263270958
 30
0.0
 10
168.0399979182394
 20
375.7200258687808
 30
0.0
 10
168.0399979182394
 20
375.7400263270958
 30
0.0
 10
168.0399979182394
 20
375.7400263270958
 30
0.0
 10
168.0399979182394
 20
378.7200259514774
 30
0.0
 10
168.0399979182394
 20
378.7200259514774
 30
0.0
 10
168.0399979182394
 20
378.7310262035506
 30
0.0
 10
168.0309977119977
 20
378.7400264097923
 30
0.0
 10
168.0199974599244
 20
378.7400264097923
 30
0.0
 10
168.0199974599244
 20
378.7400264097923
 30
0.0
 10
162.0200087386235
 20
378.7400264097923
 30
0.0
 10
162.0200087386235
 20
378.7400264097923
 30
0.0
 10
162.0090063884668
 20
378.7400264097923
 30
0.0
 10
162.0000044656111
 20
378.7310244869367
 30
0.0
 10
162.0000044656111
 20
378.7200221367799
 30
0.0
 10
162.0000044656111
 20
378.7200221367799
 30
0.0
 10
162.0000044656111
 20
375.7400263270958
 30
0.0
 10
162.0000044656111
 20
375.7400263270958
 30
0.0
 10
162.0000044656111
 20
375.7200258687808
 30
0.0
 10
162.0200087386235
 20
375.7400263270958
 30
0.0
 10
162.0000044656111
 20
375.7400263270958
 30
0.0
 10
162.0000044656111
 20
375.7400263270958
 30
0.0
 10
156.0399975874534
 20
375.7400263270958
 30
0.0
 10
156.0399975874534
 20
375.7400263270958
 30
0.0
 10
156.0200085732305
 20
375.7400263270958
 30
0.0
 10
156.0399975874534
 20
375.7200258687808
 30
0.0
 10
156.0399975874534
 20
375.7400263270958
 30
0.0
 10
156.0399975874534
 20
375.7400263270958
 30
0.0
 10
156.0399975874534
 20
378.7200259514774
 30
0.0
 10
156.0399975874534
 20
378.7200259514774
 30
0.0
 10
156.0399975874534
 20
378.7310262035506
 30
0.0
 10
156.0309973812117
 20
378.7400264097923
 30
0.0
 10
156.0199971291384
 20
378.7400264097923
 30
0.0
 10
156.0199971291384
 20
378.7400264097923
 30
0.0
 10
150.0200084078375
 20
378.7400264097923
 30
0.0
 10
150.0200084078375
 20
378.7400264097923
 30
0.0
 10
150.0090060576807
 20
378.7400264097923
 30
0.0
 10
150.0000041348251
 20
378.7310244869367
 30
0.0
 10
150.0000041348251
 20
378.7200221367799
 30
0.0
 10
150.0000041348251
 20
378.7200221367799
 30
0.0
 10
150.0000041348251
 20
375.7400263270958
 30
0.0
 10
150.0000041348251
 20
375.7400263270958
 30
0.0
 10
150.0000041348251
 20
375.7200258687808
 30
0.0
 10
150.0200084078375
 20
375.7400263270958
 30
0.0
 10
150.0000041348251
 20
375.7400263270958
 30
0.0
 10
150.0000041348251
 20
375.7400263270958
 30
0.0
 10
144.0399972566674
 20
375.7400263270958
 30
0.0
 10
144.0399972566674
 20
375.7400263270958
 30
0.0
 10
144.0200082424445
 20
375.7400263270958
 30
0.0
 10
144.0399972566674
 20
375.7200258687808
 30
0.0
 10
144.0399972566674
 20
375.7400263270958
 30
0.0
 10
144.0399972566674
 20
375.7400263270958
 30
0.0
 10
144.0399972566674
 20
378.7200259514774
 30
0.0
 10
144.0399972566674
 20
378.7200259514774
 30
0.0
 10
144.0399972566674
 20
378.7310262035506
 30
0.0
 10
144.0309970504257
 20
378.7400264097923
 30
0.0
 10
144.0199967983524
 20
378.7400264097923
 30
0.0
 10
144.0199967983524
 20
378.7400264097923
 30
0.0
 10
138.0200080770515
 20
378.7400264097923
 30
0.0
 10
138.0200080770515
 20
378.7400264097923
 30
0.0
 10
138.0090057268947
 20
378.7400264097923
 30
0.0
 10
138.0000038040391
 20
378.7310244869367
 30
0.0
 10
138.0000038040391
 20
378.7200221367799
 30
0.0
 10
138.0000038040391
 20
378.7200221367799
 30
0.0
 10
138.0000038040391
 20
375.7400263270958
 30
0.0
 10
138.0000038040391
 20
375.7400263270958
 30
0.0
 10
138.0000038040391
 20
375.7200258687808
 30
0.0
 10
138.0200080770515
 20
375.7400263270958
 30
0.0
 10
138.0000038040391
 20
375.7400263270958
 30
0.0
 10
138.0000038040391
 20
375.7400263270958
 30
0.0
 10
132.0399969258813
 20
375.7400263270958
 30
0.0
 10
132.0399969258813
 20
375.7400263270958
 30
0.0
 10
132.0200079116585
 20
375.7400263270958
 30
0.0
 10
132.0399969258813
 20
375.7200258687808
 30
0.0
 10
132.0399969258813
 20
375.7400263270958
 30
0.0
 10
132.0399969258813
 20
375.7400263270958
 30
0.0
 10
132.0399969258813
 20
378.7200259514774
 30
0.0
 10
132.0399969258813
 20
378.7200259514774
 30
0.0
 10
132.0399969258813
 20
378.7310262035506
 30
0.0
 10
132.0309967196396
 20
378.7400264097923
 30
0.0
 10
132.0199964675664
 20
378.7400264097923
 30
0.0
 10
132.0199964675664
 20
378.7400264097923
 30
0.0
 10
126.0200001168707
 20
378.7400264097923
 30
0.0
 10
126.0200001168707
 20
378.7400264097923
 30
0.0
 10
126.0090019628809
 20
378.7400264097923
 30
0.0
 10
126.0000034732531
 20
378.7310279201645
 30
0.0
 10
126.0000034732531
 20
378.7200297661747
 30
0.0
 10
126.0000034732531
 20
378.7200297661747
 30
0.0
 10
126.0000034732531
 20
375.7400263270958
 30
0.0
 10
126.0000034732531
 20
375.7400263270958
 30
0.0
 10
126.0000034732531
 20
375.7200258687808
 30
0.0
 10
126.0200001168707
 20
375.7400263270958
 30
0.0
 10
126.0000034732531
 20
375.7400263270958
 30
0.0
 10
126.0000034732531
 20
375.7400263270958
 30
0.0
 10
120.0400042244901
 20
375.7400263270958
 30
0.0
 10
120.0400042244901
 20
375.7400263270958
 30
0.0
 10
120.0199999514777
 20
375.7400263270958
 30
0.0
 10
120.0400042244901
 20
375.7200258687808
 30
0.0
 10
120.0400042244901
 20
375.7400263270958
 30
0.0
 10
120.0400042244901
 20
375.7400263270958
 30
0.0
 10
120.0400042244901
 20
378.7200259514774
 30
0.0
 10
120.0400042244901
 20
378.7200259514774
 30
0.0
 10
120.0400042244901
 20
378.7310262035506
 30
0.0
 10
120.0310040182483
 20
378.7400264097923
 30
0.0
 10
120.0200037661751
 20
378.7400264097923
 30
0.0
 10
120.0200037661751
 20
378.7400264097923
 30
0.0
 10
114.0199997860847
 20
378.7400264097923
 30
0.0
 10
114.0199997860847
 20
378.7400264097923
 30
0.0
 10
114.0090016320949
 20
378.7400264097923
 30
0.0
 10
114.0000031424671
 20
378.7310279201645
 30
0.0
 10
114.0000031424671
 20
378.7200297661747
 30
0.0
 10
114.0000031424671
 20
378.7200297661747
 30
0.0
 10
114.0000031424671
 20
375.7400263270958
 30
0.0
 10
114.0000031424671
 20
375.7400263270958
 30
0.0
 10
114.0000031424671
 20
375.7200258687808
 30
0.0
 10
114.0199997860847
 20
375.7400263270958
 30
0.0
 10
114.0000031424671
 20
375.7400263270958
 30
0.0
 10
114.0000031424671
 20
375.7400263270958
 30
0.0
 10
108.0400038937041
 20
375.7400263270958
 30
0.0
 10
108.0400038937041
 20
375.7400263270958
 30
0.0
 10
108.0199996206917
 20
375.7400263270958
 30
0.0
 10
108.0400038937041
 20
375.7200258687808
 30
0.0
 10
108.0400038937041
 20
375.7400263270958
 30
0.0
 10
108.0400038937041
 20
375.7400263270958
 30
0.0
 10
108.0400038937041
 20
378.7200259514774
 30
0.0
 10
108.0400038937041
 20
378.7200259514774
 30
0.0
 10
108.0400038937041
 20
378.7310262035506
 30
0.0
 10
108.0310036874623
 20
378.7400264097923
 30
0.0
 10
108.0200034353891
 20
378.7400264097923
 30
0.0
 10
108.0200034353891
 20
378.7400264097923
 30
0.0
 10
102.0199994552987
 20
378.7400264097923
 30
0.0
 10
102.0199994552987
 20
378.7400264097923
 30
0.0
 10
102.0090013013089
 20
378.7400264097923
 30
0.0
 10
102.0000028116811
 20
378.7310279201645
 30
0.0
 10
102.0000028116811
 20
378.7200297661747
 30
0.0
 10
102.0000028116811
 20
378.7200297661747
 30
0.0
 10
102.0000028116811
 20
375.7400263270958
 30
0.0
 10
102.0000028116811
 20
375.7400263270958
 30
0.0
 10
102.0000028116811
 20
375.7200258687808
 30
0.0
 10
102.0199994552987
 20
375.7400263270958
 30
0.0
 10
102.0000028116811
 20
375.7400263270958
 30
0.0
 10
102.0000028116811
 20
375.7400263270958
 30
0.0
 10
96.04000356291807
 20
375.7400263270958
 30
0.0
 10
96.04000356291807
 20
375.7400263270958
 30
0.0
 10
96.01999928990572
 20
375.7400263270958
 30
0.0
 10
96.04000356291807
 20
375.7200258687808
 30
0.0
 10
96.04000356291807
 20
375.7400263270958
 30
0.0
 10
96.04000356291807
 20
375.7400263270958
 30
0.0
 10
96.04000356291807
 20
378.7200259514774
 30
0.0
 10
96.04000356291807
 20
378.7200259514774
 30
0.0
 10
96.04000356291807
 20
378.7310262035506
 30
0.0
 10
96.03100335667637
 20
378.7400264097923
 30
0.0
 10
96.02000310460308
 20
378.7400264097923
 30
0.0
 10
96.02000310460308
 20
378.7400264097923
 30
0.0
 10
90.01999912451271
 20
378.7400264097923
 30
0.0
 10
90.01999912451271
 20
378.7400264097923
 30
0.0
 10
90.00900097052289
 20
378.7400264097923
 30
0.0
 10
90.00000248089509
 20
378.7310279201645
 30
0.0
 10
90.00000248089509
 20
378.7200297661747
 30
0.0
 10
90.00000248089509
 20
378.7200297661747
 30
0.0
 10
90.00000248089509
 20
375.7400263270958
 30
0.0
 10
90.00000248089509
 20
375.7400263270958
 30
0.0
 10
90.00000248089509
 20
375.7200258687808
 30
0.0
 10
90.01999912451271
 20
375.7400263270958
 30
0.0
 10
90.00000248089509
 20
375.7400263270958
 30
0.0
 10
90.00000248089509
 20
375.7400263270958
 30
0.0
 10
84.04000323213207
 20
375.7400263270958
 30
0.0
 10
84.04000323213207
 20
375.7400263270958
 30
0.0
 10
84.0199989591197
 20
375.7400263270958
 30
0.0
 10
84.04000323213207
 20
375.7200258687808
 30
0.0
 10
84.04000323213207
 20
375.7400263270958
 30
0.0
 10
84.04000323213207
 20
375.7400263270958
 30
0.0
 10
84.04000323213207
 20
378.7200259514774
 30
0.0
 10
84.04000323213207
 20
378.7200259514774
 30
0.0
 10
84.04000323213207
 20
378.7310262035506
 30
0.0
 10
84.03100302589036
 20
378.7400264097923
 30
0.0
 10
84.02000277381707
 20
378.7400264097923
 30
0.0
 10
84.02000277381707
 20
378.7400264097923
 30
0.0
 10
78.0199987937267
 20
378.7400264097923
 30
0.0
 10
78.0199987937267
 20
378.7400264097923
 30
0.0
 10
78.00900063973687
 20
378.7400264097923
 30
0.0
 10
78.00000215010907
 20
378.7310279201645
 30
0.0
 10
78.00000215010907
 20
378.7200297661747
 30
0.0
 10
78.00000215010907
 20
378.7200297661747
 30
0.0
 10
78.00000215010907
 20
375.7400263270958
 30
0.0
 10
78.00000215010907
 20
375.7400263270958
 30
0.0
 10
78.00000215010907
 20
375.7200258687808
 30
0.0
 10
78.0199987937267
 20
375.7400263270958
 30
0.0
 10
78.00000215010907
 20
375.7400263270958
 30
0.0
 10
78.00000215010907
 20
375.7400263270958
 30
0.0
 10
70.04000284621506
 20
375.7400263270958
 30
0.0
 10
70.04000284621506
 20
375.7400263270958
 30
0.0
 10
70.01999857320268
 20
375.7400263270958
 30
0.0
 10
70.04000284621506
 20
375.7200258687808
 30
0.0
 10
70.04000284621506
 20
375.7400263270958
 30
0.0
 10
70.04000284621506
 20
375.7400263270958
 30
0.0
 10
70.04000284621506
 20
402.7200266130493
 30
0.0
 10
70.04000284621506
 20
402.7200266130493
 30
0.0
 10
70.04000284621506
 20
402.7310268651225
 30
0.0
 10
70.03100263997334
 20
402.7400270713643
 30
0.0
 10
70.02000238790007
 20
402.7400270713643
 30
0.0
 10
70.02000238790007
 20
402.7400270713643
 30
0.0
 10
61.04000259812554
 20
402.7400270713643
 30
0.0
 10
61.04000259812554
 20
402.7400270713643
 30
0.0
 10
61.02000213981055
 20
402.7400270713643
 30
0.0
 10
61.04000259812554
 20
402.7200266130493
 30
0.0
 10
61.04000259812554
 20
402.7400270713643
 30
0.0
 10
61.04000259812554
 20
402.7400270713643
 30
0.0
 10
61.04000259812554
 20
405.7200266957458
 30
0.0
 10
61.04000259812554
 20
405.7200266957458
 30
0.0
 10
61.04000259812554
 20
405.7310269478191
 30
0.0
 10
61.03100239188383
 20
405.7400271540608
 30
0.0
 10
61.02000213981055
 20
405.7400271540608
 30
0.0
 10
61.02000213981055
 20
405.7400271540608
 30
0.0
 10
55.02000197441755
 20
405.7400271540608
 30
0.0
 10
55.02000197441755
 20
405.7400271540608
 30
0.0
 10
55.00900172234427
 20
405.7400271540608
 30
0.0
 10
55.00000151610255
 20
405.7310269478191
 30
0.0
 10
55.00000151610255
 20
405.7200266957458
 30
0.0
 10
55.00000151610255
 20
405.7200266957458
 30
0.0
 10
55.00000151610255
 20
402.7400270713643
 30
0.0
 10
55.00000151610255
 20
402.7400270713643
 30
0.0
 10
55.00000151610255
 20
402.7200266130493
 30
0.0
 10
55.02000197441755
 20
402.7400270713643
 30
0.0
 10
55.00000151610255
 20
402.7400270713643
 30
0.0
 10
55.00000151610255
 20
402.7400270713643
 30
0.0
 10
49.04000226733953
 20
402.7400270713643
 30
0.0
 10
49.04000226733953
 20
402.7400270713643
 30
0.0
 10
49.02000180902454
 20
402.7400270713643
 30
0.0
 10
49.04000226733953
 20
402.7200266130493
 30
0.0
 10
49.04000226733953
 20
402.7400270713643
 30
0.0
 10
49.04000226733953
 20
402.7400270713643
 30
0.0
 10
49.04000226733953
 20
405.7200266957458
 30
0.0
 10
49.04000226733953
 20
405.7200266957458
 30
0.0
 10
49.04000226733953
 20
405.7310269478191
 30
0.0
 10
49.03100206109782
 20
405.7400271540608
 30
0.0
 10
49.02000180902454
 20
405.7400271540608
 30
0.0
 10
49.02000180902454
 20
405.7400271540608
 30
0.0
 10
43.02000164363153
 20
405.7400271540608
 30
0.0
 10
43.02000164363153
 20
405.7400271540608
 30
0.0
 10
43.00900139155825
 20
405.7400271540608
 30
0.0
 10
43.00000118531654
 20
405.7310269478191
 30
0.0
 10
43.00000118531654
 20
405.7200266957458
 30
0.0
 10
43.00000118531654
 20
405.7200266957458
 30
0.0
 10
43.00000118531654
 20
402.7400270713643
 30
0.0
 10
43.00000118531654
 20
402.7400270713643
 30
0.0
 10
43.00000118531654
 20
402.7200266130493
 30
0.0
 10
43.02000164363153
 20
402.7400270713643
 30
0.0
 10
43.00000118531654
 20
402.7400270713643
 30
0.0
 10
43.00000118531654
 20
402.7400270713643
 30
0.0
 10
37.04000193655352
 20
402.7400270713643
 30
0.0
 10
37.04000193655352
 20
402.7400270713643
 30
0.0
 10
37.02000147823853
 20
402.7400270713643
 30
0.0
 10
37.04000193655352
 20
402.7200266130493
 30
0.0
 10
37.04000193655352
 20
402.7400270713643
 30
0.0
 10
37.04000193655352
 20
402.7400270713643
 30
0.0
 10
37.04000193655352
 20
405.7200266957458
 30
0.0
 10
37.04000193655352
 20
405.7200266957458
 30
0.0
 10
37.04000193655352
 20
405.7310269478191
 30
0.0
 10
37.03100173031181
 20
405.7400271540608
 30
0.0
 10
37.02000147823853
 20
405.7400271540608
 30
0.0
 10
37.02000147823853
 20
405.7400271540608
 30
0.0
 10
31.02000131284552
 20
405.7400271540608
 30
0.0
 10
31.02000131284552
 20
405.7400271540608
 30
0.0
 10
31.00900106077224
 20
405.7400271540608
 30
0.0
 10
31.00000085453053
 20
405.7310269478191
 30
0.0
 10
31.00000085453053
 20
405.7200266957458
 30
0.0
 10
31.00000085453053
 20
405.7200266957458
 30
0.0
 10
31.00000085453053
 20
402.7400270713643
 30
0.0
 10
31.00000085453053
 20
402.7400270713643
 30
0.0
 10
31.00000085453053
 20
402.7200266130493
 30
0.0
 10
31.02000131284552
 20
402.7400270713643
 30
0.0
 10
31.00000085453053
 20
402.7400270713643
 30
0.0
 10
31.00000085453053
 20
402.7400270713643
 30
0.0
 10
25.04000160576751
 20
402.7400270713643
 30
0.0
 10
25.04000160576751
 20
402.7400270713643
 30
0.0
 10
25.02000114745252
 20
402.7400270713643
 30
0.0
 10
25.04000160576751
 20
402.7200266130493
 30
0.0
 10
25.04000160576751
 20
402.7400270713643
 30
0.0
 10
25.04000160576751
 20
402.7400270713643
 30
0.0
 10
25.04000160576751
 20
405.7200266957458
 30
0.0
 10
25.04000160576751
 20
405.7200266957458
 30
0.0
 10
25.04000160576751
 20
405.7310269478191
 30
0.0
 10
25.0310013995258
 20
405.7400271540608
 30
0.0
 10
25.02000114745252
 20
405.7400271540608
 30
0.0
 10
25.02000114745252
 20
405.7400271540608
 30
0.0
 10
19.02000098205951
 20
405.7400271540608
 30
0.0
 10
19.02000098205951
 20
405.7400271540608
 30
0.0
 10
19.00900072998623
 20
405.7400271540608
 30
0.0
 10
19.00000052374451
 20
405.7310269478191
 30
0.0
 10
19.00000052374451
 20
405.7200266957458
 30
0.0
 10
19.00000052374451
 20
405.7200266957458
 30
0.0
 10
19.00000052374451
 20
402.7400270713643
 30
0.0
 10
19.00000052374451
 20
402.7400270713643
 30
0.0
 10
19.00000052374451
 20
402.7200266130493
 30
0.0
 10
19.02000098205951
 20
402.7400270713643
 30
0.0
 10
19.00000052374451
 20
402.7400270713643
 30
0.0
 10
19.00000052374451
 20
402.7400270713643
 30
0.0
 10
10.02000073397
 20
402.7400270713643
 30
0.0
 10
10.02000073397
 20
402.7400270713643
 30
0.0
 10
10.00900048189672
 20
402.7400270713643
 30
0.0
 10
10.00000027565501
 20
402.7310268651225
 30
0.0
 10
10.00000027565501
 20
402.7200266130493
 30
0.0
 10
10.00000027565501
 20
402.7200266130493
 30
0.0
 10
10.00000027565501
 20
293.8866514046901
 30
0.0
 10
10.00000027565501
 20
293.8866514046901
 30
0.0
 10
10.00000027565501
 20
289.3840099395416
 30
0.0
 10
13.68397965623112
 20
285.7000305589655
 30
0.0
 10
18.18662112137956
 20
285.7000305589655
 30
0.0
  0
SPLINE
  5
7C
330
70
100
AcDbEntity
  8
Layer 1
 62
    18
420
        0
370
     5
100
AcDbSpline
210
0.0
220
0.0
230
1.0
 70
     9
 71
     3
 72
    23
 73
    19
 74
     0
 42
0.0000000001
 43
0.0000000001
 40
0.0
 40
0.0
 40
0.0
 40
0.0
 40
1.0
 40
1.0
 40
1.0
 40
2.0
 40
2.0
 40
2.0
 40
3.0
 40
3.0
 40
3.0
 40
4.0
 40
4.0
 40
4.0
 40
5.0
 40
5.0
 40
5.0
 40
6.0
 40
6.0
 40
6.0
 40
6.0
 10
92.59627147675521
 20
325.8746921512838
 30
0.0
 10
92.59627147675521
 20
325.8746921512838
 30
0.0
 10
36.18778475794745
 20
308.2428803216353
 30
0.0
 10
36.18778475794745
 20
308.2428803216353
 30
0.0
 10
34.94281888564545
 20
307.8537366790453
 30
0.0
 10
33.76894129388367
 20
309.238891856857
 30
0.0
 10
33.76894129388367
 20
311.0970736140834
 30
0.0
 10
33.76894129388367
 20
311.0970736140834
 30
0.0
 10
33.76894129388367
 20
346.3606704377881
 30
0.0
 10
33.76894129388367
 20
346.3606704377881
 30
0.0
 10
33.76894129388367
 20
348.2188518330712
 30
0.0
 10
34.9428184549223
 20
349.6040069317733
 30
0.0
 10
36.18778416549817
 20
349.214863915421
 30
0.0
 10
36.18778416549817
 20
349.214863915421
 30
0.0
 10
92.59627027441398
 20
331.5830783603611
 30
0.0
 10
92.59627027441398
 20
331.5830783603611
 30
0.0
 10
95.39390993663381
 20
330.708610953288
 30
0.0
 10
95.39391077060161
 20
326.749160736875
 30
0.0
 10
92.59627147675521
 20
325.8746921512838
 30
0.0
  0
SPLINE
  5
7D
330
70
100
AcDbEntity
  8
Layer 1
 62
    18
420
        0
370
     5
100
AcDbSpline
210
0.0
220
0.0
230
1.0
 70
     9
 71
     3
 72
    23
 73
    19
 74
     0
 42
0.0000000001
 43
0.0000000001
 40
0.0
 40
0.0
 40
0.0
 40
0.0
 40
1.0
 40
1.0
 40
1.0
 40
2.0
 40
2.0
 40
2.0
 40
3.0
 40
3.0
 40
3.0
 40
4.0
 40
4.0
 40
4.0
 40
5.0
 40
5.0
 40
5.0
 40
6.0
 40
6.0
 40
6.0
 40
6.0
 10
124.43884305638
 20
321.6299139111275
 30
0.0
 10
124.43884305638
 20
321.6299139111275
 30
0.0
 10
176.6214476279136
 20
305.3190210211575
 30
0.0
 10
176.6214476279136
 20
305.3190210211575
 30
0.0
 10
178.9674606664562
 20
304.5857198050854
 30
0.0
 10
178.6018191422914
 20
299.545908463007
 30
0.0
 10
176.2026046332739
 20
299.545908463007
 30
0.0
 10
176.2026046332739
 20
299.545908463007
 30
0.0
 10
71.8373954902055
 20
299.545908463007
 30
0.0
 10
71.8373954902055
 20
299.545908463007
 30
0.0
 10
69.43818098118804
 20
299.545908463007
 30
0.0
 10
69.07253945702326
 20
304.5857198050841
 30
0.0
 10
71.41855249556581
 20
305.3190210211575
 30
0.0
 10
71.41855249556581
 20
305.3190210211575
 30
0.0
 10
123.6011570670994
 20
321.6299139111275
 30
0.0
 10
123.6011570670994
 20
321.6299139111275
 30
0.0
 10
123.8738795532004
 20
321.7151596993744
 30
0.0
 10
124.166120570279
 20
321.7151596993744
 30
0.0
 10
124.43884305638
 20
321.6299139111275
 30
0.0
  0
SPLINE
  5
7E
330
70
100
AcDbEntity
  8
Layer 1
 62
    18
420
        0
370
     5
100
AcDbSpline
210
0.0
220
0.0
230
1.0
 70
     9
 71
     3
 72
    23
 73
    19
 74
     0
 42
0.0000000001
 43
0.0000000001
 40
0.0
 40
0.0
 40
0.0
 40
0.0
 40
1.0
 40
1.0
 40
1.0
 40
2.0
 40
2.0
 40
2.0
 40
3.0
 40
3.0
 40
3.0
 40
4.0
 40
4.0
 40
4.0
 40
5.0
 40
5.0
 40
5.0
 40
6.0
 40
6.0
 40
6.0
 40
6.0
 10
155.4437316438563
 20
331.5830789213635
 30
0.0
 10
155.4437316438563
 20
331.5830789213635
 30
0.0
 10
211.8522159579813
 20
349.214863915421
 30
0.0
 10
211.8522159579813
 20
349.214863915421
 30
0.0
 10
213.0971816685572
 20
349.6040069317733
 30
0.0
 10
214.2710588295958
 20
348.2188518330712
 30
0.0
 10
214.2710588295958
 20
346.3606704377881
 30
0.0
 10
214.2710588295958
 20
346.3606704377881
 30
0.0
 10
214.2710588295958
 20
311.0970736140834
 30
0.0
 10
214.2710588295958
 20
311.0970736140834
 30
0.0
 10
214.2710588295958
 20
309.238891856857
 30
0.0
 10
213.0971812378346
 20
307.8537366790453
 30
0.0
 10
211.852215365532
 20
308.2428803216353
 30
0.0
 10
211.852215365532
 20
308.2428803216353
 30
0.0
 10
155.4437304415148
 20
325.8746915902797
 30
0.0
 10
155.4437304415148
 20
325.8746915902797
 30
0.0
 10
152.6460905977813
 20
326.7491603477509
 30
0.0
 10
152.6460914317491
 20
330.7086113424102
 30
0.0
 10
155.4437316438563
 20
331.5830789213635
 30
0.0
  0
SPLINE
  5
7F
330
70
100
AcDbEntity
  8
Layer 1
 62
    18
420
        0
370
     5
100
AcDbSpline
210
0.0
220
0.0
230
1.0
 70
     9
 71
     3
 72
    23
 73
    19
 74
     0
 42
0.0000000001
 43
0.0000000001
 40
0.0
 40
0.0
 40
0.0
 40
0.0
 40
1.0
 40
1.0
 40
1.0
 40
2.0
 40
2.0
 40
2.0
 40
3.0
 40
3.0
 40
3.0
 40
4.0
 40
4.0
 40
4.0
 40
5.0
 40
5.0
 40
5.0
 40
6.0
 40
6.0
 40
6.0
 40
6.0
 10
176.6215375809154
 20
352.1387533624519
 30
0.0
 10
176.6215375809154
 20
352.1387533624519
 30
0.0
 10
124.4388430683946
 20
335.8278290525415
 30
0.0
 10
124.4388430683946
 20
335.8278290525415
 30
0.0
 10
124.1661205751072
 20
335.7425832447661
 30
0.0
 10
123.8738795444328
 20
335.7425832321605
 30
0.0
 10
123.6011570437916
 20
335.8278290164084
 30
0.0
 10
123.6011570437916
 20
335.8278290164084
 30
0.0
 10
71.41844672763522
 20
352.1387533245277
 30
0.0
 10
71.41844672763522
 20
352.1387533245277
 30
0.0
 10
69.07243365457055
 20
352.8720544778937
 30
0.0
 10
69.43807514836049
 20
357.9118658952241
 30
0.0
 10
71.83728968213727
 20
357.9118658952241
 30
0.0
 10
71.83728968213727
 20
357.9118658952241
 30
0.0
 10
176.2026945050854
 20
357.9118658952241
 30
0.0
 10
176.2026945050854
 20
357.9118658952241
 30
0.0
 10
178.6019089640227
 20
357.9118658952241
 30
0.0
 10
178.9675505496282
 20
352.8720547053625
 30
0.0
 10
176.6215375809154
 20
352.1387533624519
 30
0.0
  0
SPLINE
  5
80
330
70
100
AcDbEntity
  8
Layer 1
 62
     5
420
      255
370
     5
100
AcDbSpline
210
0.0
220
0.0
230
1.0
 70
    11
 71
     3
 72
    32
 73
    28
 74
     0
 42
0.0000000001
 43
0.0000000001
 40
0.0
 40
0.0
 40
0.0
 40
0.0
 40
1.0
 40
1.0
 40
1.0
 40
2.0
 40
2.0
 40
2.0
 40
3.0
 40
3.0
 40
3.0
 40
4.0
 40
4.0
 40
4.0
 40
5.0
 40
5.0
 40
5.0
 40
6.0
 40
6.0
 40
6.0
 40
7.0
 40
7.0
 40
7.0
 40
8.0
 40
8.0
 40
8.0
 40
9.0
 40
9.0
 40
9.0
 40
9.0
 10
81.14906534037301
 20
33.54003901942615
 30
0.0
 10
81.14906534037301
 20
33.54003901942615
 30
0.0
 10
81.14906534037301
 20
30.56002795095253
 30
0.0
 10
81.14906534037301
 20
30.56002795095253
 30
0.0
 10
81.14906534037301
 20
30.54003893672965
 30
0.0
 10
81.16906198399062
 20
30.56002795095253
 30
0.0
 10
81.14906534037301
 20
30.56002795095253
 30
0.0
 10
81.14906534037301
 20
30.56002795095253
 30
0.0
 10
78.18906617430648
 20
30.56002795095253
 30
0.0
 10
78.18906617430648
 20
30.56002795095253
 30
0.0
 10
78.16906190129413
 20
30.56002795095253
 30
0.0
 10
78.18906617430648
 20
30.54003893672965
 30
0.0
 10
78.18906617430648
 20
30.56002795095253
 30
0.0
 10
78.18906617430648
 20
30.56002795095253
 30
0.0
 10
78.18906617430648
 20
36.5200195703208
 30
0.0
 10
78.18906617430648
 20
36.5200195703208
 30
0.0
 10
78.18906617430648
 20
36.54003910212265
 30
0.0
 10
78.16906190129413
 20
36.5200195703208
 30
0.0
 10
78.18906617430648
 20
36.5200195703208
 30
0.0
 10
78.18906617430648
 20
36.5200195703208
 30
0.0
 10
81.14906534037301
 20
36.5200195703208
 30
0.0
 10
81.14906534037301
 20
36.5200195703208
 30
0.0
 10
81.16906198399062
 20
36.5200195703208
 30
0.0
 10
81.14906534037301
 20
36.54003910212265
 30
0.0
 10
81.14906534037301
 20
36.5200195703208
 30
0.0
 10
81.14906534037301
 20
36.5200195703208
 30
0.0
 10
81.14906534037301
 20
33.54003901942615
 30
0.0
 10
81.14906534037301
 20
33.54003901942615
 30
0.0
  0
SPLINE
  5
81
330
70
100
AcDbEntity
  8
Layer 1
 62
     5
420
      255
370
     5
100
AcDbSpline
210
0.0
220
0.0
230
1.0
 70
    11
 71
     3
 72
    32
 73
    28
 74
     0
 42
0.0000000001
 43
0.0000000001
 40
0.0
 40
0.0
 40
0.0
 40
0.0
 40
1.0
 40
1.0
 40
1.0
 40
2.0
 40
2.0
 40
2.0
 40
3.0
 40
3.0
 40
3.0
 40
4.0
 40
4.0
 40
4.0
 40
5.0
 40
5.0
 40
5.0
 40
6.0
 40
6.0
 40
6.0
 40
7.0
 40
7.0
 40
7.0
 40
8.0
 40
8.0
 40
8.0
 40
9.0
 40
9.0
 40
9.0
 40
9.0
 10
81.14906534037301
 20
45.54003935021215
 30
0.0
 10
81.14906534037301
 20
45.54003935021215
 30
0.0
 10
81.14906534037301
 20
42.56002828173854
 30
0.0
 10
81.14906534037301
 20
42.56002828173854
 30
0.0
 10
81.14906534037301
 20
42.54003926751565
 30
0.0
 10
81.16906198399062
 20
42.56002828173854
 30
0.0
 10
81.14906534037301
 20
42.56002828173854
 30
0.0
 10
81.14906534037301
 20
42.56002828173854
 30
0.0
 10
78.18906617430648
 20
42.56002828173854
 30
0.0
 10
78.18906617430648
 20
42.56002828173854
 30
0.0
 10
78.16906190129413
 20
42.56002828173854
 30
0.0
 10
78.18906617430648
 20
42.54003926751565
 30
0.0
 10
78.18906617430648
 20
42.56002828173854
 30
0.0
 10
78.18906617430648
 20
42.56002828173854
 30
0.0
 10
78.18906617430648
 20
48.52001990110681
 30
0.0
 10
78.18906617430648
 20
48.52001990110681
 30
0.0
 10
78.18906617430648
 20
48.54003943290866
 30
0.0
 10
78.16906190129413
 20
48.52001990110681
 30
0.0
 10
78.18906617430648
 20
48.52001990110681
 30
0.0
 10
78.18906617430648
 20
48.52001990110681
 30
0.0
 10
81.14906534037301
 20
48.52001990110681
 30
0.0
 10
81.14906534037301
 20
48.52001990110681
 30
0.0
 10
81.16906198399062
 20
48.52001990110681
 30
0.0
 10
81.14906534037301
 20
48.54003943290866
 30
0.0
 10
81.14906534037301
 20
48.52001990110681
 30
0.0
 10
81.14906534037301
 20
48.52001990110681
 30
0.0
 10
81.14906534037301
 20
45.54003935021215
 30
0.0
 10
81.14906534037301
 20
45.54003935021215
 30
0.0
  0
SPLINE
  5
82
330
70
100
AcDbEntity
  8
Layer 1
 62
     5
420
      255
370
     5
100
AcDbSpline
210
0.0
220
0.0
230
1.0
 70
    11
 71
     3
 72
    32
 73
    28
 74
     0
 42
0.0000000001
 43
0.0000000001
 40
0.0
 40
0.0
 40
0.0
 40
0.0
 40
1.0
 40
1.0
 40
1.0
 40
2.0
 40
2.0
 40
2.0
 40
3.0
 40
3.0
 40
3.0
 40
4.0
 40
4.0
 40
4.0
 40
5.0
 40
5.0
 40
5.0
 40
6.0
 40
6.0
 40
6.0
 40
7.0
 40
7.0
 40
7.0
 40
8.0
 40
8.0
 40
8.0
 40
9.0
 40
9.0
 40
9.0
 40
9.0
 10
81.14906534037301
 20
57.54003968099817
 30
0.0
 10
81.14906534037301
 20
57.54003968099817
 30
0.0
 10
81.14906534037301
 20
54.56002861252454
 30
0.0
 10
81.14906534037301
 20
54.56002861252454
 30
0.0
 10
81.14906534037301
 20
54.54003959830167
 30
0.0
 10
81.16906198399062
 20
54.56002861252454
 30
0.0
 10
81.14906534037301
 20
54.56002861252454
 30
0.0
 10
81.14906534037301
 20
54.56002861252454
 30
0.0
 10
78.18906617430648
 20
54.56002861252454
 30
0.0
 10
78.18906617430648
 20
54.56002861252454
 30
0.0
 10
78.16906190129413
 20
54.56002861252454
 30
0.0
 10
78.18906617430648
 20
54.54003959830167
 30
0.0
 10
78.18906617430648
 20
54.56002861252454
 30
0.0
 10
78.18906617430648
 20
54.56002861252454
 30
0.0
 10
78.18906617430648
 20
60.52002023189282
 30
0.0
 10
78.18906617430648
 20
60.52002023189282
 30
0.0
 10
78.18906617430648
 20
60.54003976369467
 30
0.0
 10
78.16906190129413
 20
60.52002023189282
 30
0.0
 10
78.18906617430648
 20
60.52002023189282
 30
0.0
 10
78.18906617430648
 20
60.52002023189282
 30
0.0
 10
81.14906534037301
 20
60.52002023189282
 30
0.0
 10
81.14906534037301
 20
60.52002023189282
 30
0.0
 10
81.16906198399062
 20
60.52002023189282
 30
0.0
 10
81.14906534037301
 20
60.54003976369467
 30
0.0
 10
81.14906534037301
 20
60.52002023189282
 30
0.0
 10
81.14906534037301
 20
60.52002023189282
 30
0.0
 10
81.14906534037301
 20
57.54003968099817
 30
0.0
 10
81.14906534037301
 20
57.54003968099817
 30
0.0
  0
SPLINE
  5
83
330
70
100
AcDbEntity
  8
Layer 1
 62
     5
420
      255
370
     5
100
AcDbSpline
210
0.0
220
0.0
230
1.0
 70
    11
 71
     3
 72
    32
 73
    28
 74
     0
 42
0.0000000001
 43
0.0000000001
 40
0.0
 40
0.0
 40
0.0
 40
0.0
 40
1.0
 40
1.0
 40
1.0
 40
2.0
 40
2.0
 40
2.0
 40
3.0
 40
3.0
 40
3.0
 40
4.0
 40
4.0
 40
4.0
 40
5.0
 40
5.0
 40
5.0
 40
6.0
 40
6.0
 40
6.0
 40
7.0
 40
7.0
 40
7.0
 40
8.0
 40
8.0
 40
8.0
 40
9.0
 40
9.0
 40
9.0
 40
9.0
 10
81.14906534037301
 20
69.54004001178418
 30
0.0
 10
81.14906534037301
 20
69.54004001178418
 30
0.0
 10
81.14906534037301
 20
66.56002894331056
 30
0.0
 10
81.14906534037301
 20
66.56002894331056
 30
0.0
 10
81.14906534037301
 20
66.54003992908768
 30
0.0
 10
81.16906198399062
 20
66.56002894331056
 30
0.0
 10
81.14906534037301
 20
66.56002894331056
 30
0.0
 10
81.14906534037301
 20
66.56002894331056
 30
0.0
 10
78.18906617430648
 20
66.56002894331056
 30
0.0
 10
78.18906617430648
 20
66.56002894331056
 30
0.0
 10
78.16906190129413
 20
66.56002894331056
 30
0.0
 10
78.18906617430648
 20
66.54003992908768
 30
0.0
 10
78.18906617430648
 20
66.56002894331056
 30
0.0
 10
78.18906617430648
 20
66.56002894331056
 30
0.0
 10
78.18906617430648
 20
72.52002056267883
 30
0.0
 10
78.18906617430648
 20
72.52002056267883
 30
0.0
 10
78.18906617430648
 20
72.54004009448069
 30
0.0
 10
78.16906190129413
 20
72.52002056267883
 30
0.0
 10
78.18906617430648
 20
72.52002056267883
 30
0.0
 10
78.18906617430648
 20
72.52002056267883
 30
0.0
 10
81.14906534037301
 20
72.52002056267883
 30
0.0
 10
81.14906534037301
 20
72.52002056267883
 30
0.0
 10
81.16906198399062
 20
72.52002056267883
 30
0.0
 10
81.14906534037301
 20
72.54004009448069
 30
0.0
 10
81.14906534037301
 20
72.52002056267883
 30
0.0
 10
81.14906534037301
 20
72.52002056267883
 30
0.0
 10
81.14906534037301
 20
69.54004001178418
 30
0.0
 10
81.14906534037301
 20
69.54004001178418
 30
0.0
  0
SPLINE
  5
84
330
70
100
AcDbEntity
  8
Layer 1
 62
    18
420
        0
370
     5
100
AcDbSpline
210
0.0
220
0.0
230
1.0
 70
    11
 71
     3
 72
    41
 73
    37
 74
     0
 42
0.0000000001
 43
0.0000000001
 40
0.0
 40
0.0
 40
0.0
 40
0.0
 40
1.0
 40
1.0
 40
1.0
 40
2.0
 40
2.0
 40
2.0
 40
3.0
 40
3.0
 40
3.0
 40
4.0
 40
4.0
 40
4.0
 40
5.0
 40
5.0
 40
5.0
 40
6.0
 40
6.0
 40
6.0
 40
7.0
 40
7.0
 40
7.0
 40
8.0
 40
8.0
 40
8.0
 40
9.0
 40
9.0
 40
9.0
 40
10.0
 40
10.0
 40
10.0
 40
11.0
 40
11.0
 40
11.0
 40
12.0
 40
12.0
 40
12.0
 40
12.0
 10
16.01999899201432
 20
21.52001915683829
 30
0.0
 10
16.01999899201432
 20
21.52001915683829
 30
0.0
 10
91.98999612785357
 20
21.52001915683829
 30
0.0
 10
91.98999612785357
 20
21.52001915683829
 30
0.0
 10
91.98999612785357
 20
21.52001915683829
 30
0.0
 10
97.98999629324658
 20
21.52001915683829
 30
0.0
 10
97.98999629324658
 20
21.52001915683829
 30
0.0
 10
98.0009978804639
 20
21.52001915683829
 30
0.0
 10
98.01000056625895
 20
21.52902184263333
 30
0.0
 10
98.01000056625895
 20
21.54003868864013
 30
0.0
 10
98.01000056625895
 20
21.54003868864013
 30
0.0
 10
98.01000056625895
 20
81.54004034257019
 30
0.0
 10
98.01000056625895
 20
81.54004034257019
 30
0.0
 10
98.01000056625895
 20
81.55102667099804
 30
0.0
 10
98.0009978804639
 20
81.56002935679307
 30
0.0
 10
97.98999629324658
 20
81.56002935679307
 30
0.0
 10
97.98999629324658
 20
81.56002935679307
 30
0.0
 10
91.98999612785357
 20
81.56002935679307
 30
0.0
 10
91.98999612785357
 20
81.56002935679307
 30
0.0
 10
91.98999612785357
 20
81.56002935679307
 30
0.0
 10
16.01999899201432
 20
81.56002935679307
 30
0.0
 10
16.01999899201432
 20
81.56002935679307
 30
0.0
 10
16.01999899201432
 20
81.56002935679307
 30
0.0
 10
10.01999882662132
 20
81.56002935679307
 30
0.0
 10
10.01999882662132
 20
81.56002935679307
 30
0.0
 10
10.00899819307849
 20
81.56002935679307
 30
0.0
 10
9.999998368306323
 20
81.55102667099804
 30
0.0
 10
9.999998368306323
 20
81.54004034257019
 30
0.0
 10
9.999998368306323
 20
81.54004034257019
 30
0.0
 10
9.999998368306323
 20
21.54003868864013
 30
0.0
 10
9.999998368306323
 20
21.54003868864013
 30
0.0
 10
9.999998368306323
 20
21.52902184263333
 30
0.0
 10
10.00899819307849
 20
21.52001915683829
 30
0.0
 10
10.01999882662132
 20
21.52001915683829
 30
0.0
 10
10.01999882662132
 20
21.52001915683829
 30
0.0
 10
16.01999899201432
 20
21.52001915683829
 30
0.0
 10
16.01999899201432
 20
21.52001915683829
 30
0.0
  0
SPLINE
  5
85
330
70
100
AcDbEntity
  8
Layer 1
 62
     5
420
      255
370
     5
100
AcDbSpline
210
0.0
220
0.0
230
1.0
 70
    11
 71
     3
 72
    32
 73
    28
 74
     0
 42
0.0000000001
 43
0.0000000001
 40
0.0
 40
0.0
 40
0.0
 40
0.0
 40
1.0
 40
1.0
 40
1.0
 40
2.0
 40
2.0
 40
2.0
 40
3.0
 40
3.0
 40
3.0
 40
4.0
 40
4.0
 40
4.0
 40
5.0
 40
5.0
 40
5.0
 40
6.0
 40
6.0
 40
6.0
 40
7.0
 40
7.0
 40
7.0
 40
8.0
 40
8.0
 40
8.0
 40
9.0
 40
9.0
 40
9.0
 40
9.0
 10
13.03999841395831
 20
69.54004001178418
 30
0.0
 10
13.03999841395831
 20
69.54004001178418
 30
0.0
 10
13.03999841395831
 20
72.52002056267883
 30
0.0
 10
13.03999841395831
 20
72.52002056267883
 30
0.0
 10
13.03999841395831
 20
72.54004009448069
 30
0.0
 10
13.01999890931782
 20
72.52002056267883
 30
0.0
 10
13.03999841395831
 20
72.52002056267883
 30
0.0
 10
13.03999841395831
 20
72.52002056267883
 30
0.0
 10
15.99999853369933
 20
72.52002056267883
 30
0.0
 10
15.99999853369933
 20
72.52002056267883
 30
0.0
 10
16.01999899201432
 20
72.52002056267883
 30
0.0
 10
15.99999853369933
 20
72.54004009448069
 30
0.0
 10
15.99999853369933
 20
72.52002056267883
 30
0.0
 10
15.99999853369933
 20
72.52002056267883
 30
0.0
 10
15.99999853369933
 20
66.56002894331056
 30
0.0
 10
15.99999853369933
 20
66.56002894331056
 30
0.0
 10
15.99999853369933
 20
66.54003992908768
 30
0.0
 10
16.01999899201432
 20
66.56002894331056
 30
0.0
 10
15.99999853369933
 20
66.56002894331056
 30
0.0
 10
15.99999853369933
 20
66.56002894331056
 30
0.0
 10
13.03999841395831
 20
66.56002894331056
 30
0.0
 10
13.03999841395831
 20
66.56002894331056
 30
0.0
 10
13.01999890931782
 20
66.56002894331056
 30
0.0
 10
13.03999841395831
 20
66.54003992908768
 30
0.0
 10
13.03999841395831
 20
66.56002894331056
 30
0.0
 10
13.03999841395831
 20
66.56002894331056
 30
0.0
 10
13.03999841395831
 20
69.54004001178418
 30
0.0
 10
13.03999841395831
 20
69.54004001178418
 30
0.0
  0
SPLINE
  5
86
330
70
100
AcDbEntity
  8
Layer 1
 62
     5
420
      255
370
     5
100
AcDbSpline
210
0.0
220
0.0
230
1.0
 70
    11
 71
     3
 72
    32
 73
    28
 74
     0
 42
0.0000000001
 43
0.0000000001
 40
0.0
 40
0.0
 40
0.0
 40
0.0
 40
1.0
 40
1.0
 40
1.0
 40
2.0
 40
2.0
 40
2.0
 40
3.0
 40
3.0
 40
3.0
 40
4.0
 40
4.0
 40
4.0
 40
5.0
 40
5.0
 40
5.0
 40
6.0
 40
6.0
 40
6.0
 40
7.0
 40
7.0
 40
7.0
 40
8.0
 40
8.0
 40
8.0
 40
9.0
 40
9.0
 40
9.0
 40
9.0
 10
13.03999841395831
 20
57.54003968099817
 30
0.0
 10
13.03999841395831
 20
57.54003968099817
 30
0.0
 10
13.03999841395831
 20
60.52002023189282
 30
0.0
 10
13.03999841395831
 20
60.52002023189282
 30
0.0
 10
13.03999841395831
 20
60.54003976369467
 30
0.0
 10
13.01999890931782
 20
60.52002023189282
 30
0.0
 10
13.03999841395831
 20
60.52002023189282
 30
0.0
 10
13.03999841395831
 20
60.52002023189282
 30
0.0
 10
15.99999853369933
 20
60.52002023189282
 30
0.0
 10
15.99999853369933
 20
60.52002023189282
 30
0.0
 10
16.01999899201432
 20
60.52002023189282
 30
0.0
 10
15.99999853369933
 20
60.54003976369467
 30
0.0
 10
15.99999853369933
 20
60.52002023189282
 30
0.0
 10
15.99999853369933
 20
60.52002023189282
 30
0.0
 10
15.99999853369933
 20
54.56002861252454
 30
0.0
 10
15.99999853369933
 20
54.56002861252454
 30
0.0
 10
15.99999853369933
 20
54.54003959830167
 30
0.0
 10
16.01999899201432
 20
54.56002861252454
 30
0.0
 10
15.99999853369933
 20
54.56002861252454
 30
0.0
 10
15.99999853369933
 20
54.56002861252454
 30
0.0
 10
13.03999841395831
 20
54.56002861252454
 30
0.0
 10
13.03999841395831
 20
54.56002861252454
 30
0.0
 10
13.01999890931782
 20
54.56002861252454
 30
0.0
 10
13.03999841395831
 20
54.54003959830167
 30
0.0
 10
13.03999841395831
 20
54.56002861252454
 30
0.0
 10
13.03999841395831
 20
54.56002861252454
 30
0.0
 10
13.03999841395831
 20
57.54003968099817
 30
0.0
 10
13.03999841395831
 20
57.54003968099817
 30
0.0
  0
SPLINE
  5
87
330
70
100
AcDbEntity
  8
Layer 1
 62
     5
420
      255
370
     5
100
AcDbSpline
210
0.0
220
0.0
230
1.0
 70
    11
 71
     3
 72
    32
 73
    28
 74
     0
 42
0.0000000001
 43
0.0000000001
 40
0.0
 40
0.0
 40
0.0
 40
0.0
 40
1.0
 40
1.0
 40
1.0
 40
2.0
 40
2.0
 40
2.0
 40
3.0
 40
3.0
 40
3.0
 40
4.0
 40
4.0
 40
4.0
 40
5.0
 40
5.0
 40
5.0
 40
6.0
 40
6.0
 40
6.0
 40
7.0
 40
7.0
 40
7.0
 40
8.0
 40
8.0
 40
8.0
 40
9.0
 40
9.0
 40
9.0
 40
9.0
 10
13.03999841395831
 20
45.54003935021215
 30
0.0
 10
13.03999841395831
 20
45.54003935021215
 30
0.0
 10
13.03999841395831
 20
48.52001990110681
 30
0.0
 10
13.03999841395831
 20
48.52001990110681
 30
0.0
 10
13.03999841395831
 20
48.54003943290866
 30
0.0
 10
13.01999890931782
 20
48.52001990110681
 30
0.0
 10
13.03999841395831
 20
48.52001990110681
 30
0.0
 10
13.03999841395831
 20
48.52001990110681
 30
0.0
 10
15.99999853369933
 20
48.52001990110681
 30
0.0
 10
15.99999853369933
 20
48.52001990110681
 30
0.0
 10
16.01999899201432
 20
48.52001990110681
 30
0.0
 10
15.99999853369933
 20
48.54003943290866
 30
0.0
 10
15.99999853369933
 20
48.52001990110681
 30
0.0
 10
15.99999853369933
 20
48.52001990110681
 30
0.0
 10
15.99999853369933
 20
42.56002828173854
 30
0.0
 10
15.99999853369933
 20
42.56002828173854
 30
0.0
 10
15.99999853369933
 20
42.54003926751565
 30
0.0
 10
16.01999899201432
 20
42.56002828173854
 30
0.0
 10
15.99999853369933
 20
42.56002828173854
 30
0.0
 10
15.99999853369933
 20
42.56002828173854
 30
0.0
 10
13.03999841395831
 20
42.56002828173854
 30
0.0
 10
13.03999841395831
 20
42.56002828173854
 30
0.0
 10
13.01999890931782
 20
42.56002828173854
 30
0.0
 10
13.03999841395831
 20
42.54003926751565
 30
0.0
 10
13.03999841395831
 20
42.56002828173854
 30
0.0
 10
13.03999841395831
 20
42.56002828173854
 30
0.0
 10
13.03999841395831
 20
45.54003935021215
 30
0.0
 10
13.03999841395831
 20
45.54003935021215
 30
0.0
  0
SPLINE
  5
88
330
70
100
AcDbEntity
  8
Layer 1
 62
     5
420
      255
370
     5
100
AcDbSpline
210
0.0
220
0.0
230
1.0
 70
    11
 71
     3
 72
    32
 73
    28
 74
     0
 42
0.0000000001
 43
0.0000000001
 40
0.0
 40
0.0
 40
0.0
 40
0.0
 40
1.0
 40
1.0
 40
1.0
 40
2.0
 40
2.0
 40
2.0
 40
3.0
 40
3.0
 40
3.0
 40
4.0
 40
4.0
 40
4.0
 40
5.0
 40
5.0
 40
5.0
 40
6.0
 40
6.0
 40
6.0
 40
7.0
 40
7.0
 40
7.0
 40
8.0
 40
8.0
 40
8.0
 40
9.0
 40
9.0
 40
9.0
 40
9.0
 10
13.03999841395831
 20
33.54003901942615
 30
0.0
 10
13.03999841395831
 20
33.54003901942615
 30
0.0
 10
13.03999841395831
 20
36.5200195703208
 30
0.0
 10
13.03999841395831
 20
36.5200195703208
 30
0.0
 10
13.03999841395831
 20
36.54003910212265
 30
0.0
 10
13.01999890931782
 20
36.5200195703208
 30
0.0
 10
13.03999841395831
 20
36.5200195703208
 30
0.0
 10
13.03999841395831
 20
36.5200195703208
 30
0.0
 10
15.99999853369933
 20
36.5200195703208
 30
0.0
 10
15.99999853369933
 20
36.5200195703208
 30
0.0
 10
16.01999899201432
 20
36.5200195703208
 30
0.0
 10
15.99999853369933
 20
36.54003910212265
 30
0.0
 10
15.99999853369933
 20
36.5200195703208
 30
0.0
 10
15.99999853369933
 20
36.5200195703208
 30
0.0
 10
15.99999853369933
 20
30.56002795095253
 30
0.0
 10
15.99999853369933
 20
30.56002795095253
 30
0.0
 10
15.99999853369933
 20
30.54003893672965
 30
0.0
 10
16.01999899201432
 20
30.56002795095253
 30
0.0
 10
15.99999853369933
 20
30.56002795095253
 30
0.0
 10
15.99999853369933
 20
30.56002795095253
 30
0.0
 10
13.03999841395831
 20
30.56002795095253
 30
0.0
 10
13.03999841395831
 20
30.56002795095253
 30
0.0
 10
13.01999890931782
 20
30.56002795095253
 30
0.0
 10
13.03999841395831
 20
30.54003893672965
 30
0.0
 10
13.03999841395831
 20
30.56002795095253
 30
0.0
 10
13.03999841395831
 20
30.56002795095253
 30
0.0
 10
13.03999841395831
 20
33.54003901942615
 30
0.0
 10
13.03999841395831
 20
33.54003901942615
 30
0.0
  0
SPLINE
  5
89
330
70
100
AcDbEntity
  8
Layer 1
 62
    18
420
        0
370
     5
100
AcDbSpline
210
0.0
220
0.0
230
1.0
 70
    11
 71
     3
 72
    17
 73
    13
 74
     0
 42
0.0000000001
 43
0.0000000001
 40
0.0
 40
0.0
 40
0.0
 40
0.0
 40
1.0
 40
1.0
 40
1.0
 40
2.0
 40
2.0
 40
2.0
 40
3.0
 40
3.0
 40
3.0
 40
4.0
 40
4.0
 40
4.0
 40
4.0
 10
13.03883473337885
 20
91.09936192029877
 30
0.0
 10
13.03883473337885
 20
91.09936192029877
 30
0.0
 10
13.03883473337885
 20
97.06131497599145
 30
0.0
 10
13.03883473337885
 20
97.06131497599145
 30
0.0
 10
13.03883473337885
 20
97.06131497599145
 30
0.0
 10
15.9986239239909
 20
97.06131497599145
 30
0.0
 10
15.9986239239909
 20
97.06131497599145
 30
0.0
 10
15.9986239239909
 20
97.06131497599145
 30
0.0
 10
15.9986239239909
 20
91.09936192029877
 30
0.0
 10
15.9986239239909
 20
91.09936192029877
 30
0.0
 10
15.9986239239909
 20
91.09936192029877
 30
0.0
 10
13.03883473337885
 20
91.09936192029877
 30
0.0
 10
13.03883473337885
 20
91.09936192029877
 30
0.0
  0
SPLINE
  5
8A
330
70
100
AcDbEntity
  8
Layer 1
 62
    18
420
        0
370
     5
100
AcDbSpline
210
0.0
220
0.0
230
1.0
 70
    11
 71
     3
 72
    17
 73
    13
 74
     0
 42
0.0000000001
 43
0.0000000001
 40
0.0
 40
0.0
 40
0.0
 40
0.0
 40
1.0
 40
1.0
 40
1.0
 40
2.0
 40
2.0
 40
2.0
 40
3.0
 40
3.0
 40
3.0
 40
4.0
 40
4.0
 40
4.0
 40
4.0
 10
15.9986239239909
 20
103.1008688074894
 30
0.0
 10
15.9986239239909
 20
103.1008688074894
 30
0.0
 10
13.03883473337885
 20
103.1008688074894
 30
0.0
 10
13.03883473337885
 20
103.1008688074894
 30
0.0
 10
13.03883473337885
 20
103.1008688074894
 30
0.0
 10
13.03883473337885
 20
109.0592906403097
 30
0.0
 10
13.03883473337885
 20
109.0592906403097
 30
0.0
 10
13.03883473337885
 20
109.0592906403097
 30
0.0
 10
15.9986239239909
 20
109.0592906403097
 30
0.0
 10
15.9986239239909
 20
109.0592906403097
 30
0.0
 10
15.9986239239909
 20
109.0592906403097
 30
0.0
 10
15.9986239239909
 20
103.1008688074894
 30
0.0
 10
15.9986239239909
 20
103.1008688074894
 30
0.0
  0
SPLINE
  5
8B
330
70
100
AcDbEntity
  8
Layer 1
 62
    18
420
        0
370
     5
100
AcDbSpline
210
0.0
220
0.0
230
1.0
 70
    11
 71
     3
 72
    17
 73
    13
 74
     0
 42
0.0000000001
 43
0.0000000001
 40
0.0
 40
0.0
 40
0.0
 40
0.0
 40
1.0
 40
1.0
 40
1.0
 40
2.0
 40
2.0
 40
2.0
 40
3.0
 40
3.0
 40
3.0
 40
4.0
 40
4.0
 40
4.0
 40
4.0
 10
15.9986239239909
 20
115.0988444718076
 30
0.0
 10
15.9986239239909
 20
115.0988444718076
 30
0.0
 10
13.03883473337885
 20
115.0988444718076
 30
0.0
 10
13.03883473337885
 20
115.0988444718076
 30
0.0
 10
13.03883473337885
 20
115.0988444718076
 30
0.0
 10
13.03883473337885
 20
121.0607975275002
 30
0.0
 10
13.03883473337885
 20
121.0607975275002
 30
0.0
 10
13.03883473337885
 20
121.0607975275002
 30
0.0
 10
15.9986239239909
 20
121.0607975275002
 30
0.0
 10
15.9986239239909
 20
121.0607975275002
 30
0.0
 10
15.9986239239909
 20
121.0607975275002
 30
0.0
 10
15.9986239239909
 20
115.0988444718076
 30
0.0
 10
15.9986239239909
 20
115.0988444718076
 30
0.0
  0
SPLINE
  5
8C
330
70
100
AcDbEntity
  8
Layer 1
 62
    18
420
        0
370
     5
100
AcDbSpline
210
0.0
220
0.0
230
1.0
 70
    11
 71
     3
 72
    17
 73
    13
 74
     0
 42
0.0000000001
 43
0.0000000001
 40
0.0
 40
0.0
 40
0.0
 40
0.0
 40
1.0
 40
1.0
 40
1.0
 40
2.0
 40
2.0
 40
2.0
 40
3.0
 40
3.0
 40
3.0
 40
4.0
 40
4.0
 40
4.0
 40
4.0
 10
15.9986239239909
 20
127.1003513589981
 30
0.0
 10
15.9986239239909
 20
127.1003513589981
 30
0.0
 10
13.03883473337885
 20
127.1003513589981
 30
0.0
 10
13.03883473337885
 20
127.1003513589981
 30
0.0
 10
13.03883473337885
 20
127.1003513589981
 30
0.0
 10
13.03883473337885
 20
133.0587516599717
 30
0.0
 10
13.03883473337885
 20
133.0587516599717
 30
0.0
 10
13.03883473337885
 20
133.0587516599717
 30
0.0
 10
15.9986239239909
 20
133.0587516599717
 30
0.0
 10
15.9986239239909
 20
133.0587516599717
 30
0.0
 10
15.9986239239909
 20
133.0587516599717
 30
0.0
 10
15.9986239239909
 20
127.1003513589981
 30
0.0
 10
15.9986239239909
 20
127.1003513589981
 30
0.0
  0
SPLINE
  5
8D
330
70
100
AcDbEntity
  8
Layer 1
 62
    18
420
        0
370
     5
100
AcDbSpline
210
0.0
220
0.0
230
1.0
 70
    11
 71
     3
 72
    17
 73
    13
 74
     0
 42
0.0000000001
 43
0.0000000001
 40
0.0
 40
0.0
 40
0.0
 40
0.0
 40
1.0
 40
1.0
 40
1.0
 40
2.0
 40
2.0
 40
2.0
 40
3.0
 40
3.0
 40
3.0
 40
4.0
 40
4.0
 40
4.0
 40
4.0
 10
15.9986239239909
 20
139.0983054914696
 30
0.0
 10
15.9986239239909
 20
139.0983054914696
 30
0.0
 10
13.03883473337885
 20
139.0983054914696
 30
0.0
 10
13.03883473337885
 20
139.0983054914696
 30
0.0
 10
13.03883473337885
 20
139.0983054914696
 30
0.0
 10
13.03883473337885
 20
145.0602585471623
 30
0.0
 10
13.03883473337885
 20
145.0602585471623
 30
0.0
 10
13.03883473337885
 20
145.0602585471623
 30
0.0
 10
15.9986239239909
 20
145.0602585471623
 30
0.0
 10
15.9986239239909
 20
145.0602585471623
 30
0.0
 10
15.9986239239909
 20
145.0602585471623
 30
0.0
 10
15.9986239239909
 20
139.0983054914696
 30
0.0
 10
15.9986239239909
 20
139.0983054914696
 30
0.0
  0
SPLINE
  5
8E
330
70
100
AcDbEntity
  8
Layer 1
 62
    18
420
        0
370
     5
100
AcDbSpline
210
0.0
220
0.0
230
1.0
 70
    11
 71
     3
 72
    17
 73
    13
 74
     0
 42
0.0000000001
 43
0.0000000001
 40
0.0
 40
0.0
 40
0.0
 40
0.0
 40
1.0
 40
1.0
 40
1.0
 40
2.0
 40
2.0
 40
2.0
 40
3.0
 40
3.0
 40
3.0
 40
4.0
 40
4.0
 40
4.0
 40
4.0
 10
15.9986239239909
 20
151.0998123786602
 30
0.0
 10
15.9986239239909
 20
151.0998123786602
 30
0.0
 10
13.03883473337885
 20
151.0998123786602
 30
0.0
 10
13.03883473337885
 20
151.0998123786602
 30
0.0
 10
13.03883473337885
 20
151.0998123786602
 30
0.0
 10
13.03883473337885
 20
157.0582342114805
 30
0.0
 10
13.03883473337885
 20
157.0582342114805
 30
0.0
 10
13.03883473337885
 20
157.0582342114805
 30
0.0
 10
15.9986239239909
 20
157.0582342114805
 30
0.0
 10
15.9986239239909
 20
157.0582342114805
 30
0.0
 10
15.9986239239909
 20
157.0582342114805
 30
0.0
 10
15.9986239239909
 20
151.0998123786602
 30
0.0
 10
15.9986239239909
 20
151.0998123786602
 30
0.0
  0
SPLINE
  5
8F
330
70
100
AcDbEntity
  8
Layer 1
 62
    18
420
        0
370
     5
100
AcDbSpline
210
0.0
220
0.0
230
1.0
 70
    11
 71
     3
 72
    17
 73
    13
 74
     0
 42
0.0000000001
 43
0.0000000001
 40
0.0
 40
0.0
 40
0.0
 40
0.0
 40
1.0
 40
1.0
 40
1.0
 40
2.0
 40
2.0
 40
2.0
 40
3.0
 40
3.0
 40
3.0
 40
4.0
 40
4.0
 40
4.0
 40
4.0
 10
15.9986239239909
 20
163.1013192658508
 30
0.0
 10
15.9986239239909
 20
163.1013192658508
 30
0.0
 10
13.03883473337885
 20
163.1013192658508
 30
0.0
 10
13.03883473337885
 20
163.1013192658508
 30
0.0
 10
13.03883473337885
 20
163.1013192658508
 30
0.0
 10
13.03883473337885
 20
169.0597410986711
 30
0.0
 10
13.03883473337885
 20
169.0597410986711
 30
0.0
 10
13.03883473337885
 20
169.0597410986711
 30
0.0
 10
15.9986239239909
 20
169.0597410986711
 30
0.0
 10
15.9986239239909
 20
169.0597410986711
 30
0.0
 10
15.9986239239909
 20
169.0597410986711
 30
0.0
 10
15.9986239239909
 20
163.1013192658508
 30
0.0
 10
15.9986239239909
 20
163.1013192658508
 30
0.0
  0
SPLINE
  5
90
330
70
100
AcDbEntity
  8
Layer 1
 62
    18
420
        0
370
     5
100
AcDbSpline
210
0.0
220
0.0
230
1.0
 70
    11
 71
     3
 72
    17
 73
    13
 74
     0
 42
0.0000000001
 43
0.0000000001
 40
0.0
 40
0.0
 40
0.0
 40
0.0
 40
1.0
 40
1.0
 40
1.0
 40
2.0
 40
2.0
 40
2.0
 40
3.0
 40
3.0
 40
3.0
 40
4.0
 40
4.0
 40
4.0
 40
4.0
 10
15.9986239239909
 20
175.099294930169
 30
0.0
 10
15.9986239239909
 20
175.099294930169
 30
0.0
 10
13.03883473337885
 20
175.099294930169
 30
0.0
 10
13.03883473337885
 20
175.099294930169
 30
0.0
 10
13.03883473337885
 20
175.099294930169
 30
0.0
 10
13.03883473337885
 20
181.0612264540149
 30
0.0
 10
13.03883473337885
 20
181.0612264540149
 30
0.0
 10
13.03883473337885
 20
181.0612264540149
 30
0.0
 10
15.9986239239909
 20
181.0612264540149
 30
0.0
 10
15.9986239239909
 20
181.0612264540149
 30
0.0
 10
15.9986239239909
 20
181.0612264540149
 30
0.0
 10
15.9986239239909
 20
175.099294930169
 30
0.0
 10
15.9986239239909
 20
175.099294930169
 30
0.0
  0
SPLINE
  5
91
330
70
100
AcDbEntity
  8
Layer 1
 62
    18
420
        0
370
     5
100
AcDbSpline
210
0.0
220
0.0
230
1.0
 70
    11
 71
     3
 72
    17
 73
    13
 74
     0
 42
0.0000000001
 43
0.0000000001
 40
0.0
 40
0.0
 40
0.0
 40
0.0
 40
1.0
 40
1.0
 40
1.0
 40
2.0
 40
2.0
 40
2.0
 40
3.0
 40
3.0
 40
3.0
 40
4.0
 40
4.0
 40
4.0
 40
4.0
 10
15.9986239239909
 20
187.1007802855128
 30
0.0
 10
15.9986239239909
 20
187.1007802855128
 30
0.0
 10
13.03883473337885
 20
187.1007802855128
 30
0.0
 10
13.03883473337885
 20
187.1007802855128
 30
0.0
 10
13.03883473337885
 20
187.1007802855128
 30
0.0
 10
13.03883473337885
 20
193.0592021183331
 30
0.0
 10
13.03883473337885
 20
193.0592021183331
 30
0.0
 10
13.03883473337885
 20
193.0592021183331
 30
0.0
 10
15.9986239239909
 20
193.0592021183331
 30
0.0
 10
15.9986239239909
 20
193.0592021183331
 30
0.0
 10
15.9986239239909
 20
193.0592021183331
 30
0.0
 10
15.9986239239909
 20
187.1007802855128
 30
0.0
 10
15.9986239239909
 20
187.1007802855128
 30
0.0
  0
SPLINE
  5
92
330
70
100
AcDbEntity
  8
Layer 1
 62
    18
420
        0
370
     5
100
AcDbSpline
210
0.0
220
0.0
230
1.0
 70
    11
 71
     3
 72
    17
 73
    13
 74
     0
 42
0.0000000001
 43
0.0000000001
 40
0.0
 40
0.0
 40
0.0
 40
0.0
 40
1.0
 40
1.0
 40
1.0
 40
2.0
 40
2.0
 40
2.0
 40
3.0
 40
3.0
 40
3.0
 40
4.0
 40
4.0
 40
4.0
 40
4.0
 10
15.9986239239909
 20
205.0607090055237
 30
0.0
 10
15.9986239239909
 20
205.0607090055237
 30
0.0
 10
15.9986239239909
 20
199.098755949831
 30
0.0
 10
15.9986239239909
 20
199.098755949831
 30
0.0
 10
15.9986239239909
 20
199.098755949831
 30
0.0
 10
13.03883473337885
 20
199.098755949831
 30
0.0
 10
13.03883473337885
 20
199.098755949831
 30
0.0
 10
13.03883473337885
 20
199.098755949831
 30
0.0
 10
13.03883473337885
 20
205.0607090055237
 30
0.0
 10
13.03883473337885
 20
205.0607090055237
 30
0.0
 10
13.03883473337885
 20
205.0607090055237
 30
0.0
 10
15.9986239239909
 20
205.0607090055237
 30
0.0
 10
15.9986239239909
 20
205.0607090055237
 30
0.0
  0
SPLINE
  5
93
330
70
100
AcDbEntity
  8
Layer 1
 62
    18
420
        0
370
     5
100
AcDbSpline
210
0.0
220
0.0
230
1.0
 70
     9
 71
     3
 72
    35
 73
    31
 74
     0
 42
0.0000000001
 43
0.0000000001
 40
0.0
 40
0.0
 40
0.0
 40
0.0
 40
1.0
 40
1.0
 40
1.0
 40
2.0
 40
2.0
 40
2.0
 40
3.0
 40
3.0
 40
3.0
 40
4.0
 40
4.0
 40
4.0
 40
5.0
 40
5.0
 40
5.0
 40
6.0
 40
6.0
 40
6.0
 40
7.0
 40
7.0
 40
7.0
 40
8.0
 40
8.0
 40
8.0
 40
9.0
 40
9.0
 40
9.0
 40
10.0
 40
10.0
 40
10.0
 40
10.0
 10
94.99236590104731
 20
213.1005068076045
 30
0.0
 10
94.99236590104731
 20
213.1005068076045
 30
0.0
 10
10.01905781762989
 20
213.1005068076045
 30
0.0
 10
10.01905781762989
 20
213.1005068076045
 30
0.0
 10
10.00846414901274
 20
213.1005068076045
 30
0.0
 10
10.00140170326798
 20
213.0899346708341
 30
0.0
 10
10.00140170326798
 20
213.079341002217
 30
0.0
 10
10.00140170326798
 20
213.079341002217
 30
0.0
 10
10.00140170326798
 20
83.08072992360552
 30
0.0
 10
10.00140170326798
 20
83.08072992360552
 30
0.0
 10
10.00140170326798
 20
83.07015778683515
 30
0.0
 10
10.00846414901274
 20
83.05956411821801
 30
0.0
 10
10.01905781762989
 20
83.05956411821801
 30
0.0
 10
10.01905781762989
 20
83.05956411821801
 30
0.0
 10
86.12705862516035
 20
83.05956411821801
 30
0.0
 10
86.12705862516035
 20
83.05956411821801
 30
0.0
 10
86.12705862516035
 20
83.05956411821801
 30
0.0
 10
86.12705862516035
 20
196.5799174494842
 30
0.0
 10
86.12705862516035
 20
196.5799174494842
 30
0.0
 10
86.12705862516035
 20
200.3123123663571
 30
0.0
 10
89.15389798665406
 20
203.3356205049784
 30
0.0
 10
92.88276168065456
 20
203.3356205049784
 30
0.0
 10
92.88276168065456
 20
203.3356205049784
 30
0.0
 10
95.01000048356244
 20
203.3356205049784
 30
0.0
 10
95.01000048356244
 20
203.3356205049784
 30
0.0
 10
95.01000048356244
 20
203.3356205049784
 30
0.0
 10
95.01000048356244
 20
213.079341002217
 30
0.0
 10
95.01000048356244
 20
213.079341002217
 30
0.0
 10
95.01000048356244
 20
213.0899346708341
 30
0.0
 10
95.00295956966445
 20
213.1005068076045
 30
0.0
 10
94.99236590104731
 20
213.1005068076045
 30
0.0
  0
SPLINE
  5
94
330
70
100
AcDbEntity
  8
Layer 1
 62
     5
420
      255
370
     5
100
AcDbSpline
210
0.0
220
0.0
230
1.0
 70
    11
 71
     3
 72
    32
 73
    28
 74
     0
 42
0.0000000001
 43
0.0000000001
 40
0.0
 40
0.0
 40
0.0
 40
0.0
 40
1.0
 40
1.0
 40
1.0
 40
2.0
 40
2.0
 40
2.0
 40
3.0
 40
3.0
 40
3.0
 40
4.0
 40
4.0
 40
4.0
 40
5.0
 40
5.0
 40
5.0
 40
6.0
 40
6.0
 40
6.0
 40
7.0
 40
7.0
 40
7.0
 40
8.0
 40
8.0
 40
8.0
 40
9.0
 40
9.0
 40
9.0
 40
9.0
 10
81.14906534037301
 20
227.6200309416038
 30
0.0
 10
81.14906534037301
 20
227.6200309416038
 30
0.0
 10
81.14906534037301
 20
224.6400351319197
 30
0.0
 10
81.14906534037301
 20
224.6400351319197
 30
0.0
 10
81.14906534037301
 20
224.6200308589073
 30
0.0
 10
81.16906198399062
 20
224.6400351319197
 30
0.0
 10
81.14906534037301
 20
224.6400351319197
 30
0.0
 10
81.14906534037301
 20
224.6400351319197
 30
0.0
 10
78.18906617430648
 20
224.6400351319197
 30
0.0
 10
78.18906617430648
 20
224.6400351319197
 30
0.0
 10
78.16906190129413
 20
224.6400351319197
 30
0.0
 10
78.18906617430648
 20
224.6200308589073
 30
0.0
 10
78.18906617430648
 20
224.6400351319197
 30
0.0
 10
78.18906617430648
 20
224.6400351319197
 30
0.0
 10
78.18906617430648
 20
230.6000420100774
 30
0.0
 10
78.18906617430648
 20
230.6000420100774
 30
0.0
 10
78.18906617430648
 20
230.6200310243003
 30
0.0
 10
78.16906190129413
 20
230.6000420100774
 30
0.0
 10
78.18906617430648
 20
230.6000420100774
 30
0.0
 10
78.18906617430648
 20
230.6000420100774
 30
0.0
 10
81.14906534037301
 20
230.6000420100774
 30
0.0
 10
81.14906534037301
 20
230.6000420100774
 30
0.0
 10
81.16906198399062
 20
230.6000420100774
 30
0.0
 10
81.14906534037301
 20
230.6200310243003
 30
0.0
 10
81.14906534037301
 20
230.6000420100774
 30
0.0
 10
81.14906534037301
 20
230.6000420100774
 30
0.0
 10
81.14906534037301
 20
227.6200309416038
 30
0.0
 10
81.14906534037301
 20
227.6200309416038
 30
0.0
  0
SPLINE
  5
95
330
70
100
AcDbEntity
  8
Layer 1
 62
     5
420
      255
370
     5
100
AcDbSpline
210
0.0
220
0.0
230
1.0
 70
    11
 71
     3
 72
    32
 73
    28
 74
     0
 42
0.0000000001
 43
0.0000000001
 40
0.0
 40
0.0
 40
0.0
 40
0.0
 40
1.0
 40
1.0
 40
1.0
 40
2.0
 40
2.0
 40
2.0
 40
3.0
 40
3.0
 40
3.0
 40
4.0
 40
4.0
 40
4.0
 40
5.0
 40
5.0
 40
5.0
 40
6.0
 40
6.0
 40
6.0
 40
7.0
 40
7.0
 40
7.0
 40
8.0
 40
8.0
 40
8.0
 40
9.0
 40
9.0
 40
9.0
 40
9.0
 10
81.14906534037301
 20
239.6200312723898
 30
0.0
 10
81.14906534037301
 20
239.6200312723898
 30
0.0
 10
81.14906534037301
 20
236.6400354627057
 30
0.0
 10
81.14906534037301
 20
236.6400354627057
 30
0.0
 10
81.14906534037301
 20
236.6200311896933
 30
0.0
 10
81.16906198399062
 20
236.6400354627057
 30
0.0
 10
81.14906534037301
 20
236.6400354627057
 30
0.0
 10
81.14906534037301
 20
236.6400354627057
 30
0.0
 10
78.18906617430648
 20
236.6400354627057
 30
0.0
 10
78.18906617430648
 20
236.6400354627057
 30
0.0
 10
78.16906190129413
 20
236.6400354627057
 30
0.0
 10
78.18906617430648
 20
236.6200311896933
 30
0.0
 10
78.18906617430648
 20
236.6400354627057
 30
0.0
 10
78.18906617430648
 20
236.6400354627057
 30
0.0
 10
78.18906617430648
 20
242.6000423408634
 30
0.0
 10
78.18906617430648
 20
242.6000423408634
 30
0.0
 10
78.18906617430648
 20
242.6200313550863
 30
0.0
 10
78.16906190129413
 20
242.6000423408634
 30
0.0
 10
78.18906617430648
 20
242.6000423408634
 30
0.0
 10
78.18906617430648
 20
242.6000423408634
 30
0.0
 10
81.14906534037301
 20
242.6000423408634
 30
0.0
 10
81.14906534037301
 20
242.6000423408634
 30
0.0
 10
81.16906198399062
 20
242.6000423408634
 30
0.0
 10
81.14906534037301
 20
242.6200313550863
 30
0.0
 10
81.14906534037301
 20
242.6000423408634
 30
0.0
 10
81.14906534037301
 20
242.6000423408634
 30
0.0
 10
81.14906534037301
 20
239.6200312723898
 30
0.0
 10
81.14906534037301
 20
239.6200312723898
 30
0.0
  0
SPLINE
  5
96
330
70
100
AcDbEntity
  8
Layer 1
 62
    18
420
        0
370
     5
100
AcDbSpline
210
0.0
220
0.0
230
1.0
 70
    11
 71
     3
 72
    41
 73
    37
 74
     0
 42
0.0000000001
 43
0.0000000001
 40
0.0
 40
0.0
 40
0.0
 40
0.0
 40
1.0
 40
1.0
 40
1.0
 40
2.0
 40
2.0
 40
2.0
 40
3.0
 40
3.0
 40
3.0
 40
4.0
 40
4.0
 40
4.0
 40
5.0
 40
5.0
 40
5.0
 40
6.0
 40
6.0
 40
6.0
 40
7.0
 40
7.0
 40
7.0
 40
8.0
 40
8.0
 40
8.0
 40
9.0
 40
9.0
 40
9.0
 40
10.0
 40
10.0
 40
10.0
 40
11.0
 40
11.0
 40
11.0
 40
12.0
 40
12.0
 40
12.0
 40
12.0
 10
16.01999899201432
 20
214.6000415690294
 30
0.0
 10
16.01999899201432
 20
214.6000415690294
 30
0.0
 10
88.97999390865088
 20
214.6000415690294
 30
0.0
 10
88.97999390865088
 20
214.6000415690294
 30
0.0
 10
88.97999390865088
 20
214.6000415690294
 30
0.0
 10
94.97999407404389
 20
214.6000415690294
 30
0.0
 10
94.97999407404389
 20
214.6000415690294
 30
0.0
 10
94.99099566126121
 20
214.6000415690294
 30
0.0
 10
94.99999834705624
 20
214.6090442548245
 30
0.0
 10
94.99999834705624
 20
214.6200305832523
 30
0.0
 10
94.99999834705624
 20
214.6200305832523
 30
0.0
 10
94.99999834705624
 20
252.6200316307413
 30
0.0
 10
94.99999834705624
 20
252.6200316307413
 30
0.0
 10
94.99999834705624
 20
252.6310332179587
 30
0.0
 10
94.99099566126121
 20
252.6400359037537
 30
0.0
 10
94.97999407404389
 20
252.6400359037537
 30
0.0
 10
94.97999407404389
 20
252.6400359037537
 30
0.0
 10
88.97999390865088
 20
252.6400359037537
 30
0.0
 10
88.97999390865088
 20
252.6400359037537
 30
0.0
 10
88.97999390865088
 20
252.6400359037537
 30
0.0
 10
16.01999899201432
 20
252.6400359037537
 30
0.0
 10
16.01999899201432
 20
252.6400359037537
 30
0.0
 10
16.01999899201432
 20
252.6400359037537
 30
0.0
 10
10.01999882662132
 20
252.6400359037537
 30
0.0
 10
10.01999882662132
 20
252.6400359037537
 30
0.0
 10
10.00899819307849
 20
252.6400359037537
 30
0.0
 10
9.999998368306323
 20
252.6310332179587
 30
0.0
 10
9.999998368306323
 20
252.6200316307413
 30
0.0
 10
9.999998368306323
 20
252.6200316307413
 30
0.0
 10
9.999998368306323
 20
214.6200305832523
 30
0.0
 10
9.999998368306323
 20
214.6200305832523
 30
0.0
 10
9.999998368306323
 20
214.6090442548245
 30
0.0
 10
10.00899819307849
 20
214.6000415690294
 30
0.0
 10
10.01999882662132
 20
214.6000415690294
 30
0.0
 10
10.01999882662132
 20
214.6000415690294
 30
0.0
 10
16.01999899201432
 20
214.6000415690294
 30
0.0
 10
16.01999899201432
 20
214.6000415690294
 30
0.0
  0
SPLINE
  5
97
330
70
100
AcDbEntity
  8
Layer 1
 62
     5
420
      255
370
     5
100
AcDbSpline
210
0.0
220
0.0
230
1.0
 70
    11
 71
     3
 72
    32
 73
    28
 74
     0
 42
0.0000000001
 43
0.0000000001
 40
0.0
 40
0.0
 40
0.0
 40
0.0
 40
1.0
 40
1.0
 40
1.0
 40
2.0
 40
2.0
 40
2.0
 40
3.0
 40
3.0
 40
3.0
 40
4.0
 40
4.0
 40
4.0
 40
5.0
 40
5.0
 40
5.0
 40
6.0
 40
6.0
 40
6.0
 40
7.0
 40
7.0
 40
7.0
 40
8.0
 40
8.0
 40
8.0
 40
9.0
 40
9.0
 40
9.0
 40
9.0
 10
13.03999841395831
 20
239.6200312723898
 30
0.0
 10
13.03999841395831
 20
239.6200312723898
 30
0.0
 10
13.03999841395831
 20
242.6000423408634
 30
0.0
 10
13.03999841395831
 20
242.6000423408634
 30
0.0
 10
13.03999841395831
 20
242.6200313550863
 30
0.0
 10
13.01999890931782
 20
242.6000423408634
 30
0.0
 10
13.03999841395831
 20
242.6000423408634
 30
0.0
 10
13.03999841395831
 20
242.6000423408634
 30
0.0
 10
15.99999853369933
 20
242.6000423408634
 30
0.0
 10
15.99999853369933
 20
242.6000423408634
 30
0.0
 10
16.01999899201432
 20
242.6000423408634
 30
0.0
 10
15.99999853369933
 20
242.6200313550863
 30
0.0
 10
15.99999853369933
 20
242.6000423408634
 30
0.0
 10
15.99999853369933
 20
242.6000423408634
 30
0.0
 10
15.99999853369933
 20
236.6400354627057
 30
0.0
 10
15.99999853369933
 20
236.6400354627057
 30
0.0
 10
15.99999853369933
 20
236.6200311896933
 30
0.0
 10
16.01999899201432
 20
236.6400354627057
 30
0.0
 10
15.99999853369933
 20
236.6400354627057
 30
0.0
 10
15.99999853369933
 20
236.6400354627057
 30
0.0
 10
13.03999841395831
 20
236.6400354627057
 30
0.0
 10
13.03999841395831
 20
236.6400354627057
 30
0.0
 10
13.01999890931782
 20
236.6400354627057
 30
0.0
 10
13.03999841395831
 20
236.6200311896933
 30
0.0
 10
13.03999841395831
 20
236.6400354627057
 30
0.0
 10
13.03999841395831
 20
236.6400354627057
 30
0.0
 10
13.03999841395831
 20
239.6200312723898
 30
0.0
 10
13.03999841395831
 20
239.6200312723898
 30
0.0
  0
SPLINE
  5
98
330
70
100
AcDbEntity
  8
Layer 1
 62
     5
420
      255
370
     5
100
AcDbSpline
210
0.0
220
0.0
230
1.0
 70
    11
 71
     3
 72
    32
 73
    28
 74
     0
 42
0.0000000001
 43
0.0000000001
 40
0.0
 40
0.0
 40
0.0
 40
0.0
 40
1.0
 40
1.0
 40
1.0
 40
2.0
 40
2.0
 40
2.0
 40
3.0
 40
3.0
 40
3.0
 40
4.0
 40
4.0
 40
4.0
 40
5.0
 40
5.0
 40
5.0
 40
6.0
 40
6.0
 40
6.0
 40
7.0
 40
7.0
 40
7.0
 40
8.0
 40
8.0
 40
8.0
 40
9.0
 40
9.0
 40
9.0
 40
9.0
 10
13.03999841395831
 20
227.6200309416038
 30
0.0
 10
13.03999841395831
 20
227.6200309416038
 30
0.0
 10
13.03999841395831
 20
230.6000420100774
 30
0.0
 10
13.03999841395831
 20
230.6000420100774
 30
0.0
 10
13.03999841395831
 20
230.6200310243003
 30
0.0
 10
13.01999890931782
 20
230.6000420100774
 30
0.0
 10
13.03999841395831
 20
230.6000420100774
 30
0.0
 10
13.03999841395831
 20
230.6000420100774
 30
0.0
 10
15.99999853369933
 20
230.6000420100774
 30
0.0
 10
15.99999853369933
 20
230.6000420100774
 30
0.0
 10
16.01999899201432
 20
230.6000420100774
 30
0.0
 10
15.99999853369933
 20
230.6200310243003
 30
0.0
 10
15.99999853369933
 20
230.6000420100774
 30
0.0
 10
15.99999853369933
 20
230.6000420100774
 30
0.0
 10
15.99999853369933
 20
224.6400351319197
 30
0.0
 10
15.99999853369933
 20
224.6400351319197
 30
0.0
 10
15.99999853369933
 20
224.6200308589073
 30
0.0
 10
16.01999899201432
 20
224.6400351319197
 30
0.0
 10
15.99999853369933
 20
224.6400351319197
 30
0.0
 10
15.99999853369933
 20
224.6400351319197
 30
0.0
 10
13.03999841395831
 20
224.6400351319197
 30
0.0
 10
13.03999841395831
 20
224.6400351319197
 30
0.0
 10
13.01999890931782
 20
224.6400351319197
 30
0.0
 10
13.03999841395831
 20
224.6200308589073
 30
0.0
 10
13.03999841395831
 20
224.6400351319197
 30
0.0
 10
13.03999841395831
 20
224.6400351319197
 30
0.0
 10
13.03999841395831
 20
227.6200309416038
 30
0.0
 10
13.03999841395831
 20
227.6200309416038
 30
0.0
  0
SPLINE
  5
99
330
70
100
AcDbEntity
  8
Layer 1
 62
     5
420
      255
370
     5
100
AcDbSpline
210
0.0
220
0.0
230
1.0
 70
    11
 71
     3
 72
    32
 73
    28
 74
     0
 42
0.0000000001
 43
0.0000000001
 40
0.0
 40
0.0
 40
0.0
 40
0.0
 40
1.0
 40
1.0
 40
1.0
 40
2.0
 40
2.0
 40
2.0
 40
3.0
 40
3.0
 40
3.0
 40
4.0
 40
4.0
 40
4.0
 40
5.0
 40
5.0
 40
5.0
 40
6.0
 40
6.0
 40
6.0
 40
7.0
 40
7.0
 40
7.0
 40
8.0
 40
8.0
 40
8.0
 40
9.0
 40
9.0
 40
9.0
 40
9.0
 10
81.14906534037301
 20
263.1600404662038
 30
0.0
 10
81.14906534037301
 20
263.1600404662038
 30
0.0
 10
81.14906534037301
 20
260.1800446565197
 30
0.0
 10
81.14906534037301
 20
260.1800446565197
 30
0.0
 10
81.14906534037301
 20
260.1600403835074
 30
0.0
 10
81.16906198399062
 20
260.1800446565197
 30
0.0
 10
81.14906534037301
 20
260.1800446565197
 30
0.0
 10
81.14906534037301
 20
260.1800446565197
 30
0.0
 10
78.18906617430648
 20
260.1800446565197
 30
0.0
 10
78.18906617430648
 20
260.1800446565197
 30
0.0
 10
78.16906190129413
 20
260.1800446565197
 30
0.0
 10
78.18906617430648
 20
260.1600403835074
 30
0.0
 10
78.18906617430648
 20
260.1800446565197
 30
0.0
 10
78.18906617430648
 20
260.1800446565197
 30
0.0
 10
78.18906617430648
 20
266.1400362758879
 30
0.0
 10
78.18906617430648
 20
266.1400362758879
 30
0.0
 10
78.18906617430648
 20
266.1600405489003
 30
0.0
 10
78.16906190129413
 20
266.1400362758879
 30
0.0
 10
78.18906617430648
 20
266.1400362758879
 30
0.0
 10
78.18906617430648
 20
266.1400362758879
 30
0.0
 10
81.14906534037301
 20
266.1400362758879
 30
0.0
 10
81.14906534037301
 20
266.1400362758879
 30
0.0
 10
81.16906198399062
 20
266.1400362758879
 30
0.0
 10
81.14906534037301
 20
266.1600405489003
 30
0.0
 10
81.14906534037301
 20
266.1400362758879
 30
0.0
 10
81.14906534037301
 20
266.1400362758879
 30
0.0
 10
81.14906534037301
 20
263.1600404662038
 30
0.0
 10
81.14906534037301
 20
263.1600404662038
 30
0.0
  0
SPLINE
  5
9A
330
70
100
AcDbEntity
  8
Layer 1
 62
     5
420
      255
370
     5
100
AcDbSpline
210
0.0
220
0.0
230
1.0
 70
    11
 71
     3
 72
    32
 73
    28
 74
     0
 42
0.0000000001
 43
0.0000000001
 40
0.0
 40
0.0
 40
0.0
 40
0.0
 40
1.0
 40
1.0
 40
1.0
 40
2.0
 40
2.0
 40
2.0
 40
3.0
 40
3.0
 40
3.0
 40
4.0
 40
4.0
 40
4.0
 40
5.0
 40
5.0
 40
5.0
 40
6.0
 40
6.0
 40
6.0
 40
7.0
 40
7.0
 40
7.0
 40
8.0
 40
8.0
 40
8.0
 40
9.0
 40
9.0
 40
9.0
 40
9.0
 10
81.14906534037301
 20
275.1600407969899
 30
0.0
 10
81.14906534037301
 20
275.1600407969899
 30
0.0
 10
81.14906534037301
 20
272.1800449873057
 30
0.0
 10
81.14906534037301
 20
272.1800449873057
 30
0.0
 10
81.14906534037301
 20
272.1600407142934
 30
0.0
 10
81.16906198399062
 20
272.1800449873057
 30
0.0
 10
81.14906534037301
 20
272.1800449873057
 30
0.0
 10
81.14906534037301
 20
272.1800449873057
 30
0.0
 10
78.18906617430648
 20
272.1800449873057
 30
0.0
 10
78.18906617430648
 20
272.1800449873057
 30
0.0
 10
78.16906190129413
 20
272.1800449873057
 30
0.0
 10
78.18906617430648
 20
272.1600407142934
 30
0.0
 10
78.18906617430648
 20
272.1800449873057
 30
0.0
 10
78.18906617430648
 20
272.1800449873057
 30
0.0
 10
78.18906617430648
 20
278.140036606674
 30
0.0
 10
78.18906617430648
 20
278.140036606674
 30
0.0
 10
78.18906617430648
 20
278.1600408796863
 30
0.0
 10
78.16906190129413
 20
278.140036606674
 30
0.0
 10
78.18906617430648
 20
278.140036606674
 30
0.0
 10
78.18906617430648
 20
278.140036606674
 30
0.0
 10
81.14906534037301
 20
278.140036606674
 30
0.0
 10
81.14906534037301
 20
278.140036606674
 30
0.0
 10
81.16906198399062
 20
278.140036606674
 30
0.0
 10
81.14906534037301
 20
278.1600408796863
 30
0.0
 10
81.14906534037301
 20
278.140036606674
 30
0.0
 10
81.14906534037301
 20
278.140036606674
 30
0.0
 10
81.14906534037301
 20
275.1600407969899
 30
0.0
 10
81.14906534037301
 20
275.1600407969899
 30
0.0
  0
SPLINE
  5
9B
330
70
100
AcDbEntity
  8
Layer 1
 62
    18
420
        0
370
     5
100
AcDbSpline
210
0.0
220
0.0
230
1.0
 70
     8
 71
     3
 72
    14
 73
    10
 74
     0
 42
0.0000000001
 43
0.0000000001
 40
0.0
 40
0.0
 40
0.0
 40
0.0
 40
1.0
 40
1.0
 40
1.0
 40
2.0
 40
2.0
 40
2.0
 40
3.0
 40
3.0
 40
3.0
 40
3.0
 10
94.98999621055007
 20
254.140035945102
 30
0.0
 10
95.00099779776739
 20
254.140035945102
 30
0.0
 10
95.01000048356244
 20
254.149038630897
 30
0.0
 10
95.01000048356244
 20
254.1600402181143
 30
0.0
 10
95.01000048356244
 20
254.1600402181143
 30
0.0
 10
95.01000048356244
 20
284.1600410450794
 30
0.0
 10
95.01000048356244
 20
284.1600410450794
 30
0.0
 10
95.01000048356244
 20
284.1710350029019
 30
0.0
 10
95.00099779776739
 20
284.180037688697
 30
0.0
 10
94.98999621055007
 20
284.180037688697
 30
0.0
  0
SPLINE
  5
9C
330
70
100
AcDbEntity
  8
Layer 1
 62
    18
420
        0
370
     5
100
AcDbSpline
210
0.0
220
0.0
230
1.0
 70
     8
 71
     3
 72
    20
 73
    16
 74
     0
 42
0.0000000001
 43
0.0000000001
 40
0.0
 40
0.0
 40
0.0
 40
0.0
 40
1.0
 40
1.0
 40
1.0
 40
2.0
 40
2.0
 40
2.0
 40
3.0
 40
3.0
 40
3.0
 40
4.0
 40
4.0
 40
4.0
 40
5.0
 40
5.0
 40
5.0
 40
5.0
 10
16.01999899201432
 20
284.180037688697
 30
0.0
 10
16.01999899201432
 20
284.180037688697
 30
0.0
 10
10.01999882662132
 20
284.180037688697
 30
0.0
 10
10.01999882662132
 20
284.180037688697
 30
0.0
 10
10.00899819307849
 20
284.180037688697
 30
0.0
 10
9.999998368306323
 20
284.1710350029019
 30
0.0
 10
9.999998368306323
 20
284.1600410450794
 30
0.0
 10
9.999998368306323
 20
284.1600410450794
 30
0.0
 10
9.999998368306323
 20
254.1600402181143
 30
0.0
 10
9.999998368306323
 20
254.1600402181143
 30
0.0
 10
9.999998368306323
 20
254.149038630897
 30
0.0
 10
10.00899819307849
 20
254.140035945102
 30
0.0
 10
10.01999882662132
 20
254.140035945102
 30
0.0
 10
10.01999882662132
 20
254.140035945102
 30
0.0
 10
16.01999899201432
 20
254.140035945102
 30
0.0
 10
16.01999899201432
 20
254.140035945102
 30
0.0
  0
SPLINE
  5
9D
330
70
100
AcDbEntity
  8
Layer 1
 62
     5
420
      255
370
     5
100
AcDbSpline
210
0.0
220
0.0
230
1.0
 70
    11
 71
     3
 72
    32
 73
    28
 74
     0
 42
0.0000000001
 43
0.0000000001
 40
0.0
 40
0.0
 40
0.0
 40
0.0
 40
1.0
 40
1.0
 40
1.0
 40
2.0
 40
2.0
 40
2.0
 40
3.0
 40
3.0
 40
3.0
 40
4.0
 40
4.0
 40
4.0
 40
5.0
 40
5.0
 40
5.0
 40
6.0
 40
6.0
 40
6.0
 40
7.0
 40
7.0
 40
7.0
 40
8.0
 40
8.0
 40
8.0
 40
9.0
 40
9.0
 40
9.0
 40
9.0
 10
13.03999841395831
 20
275.1600407969899
 30
0.0
 10
13.03999841395831
 20
275.1600407969899
 30
0.0
 10
13.03999841395831
 20
278.140036606674
 30
0.0
 10
13.03999841395831
 20
278.140036606674
 30
0.0
 10
13.03999841395831
 20
278.1600408796863
 30
0.0
 10
13.01999890931782
 20
278.140036606674
 30
0.0
 10
13.03999841395831
 20
278.140036606674
 30
0.0
 10
13.03999841395831
 20
278.140036606674
 30
0.0
 10
15.99999853369933
 20
278.140036606674
 30
0.0
 10
15.99999853369933
 20
278.140036606674
 30
0.0
 10
16.01999899201432
 20
278.140036606674
 30
0.0
 10
15.99999853369933
 20
278.1600408796863
 30
0.0
 10
15.99999853369933
 20
278.140036606674
 30
0.0
 10
15.99999853369933
 20
278.140036606674
 30
0.0
 10
15.99999853369933
 20
272.1800449873057
 30
0.0
 10
15.99999853369933
 20
272.1800449873057
 30
0.0
 10
15.99999853369933
 20
272.1600407142934
 30
0.0
 10
16.01999899201432
 20
272.1800449873057
 30
0.0
 10
15.99999853369933
 20
272.1800449873057
 30
0.0
 10
15.99999853369933
 20
272.1800449873057
 30
0.0
 10
13.03999841395831
 20
272.1800449873057
 30
0.0
 10
13.03999841395831
 20
272.1800449873057
 30
0.0
 10
13.01999890931782
 20
272.1800449873057
 30
0.0
 10
13.03999841395831
 20
272.1600407142934
 30
0.0
 10
13.03999841395831
 20
272.1800449873057
 30
0.0
 10
13.03999841395831
 20
272.1800449873057
 30
0.0
 10
13.03999841395831
 20
275.1600407969899
 30
0.0
 10
13.03999841395831
 20
275.1600407969899
 30
0.0
  0
SPLINE
  5
9E
330
70
100
AcDbEntity
  8
Layer 1
 62
     5
420
      255
370
     5
100
AcDbSpline
210
0.0
220
0.0
230
1.0
 70
    11
 71
     3
 72
    32
 73
    28
 74
     0
 42
0.0000000001
 43
0.0000000001
 40
0.0
 40
0.0
 40
0.0
 40
0.0
 40
1.0
 40
1.0
 40
1.0
 40
2.0
 40
2.0
 40
2.0
 40
3.0
 40
3.0
 40
3.0
 40
4.0
 40
4.0
 40
4.0
 40
5.0
 40
5.0
 40
5.0
 40
6.0
 40
6.0
 40
6.0
 40
7.0
 40
7.0
 40
7.0
 40
8.0
 40
8.0
 40
8.0
 40
9.0
 40
9.0
 40
9.0
 40
9.0
 10
13.03999841395831
 20
263.1600404662038
 30
0.0
 10
13.03999841395831
 20
263.1600404662038
 30
0.0
 10
13.03999841395831
 20
266.1400362758879
 30
0.0
 10
13.03999841395831
 20
266.1400362758879
 30
0.0
 10
13.03999841395831
 20
266.1600405489003
 30
0.0
 10
13.01999890931782
 20
266.1400362758879
 30
0.0
 10
13.03999841395831
 20
266.1400362758879
 30
0.0
 10
13.03999841395831
 20
266.1400362758879
 30
0.0
 10
15.99999853369933
 20
266.1400362758879
 30
0.0
 10
15.99999853369933
 20
266.1400362758879
 30
0.0
 10
16.01999899201432
 20
266.1400362758879
 30
0.0
 10
15.99999853369933
 20
266.1600405489003
 30
0.0
 10
15.99999853369933
 20
266.1400362758879
 30
0.0
 10
15.99999853369933
 20
266.1400362758879
 30
0.0
 10
15.99999853369933
 20
260.1800446565197
 30
0.0
 10
15.99999853369933
 20
260.1800446565197
 30
0.0
 10
15.99999853369933
 20
260.1600403835074
 30
0.0
 10
16.01999899201432
 20
260.1800446565197
 30
0.0
 10
15.99999853369933
 20
260.1800446565197
 30
0.0
 10
15.99999853369933
 20
260.1800446565197
 30
0.0
 10
13.03999841395831
 20
260.1800446565197
 30
0.0
 10
13.03999841395831
 20
260.1800446565197
 30
0.0
 10
13.01999890931782
 20
260.1800446565197
 30
0.0
 10
13.03999841395831
 20
260.1600403835074
 30
0.0
 10
13.03999841395831
 20
260.1800446565197
 30
0.0
 10
13.03999841395831
 20
260.1800446565197
 30
0.0
 10
13.03999841395831
 20
263.1600404662038
 30
0.0
 10
13.03999841395831
 20
263.1600404662038
 30
0.0
  0
SPLINE
  5
9F
330
70
100
AcDbEntity
  8
Layer 1
 62
    18
420
        0
370
     5
100
AcDbSpline
210
0.0
220
0.0
230
1.0
 70
     9
 71
     3
 72
   497
 73
   493
 74
     0
 42
0.0000000001
 43
0.0000000001
 40
0.0
 40
0.0
 40
0.0
 40
0.0
 40
1.0
 40
1.0
 40
1.0
 40
2.0
 40
2.0
 40
2.0
 40
3.0
 40
3.0
 40
3.0
 40
4.0
 40
4.0
 40
4.0
 40
5.0
 40
5.0
 40
5.0
 40
6.0
 40
6.0
 40
6.0
 40
7.0
 40
7.0
 40
7.0
 40
8.0
 40
8.0
 40
8.0
 40
9.0
 40
9.0
 40
9.0
 40
10.0
 40
10.0
 40
10.0
 40
11.0
 40
11.0
 40
11.0
 40
12.0
 40
12.0
 40
12.0
 40
13.0
 40
13.0
 40
13.0
 40
14.0
 40
14.0
 40
14.0
 40
15.0
 40
15.0
 40
15.0
 40
16.0
 40
16.0
 40
16.0
 40
17.0
 40
17.0
 40
17.0
 40
18.0
 40
18.0
 40
18.0
 40
19.0
 40
19.0
 40
19.0
 40
20.0
 40
20.0
 40
20.0
 40
21.0
 40
21.0
 40
21.0
 40
22.0
 40
22.0
 40
22.0
 40
23.0
 40
23.0
 40
23.0
 40
24.0
 40
24.0
 40
24.0
 40
25.0
 40
25.0
 40
25.0
 40
26.0
 40
26.0
 40
26.0
 40
27.0
 40
27.0
 40
27.0
 40
28.0
 40
28.0
 40
28.0
 40
29.0
 40
29.0
 40
29.0
 40
30.0
 40
30.0
 40
30.0
 40
31.0
 40
31.0
 40
31.0
 40
32.0
 40
32.0
 40
32.0
 40
33.0
 40
33.0
 40
33.0
 40
34.0
 40
34.0
 40
34.0
 40
35.0
 40
35.0
 40
35.0
 40
36.0
 40
36.0
 40
36.0
 40
37.0
 40
37.0
 40
37.0
 40
38.0
 40
38.0
 40
38.0
 40
39.0
 40
39.0
 40
39.0
 40
40.0
 40
40.0
 40
40.0
 40
41.0
 40
41.0
 40
41.0
 40
42.0
 40
42.0
 40
42.0
 40
43.0
 40
43.0
 40
43.0
 40
44.0
 40
44.0
 40
44.0
 40
45.0
 40
45.0
 40
45.0
 40
46.0
 40
46.0
 40
46.0
 40
47.0
 40
47.0
 40
47.0
 40
48.0
 40
48.0
 40
48.0
 40
49.0
 40
49.0
 40
49.0
 40
50.0
 40
50.0
 40
50.0
 40
51.0
 40
51.0
 40
51.0
 40
52.0
 40
52.0
 40
52.0
 40
53.0
 40
53.0
 40
53.0
 40
54.0
 40
54.0
 40
54.0
 40
55.0
 40
55.0
 40
55.0
 40
56.0
 40
56.0
 40
56.0
 40
57.0
 40
57.0
 40
57.0
 40
58.0
 40
58.0
 40
58.0
 40
59.0
 40
59.0
 40
59.0
 40
60.0
 40
60.0
 40
60.0
 40
61.0
 40
61.0
 40
61.0
 40
62.0
 40
62.0
 40
62.0
 40
63.0
 40
63.0
 40
63.0
 40
64.0
 40
64.0
 40
64.0
 40
65.0
 40
65.0
 40
65.0
 40
66.0
 40
66.0
 40
66.0
 40
67.0
 40
67.0
 40
67.0
 40
68.0
 40
68.0
 40
68.0
 40
69.0
 40
69.0
 40
69.0
 40
70.0
 40
70.0
 40
70.0
 40
71.0
 40
71.0
 40
71.0
 40
72.0
 40
72.0
 40
72.0
 40
73.0
 40
73.0
 40
73.0
 40
74.0
 40
74.0
 40
74.0
 40
75.0
 40
75.0
 40
75.0
 40
76.0
 40
76.0
 40
76.0
 40
77.0
 40
77.0
 40
77.0
 40
78.0
 40
78.0
 40
78.0
 40
79.0
 40
79.0
 40
79.0
 40
80.0
 40
80.0
 40
80.0
 40
81.0
 40
81.0
 40
81.0
 40
82.0
 40
82.0
 40
82.0
 40
83.0
 40
83.0
 40
83.0
 40
84.0
 40
84.0
 40
84.0
 40
85.0
 40
85.0
 40
85.0
 40
86.0
 40
86.0
 40
86.0
 40
87.0
 40
87.0
 40
87.0
 40
88.0
 40
88.0
 40
88.0
 40
89.0
 40
89.0
 40
89.0
 40
90.0
 40
90.0
 40
90.0
 40
91.0
 40
91.0
 40
91.0
 40
92.0
 40
92.0
 40
92.0
 40
93.0
 40
93.0
 40
93.0
 40
94.0
 40
94.0
 40
94.0
 40
95.0
 40
95.0
 40
95.0
 40
96.0
 40
96.0
 40
96.0
 40
97.0
 40
97.0
 40
97.0
 40
98.0
 40
98.0
 40
98.0
 40
99.0
 40
99.0
 40
99.0
 40
100.0
 40
100.0
 40
100.0
 40
101.0
 40
101.0
 40
101.0
 40
102.0
 40
102.0
 40
102.0
 40
103.0
 40
103.0
 40
103.0
 40
104.0
 40
104.0
 40
104.0
 40
105.0
 40
105.0
 40
105.0
 40
106.0
 40
106.0
 40
106.0
 40
107.0
 40
107.0
 40
107.0
 40
108.0
 40
108.0
 40
108.0
 40
109.0
 40
109.0
 40
109.0
 40
110.0
 40
110.0
 40
110.0
 40
111.0
 40
111.0
 40
111.0
 40
112.0
 40
112.0
 40
112.0
 40
113.0
 40
113.0
 40
113.0
 40
114.0
 40
114.0
 40
114.0
 40
115.0
 40
115.0
 40
115.0
 40
116.0
 40
116.0
 40
116.0
 40
117.0
 40
117.0
 40
117.0
 40
118.0
 40
118.0
 40
118.0
 40
119.0
 40
119.0
 40
119.0
 40
120.0
 40
120.0
 40
120.0
 40
121.0
 40
121.0
 40
121.0
 40
122.0
 40
122.0
 40
122.0
 40
123.0
 40
123.0
 40
123.0
 40
124.0
 40
124.0
 40
124.0
 40
125.0
 40
125.0
 40
125.0
 40
126.0
 40
126.0
 40
126.0
 40
127.0
 40
127.0
 40
127.0
 40
128.0
 40
128.0
 40
128.0
 40
129.0
 40
129.0
 40
129.0
 40
130.0
 40
130.0
 40
130.0
 40
131.0
 40
131.0
 40
131.0
 40
132.0
 40
132.0
 40
132.0
 40
133.0
 40
133.0
 40
133.0
 40
134.0
 40
134.0
 40
134.0
 40
135.0
 40
135.0
 40
135.0
 40
136.0
 40
136.0
 40
136.0
 40
137.0
 40
137.0
 40
137.0
 40
138.0
 40
138.0
 40
138.0
 40
139.0
 40
139.0
 40
139.0
 40
140.0
 40
140.0
 40
140.0
 40
141.0
 40
141.0
 40
141.0
 40
142.0
 40
142.0
 40
142.0
 40
143.0
 40
143.0
 40
143.0
 40
144.0
 40
144.0
 40
144.0
 40
145.0
 40
145.0
 40
145.0
 40
146.0
 40
146.0
 40
146.0
 40
147.0
 40
147.0
 40
147.0
 40
148.0
 40
148.0
 40
148.0
 40
149.0
 40
149.0
 40
149.0
 40
150.0
 40
150.0
 40
150.0
 40
151.0
 40
151.0
 40
151.0
 40
152.0
 40
152.0
 40
152.0
 40
153.0
 40
153.0
 40
153.0
 40
154.0
 40
154.0
 40
154.0
 40
155.0
 40
155.0
 40
155.0
 40
156.0
 40
156.0
 40
156.0
 40
157.0
 40
157.0
 40
157.0
 40
158.0
 40
158.0
 40
158.0
 40
159.0
 40
159.0
 40
159.0
 40
160.0
 40
160.0
 40
160.0
 40
161.0
 40
161.0
 40
161.0
 40
162.0
 40
162.0
 40
162.0
 40
163.0
 40
163.0
 40
163.0
 40
164.0
 40
164.0
 40
164.0
 40
164.0
 10
113.2200011770597
 20
274.8931200390313
 30
0.0
 10
113.2200011770597
 20
274.8931200390313
 30
0.0
 10
113.2200011770597
 20
58.05973040950576
 30
0.0
 10
113.2200011770597
 20
58.05973040950576
 30
0.0
 10
113.2200011770597
 20
58.04873645168317
 30
0.0
 10
113.22899623346
 20
58.03974139528287
 30
0.0
 10
113.2399901912826
 20
58.03974139528287
 30
0.0
 10
113.2399901912826
 20
58.03974139528287
 30
0.0
 10
119.219993713058
 20
58.03974139528287
 30
0.0
 10
119.219993713058
 20
58.03974139528287
 30
0.0
 10
119.2399979860704
 20
58.03974139528287
 30
0.0
 10
119.219993713058
 20
58.05973040950576
 30
0.0
 10
119.219993713058
 20
58.03974139528287
 30
0.0
 10
119.219993713058
 20
58.03974139528287
 30
0.0
 10
119.219993713058
 20
55.05973032680925
 30
0.0
 10
119.219993713058
 20
55.05973032680925
 30
0.0
 10
119.219993713058
 20
55.04873636898667
 30
0.0
 10
119.2289887694583
 20
55.03974131258637
 30
0.0
 10
119.2399827272809
 20
55.03974131258637
 30
0.0
 10
119.2399827272809
 20
55.03974131258637
 30
0.0
 10
125.2399981514634
 20
55.03974131258637
 30
0.0
 10
125.2399981514634
 20
55.03974131258637
 30
0.0
 10
125.2509963054529
 20
55.03974131258637
 30
0.0
 10
125.259994795081
 20
55.04873980221449
 30
0.0
 10
125.259994795081
 20
55.05973795620399
 30
0.0
 10
125.259994795081
 20
55.05973795620399
 30
0.0
 10
125.259994795081
 20
58.03974139528287
 30
0.0
 10
125.259994795081
 20
58.03974139528287
 30
0.0
 10
125.259994795081
 20
58.05973040950576
 30
0.0
 10
125.2399981514634
 20
58.03974139528287
 30
0.0
 10
125.259994795081
 20
58.03974139528287
 30
0.0
 10
125.259994795081
 20
58.03974139528287
 30
0.0
 10
131.219994043844
 20
58.03974139528287
 30
0.0
 10
131.219994043844
 20
58.03974139528287
 30
0.0
 10
131.2399983168564
 20
58.03974139528287
 30
0.0
 10
131.219994043844
 20
58.05973040950576
 30
0.0
 10
131.219994043844
 20
58.03974139528287
 30
0.0
 10
131.219994043844
 20
58.03974139528287
 30
0.0
 10
131.219994043844
 20
55.05973032680925
 30
0.0
 10
131.219994043844
 20
55.05973032680925
 30
0.0
 10
131.219994043844
 20
55.04873636898667
 30
0.0
 10
131.2289891002443
 20
55.03974131258637
 30
0.0
 10
131.2399830580669
 20
55.03974131258637
 30
0.0
 10
131.2399830580669
 20
55.03974131258637
 30
0.0
 10
137.2399984822494
 20
55.03974131258637
 30
0.0
 10
137.2399984822494
 20
55.03974131258637
 30
0.0
 10
137.2509966362389
 20
55.03974131258637
 30
0.0
 10
137.259995125867
 20
55.04873980221449
 30
0.0
 10
137.259995125867
 20
55.05973795620399
 30
0.0
 10
137.259995125867
 20
55.05973795620399
 30
0.0
 10
137.259995125867
 20
58.03974139528287
 30
0.0
 10
137.259995125867
 20
58.03974139528287
 30
0.0
 10
137.259995125867
 20
58.05973040950576
 30
0.0
 10
137.2399984822494
 20
58.03974139528287
 30
0.0
 10
137.259995125867
 20
58.03974139528287
 30
0.0
 10
137.259995125867
 20
58.03974139528287
 30
0.0
 10
143.21999437463
 20
58.03974139528287
 30
0.0
 10
143.21999437463
 20
58.03974139528287
 30
0.0
 10
143.2399986476424
 20
58.03974139528287
 30
0.0
 10
143.21999437463
 20
58.05973040950576
 30
0.0
 10
143.21999437463
 20
58.03974139528287
 30
0.0
 10
143.21999437463
 20
58.03974139528287
 30
0.0
 10
143.21999437463
 20
55.05973032680925
 30
0.0
 10
143.21999437463
 20
55.05973032680925
 30
0.0
 10
143.21999437463
 20
55.04873636898667
 30
0.0
 10
143.2289894310303
 20
55.03974131258637
 30
0.0
 10
143.2399833888529
 20
55.03974131258637
 30
0.0
 10
143.2399833888529
 20
55.03974131258637
 30
0.0
 10
230.2399972311437
 20
55.03974131258637
 30
0.0
 10
230.2399972311437
 20
55.03974131258637
 30
0.0
 10
230.2509974832169
 20
55.03974131258637
 30
0.0
 10
230.2599976894586
 20
55.04874151882809
 30
0.0
 10
230.2599976894586
 20
55.05974177090136
 30
0.0
 10
230.2599976894586
 20
55.05974177090136
 30
0.0
 10
230.2599976894586
 20
65.03974158824139
 30
0.0
 10
230.2599976894586
 20
65.03974158824139
 30
0.0
 10
230.2599976894586
 20
65.05973060246425
 30
0.0
 10
230.2399972311437
 20
65.03974158824139
 30
0.0
 10
230.2599976894586
 20
65.03974158824139
 30
0.0
 10
230.2599976894586
 20
65.03974158824139
 30
0.0
 10
233.2399973138401
 20
65.03974158824139
 30
0.0
 10
233.2399973138401
 20
65.03974158824139
 30
0.0
 10
233.2509975659134
 20
65.03974158824139
 30
0.0
 10
233.2599977721551
 20
65.04874179448309
 30
0.0
 10
233.2599977721551
 20
65.05974204655638
 30
0.0
 10
233.2599977721551
 20
65.05974204655638
 30
0.0
 10
233.2599977721551
 20
71.05973076785726
 30
0.0
 10
233.2599977721551
 20
71.05973076785726
 30
0.0
 10
233.2599977721551
 20
71.07073311801432
 30
0.0
 10
233.2509958492995
 20
71.07973504086963
 30
0.0
 10
233.2399934991428
 20
71.07973504086963
 30
0.0
 10
233.2399934991428
 20
71.07973504086963
 30
0.0
 10
230.2599976894586
 20
71.07973504086963
 30
0.0
 10
230.2599976894586
 20
71.07973504086963
 30
0.0
 10
230.2399972311437
 20
71.07973504086963
 30
0.0
 10
230.2599976894586
 20
71.05973076785726
 30
0.0
 10
230.2599976894586
 20
71.07973504086963
 30
0.0
 10
230.2599976894586
 20
71.07973504086963
 30
0.0
 10
230.2599976894586
 20
77.03974191902739
 30
0.0
 10
230.2599976894586
 20
77.03974191902739
 30
0.0
 10
230.2599976894586
 20
77.05973093325027
 30
0.0
 10
230.2399972311437
 20
77.03974191902739
 30
0.0
 10
230.2599976894586
 20
77.03974191902739
 30
0.0
 10
230.2599976894586
 20
77.03974191902739
 30
0.0
 10
233.2399973138401
 20
77.03974191902739
 30
0.0
 10
233.2399973138401
 20
77.03974191902739
 30
0.0
 10
233.2509975659134
 20
77.03974191902739
 30
0.0
 10
233.2599977721551
 20
77.0487421252691
 30
0.0
 10
233.2599977721551
 20
77.05974237734238
 30
0.0
 10
233.2599977721551
 20
77.05974237734238
 30
0.0
 10
233.2599977721551
 20
83.05973109864329
 30
0.0
 10
233.2599977721551
 20
83.05973109864329
 30
0.0
 10
233.2599977721551
 20
83.07073344880034
 30
0.0
 10
233.2509958492995
 20
83.07973537165564
 30
0.0
 10
233.2399934991428
 20
83.07973537165564
 30
0.0
 10
233.2399934991428
 20
83.07973537165564
 30
0.0
 10
230.2599976894586
 20
83.07973537165564
 30
0.0
 10
230.2599976894586
 20
83.07973537165564
 30
0.0
 10
230.2399972311437
 20
83.07973537165564
 30
0.0
 10
230.2599976894586
 20
83.05973109864329
 30
0.0
 10
230.2599976894586
 20
83.07973537165564
 30
0.0
 10
230.2599976894586
 20
83.07973537165564
 30
0.0
 10
230.2599976894586
 20
93.05973137429829
 30
0.0
 10
230.2599976894586
 20
93.05973137429829
 30
0.0
 10
230.2599976894586
 20
93.07073372445534
 30
0.0
 10
230.250995766603
 20
93.07973564731065
 30
0.0
 10
230.2399934164462
 20
93.07973564731065
 30
0.0
 10
230.2399934164462
 20
93.07973564731065
 30
0.0
 10
203.2599969451901
 20
93.07973564731065
 30
0.0
 10
203.2599969451901
 20
93.07973564731065
 30
0.0
 10
203.2399964868751
 20
93.07973564731065
 30
0.0
 10
203.2599969451901
 20
93.05973137429829
 30
0.0
 10
203.2599969451901
 20
93.07973564731065
 30
0.0
 10
203.2599969451901
 20
93.07973564731065
 30
0.0
 10
203.2599969451901
 20
101.0397425805994
 30
0.0
 10
203.2599969451901
 20
101.0397425805994
 30
0.0
 10
203.2599969451901
 20
101.0597315948223
 30
0.0
 10
203.2399964868751
 20
101.0397425805994
 30
0.0
 10
203.2599969451901
 20
101.0397425805994
 30
0.0
 10
203.2599969451901
 20
101.0397425805994
 30
0.0
 10
206.2399965695716
 20
101.0397425805994
 30
0.0
 10
206.2399965695716
 20
101.0397425805994
 30
0.0
 10
206.2509968216449
 20
101.0397425805994
 30
0.0
 10
206.2599970278866
 20
101.0487427868411
 30
0.0
 10
206.2599970278866
 20
101.0597430389144
 30
0.0
 10
206.2599970278866
 20
101.0597430389144
 30
0.0
 10
206.2599970278866
 20
107.0597317602153
 30
0.0
 10
206.2599970278866
 20
107.0597317602153
 30
0.0
 10
206.2599970278866
 20
107.0707341103723
 30
0.0
 10
206.2509951050309
 20
107.0797360332276
 30
0.0
 10
206.2399927548742
 20
107.0797360332276
 30
0.0
 10
206.2399927548742
 20
107.0797360332276
 30
0.0
 10
203.2599969451901
 20
107.0797360332276
 30
0.0
 10
203.2599969451901
 20
107.0797360332276
 30
0.0
 10
203.2399964868751
 20
107.0797360332276
 30
0.0
 10
203.2599969451901
 20
107.0597317602153
 30
0.0
 10
203.2599969451901
 20
107.0797360332276
 30
0.0
 10
203.2599969451901
 20
107.0797360332276
 30
0.0
 10
203.2599969451901
 20
113.0397429113854
 30
0.0
 10
203.2599969451901
 20
113.0397429113854
 30
0.0
 10
203.2599969451901
 20
113.0597319256083
 30
0.0
 10
203.2399964868751
 20
113.0397429113854
 30
0.0
 10
203.2599969451901
 20
113.0397429113854
 30
0.0
 10
203.2599969451901
 20
113.0397429113854
 30
0.0
 10
206.2399965695716
 20
113.0397429113854
 30
0.0
 10
206.2399965695716
 20
113.0397429113854
 30
0.0
 10
206.2509968216449
 20
113.0397429113854
 30
0.0
 10
206.2599970278866
 20
113.0487431176271
 30
0.0
 10
206.2599970278866
 20
113.0597433697004
 30
0.0
 10
206.2599970278866
 20
113.0597433697004
 30
0.0
 10
206.2599970278866
 20
119.0597320910013
 30
0.0
 10
206.2599970278866
 20
119.0597320910013
 30
0.0
 10
206.2599970278866
 20
119.0707344411583
 30
0.0
 10
206.2509951050309
 20
119.0797363640136
 30
0.0
 10
206.2399927548742
 20
119.0797363640136
 30
0.0
 10
206.2399927548742
 20
119.0797363640136
 30
0.0
 10
203.2599969451901
 20
119.0797363640136
 30
0.0
 10
203.2599969451901
 20
119.0797363640136
 30
0.0
 10
203.2399964868751
 20
119.0797363640136
 30
0.0
 10
203.2599969451901
 20
119.0597320910013
 30
0.0
 10
203.2599969451901
 20
119.0797363640136
 30
0.0
 10
203.2599969451901
 20
119.0797363640136
 30
0.0
 10
203.2599969451901
 20
125.0397432421714
 30
0.0
 10
203.2599969451901
 20
125.0397432421714
 30
0.0
 10
203.2599969451901
 20
125.0597322563943
 30
0.0
 10
203.2399964868751
 20
125.0397432421714
 30
0.0
 10
203.2599969451901
 20
125.0397432421714
 30
0.0
 10
203.2599969451901
 20
125.0397432421714
 30
0.0
 10
206.2399965695716
 20
125.0397432421714
 30
0.0
 10
206.2399965695716
 20
125.0397432421714
 30
0.0
 10
206.2509968216449
 20
125.0397432421714
 30
0.0
 10
206.2599970278866
 20
125.0487434484131
 30
0.0
 10
206.2599970278866
 20
125.0597437004864
 30
0.0
 10
206.2599970278866
 20
125.0597437004864
 30
0.0
 10
206.2599970278866
 20
131.0597324217873
 30
0.0
 10
206.2599970278866
 20
131.0597324217873
 30
0.0
 10
206.2599970278866
 20
131.0707347719444
 30
0.0
 10
206.2509951050309
 20
131.0797366947997
 30
0.0
 10
206.2399927548742
 20
131.0797366947997
 30
0.0
 10
206.2399927548742
 20
131.0797366947997
 30
0.0
 10
203.2599969451901
 20
131.0797366947997
 30
0.0
 10
203.2599969451901
 20
131.0797366947997
 30
0.0
 10
203.2399964868751
 20
131.0797366947997
 30
0.0
 10
203.2599969451901
 20
131.0597324217873
 30
0.0
 10
203.2599969451901
 20
131.0797366947997
 30
0.0
 10
203.2599969451901
 20
131.0797366947997
 30
0.0
 10
203.2599969451901
 20
137.0397435729574
 30
0.0
 10
203.2599969451901
 20
137.0397435729574
 30
0.0
 10
203.2599969451901
 20
137.0597325871803
 30
0.0
 10
203.2399964868751
 20
137.0397435729574
 30
0.0
 10
203.2599969451901
 20
137.0397435729574
 30
0.0
 10
203.2599969451901
 20
137.0397435729574
 30
0.0
 10
206.2399965695716
 20
137.0397435729574
 30
0.0
 10
206.2399965695716
 20
137.0397435729574
 30
0.0
 10
206.2509968216449
 20
137.0397435729574
 30
0.0
 10
206.2599970278866
 20
137.0487437791991
 30
0.0
 10
206.2599970278866
 20
137.0597440312724
 30
0.0
 10
206.2599970278866
 20
137.0597440312724
 30
0.0
 10
206.2599970278866
 20
143.0597327525733
 30
0.0
 10
206.2599970278866
 20
143.0597327525733
 30
0.0
 10
206.2599970278866
 20
143.0707351027304
 30
0.0
 10
206.2509951050309
 20
143.0797370255857
 30
0.0
 10
206.2399927548742
 20
143.0797370255857
 30
0.0
 10
206.2399927548742
 20
143.0797370255857
 30
0.0
 10
203.2599969451901
 20
143.0797370255857
 30
0.0
 10
203.2599969451901
 20
143.0797370255857
 30
0.0
 10
203.2399964868751
 20
143.0797370255857
 30
0.0
 10
203.2599969451901
 20
143.0597327525733
 30
0.0
 10
203.2599969451901
 20
143.0797370255857
 30
0.0
 10
203.2599969451901
 20
143.0797370255857
 30
0.0
 10
203.2599969451901
 20
149.0397439037435
 30
0.0
 10
203.2599969451901
 20
149.0397439037435
 30
0.0
 10
203.2599969451901
 20
149.0597329179663
 30
0.0
 10
203.2399964868751
 20
149.0397439037435
 30
0.0
 10
203.2599969451901
 20
149.0397439037435
 30
0.0
 10
203.2599969451901
 20
149.0397439037435
 30
0.0
 10
206.2399965695716
 20
149.0397439037435
 30
0.0
 10
206.2399965695716
 20
149.0397439037435
 30
0.0
 10
206.2509968216449
 20
149.0397439037435
 30
0.0
 10
206.2599970278866
 20
149.0487441099851
 30
0.0
 10
206.2599970278866
 20
149.0597443620584
 30
0.0
 10
206.2599970278866
 20
149.0597443620584
 30
0.0
 10
206.2599970278866
 20
155.0597330833593
 30
0.0
 10
206.2599970278866
 20
155.0597330833593
 30
0.0
 10
206.2599970278866
 20
155.0707354335164
 30
0.0
 10
206.2509951050309
 20
155.0797373563717
 30
0.0
 10
206.2399927548742
 20
155.0797373563717
 30
0.0
 10
206.2399927548742
 20
155.0797373563717
 30
0.0
 10
203.2599969451901
 20
155.0797373563717
 30
0.0
 10
203.2599969451901
 20
155.0797373563717
 30
0.0
 10
203.2399964868751
 20
155.0797373563717
 30
0.0
 10
203.2599969451901
 20
155.0597330833593
 30
0.0
 10
203.2599969451901
 20
155.0797373563717
 30
0.0
 10
203.2599969451901
 20
155.0797373563717
 30
0.0
 10
203.2599969451901
 20
161.0397442345295
 30
0.0
 10
203.2599969451901
 20
161.0397442345295
 30
0.0
 10
203.2599969451901
 20
161.0597332487523
 30
0.0
 10
203.2399964868751
 20
161.0397442345295
 30
0.0
 10
203.2599969451901
 20
161.0397442345295
 30
0.0
 10
203.2599969451901
 20
161.0397442345295
 30
0.0
 10
206.2399965695716
 20
161.0397442345295
 30
0.0
 10
206.2399965695716
 20
161.0397442345295
 30
0.0
 10
206.2509968216449
 20
161.0397442345295
 30
0.0
 10
206.2599970278866
 20
161.0487444407711
 30
0.0
 10
206.2599970278866
 20
161.0597446928444
 30
0.0
 10
206.2599970278866
 20
161.0597446928444
 30
0.0
 10
206.2599970278866
 20
167.0597410435401
 30
0.0
 10
206.2599970278866
 20
167.0597410435401
 30
0.0
 10
206.2599970278866
 20
167.0707391975296
 30
0.0
 10
206.2509985382588
 20
167.0797376871577
 30
0.0
 10
206.240000384269
 20
167.0797376871577
 30
0.0
 10
206.240000384269
 20
167.0797376871577
 30
0.0
 10
203.2599969451901
 20
167.0797376871577
 30
0.0
 10
203.2599969451901
 20
167.0797376871577
 30
0.0
 10
203.2399964868751
 20
167.0797376871577
 30
0.0
 10
203.2599969451901
 20
167.0597410435401
 30
0.0
 10
203.2599969451901
 20
167.0797376871577
 30
0.0
 10
203.2599969451901
 20
167.0797376871577
 30
0.0
 10
203.2599969451901
 20
173.0397369359207
 30
0.0
 10
203.2599969451901
 20
173.0397369359207
 30
0.0
 10
203.2599969451901
 20
173.0597412089331
 30
0.0
 10
203.2399964868751
 20
173.0397369359207
 30
0.0
 10
203.2599969451901
 20
173.0397369359207
 30
0.0
 10
203.2599969451901
 20
173.0397369359207
 30
0.0
 10
206.2399965695716
 20
173.0397369359207
 30
0.0
 10
206.2399965695716
 20
173.0397369359207
 30
0.0
 10
206.2509968216449
 20
173.0397369359207
 30
0.0
 10
206.2599970278866
 20
173.0487371421624
 30
0.0
 10
206.2599970278866
 20
173.0597373942357
 30
0.0
 10
206.2599970278866
 20
173.0597373942357
 30
0.0
 10
206.2599970278866
 20
179.0597413743261
 30
0.0
 10
206.2599970278866
 20
179.0597413743261
 30
0.0
 10
206.2599970278866
 20
179.0707395283156
 30
0.0
 10
206.2509985382588
 20
179.0797380179437
 30
0.0
 10
206.240000384269
 20
179.0797380179437
 30
0.0
 10
206.240000384269
 20
179.0797380179437
 30
0.0
 10
203.2599969451901
 20
179.0797380179437
 30
0.0
 10
203.2599969451901
 20
179.0797380179437
 30
0.0
 10
203.2399964868751
 20
179.0797380179437
 30
0.0
 10
203.2599969451901
 20
179.0597413743261
 30
0.0
 10
203.2599969451901
 20
179.0797380179437
 30
0.0
 10
203.2599969451901
 20
179.0797380179437
 30
0.0
 10
203.2599969451901
 20
185.0397372667067
 30
0.0
 10
203.2599969451901
 20
185.0397372667067
 30
0.0
 10
203.2599969451901
 20
185.0597415397191
 30
0.0
 10
203.2399964868751
 20
185.0397372667067
 30
0.0
 10
203.2599969451901
 20
185.0397372667067
 30
0.0
 10
203.2599969451901
 20
185.0397372667067
 30
0.0
 10
206.2399965695716
 20
185.0397372667067
 30
0.0
 10
206.2399965695716
 20
185.0397372667067
 30
0.0
 10
206.2509968216449
 20
185.0397372667067
 30
0.0
 10
206.2599970278866
 20
185.0487374729484
 30
0.0
 10
206.2599970278866
 20
185.0597377250217
 30
0.0
 10
206.2599970278866
 20
185.0597377250217
 30
0.0
 10
206.2599970278866
 20
191.0597417051121
 30
0.0
 10
206.2599970278866
 20
191.0597417051121
 30
0.0
 10
206.2599970278866
 20
191.0707398591016
 30
0.0
 10
206.2509985382588
 20
191.0797383487297
 30
0.0
 10
206.240000384269
 20
191.0797383487297
 30
0.0
 10
206.240000384269
 20
191.0797383487297
 30
0.0
 10
203.2599969451901
 20
191.0797383487297
 30
0.0
 10
203.2599969451901
 20
191.0797383487297
 30
0.0
 10
203.2399964868751
 20
191.0797383487297
 30
0.0
 10
203.2599969451901
 20
191.0597417051121
 30
0.0
 10
203.2599969451901
 20
191.0797383487297
 30
0.0
 10
203.2599969451901
 20
191.0797383487297
 30
0.0
 10
203.2599969451901
 20
197.0397375974927
 30
0.0
 10
203.2599969451901
 20
197.0397375974927
 30
0.0
 10
203.2599969451901
 20
197.0597418705051
 30
0.0
 10
203.2399964868751
 20
197.0397375974927
 30
0.0
 10
203.2599969451901
 20
197.0397375974927
 30
0.0
 10
203.2599969451901
 20
197.0397375974927
 30
0.0
 10
206.2399965695716
 20
197.0397375974927
 30
0.0
 10
206.2399965695716
 20
197.0397375974927
 30
0.0
 10
206.2509968216449
 20
197.0397375974927
 30
0.0
 10
206.2599970278866
 20
197.0487378037344
 30
0.0
 10
206.2599970278866
 20
197.0597380558077
 30
0.0
 10
206.2599970278866
 20
197.0597380558077
 30
0.0
 10
206.2599970278866
 20
203.0597420358981
 30
0.0
 10
206.2599970278866
 20
203.0597420358981
 30
0.0
 10
206.2599970278866
 20
203.0707401898876
 30
0.0
 10
206.2509985382588
 20
203.0797386795157
 30
0.0
 10
206.240000384269
 20
203.0797386795157
 30
0.0
 10
206.240000384269
 20
203.0797386795157
 30
0.0
 10
203.2599969451901
 20
203.0797386795157
 30
0.0
 10
203.2599969451901
 20
203.0797386795157
 30
0.0
 10
203.2399964868751
 20
203.0797386795157
 30
0.0
 10
203.2599969451901
 20
203.0597420358981
 30
0.0
 10
203.2599969451901
 20
203.0797386795157
 30
0.0
 10
203.2599969451901
 20
203.0797386795157
 30
0.0
 10
203.2599969451901
 20
209.0397379282788
 30
0.0
 10
203.2599969451901
 20
209.0397379282788
 30
0.0
 10
203.2599969451901
 20
209.0597422012911
 30
0.0
 10
203.2399964868751
 20
209.0397379282788
 30
0.0
 10
203.2599969451901
 20
209.0397379282788
 30
0.0
 10
203.2599969451901
 20
209.0397379282788
 30
0.0
 10
206.2399965695716
 20
209.0397379282788
 30
0.0
 10
206.2399965695716
 20
209.0397379282788
 30
0.0
 10
206.2509968216449
 20
209.0397379282788
 30
0.0
 10
206.2599970278866
 20
209.0487381345205
 30
0.0
 10
206.2599970278866
 20
209.0597383865938
 30
0.0
 10
206.2599970278866
 20
209.0597383865938
 30
0.0
 10
206.2599970278866
 20
215.0597423666841
 30
0.0
 10
206.2599970278866
 20
215.0597423666841
 30
0.0
 10
206.2599970278866
 20
215.0707405206739
 30
0.0
 10
206.2509985382588
 20
215.0797390103018
 30
0.0
 10
206.240000384269
 20
215.0797390103018
 30
0.0
 10
206.240000384269
 20
215.0797390103018
 30
0.0
 10
203.2599969451901
 20
215.0797390103018
 30
0.0
 10
203.2599969451901
 20
215.0797390103018
 30
0.0
 10
203.2399964868751
 20
215.0797390103018
 30
0.0
 10
203.2599969451901
 20
215.0597423666841
 30
0.0
 10
203.2599969451901
 20
215.0797390103018
 30
0.0
 10
203.2599969451901
 20
215.0797390103018
 30
0.0
 10
203.2599969451901
 20
223.0397383141958
 30
0.0
 10
203.2599969451901
 20
223.0397383141958
 30
0.0
 10
203.2599969451901
 20
223.0597425872081
 30
0.0
 10
203.2399964868751
 20
223.0397383141958
 30
0.0
 10
203.2599969451901
 20
223.0397383141958
 30
0.0
 10
203.2599969451901
 20
223.0397383141958
 30
0.0
 10
230.2399972311437
 20
223.0397383141958
 30
0.0
 10
230.2399972311437
 20
223.0397383141958
 30
0.0
 10
230.2509974832169
 20
223.0397383141958
 30
0.0
 10
230.2599976894586
 20
223.0487385204375
 30
0.0
 10
230.2599976894586
 20
223.0597387725108
 30
0.0
 10
230.2599976894586
 20
223.0597387725108
 30
0.0
 10
230.2599976894586
 20
232.0397385622853
 30
0.0
 10
230.2599976894586
 20
232.0397385622853
 30
0.0
 10
230.2599976894586
 20
232.0597390206003
 30
0.0
 10
230.2399972311437
 20
232.0397385622853
 30
0.0
 10
230.2599976894586
 20
232.0397385622853
 30
0.0
 10
230.2599976894586
 20
232.0397385622853
 30
0.0
 10
233.2399973138401
 20
232.0397385622853
 30
0.0
 10
233.2399973138401
 20
232.0397385622853
 30
0.0
 10
233.2509975659134
 20
232.0397385622853
 30
0.0
 10
233.2599977721551
 20
232.048738768527
 30
0.0
 10
233.2599977721551
 20
232.0597390206003
 30
0.0
 10
233.2599977721551
 20
232.0597390206003
 30
0.0
 10
233.2599977721551
 20
238.0597391859933
 30
0.0
 10
233.2599977721551
 20
238.0597391859933
 30
0.0
 10
233.2599977721551
 20
238.0707394380666
 30
0.0
 10
233.2509975659134
 20
238.0797396443083
 30
0.0
 10
233.2399973138401
 20
238.0797396443083
 30
0.0
 10
233.2399973138401
 20
238.0797396443083
 30
0.0
 10
230.2599976894586
 20
238.0797396443083
 30
0.0
 10
230.2599976894586
 20
238.0797396443083
 30
0.0
 10
230.2399972311437
 20
238.0797396443083
 30
0.0
 10
230.2599976894586
 20
238.0597391859933
 30
0.0
 10
230.2599976894586
 20
238.0797396443083
 30
0.0
 10
230.2599976894586
 20
238.0797396443083
 30
0.0
 10
230.2599976894586
 20
244.0397388930713
 30
0.0
 10
230.2599976894586
 20
244.0397388930713
 30
0.0
 10
230.2599976894586
 20
244.0597393513863
 30
0.0
 10
230.2399972311437
 20
244.0397388930713
 30
0.0
 10
230.2599976894586
 20
244.0397388930713
 30
0.0
 10
230.2599976894586
 20
244.0397388930713
 30
0.0
 10
233.2399973138401
 20
244.0397388930713
 30
0.0
 10
233.2399973138401
 20
244.0397388930713
 30
0.0
 10
233.2509975659134
 20
244.0397388930713
 30
0.0
 10
233.2599977721551
 20
244.048739099313
 30
0.0
 10
233.2599977721551
 20
244.0597393513863
 30
0.0
 10
233.2599977721551
 20
244.0597393513863
 30
0.0
 10
233.2599977721551
 20
250.0597395167793
 30
0.0
 10
233.2599977721551
 20
250.0597395167793
 30
0.0
 10
233.2599977721551
 20
250.0707397688526
 30
0.0
 10
233.2509975659134
 20
250.0797399750943
 30
0.0
 10
233.2399973138401
 20
250.0797399750943
 30
0.0
 10
233.2399973138401
 20
250.0797399750943
 30
0.0
 10
230.2599976894586
 20
250.0797399750943
 30
0.0
 10
230.2599976894586
 20
250.0797399750943
 30
0.0
 10
230.2399972311437
 20
250.0797399750943
 30
0.0
 10
230.2599976894586
 20
250.0597395167793
 30
0.0
 10
230.2599976894586
 20
250.0797399750943
 30
0.0
 10
230.2599976894586
 20
250.0797399750943
 30
0.0
 10
230.2599976894586
 20
256.0397392238574
 30
0.0
 10
230.2599976894586
 20
256.0397392238574
 30
0.0
 10
230.2599976894586
 20
256.0597396821723
 30
0.0
 10
230.2399972311437
 20
256.0397392238574
 30
0.0
 10
230.2599976894586
 20
256.0397392238574
 30
0.0
 10
230.2599976894586
 20
256.0397392238574
 30
0.0
 10
233.2399973138401
 20
256.0397392238574
 30
0.0
 10
233.2399973138401
 20
256.0397392238574
 30
0.0
 10
233.2509975659134
 20
256.0397392238574
 30
0.0
 10
233.2599977721551
 20
256.048739430099
 30
0.0
 10
233.2599977721551
 20
256.0597396821723
 30
0.0
 10
233.2599977721551
 20
256.0597396821723
 30
0.0
 10
233.2599977721551
 20
262.0597398475653
 30
0.0
 10
233.2599977721551
 20
262.0597398475653
 30
0.0
 10
233.2599977721551
 20
262.0707400996386
 30
0.0
 10
233.2509975659134
 20
262.0797403058803
 30
0.0
 10
233.2399973138401
 20
262.0797403058803
 30
0.0
 10
233.2399973138401
 20
262.0797403058803
 30
0.0
 10
230.2599976894586
 20
262.0797403058803
 30
0.0
 10
230.2599976894586
 20
262.0797403058803
 30
0.0
 10
230.2399972311437
 20
262.0797403058803
 30
0.0
 10
230.2599976894586
 20
262.0597398475653
 30
0.0
 10
230.2599976894586
 20
262.0797403058803
 30
0.0
 10
230.2599976894586
 20
262.0797403058803
 30
0.0
 10
230.2599976894586
 20
268.0397395546433
 30
0.0
 10
230.2599976894586
 20
268.0397395546433
 30
0.0
 10
230.2599976894586
 20
268.0597400129583
 30
0.0
 10
230.2399972311437
 20
268.0397395546433
 30
0.0
 10
230.2599976894586
 20
268.0397395546433
 30
0.0
 10
230.2599976894586
 20
268.0397395546433
 30
0.0
 10
233.2399973138401
 20
268.0397395546433
 30
0.0
 10
233.2399973138401
 20
268.0397395546433
 30
0.0
 10
233.2509975659134
 20
268.0397395546433
 30
0.0
 10
233.2599977721551
 20
268.0487397608851
 30
0.0
 10
233.2599977721551
 20
268.0597400129583
 30
0.0
 10
233.2599977721551
 20
268.0597400129583
 30
0.0
 10
233.2599977721551
 20
274.0597401783513
 30
0.0
 10
233.2599977721551
 20
274.0597401783513
 30
0.0
 10
233.2599977721551
 20
274.0707404304246
 30
0.0
 10
233.2509975659134
 20
274.0797406366663
 30
0.0
 10
233.2399973138401
 20
274.0797406366663
 30
0.0
 10
233.2399973138401
 20
274.0797406366663
 30
0.0
 10
230.2599976894586
 20
274.0797406366663
 30
0.0
 10
230.2599976894586
 20
274.0797406366663
 30
0.0
 10
230.2399972311437
 20
274.0797406366663
 30
0.0
 10
230.2599976894586
 20
274.0597401783513
 30
0.0
 10
230.2599976894586
 20
274.0797406366663
 30
0.0
 10
230.2599976894586
 20
274.0797406366663
 30
0.0
 10
230.2599976894586
 20
283.0597404264409
 30
0.0
 10
230.2599976894586
 20
283.0597404264409
 30
0.0
 10
230.2599976894586
 20
283.0707406785141
 30
0.0
 10
230.2509974832169
 20
283.0797408847558
 30
0.0
 10
230.2399972311437
 20
283.0797408847558
 30
0.0
 10
230.2399972311437
 20
283.0797408847558
 30
0.0
 10
121.4066220227843
 20
283.0797408847558
 30
0.0
 10
121.4066220227843
 20
283.0797408847558
 30
0.0
 10
116.9039805576359
 20
283.0797408847558
 30
0.0
 10
113.2200011770597
 20
279.3957615041797
 30
0.0
 10
113.2200011770597
 20
274.8931200390313
 30
0.0
  0
SPLINE
  5
A0
330
70
100
AcDbEntity
  8
Layer 1
 62
    18
420
        0
370
     5
100
AcDbSpline
210
0.0
220
0.0
230
1.0
 70
     9
 71
     3
 72
    23
 73
    19
 74
     0
 42
0.0000000001
 43
0.0000000001
 40
0.0
 40
0.0
 40
0.0
 40
0.0
 40
1.0
 40
1.0
 40
1.0
 40
2.0
 40
2.0
 40
2.0
 40
3.0
 40
3.0
 40
3.0
 40
4.0
 40
4.0
 40
4.0
 40
5.0
 40
5.0
 40
5.0
 40
6.0
 40
6.0
 40
6.0
 40
6.0
 10
153.394662769378
 20
200.4834696836556
 30
0.0
 10
153.394662769378
 20
200.4834696836556
 30
0.0
 10
135.7628509397295
 20
256.8919564024634
 30
0.0
 10
135.7628509397295
 20
256.8919564024634
 30
0.0
 10
135.3737072971396
 20
258.1369222747654
 30
0.0
 10
136.7588624749516
 20
259.3107998665272
 30
0.0
 10
138.6170442321774
 20
259.3107998665272
 30
0.0
 10
138.6170442321774
 20
259.3107998665272
 30
0.0
 10
173.8806410558824
 20
259.3107998665272
 30
0.0
 10
173.8806410558824
 20
259.3107998665272
 30
0.0
 10
175.7388224511655
 20
259.3107998665272
 30
0.0
 10
177.1239775498676
 20
258.1369227054885
 30
0.0
 10
176.7348345335156
 20
256.8919569949127
 30
0.0
 10
176.7348345335156
 20
256.8919569949127
 30
0.0
 10
159.103048978455
 20
200.4834708859969
 30
0.0
 10
159.103048978455
 20
200.4834708859969
 30
0.0
 10
158.2285815713823
 20
197.6858312237773
 30
0.0
 10
154.2691313549696
 20
197.6858303898092
 30
0.0
 10
153.394662769378
 20
200.4834696836556
 30
0.0
  0
SPLINE
  5
A1
330
70
100
AcDbEntity
  8
Layer 1
 62
    18
420
        0
370
     5
100
AcDbSpline
210
0.0
220
0.0
230
1.0
 70
     9
 71
     3
 72
    23
 73
    19
 74
     0
 42
0.0000000001
 43
0.0000000001
 40
0.0
 40
0.0
 40
0.0
 40
0.0
 40
1.0
 40
1.0
 40
1.0
 40
2.0
 40
2.0
 40
2.0
 40
3.0
 40
3.0
 40
3.0
 40
4.0
 40
4.0
 40
4.0
 40
5.0
 40
5.0
 40
5.0
 40
6.0
 40
6.0
 40
6.0
 40
6.0
 10
149.1498845292218
 20
168.6408981040307
 30
0.0
 10
149.1498845292218
 20
168.6408981040307
 30
0.0
 10
132.8389916392518
 20
116.4582935324971
 30
0.0
 10
132.8389916392518
 20
116.4582935324971
 30
0.0
 10
132.1056904231793
 20
114.1122804939546
 30
0.0
 10
127.0658790811013
 20
114.4779220181194
 30
0.0
 10
127.0658790811013
 20
116.8771365271368
 30
0.0
 10
127.0658790811013
 20
116.8771365271368
 30
0.0
 10
127.0658790811013
 20
221.2423456702053
 30
0.0
 10
127.0658790811013
 20
221.2423456702053
 30
0.0
 10
127.0658790811013
 20
223.6415601792228
 30
0.0
 10
132.105690423178
 20
224.0072017033876
 30
0.0
 10
132.8389916392518
 20
221.661188664845
 30
0.0
 10
132.8389916392518
 20
221.661188664845
 30
0.0
 10
149.1498845292218
 20
169.4785840933114
 30
0.0
 10
149.1498845292218
 20
169.4785840933114
 30
0.0
 10
149.2351303174687
 20
169.2058616072104
 30
0.0
 10
149.2351303174687
 20
168.9136205901317
 30
0.0
 10
149.1498845292218
 20
168.6408981040307
 30
0.0
  0
SPLINE
  5
A2
330
70
100
AcDbEntity
  8
Layer 1
 62
    18
420
        0
370
     5
100
AcDbSpline
210
0.0
220
0.0
230
1.0
 70
     9
 71
     3
 72
    23
 73
    19
 74
     0
 42
0.0000000001
 43
0.0000000001
 40
0.0
 40
0.0
 40
0.0
 40
0.0
 40
1.0
 40
1.0
 40
1.0
 40
2.0
 40
2.0
 40
2.0
 40
3.0
 40
3.0
 40
3.0
 40
4.0
 40
4.0
 40
4.0
 40
5.0
 40
5.0
 40
5.0
 40
6.0
 40
6.0
 40
6.0
 40
6.0
 10
159.1030495394578
 20
137.6360095165548
 30
0.0
 10
159.1030495394578
 20
137.6360095165548
 30
0.0
 10
176.7348345335156
 20
81.22752520242952
 30
0.0
 10
176.7348345335156
 20
81.22752520242952
 30
0.0
 10
177.1239775498676
 20
79.98255949185365
 30
0.0
 10
175.7388224511655
 20
78.80868233081502
 30
0.0
 10
173.8806410558824
 20
78.80868233081502
 30
0.0
 10
173.8806410558824
 20
78.80868233081502
 30
0.0
 10
138.6170442321774
 20
78.80868233081502
 30
0.0
 10
138.6170442321774
 20
78.80868233081502
 30
0.0
 10
136.7588624749516
 20
78.80868233081502
 30
0.0
 10
135.3737072971396
 20
79.98255992257617
 30
0.0
 10
135.7628509397295
 20
81.2275257948788
 30
0.0
 10
135.7628509397295
 20
81.2275257948788
 30
0.0
 10
153.3946622083739
 20
137.6360107188961
 30
0.0
 10
153.3946622083739
 20
137.6360107188961
 30
0.0
 10
154.2691309658452
 20
140.4336505626297
 30
0.0
 10
158.2285819605047
 20
140.4336497286616
 30
0.0
 10
159.1030495394578
 20
137.6360095165548
 30
0.0
  0
SPLINE
  5
A3
330
70
100
AcDbEntity
  8
Layer 1
 62
    18
420
        0
370
     5
100
AcDbSpline
210
0.0
220
0.0
230
1.0
 70
     9
 71
     3
 72
    23
 73
    19
 74
     0
 42
0.0000000001
 43
0.0000000001
 40
0.0
 40
0.0
 40
0.0
 40
0.0
 40
1.0
 40
1.0
 40
1.0
 40
2.0
 40
2.0
 40
2.0
 40
3.0
 40
3.0
 40
3.0
 40
4.0
 40
4.0
 40
4.0
 40
5.0
 40
5.0
 40
5.0
 40
6.0
 40
6.0
 40
6.0
 40
6.0
 10
179.6587239805458
 20
116.4582035794954
 30
0.0
 10
179.6587239805458
 20
116.4582035794954
 30
0.0
 10
163.3477996706357
 20
168.6408980920162
 30
0.0
 10
163.3477996706357
 20
168.6408980920162
 30
0.0
 10
163.26255386286
 20
168.9136205853036
 30
0.0
 10
163.2625538502545
 20
169.2058616159779
 30
0.0
 10
163.347799634503
 20
169.4785841166192
 30
0.0
 10
163.347799634503
 20
169.4785841166192
 30
0.0
 10
179.658723942622
 20
221.6612944327756
 30
0.0
 10
179.658723942622
 20
221.6612944327756
 30
0.0
 10
180.3920250959883
 20
224.0073075058403
 30
0.0
 10
185.4318365133183
 20
223.6416660120503
 30
0.0
 10
185.4318365133183
 20
221.2424514782736
 30
0.0
 10
185.4318365133183
 20
221.2424514782736
 30
0.0
 10
185.4318365133183
 20
116.8770466553254
 30
0.0
 10
185.4318365133183
 20
116.8770466553254
 30
0.0
 10
185.4318365133183
 20
114.4778321963881
 30
0.0
 10
180.3920253234565
 20
114.1121906107825
 30
0.0
 10
179.6587239805458
 20
116.4582035794954
 30
0.0
  0
LWPOLYLINE
  5
A4
330
70
100
AcDbEntity
  8
Layer 1
 62
    18
420
        0
370
     5
100
AcDbPolyline
 90
        4
 70
     1
 43
0.0
 10
94.99999834705624
 20
254.1600410525794
 10
9.999998368306323
 20
254.1600410525794
 10
9.999998368306323
 20
284.1600410450794
 10
94.99999834705624
 20
284.1600410450794
  0
LWPOLYLINE
  5
A5
330
70
100
AcDbEntity
  8
Layer 1
 62
    18
420
        0
370
     5
100
AcDbPolyline
 90
        4
 70
     1
 43
0.0
 10
81.14801320371366
 20
205.0607090055237
 10
81.14801320371366
 20
199.098755949831
 10
78.18820248125483
 20
199.098755949831
 10
78.18820248125483
 20
205.0607090055237
  0
LWPOLYLINE
  5
A6
330
70
100
AcDbEntity
  8
Layer 1
 62
    18
420
        0
370
     5
100
AcDbPolyline
 90
        4
 70
     1
 43
0.0
 10
81.14801320371366
 20
187.1007802855128
 10
78.18820248125483
 20
187.1007802855128
 10
78.18820248125483
 20
193.0592021183331
 10
81.14801320371366
 20
193.0592021183331
  0
LWPOLYLINE
  5
A7
330
70
100
AcDbEntity
  8
Layer 1
 62
    18
420
        0
370
     5
100
AcDbPolyline
 90
        4
 70
     1
 43
0.0
 10
81.14801320371366
 20
175.099294930169
 10
78.18820248125483
 20
175.099294930169
 10
78.18820248125483
 20
181.0612264540149
 10
81.14801320371366
 20
181.0612264540149
  0
LWPOLYLINE
  5
A8
330
70
100
AcDbEntity
  8
Layer 1
 62
    18
420
        0
370
     5
100
AcDbPolyline
 90
        4
 70
     1
 43
0.0
 10
81.14801320371366
 20
163.1013192658508
 10
78.18820248125483
 20
163.1013192658508
 10
78.18820248125483
 20
169.0597410986711
 10
81.14801320371366
 20
169.0597410986711
  0
LWPOLYLINE
  5
A9
330
70
100
AcDbEntity
  8
Layer 1
 62
    18
420
        0
370
     5
100
AcDbPolyline
 90
        4
 70
     1
 43
0.0
 10
81.14801320371366
 20
151.0998123786602
 10
78.18820248125483
 20
151.0998123786602
 10
78.18820248125483
 20
157.0582342114805
 10
81.14801320371366
 20
157.0582342114805
  0
LWPOLYLINE
  5
AA
330
70
100
AcDbEntity
  8
Layer 1
 62
    18
420
        0
370
     5
100
AcDbPolyline
 90
        4
 70
     1
 43
0.0
 10
81.14801320371366
 20
139.0983054914696
 10
78.18820248125483
 20
139.0983054914696
 10
78.18820248125483
 20
145.0602585471623
 10
81.14801320371366
 20
145.0602585471623
  0
LWPOLYLINE
  5
AB
330
70
100
AcDbEntity
  8
Layer 1
 62
    18
420
        0
370
     5
100
AcDbPolyline
 90
        4
 70
     1
 43
0.0
 10
81.14801320371366
 20
127.1003513589981
 10
78.18820248125483
 20
127.1003513589981
 10
78.18820248125483
 20
133.0587516599717
 10
81.14801320371366
 20
133.0587516599717
  0
LWPOLYLINE
  5
AC
330
70
100
AcDbEntity
  8
Layer 1
 62
    18
420
        0
370
     5
100
AcDbPolyline
 90
        4
 70
     1
 43
0.0
 10
81.14801320371366
 20
115.0988444718076
 10
78.18820248125483
 20
115.0988444718076
 10
78.18820248125483
 20
121.0607975275002
 10
81.14801320371366
 20
121.0607975275002
  0
LWPOLYLINE
  5
AD
330
70
100
AcDbEntity
  8
Layer 1
 62
    18
420
        0
370
     5
100
AcDbPolyline
 90
        4
 70
     1
 43
0.0
 10
81.14801320371366
 20
103.1008688074894
 10
78.18820248125483
 20
103.1008688074894
 10
78.18820248125483
 20
109.0592906403097
 10
81.14801320371366
 20
109.0592906403097
  0
LWPOLYLINE
  5
AE
330
70
100
AcDbEntity
  8
Layer 1
 62
    18
420
        0
370
     5
100
AcDbPolyline
 90
        4
 70
     1
 43
0.0
 10
78.18820248125483
 20
91.09936192029877
 10
78.18820248125483
 20
97.06131497599145
 10
81.14801320371366
 20
97.06131497599145
 10
81.14801320371366
 20
91.09936192029877
  0
ENDSEC
  0
SECTION
  2
OBJECTS
  0
DICTIONARY
  5
C
330
0
100
AcDbDictionary
281
     1
  3
ACAD_COLOR
350
63
  3
ACAD_DETAILVIEWSTYLE
350
6A
  3
ACAD_GROUP
350
D
  3
ACAD_LAYOUT
350
62
  3
ACAD_MATERIAL
350
10
  3
ACAD_MLEADERSTYLE
350
66
  3
ACAD_MLINESTYLE
350
5F
  3
ACAD_PLOTSETTINGS
350
61
  3
ACAD_PLOTSTYLENAME
350
E
  3
ACAD_SCALELIST
350
42
  3
ACAD_SECTIONVIEWSTYLE
350
68
  3
ACAD_TABLESTYLE
350
64
  3
ACAD_VISUALSTYLE
350
29
  3
ACDB_RECOMPOSE_DATA
350
B7
  3
AcDbVariableDictionary
350
AF
  0
DICTIONARY
  5
63
102
{ACAD_REACTORS
330
C
102
}
330
C
100
AcDbDictionary
281
     1
  0
DICTIONARY
  5
6A
102
{ACAD_REACTORS
330
C
102
}
330
C
100
AcDbDictionary
281
     1
  3
Imperial24
350
6B
  0
DICTIONARY
  5
D
102
{ACAD_REACTORS
330
C
102
}
330
C
100
AcDbDictionary
281
     1
  0
DICTIONARY
  5
62
102
{ACAD_REACTORS
330
C
102
}
330
C
100
AcDbDictionary
281
     1
  3
Layout1
350
6F
  3
Layout2
350
77
  3
Model
350
73
  0
DICTIONARY
  5
10
102
{ACAD_REACTORS
330
C
102
}
330
C
100
AcDbDictionary
281
     1
  3
ByBlock
350
19
  3
ByLayer
350
11
  3
Global
350
21
  0
DICTIONARY
  5
66
102
{ACAD_REACTORS
330
C
102
}
330
C
100
AcDbDictionary
281
     1
  3
Standard
350
67
  0
DICTIONARY
  5
5F
102
{ACAD_REACTORS
330
C
102
}
330
C
100
AcDbDictionary
281
     1
  3
Standard
350
60
  0
DICTIONARY
  5
61
102
{ACAD_REACTORS
330
C
102
}
330
C
100
AcDbDictionary
281
     1
  0
ACDBDICTIONARYWDFLT
  5
E
102
{ACAD_REACTORS
330
C
102
}
330
C
100
AcDbDictionary
281
     1
  3
Normal
350
F
100
AcDbDictionaryWithDefault
340
F
  0
DICTIONARY
  5
42
102
{ACAD_REACTORS
330
C
102
}
330
C
100
AcDbDictionary
281
     1
  3
A0
350
43
  3
A1
350
44
  3
A2
350
45
  3
A3
350
46
  3
A4
350
47
  3
A5
350
48
  3
A6
350
49
  3
A7
350
4A
  3
A8
350
4B
  3
A9
350
4C
  3
B0
350
4D
  3
B1
350
4E
  3
B2
350
4F
  3
B3
350
50
  3
B4
350
51
  3
B5
350
52
  3
B6
350
53
  0
DICTIONARY
  5
68
102
{ACAD_REACTORS
330
C
102
}
330
C
100
AcDbDictionary
281
     1
  3
Imperial24
350
69
  0
DICTIONARY
  5
64
102
{ACAD_REACTORS
330
C
102
}
330
C
100
AcDbDictionary
281
     1
  3
Standard
350
65
  0
DICTIONARY
  5
29
102
{ACAD_REACTORS
330
C
102
}
330
C
100
AcDbDictionary
281
     1
  3
2dWireframe
350
2F
  3
Basic
350
2E
  3
Brighten
350
35
  3
ColorChange
350
39
  3
Conceptual
350
32
  3
Dim
350
34
  3
EdgeColorOff
350
41
  3
Facepattern
350
38
  3
Flat
350
2A
  3
FlatWithEdges
350
2B
  3
Gouraud
350
2C
  3
GouraudWithEdges
350
2D
  3
Hidden
350
31
  3
JitterOff
350
3F
  3
Linepattern
350
37
  3
OverhangOff
350
40
  3
Realistic
350
33
  3
Shaded
350
3E
  3
Shaded with edges
350
3D
  3
Shades of Gray
350
3A
  3
Sketchy
350
3B
  3
Thicken
350
36
  3
Wireframe
350
30
  3
X-Ray
350
3C
  0
XRECORD
  5
B7
102
{ACAD_REACTORS
330
C
102
}
330
C
100
AcDbXrecord
280
     1
 90
        1
330
65
  0
DICTIONARY
  5
AF
102
{ACAD_REACTORS
330
C
102
}
330
C
100
AcDbDictionary
281
     1
  3
CANNOSCALE
350
B4
  3
CMLEADERSTYLE
350
B1
  3
CTABLESTYLE
350
B0
  3
CVIEWDETAILSTYLE
350
B2
  3
CVIEWSECTIONSTYLE
350
B3
  0
ACDBDETAILVIEWSTYLE
  5
6B
102
{ACAD_REACTORS
330
6A
102
}
330
6A
100
AcDbModelDocViewStyle
 70
     0
  3
Imperial24
290
     1
300
Imperial24
 90
        0
100
AcDbDetailViewStyle
 70
     0
 71
     0
 90
        3
 71
     1
340
55
 62
   256
 40
0.24
340
0
 62
   256
 40
0.24
300

 40
0.36
280
     3
 71
     2
340
5D
 90
       25
 62
   256
 71
     3
340
55
 62
   256
 40
0.24
 90
        1
 40
0.75
 90
        1
300
%<\AcVar ViewType \f "%tc1">% %<\AcVar ViewDetailId>%\PSCALE %<\AcVar ViewScale \f "%sn">%
 71
     4
340
5D
 90
       25
 62
   256
340
5D
 90
       25
 62
   256
280
     0
  0
LAYOUT
  5
6F
102
{ACAD_REACTORS
330
62
102
}
330
62
100
AcDbPlotSettings
  1

  2

  4

  6

 40
0.0
 41
0.0
 42
0.0
 43
0.0
 44
0.0
 45
0.0
 46
0.0
 47
0.0
 48
0.0
 49
0.0
140
0.0
141
0.0
142
1.0
143
1.0
 70
   688
 72
     0
 73
     0
 74
     5
  7

 75
    16
147
1.0
 76
     0
 77
     2
 78
   300
148
0.0
149
0.0
100
AcDbLayout
  1
Layout1
 70
     1
 71
     1
 10
0.0
 20
0.0
 11
12.0
 21
9.0
 12
0.0
 22
0.0
 32
0.0
 14
0.0
 24
0.0
 34
0.0
 15
0.0
 25
0.0
 35
0.0
146
0.0
 13
0.0
 23
0.0
 33
0.0
 16
1.0
 26
0.0
 36
0.0
 17
0.0
 27
1.0
 37
0.0
 76
     0
330
6C
  0
LAYOUT
  5
77
102
{ACAD_REACTORS
330
62
102
}
330
62
100
AcDbPlotSettings
  1

  2

  4

  6

 40
0.0
 41
0.0
 42
0.0
 43
0.0
 44
0.0
 45
0.0
 46
0.0
 47
0.0
 48
0.0
 49
0.0
140
0.0
141
0.0
142
1.0
143
1.0
 70
   688
 72
     0
 73
     0
 74
     5
  7

 75
    16
147
1.0
 76
     0
 77
     2
 78
   300
148
0.0
149
0.0
100
AcDbLayout
  1
Layout2
 70
     1
 71
     2
 10
0.0
 20
0.0
 11
12.0
 21
9.0
 12
0.0
 22
0.0
 32
0.0
 14
0.0
 24
0.0
 34
0.0
 15
0.0
 25
0.0
 35
0.0
146
0.0
 13
0.0
 23
0.0
 33
0.0
 16
1.0
 26
0.0
 36
0.0
 17
0.0
 27
1.0
 37
0.0
 76
     0
330
74
  0
LAYOUT
  5
73
102
{ACAD_REACTORS
330
62
102
}
330
62
100
AcDbPlotSettings
  1

  2

  4

  6

 40
0.0
 41
0.0
 42
0.0
 43
0.0
 44
0.0
 45
0.0
 46
0.0
 47
0.0
 48
0.0
 49
0.0
140
0.0
141
0.0
142
1.0
143
1.0
 70
  1712
 72
     0
 73
     0
 74
     0
  7

 75
     0
147
1.0
 76
     0
 77
     2
 78
   300
148
0.0
149
0.0
100
AcDbLayout
  1
Model
 70
     1
 71
     0
 10
0.0
 20
0.0
 11
12.0
 21
9.0
 12
0.0
 22
0.0
 32
0.0
 14
0.0
 24
0.0
 34
0.0
 15
0.0
 25
0.0
 35
0.0
146
0.0
 13
0.0
 23
0.0
 33
0.0
 16
1.0
 26
0.0
 36
0.0
 17
0.0
 27
1.0
 37
0.0
 76
     0
330
70
  0
MATERIAL
  5
19
102
{ACAD_XDICTIONARY
360
1A
102
}
102
{ACAD_REACTORS
330
10
102
}
330
10
100
AcDbMaterial
  1
ByBlock
 72
     0
 43
0.0208333333333333
 43
0.0
 43
0.0
 43
0.0
 43
0.0
 43
0.0208333333333333
 43
0.0
 43
0.0
 43
0.0
 43
0.0
 43
1.0
 43
0.0
 43
0.0
 43
0.0
 43
0.0
 43
1.0
 77
     0
 47
0.0208333333333333
 47
0.0
 47
0.0
 47
0.0
 47
0.0
 47
0.0208333333333333
 47
0.0
 47
0.0
 47
0.0
 47
0.0
 47
1.0
 47
0.0
 47
0.0
 47
0.0
 47
0.0
 47
1.0
171
     0
 49
0.0208333333333333
 49
0.0
 49
0.0
 49
0.0
 49
0.0
 49
0.0208333333333333
 49
0.0
 49
0.0
 49
0.0
 49
0.0
 49
1.0
 49
0.0
 49
0.0
 49
0.0
 49
0.0
 49
1.0
175
     0
142
0.0208333333333333
142
0.0
142
0.0
142
0.0
142
0.0
142
0.0208333333333333
142
0.0
142
0.0
142
0.0
142
0.0
142
1.0
142
0.0
142
0.0
142
0.0
142
0.0
142
1.0
179
     0
144
0.0208333333333333
144
0.0
144
0.0
144
0.0
144
0.0
144
0.0208333333333333
144
0.0
144
0.0
144
0.0
144
0.0
144
1.0
144
0.0
144
0.0
144
0.0
144
0.0
144
1.0
147
0.0208333333333333
147
0.0
147
0.0
147
0.0
147
0.0
147
0.0208333333333333
147
0.0
147
0.0
147
0.0
147
0.0
147
1.0
147
0.0
147
0.0
147
0.0
147
0.0
147
1.0
  0
MATERIAL
  5
11
102
{ACAD_XDICTIONARY
360
12
102
}
102
{ACAD_REACTORS
330
10
102
}
330
10
100
AcDbMaterial
  1
ByLayer
 72
     0
 43
0.0208333333333333
 43
0.0
 43
0.0
 43
0.0
 43
0.0
 43
0.0208333333333333
 43
0.0
 43
0.0
 43
0.0
 43
0.0
 43
1.0
 43
0.0
 43
0.0
 43
0.0
 43
0.0
 43
1.0
 77
     0
 47
0.0208333333333333
 47
0.0
 47
0.0
 47
0.0
 47
0.0
 47
0.0208333333333333
 47
0.0
 47
0.0
 47
0.0
 47
0.0
 47
1.0
 47
0.0
 47
0.0
 47
0.0
 47
0.0
 47
1.0
171
     0
 49
0.0208333333333333
 49
0.0
 49
0.0
 49
0.0
 49
0.0
 49
0.0208333333333333
 49
0.0
 49
0.0
 49
0.0
 49
0.0
 49
1.0
 49
0.0
 49
0.0
 49
0.0
 49
0.0
 49
1.0
175
     0
142
0.0208333333333333
142
0.0
142
0.0
142
0.0
142
0.0
142
0.0208333333333333
142
0.0
142
0.0
142
0.0
142
0.0
142
1.0
142
0.0
142
0.0
142
0.0
142
0.0
142
1.0
179
     0
144
0.0208333333333333
144
0.0
144
0.0
144
0.0
144
0.0
144
0.0208333333333333
144
0.0
144
0.0
144
0.0
144
0.0
144
1.0
144
0.0
144
0.0
144
0.0
144
0.0
144
1.0
147
0.0208333333333333
147
0.0
147
0.0
147
0.0
147
0.0
147
0.0208333333333333
147
0.0
147
0.0
147
0.0
147
0.0
147
1.0
147
0.0
147
0.0
147
0.0
147
0.0
147
1.0
  0
MATERIAL
  5
21
102
{ACAD_XDICTIONARY
360
22
102
}
102
{ACAD_REACTORS
330
10
102
}
330
10
100
AcDbMaterial
  1
Global
 72
     0
 43
0.0208333333333333
 43
0.0
 43
0.0
 43
0.0
 43
0.0
 43
0.0208333333333333
 43
0.0
 43
0.0
 43
0.0
 43
0.0
 43
1.0
 43
0.0
 43
0.0
 43
0.0
 43
0.0
 43
1.0
 77
     0
 47
0.0208333333333333
 47
0.0
 47
0.0
 47
0.0
 47
0.0
 47
0.0208333333333333
 47
0.0
 47
0.0
 47
0.0
 47
0.0
 47
1.0
 47
0.0
 47
0.0
 47
0.0
 47
0.0
 47
1.0
171
     0
 49
0.0208333333333333
 49
0.0
 49
0.0
 49
0.0
 49
0.0
 49
0.0208333333333333
 49
0.0
 49
0.0
 49
0.0
 49
0.0
 49
1.0
 49
0.0
 49
0.0
 49
0.0
 49
0.0
 49
1.0
175
     0
142
0.0208333333333333
142
0.0
142
0.0
142
0.0
142
0.0
142
0.0208333333333333
142
0.0
142
0.0
142
0.0
142
0.0
142
1.0
142
0.0
142
0.0
142
0.0
142
0.0
142
1.0
179
     0
144
0.0208333333333333
144
0.0
144
0.0
144
0.0
144
0.0
144
0.0208333333333333
144
0.0
144
0.0
144
0.0
144
0.0
144
1.0
144
0.0
144
0.0
144
0.0
144
0.0
144
1.0
147
0.0208333333333333
147
0.0
147
0.0
147
0.0
147
0.0
147
0.0208333333333333
147
0.0
147
0.0
147
0.0
147
0.0
147
1.0
147
0.0
147
0.0
147
0.0
147
0.0
147
1.0
  0
MLEADERSTYLE
  5
67
102
{ACAD_REACTORS
330
66
102
}
330
66
100
AcDbMLeaderStyle
179
     2
170
     2
171
     1
172
     0
 90
        2
 40
0.0
 41
0.0
173
     1
 91
-1056964608
340
5B
 92
       -2
290
     1
 42
0.09
291
     1
 43
0.36
  3
Standard
 44
0.18
300

342
55
174
     1
178
     6
175
     1
176
     0
 93
-1056964608
 45
0.18
292
     0
297
     0
 46
0.18
 94
-1056964608
 47
1.0
 49
1.0
140
1.0
293
     1
141
0.0
294
     1
177
     0
142
1.0
295
     1
296
     0
143
0.125
271
     0
272
     9
273
     9
298
     1
  0
MLINESTYLE
  5
60
102
{ACAD_REACTORS
330
5F
102
}
330
5F
100
AcDbMlineStyle
  2
STANDARD
 70
     0
  3

 62
   256
 51
90.0
 52
90.0
 71
     2
 49
0.5
 62
   256
  6
BYLAYER
 49
-0.5
 62
   256
  6
BYLAYER
  0
ACDBPLACEHOLDER
  5
F
102
{ACAD_REACTORS
330
E
102
}
330
E
  0
SCALE
  5
43
102
{ACAD_REACTORS
330
42
102
}
330
42
100
AcDbScale
 70
     0
300
1:1
140
1.0
141
1.0
290
     1
  0
SCALE
  5
44
102
{ACAD_REACTORS
330
42
102
}
330
42
100
AcDbScale
 70
     0
300
1/128" = 1'-0"
140
0.0078125
141
12.0
290
     0
  0
SCALE
  5
45
102
{ACAD_REACTORS
330
42
102
}
330
42
100
AcDbScale
 70
     0
300
1/64" = 1'-0"
140
0.015625
141
12.0
290
     0
  0
SCALE
  5
46
102
{ACAD_REACTORS
330
42
102
}
330
42
100
AcDbScale
 70
     0
300
1/32" = 1'-0"
140
0.03125
141
12.0
290
     0
  0
SCALE
  5
47
102
{ACAD_REACTORS
330
42
102
}
330
42
100
AcDbScale
 70
     0
300
1/16" = 1'-0"
140
0.0625
141
12.0
290
     0
  0
SCALE
  5
48
102
{ACAD_REACTORS
330
42
102
}
330
42
100
AcDbScale
 70
     0
300
3/32" = 1'-0"
140
0.09375
141
12.0
290
     0
  0
SCALE
  5
49
102
{ACAD_REACTORS
330
42
102
}
330
42
100
AcDbScale
 70
     0
300
1/8" = 1'-0"
140
0.125
141
12.0
290
     0
  0
SCALE
  5
4A
102
{ACAD_REACTORS
330
42
102
}
330
42
100
AcDbScale
 70
     0
300
3/16" = 1'-0"
140
0.1875
141
12.0
290
     0
  0
SCALE
  5
4B
102
{ACAD_REACTORS
330
42
102
}
330
42
100
AcDbScale
 70
     0
300
1/4" = 1'-0"
140
0.25
141
12.0
290
     0
  0
SCALE
  5
4C
102
{ACAD_REACTORS
330
42
102
}
330
42
100
AcDbScale
 70
     0
300
3/8" = 1'-0"
140
0.375
141
12.0
290
     0
  0
SCALE
  5
4D
102
{ACAD_REACTORS
330
42
102
}
330
42
100
AcDbScale
 70
     0
300
1/2" = 1'-0"
140
0.5
141
12.0
290
     0
  0
SCALE
  5
4E
102
{ACAD_REACTORS
330
42
102
}
330
42
100
AcDbScale
 70
     0
300
3/4" = 1'-0"
140
0.75
141
12.0
290
     0
  0
SCALE
  5
4F
102
{ACAD_REACTORS
330
42
102
}
330
42
100
AcDbScale
 70
     0
300
1" = 1'-0"
140
1.0
141
12.0
290
     0
  0
SCALE
  5
50
102
{ACAD_REACTORS
330
42
102
}
330
42
100
AcDbScale
 70
     0
300
1-1/2" = 1'-0"
140
1.5
141
12.0
290
     0
  0
SCALE
  5
51
102
{ACAD_REACTORS
330
42
102
}
330
42
100
AcDbScale
 70
     0
300
3" = 1'-0"
140
3.0
141
12.0
290
     0
  0
SCALE
  5
52
102
{ACAD_REACTORS
330
42
102
}
330
42
100
AcDbScale
 70
     0
300
6" = 1'-0"
140
6.0
141
12.0
290
     0
  0
SCALE
  5
53
102
{ACAD_REACTORS
330
42
102
}
330
42
100
AcDbScale
 70
     0
300
1'-0" = 1'-0"
140
12.0
141
12.0
290
     0
  0
ACDBSECTIONVIEWSTYLE
  5
69
102
{ACAD_REACTORS
330
68
102
}
330
68
100
AcDbModelDocViewStyle
 70
     0
  3
Imperial24
290
     1
300
Imperial24
 90
        0
100
AcDbSectionViewStyle
 70
     0
 71
     0
 90
       78
 71
     1
340
55
 62
   256
 40
0.24
340
0
340
0
 62
   256
 40
0.24
300
I, O, Q, S, X, Z
 40
0.48
 90
        3
 40
0.18
 90
        1
 71
     2
340
5D
 90
       25
 62
   256
340
5D
 90
       50
 62
   256
 40
0.24
 40
0.0
 40
0.24
 71
     3
340
55
 62
   256
 40
0.24
 90
        1
 40
0.75
 90
        1
300
%<\AcVar ViewType \f "%tc1">% %<\AcVar ViewSectionStartId>%-%<\AcVar ViewSectionEndId>%\PSCALE %<\AcVar ViewScale \f "%sn">%
 71
     4
 62
   256
 62
   257
300
ANSI31
 40
1.0
 90
        0
290
     0
290
     0
 90
        6
 40
0.0
 40
1.570796326794896
 40
0.2617993877991494
 40
1.308996938995747
 40
-0.2617993877991494
 40
1.832595714594046
  0
TABLESTYLE
  5
65
102
{ACAD_XDICTIONARY
360
B5
102
}
102
{ACAD_REACTORS
330
64
102
}
330
64
100
AcDbTableStyle
280
     0
  3
Standard
 70
     0
 71
     0
 40
0.06
 41
0.06
280
     0
281
     0
  7
Standard
140
0.18
170
     2
 62
     0
 63
     7
283
     0
 90
      512
 91
        0
  1

274
    -2
284
     1
 64
     0
275
    -2
285
     1
 65
     0
276
    -2
286
     1
 66
     0
277
    -2
287
     1
 67
     0
278
    -2
288
     1
 68
     0
279
    -2
289
     1
 69
     0
  7
Standard
140
0.25
170
     5
 62
     0
 63
     7
283
     0
 90
      512
 91
        0
  1

274
    -2
284
     1
 64
     0
275
    -2
285
     1
 65
     0
276
    -2
286
     1
 66
     0
277
    -2
287
     1
 67
     0
278
    -2
288
     1
 68
     0
279
    -2
289
     1
 69
     0
  7
Standard
140
0.18
170
     5
 62
     0
 63
     7
283
     0
 90
      512
 91
        0
  1

274
    -2
284
     1
 64
     0
275
    -2
285
     1
 65
     0
276
    -2
286
     1
 66
     0
277
    -2
287
     1
 67
     0
278
    -2
288
     1
 68
     0
279
    -2
289
     1
 69
     0
  0
VISUALSTYLE
  5
2F
102
{ACAD_REACTORS
330
29
102
}
330
29
100
AcDbVisualStyle
  2
2dWireframe
 70
     4
177
     3
291
     0
 70
    58
 90
        0
176
     1
 90
        2
176
     1
 90
        0
176
     1
 90
        0
176
     1
 40
0.6
176
     1
 40
30.0
176
     1
 62
     7
420
 16777215
176
     1
 90
        1
176
     1
 90
        4
176
     1
 62
     7
176
     1
 62
   257
176
     1
 90
        1
176
     1
 90
        1
176
     1
 40
1.0
176
     1
 90
        0
176
     1
 62
   257
176
     1
 40
1.0
176
     1
 90
        1
176
     1
 90
        6
176
     1
 90
        2
176
     1
 62
     7
176
     1
 90
        5
176
     1
 90
        0
176
     1
 90
        0
176
     1
290
     0
176
     1
 90
        1
176
     1
 40
0.0
176
     1
 90
        0
176
     1
290
     1
176
     1
290
     1
176
     1
290
     0
176
     1
290
     0
176
     1
290
     0
176
     1
290
     0
176
     1
290
     0
176
     1
290
     0
176
     1
290
     0
176
     1
 90
       50
176
     1
 40
0.0
176
     1
 40
1.0
176
     1
 90
        0
176
     1
 62
    18
420
        0
176
     1
 90
       50
176
     1
 90
        3
176
     1
 62
     5
420
      255
176
     1
290
     0
176
     1
 90
       50
176
     1
 90
       50
176
     1
 90
       50
176
     1
290
     0
176
     1
 90
       50
176
     1
 62
   256
176
     0
 40
1.0
176
     0
 90
        2
176
     1
  1
strokes_ogs.tif
176
     1
290
     0
176
     1
 40
1.0
176
     1
 40
1.0
176
     1
  0
VISUALSTYLE
  5
2E
102
{ACAD_REACTORS
330
29
102
}
330
29
100
AcDbVisualStyle
  2
Basic
 70
     7
177
     3
291
     1
 70
    58
 90
        1
176
     1
 90
        0
176
     1
 90
        1
176
     1
 90
        0
176
     1
 40
0.6
176
     1
 40
30.0
176
     1
 62
     7
420
 16777215
176
     1
 90
        0
176
     1
 90
        4
176
     1
 62
     7
176
     1
 62
   257
176
     1
 90
        1
176
     1
 90
        1
176
     1
 40
1.0
176
     1
 90
        8
176
     1
 62
     7
176
     1
 40
1.0
176
     1
 90
        1
176
     1
 90
        6
176
     1
 90
        2
176
     1
 62
     7
176
     1
 90
        5
176
     1
 90
        0
176
     1
 90
        0
176
     1
290
     0
176
     1
 90
        1
176
     1
 40
0.0
176
     1
 90
        0
176
     1
290
     0
176
     1
290
     1
176
     1
290
     1
176
     1
290
     0
176
     1
290
     0
176
     1
290
     0
176
     1
290
     0
176
     1
290
     0
176
     1
290
     0
176
     1
 90
       50
176
     1
 40
0.0
176
     1
 40
1.0
176
     1
 90
        0
176
     1
 62
    18
420
        0
176
     1
 90
       50
176
     1
 90
        3
176
     1
 62
     5
420
      255
176
     1
290
     0
176
     1
 90
       50
176
     1
 90
       50
176
     1
 90
       50
176
     1
290
     0
176
     1
 90
       50
176
     1
 62
   256
176
     0
 40
1.0
176
     0
 90
        2
176
     1
  1
strokes_ogs.tif
176
     1
290
     0
176
     1
 40
1.0
176
     1
 40
1.0
176
     1
  0
VISUALSTYLE
  5
35
102
{ACAD_REACTORS
330
29
102
}
330
29
100
AcDbVisualStyle
  2
Brighten
 70
    12
177
     3
291
     1
 70
    58
 90
        2
176
     1
 90
        2
176
     1
 90
        0
176
     1
 90
        0
176
     1
 40
0.6
176
     1
 40
30.0
176
     1
 62
     7
420
 16777215
176
     1
 90
        1
176
     1
 90
        4
176
     1
 62
     7
176
     1
 62
   257
176
     1
 90
        1
176
     1
 90
        1
176
     1
 40
1.0
176
     1
 90
        8
176
     1
 62
     7
176
     1
 40
1.0
176
     1
 90
        1
176
     1
 90
        6
176
     1
 90
        2
176
     1
 62
     7
176
     1
 90
        5
176
     1
 90
        0
176
     1
 90
        0
176
     1
290
     0
176
     1
 90
        1
176
     1
 40
50.0
176
     1
 90
        0
176
     1
290
     0
176
     1
290
     1
176
     1
290
     1
176
     1
290
     0
176
     1
290
     0
176
     1
290
     0
176
     1
290
     0
176
     1
290
     0
176
     1
290
     0
176
     1
 90
       50
176
     1
 40
0.0
176
     1
 40
1.0
176
     1
 90
        0
176
     1
 62
    18
420
        0
176
     1
 90
       50
176
     1
 90
        3
176
     1
 62
     5
420
      255
176
     1
290
     0
176
     1
 90
       50
176
     1
 90
       50
176
     1
 90
       50
176
     1
290
     0
176
     1
 90
       50
176
     1
 62
   256
176
     0
 40
1.0
176
     0
 90
        2
176
     1
  1
strokes_ogs.tif
176
     1
290
     0
176
     1
 40
1.0
176
     1
 40
1.0
176
     1
  0
VISUALSTYLE
  5
39
102
{ACAD_REACTORS
330
29
102
}
330
29
100
AcDbVisualStyle
  2
ColorChange
 70
    16
177
     3
291
     1
 70
    58
 90
        2
176
     1
 90
        2
176
     1
 90
        3
176
     1
 90
        0
176
     1
 40
0.6
176
     1
 40
30.0
176
     1
 62
     8
420
  8421504
176
     1
 90
        1
176
     1
 90
        4
176
     1
 62
     7
176
     1
 62
   257
176
     1
 90
        1
176
     1
 90
        1
176
     1
 40
1.0
176
     1
 90
        8
176
     1
 62
     8
420
  8421504
176
     1
 40
1.0
176
     1
 90
        1
176
     1
 90
        6
176
     1
 90
        2
176
     1
 62
     7
176
     1
 90
        5
176
     1
 90
        0
176
     1
 90
        0
176
     1
290
     0
176
     1
 90
        1
176
     1
 40
0.0
176
     1
 90
        0
176
     1
290
     0
176
     1
290
     1
176
     1
290
     1
176
     1
290
     0
176
     1
290
     0
176
     1
290
     0
176
     1
290
     0
176
     1
290
     0
176
     1
290
     0
176
     1
 90
       50
176
     1
 40
0.0
176
     1
 40
1.0
176
     1
 90
        0
176
     1
 62
    18
420
        0
176
     1
 90
       50
176
     1
 90
        3
176
     1
 62
     5
420
      255
176
     1
290
     0
176
     1
 90
       50
176
     1
 90
       50
176
     1
 90
       50
176
     1
290
     0
176
     1
 90
       50
176
     1
 62
   256
176
     0
 40
1.0
176
     0
 90
        2
176
     1
  1
strokes_ogs.tif
176
     1
290
     0
176
     1
 40
1.0
176
     1
 40
1.0
176
     1
  0
VISUALSTYLE
  5
32
102
{ACAD_REACTORS
330
29
102
}
330
29
100
AcDbVisualStyle
  2
Conceptual
 70
     9
177
     3
291
     0
 70
    58
 90
        3
176
     1
 90
        2
176
     1
 90
        0
176
     1
 90
        0
176
     1
 40
0.6
176
     1
 40
30.0
176
     1
 62
     7
420
 16777215
176
     1
 90
        2
176
     1
 90
        2
176
     1
 62
     7
176
     1
 62
   257
176
     1
 90
        1
176
     1
 90
        1
176
     1
 40
179.0
176
     1
 90
        8
176
     1
 62
     7
176
     1
 40
1.0
176
     1
 90
        1
176
     1
 90
        6
176
     1
 90
        2
176
     1
 62
     7
176
     1
 90
        3
176
     1
 90
        0
176
     1
 90
        0
176
     1
290
     0
176
     1
 90
        1
176
     1
 40
0.0
176
     1
 90
        0
176
     1
290
     0
176
     1
290
     1
176
     1
290
     1
176
     1
290
     0
176
     1
290
     0
176
     1
290
     0
176
     1
290
     0
176
     1
290
     0
176
     1
290
     0
176
     1
 90
       50
176
     1
 40
0.0
176
     1
 40
1.0
176
     1
 90
        0
176
     1
 62
    18
420
        0
176
     1
 90
       50
176
     1
 90
        3
176
     1
 62
     5
420
      255
176
     1
290
     0
176
     1
 90
       50
176
     1
 90
       50
176
     1
 90
       50
176
     1
290
     0
176
     1
 90
       50
176
     1
 62
   256
176
     0
 40
1.0
176
     0
 90
        2
176
     1
  1
strokes_ogs.tif
176
     1
290
     0
176
     1
 40
1.0
176
     1
 40
1.0
176
     1
  0
VISUALSTYLE
  5
34
102
{ACAD_REACTORS
330
29
102
}
330
29
100
AcDbVisualStyle
  2
Dim
 70
    11
177
     3
291
     1
 70
    58
 90
        2
176
     1
 90
        2
176
     1
 90
        0
176
     1
 90
        0
176
     1
 40
0.6
176
     1
 40
30.0
176
     1
 62
     7
420
 16777215
176
     1
 90
        1
176
     1
 90
        4
176
     1
 62
     7
176
     1
 62
   257
176
     1
 90
        1
176
     1
 90
        1
176
     1
 40
1.0
176
     1
 90
        8
176
     1
 62
     7
176
     1
 40
1.0
176
     1
 90
        1
176
     1
 90
        6
176
     1
 90
        2
176
     1
 62
     7
176
     1
 90
        5
176
     1
 90
        0
176
     1
 90
        0
176
     1
290
     0
176
     1
 90
        1
176
     1
 40
-50.0
176
     1
 90
        0
176
     1
290
     0
176
     1
290
     1
176
     1
290
     1
176
     1
290
     0
176
     1
290
     0
176
     1
290
     0
176
     1
290
     0
176
     1
290
     0
176
     1
290
     0
176
     1
 90
       50
176
     1
 40
0.0
176
     1
 40
1.0
176
     1
 90
        0
176
     1
 62
    18
420
        0
176
     1
 90
       50
176
     1
 90
        3
176
     1
 62
     5
420
      255
176
     1
290
     0
176
     1
 90
       50
176
     1
 90
       50
176
     1
 90
       50
176
     1
290
     0
176
     1
 90
       50
176
     1
 62
   256
176
     0
 40
1.0
176
     0
 90
        2
176
     1
  1
strokes_ogs.tif
176
     1
290
     0
176
     1
 40
1.0
176
     1
 40
1.0
176
     1
  0
VISUALSTYLE
  5
41
102
{ACAD_REACTORS
330
29
102
}
330
29
100
AcDbVisualStyle
  2
EdgeColorOff
 70
    22
177
     3
291
     1
 70
    58
 90
        2
176
     0
 90
        2
176
     0
 90
        0
176
     0
 90
        0
176
     0
 40
0.6
176
     0
 40
30.0
176
     0
 62
     7
420
 16777215
176
     0
 90
        1
176
     0
 90
        4
176
     0
 62
     7
176
     0
 62
   257
176
     0
 90
        1
176
     0
 90
        1
176
     0
 40
1.0
176
     0
 90
        8
176
     2
 62
     7
176
     0
 40
1.0
176
     0
 90
        1
176
     0
 90
        6
176
     0
 90
        2
176
     0
 62
     7
176
     0
 90
        5
176
     0
 90
        0
176
     0
 90
        0
176
     0
290
     0
176
     0
 90
        1
176
     0
 40
0.0
176
     0
 90
        0
176
     0
290
     0
176
     0
290
     1
176
     0
290
     1
176
     0
290
     0
176
     0
290
     0
176
     0
290
     0
176
     0
290
     0
176
     0
290
     0
176
     0
290
     0
176
     0
 90
       50
176
     0
 40
0.0
176
     0
 40
1.0
176
     0
 90
        0
176
     0
 62
    18
420
        0
176
     0
 90
       50
176
     0
 90
        3
176
     0
 62
     5
420
      255
176
     0
290
     0
176
     0
 90
       50
176
     0
 90
       50
176
     0
 90
       50
176
     0
290
     0
176
     0
 90
       50
176
     0
 62
   256
176
     0
 40
1.0
176
     0
 90
        2
176
     0
  1
strokes_ogs.tif
176
     0
290
     0
176
     0
 40
1.0
176
     0
 40
1.0
176
     0
  0
VISUALSTYLE
  5
38
102
{ACAD_REACTORS
330
29
102
}
330
29
100
AcDbVisualStyle
  2
Facepattern
 70
    15
177
     3
291
     1
 70
    58
 90
        2
176
     1
 90
        2
176
     1
 90
        0
176
     1
 90
        0
176
     1
 40
0.6
176
     1
 40
30.0
176
     1
 62
     7
420
 16777215
176
     1
 90
        1
176
     1
 90
        4
176
     1
 62
     7
176
     1
 62
   257
176
     1
 90
        1
176
     1
 90
        1
176
     1
 40
1.0
176
     1
 90
        8
176
     1
 62
     7
176
     1
 40
1.0
176
     1
 90
        1
176
     1
 90
        6
176
     1
 90
        2
176
     1
 62
     7
176
     1
 90
        5
176
     1
 90
        0
176
     1
 90
        0
176
     1
290
     0
176
     1
 90
        1
176
     1
 40
0.0
176
     1
 90
        0
176
     1
290
     0
176
     1
290
     1
176
     1
290
     1
176
     1
290
     0
176
     1
290
     0
176
     1
290
     0
176
     1
290
     0
176
     1
290
     0
176
     1
290
     0
176
     1
 90
       50
176
     1
 40
0.0
176
     1
 40
1.0
176
     1
 90
        0
176
     1
 62
    18
420
        0
176
     1
 90
       50
176
     1
 90
        3
176
     1
 62
     5
420
      255
176
     1
290
     0
176
     1
 90
       50
176
     1
 90
       50
176
     1
 90
       50
176
     1
290
     0
176
     1
 90
       50
176
     1
 62
   256
176
     0
 40
1.0
176
     0
 90
        2
176
     1
  1
strokes_ogs.tif
176
     1
290
     0
176
     1
 40
1.0
176
     1
 40
1.0
176
     1
  0
VISUALSTYLE
  5
2A
102
{ACAD_REACTORS
330
29
102
}
330
29
100
AcDbVisualStyle
  2
Flat
 70
     0
177
     3
291
     1
 70
    58
 90
        2
176
     1
 90
        1
176
     1
 90
        1
176
     1
 90
        2
176
     1
 40
0.6
176
     1
 40
30.0
176
     1
 62
     7
420
 16777215
176
     1
 90
        0
176
     1
 90
        0
176
     1
 62
     7
176
     1
 62
   257
176
     1
 90
        1
176
     1
 90
        1
176
     1
 40
1.0
176
     1
 90
        8
176
     1
 62
     7
176
     1
 40
1.0
176
     1
 90
        1
176
     1
 90
        6
176
     1
 90
        2
176
     1
 62
     7
176
     1
 90
        5
176
     1
 90
        0
176
     1
 90
        0
176
     1
290
     0
176
     1
 90
       13
176
     1
 40
0.0
176
     1
 90
        0
176
     1
290
     0
176
     1
290
     1
176
     1
290
     1
176
     1
290
     0
176
     1
290
     0
176
     1
290
     0
176
     1
290
     0
176
     1
290
     0
176
     1
290
     0
176
     1
 90
       50
176
     1
 40
0.0
176
     1
 40
1.0
176
     1
 90
        0
176
     1
 62
    18
420
        0
176
     1
 90
       50
176
     1
 90
        3
176
     1
 62
     5
420
      255
176
     1
290
     0
176
     1
 90
       50
176
     1
 90
       50
176
     1
 90
       50
176
     1
290
     0
176
     1
 90
       50
176
     1
 62
   256
176
     0
 40
1.0
176
     0
 90
        2
176
     1
  1
strokes_ogs.tif
176
     1
290
     0
176
     1
 40
1.0
176
     1
 40
1.0
176
     1
  0
VISUALSTYLE
  5
2B
102
{ACAD_REACTORS
330
29
102
}
330
29
100
AcDbVisualStyle
  2
FlatWithEdges
 70
     1
177
     3
291
     1
 70
    58
 90
        2
176
     1
 90
        1
176
     1
 90
        1
176
     1
 90
        2
176
     1
 40
0.6
176
     1
 40
30.0
176
     1
 62
     7
420
 16777215
176
     1
 90
        1
176
     1
 90
        0
176
     1
 62
     7
176
     1
 62
   257
176
     1
 90
        1
176
     1
 90
        1
176
     1
 40
1.0
176
     1
 90
        0
176
     1
 62
   257
176
     1
 40
1.0
176
     1
 90
        1
176
     1
 90
        6
176
     1
 90
        2
176
     1
 62
     7
176
     1
 90
        5
176
     1
 90
        0
176
     1
 90
        0
176
     1
290
     0
176
     1
 90
       13
176
     1
 40
0.0
176
     1
 90
        0
176
     1
290
     0
176
     1
290
     1
176
     1
290
     1
176
     1
290
     0
176
     1
290
     0
176
     1
290
     0
176
     1
290
     0
176
     1
290
     0
176
     1
290
     0
176
     1
 90
       50
176
     1
 40
0.0
176
     1
 40
1.0
176
     1
 90
        0
176
     1
 62
    18
420
        0
176
     1
 90
       50
176
     1
 90
        3
176
     1
 62
     5
420
      255
176
     1
290
     0
176
     1
 90
       50
176
     1
 90
       50
176
     1
 90
       50
176
     1
290
     0
176
     1
 90
       50
176
     1
 62
   256
176
     0
 40
1.0
176
     0
 90
        2
176
     1
  1
strokes_ogs.tif
176
     1
290
     0
176
     1
 40
1.0
176
     1
 40
1.0
176
     1
  0
VISUALSTYLE
  5
2C
102
{ACAD_REACTORS
330
29
102
}
330
29
100
AcDbVisualStyle
  2
Gouraud
 70
     2
177
     3
291
     1
 70
    58
 90
        2
176
     1
 90
        2
176
     1
 90
        1
176
     1
 90
        2
176
     1
 40
0.6
176
     1
 40
30.0
176
     1
 62
     7
420
 16777215
176
     1
 90
        0
176
     1
 90
        0
176
     1
 62
     7
176
     1
 62
   257
176
     1
 90
        1
176
     1
 90
        1
176
     1
 40
1.0
176
     1
 90
        0
176
     1
 62
     7
176
     1
 40
1.0
176
     1
 90
        1
176
     1
 90
        6
176
     1
 90
        2
176
     1
 62
     7
176
     1
 90
        5
176
     1
 90
        0
176
     1
 90
        0
176
     1
290
     0
176
     1
 90
       13
176
     1
 40
0.0
176
     1
 90
        0
176
     1
290
     0
176
     1
290
     1
176
     1
290
     1
176
     1
290
     0
176
     1
290
     0
176
     1
290
     0
176
     1
290
     0
176
     1
290
     0
176
     1
290
     0
176
     1
 90
       50
176
     1
 40
0.0
176
     1
 40
1.0
176
     1
 90
        0
176
     1
 62
    18
420
        0
176
     1
 90
       50
176
     1
 90
        3
176
     1
 62
     5
420
      255
176
     1
290
     0
176
     1
 90
       50
176
     1
 90
       50
176
     1
 90
       50
176
     1
290
     0
176
     1
 90
       50
176
     1
 62
   256
176
     0
 40
1.0
176
     0
 90
        2
176
     1
  1
strokes_ogs.tif
176
     1
290
     0
176
     1
 40
1.0
176
     1
 40
1.0
176
     1
  0
VISUALSTYLE
  5
2D
102
{ACAD_REACTORS
330
29
102
}
330
29
100
AcDbVisualStyle
  2
GouraudWithEdges
 70
     3
177
     3
291
     1
 70
    58
 90
        2
176
     1
 90
        2
176
     1
 90
        1
176
     1
 90
        2
176
     1
 40
0.6
176
     1
 40
30.0
176
     1
 62
     7
420
 16777215
176
     1
 90
        1
176
     1
 90
        0
176
     1
 62
     7
176
     1
 62
   257
176
     1
 90
        1
176
     1
 90
        1
176
     1
 40
1.0
176
     1
 90
        0
176
     1
 62
   257
176
     1
 40
1.0
176
     1
 90
        1
176
     1
 90
        6
176
     1
 90
        2
176
     1
 62
     7
176
     1
 90
        5
176
     1
 90
        0
176
     1
 90
        0
176
     1
290
     0
176
     1
 90
       13
176
     1
 40
0.0
176
     1
 90
        0
176
     1
290
     0
176
     1
290
     1
176
     1
290
     1
176
     1
290
     0
176
     1
290
     0
176
     1
290
     0
176
     1
290
     0
176
     1
290
     0
176
     1
290
     0
176
     1
 90
       50
176
     1
 40
0.0
176
     1
 40
1.0
176
     1
 90
        0
176
     1
 62
    18
420
        0
176
     1
 90
       50
176
     1
 90
        3
176
     1
 62
     5
420
      255
176
     1
290
     0
176
     1
 90
       50
176
     1
 90
       50
176
     1
 90
       50
176
     1
290
     0
176
     1
 90
       50
176
     1
 62
   256
176
     0
 40
1.0
176
     0
 90
        2
176
     1
  1
strokes_ogs.tif
176
     1
290
     0
176
     1
 40
1.0
176
     1
 40
1.0
176
     1
  0
VISUALSTYLE
  5
31
102
{ACAD_REACTORS
330
29
102
}
330
29
100
AcDbVisualStyle
  2
Hidden
 70
     6
177
     3
291
     0
 70
    58
 90
        1
176
     1
 90
        2
176
     1
 90
        2
176
     1
 90
        0
176
     1
 40
0.6
176
     1
 40
30.0
176
     1
 62
     7
420
 16777215
176
     1
 90
        2
176
     1
 90
        2
176
     1
 62
     7
176
     1
 62
   257
176
     1
 90
        2
176
     1
 90
        1
176
     1
 40
40.0
176
     1
 90
        0
176
     1
 62
   257
176
     1
 40
1.0
176
     1
 90
        1
176
     1
 90
        6
176
     1
 90
        2
176
     1
 62
     7
176
     1
 90
        3
176
     1
 90
        0
176
     1
 90
        0
176
     1
290
     0
176
     1
 90
        1
176
     1
 40
0.0
176
     1
 90
        0
176
     1
290
     0
176
     1
290
     1
176
     1
290
     1
176
     1
290
     0
176
     1
290
     0
176
     1
290
     0
176
     1
290
     0
176
     1
290
     0
176
     1
290
     0
176
     1
 90
       50
176
     1
 40
0.0
176
     1
 40
1.0
176
     1
 90
        0
176
     1
 62
    18
420
        0
176
     1
 90
       50
176
     1
 90
        3
176
     1
 62
     5
420
      255
176
     1
290
     0
176
     1
 90
       50
176
     1
 90
       50
176
     1
 90
       50
176
     1
290
     0
176
     1
 90
       50
176
     1
 62
   256
176
     0
 40
1.0
176
     0
 90
        2
176
     1
  1
strokes_ogs.tif
176
     1
290
     0
176
     1
 40
1.0
176
     1
 40
1.0
176
     1
  0
VISUALSTYLE
  5
3F
102
{ACAD_REACTORS
330
29
102
}
330
29
100
AcDbVisualStyle
  2
JitterOff
 70
    20
177
     3
291
     1
 70
    58
 90
        2
176
     0
 90
        2
176
     0
 90
        0
176
     0
 90
        0
176
     0
 40
0.6
176
     0
 40
30.0
176
     0
 62
     7
420
 16777215
176
     0
 90
        1
176
     0
 90
        4
176
     0
 62
     7
176
     0
 62
   257
176
     0
 90
        1
176
     0
 90
        1
176
     0
 40
1.0
176
     0
 90
       10
176
     2
 62
     7
176
     0
 40
1.0
176
     0
 90
        1
176
     0
 90
        6
176
     0
 90
        2
176
     0
 62
     7
176
     0
 90
        5
176
     0
 90
        0
176
     0
 90
        0
176
     0
290
     0
176
     0
 90
        1
176
     0
 40
0.0
176
     0
 90
        0
176
     0
290
     0
176
     0
290
     1
176
     0
290
     1
176
     0
290
     0
176
     0
290
     0
176
     0
290
     0
176
     0
290
     0
176
     0
290
     0
176
     0
290
     0
176
     0
 90
       50
176
     0
 40
0.0
176
     0
 40
1.0
176
     0
 90
        0
176
     0
 62
    18
420
        0
176
     0
 90
       50
176
     0
 90
        3
176
     0
 62
     5
420
      255
176
     0
290
     0
176
     0
 90
       50
176
     0
 90
       50
176
     0
 90
       50
176
     0
290
     0
176
     0
 90
       50
176
     0
 62
   256
176
     0
 40
1.0
176
     0
 90
        2
176
     0
  1
strokes_ogs.tif
176
     0
290
     0
176
     0
 40
1.0
176
     0
 40
1.0
176
     0
  0
VISUALSTYLE
  5
37
102
{ACAD_REACTORS
330
29
102
}
330
29
100
AcDbVisualStyle
  2
Linepattern
 70
    14
177
     3
291
     1
 70
    58
 90
        2
176
     1
 90
        2
176
     1
 90
        0
176
     1
 90
        0
176
     1
 40
0.6
176
     1
 40
30.0
176
     1
 62
     7
420
 16777215
176
     1
 90
        1
176
     1
 90
        4
176
     1
 62
     7
176
     1
 62
   257
176
     1
 90
        7
176
     1
 90
        7
176
     1
 40
1.0
176
     1
 90
        8
176
     1
 62
     7
176
     1
 40
1.0
176
     1
 90
        1
176
     1
 90
        6
176
     1
 90
        2
176
     1
 62
     7
176
     1
 90
        5
176
     1
 90
        0
176
     1
 90
        0
176
     1
290
     0
176
     1
 90
        1
176
     1
 40
0.0
176
     1
 90
        0
176
     1
290
     0
176
     1
290
     1
176
     1
290
     1
176
     1
290
     0
176
     1
290
     0
176
     1
290
     0
176
     1
290
     0
176
     1
290
     0
176
     1
290
     0
176
     1
 90
       50
176
     1
 40
0.0
176
     1
 40
1.0
176
     1
 90
        0
176
     1
 62
    18
420
        0
176
     1
 90
       50
176
     1
 90
        3
176
     1
 62
     5
420
      255
176
     1
290
     0
176
     1
 90
       50
176
     1
 90
       50
176
     1
 90
       50
176
     1
290
     0
176
     1
 90
       50
176
     1
 62
   256
176
     0
 40
1.0
176
     0
 90
        2
176
     1
  1
strokes_ogs.tif
176
     1
290
     0
176
     1
 40
1.0
176
     1
 40
1.0
176
     1
  0
VISUALSTYLE
  5
40
102
{ACAD_REACTORS
330
29
102
}
330
29
100
AcDbVisualStyle
  2
OverhangOff
 70
    21
177
     3
291
     1
 70
    58
 90
        2
176
     0
 90
        2
176
     0
 90
        0
176
     0
 90
        0
176
     0
 40
0.6
176
     0
 40
30.0
176
     0
 62
     7
420
 16777215
176
     0
 90
        1
176
     0
 90
        4
176
     0
 62
     7
176
     0
 62
   257
176
     0
 90
        1
176
     0
 90
        1
176
     0
 40
1.0
176
     0
 90
        9
176
     2
 62
     7
176
     0
 40
1.0
176
     0
 90
        1
176
     0
 90
        6
176
     0
 90
        2
176
     0
 62
     7
176
     0
 90
        5
176
     0
 90
        0
176
     0
 90
        0
176
     0
290
     0
176
     0
 90
        1
176
     0
 40
0.0
176
     0
 90
        0
176
     0
290
     0
176
     0
290
     1
176
     0
290
     1
176
     0
290
     0
176
     0
290
     0
176
     0
290
     0
176
     0
290
     0
176
     0
290
     0
176
     0
290
     0
176
     0
 90
       50
176
     0
 40
0.0
176
     0
 40
1.0
176
     0
 90
        0
176
     0
 62
    18
420
        0
176
     0
 90
       50
176
     0
 90
        3
176
     0
 62
     5
420
      255
176
     0
290
     0
176
     0
 90
       50
176
     0
 90
       50
176
     0
 90
       50
176
     0
290
     0
176
     0
 90
       50
176
     0
 62
   256
176
     0
 40
1.0
176
     0
 90
        2
176
     0
  1
strokes_ogs.tif
176
     0
290
     0
176
     0
 40
1.0
176
     0
 40
1.0
176
     0
  0
VISUALSTYLE
  5
33
102
{ACAD_REACTORS
330
29
102
}
330
29
100
AcDbVisualStyle
  2
Realistic
 70
     8
177
     3
291
     0
 70
    58
 90
        2
176
     1
 90
        3
176
     1
 90
        0
176
     1
 90
        2
176
     1
 40
0.6
176
     1
 40
30.0
176
     1
 62
     7
420
 16777215
176
     1
 90
        0
176
     1
 90
        0
176
     1
 62
     7
176
     1
 62
   257
176
     1
 90
        1
176
     1
 90
        1
176
     1
 40
1.0
176
     1
 90
        8
176
     1
 62
   257
176
     1
 40
1.0
176
     1
 90
        1
176
     1
 90
        6
176
     1
 90
        2
176
     1
 62
     7
176
     1
 90
        3
176
     1
 90
        0
176
     1
 90
        0
176
     1
290
     0
176
     1
 90
       13
176
     1
 40
0.0
176
     1
 90
        0
176
     1
290
     0
176
     1
290
     1
176
     1
290
     1
176
     1
290
     0
176
     1
290
     0
176
     1
290
     0
176
     1
290
     0
176
     1
290
     0
176
     1
290
     0
176
     1
 90
       50
176
     1
 40
0.0
176
     1
 40
1.0
176
     1
 90
        0
176
     1
 62
    18
420
        0
176
     1
 90
       50
176
     1
 90
        3
176
     1
 62
     5
420
      255
176
     1
290
     0
176
     1
 90
       50
176
     1
 90
       50
176
     1
 90
       50
176
     1
290
     0
176
     1
 90
       50
176
     1
 62
   256
176
     0
 40
1.0
176
     0
 90
        2
176
     1
  1
strokes_ogs.tif
176
     1
290
     0
176
     1
 40
1.0
176
     1
 40
1.0
176
     1
  0
VISUALSTYLE
  5
3E
102
{ACAD_REACTORS
330
29
102
}
330
29
100
AcDbVisualStyle
  2
Shaded
 70
    27
177
     3
291
     0
 70
    58
 90
        2
176
     1
 90
        2
176
     1
 90
        1
176
     1
 90
        2
176
     1
 40
0.6
176
     1
 40
30.0
176
     1
 62
     7
420
 16777215
176
     1
 90
        0
176
     1
 90
        4
176
     1
 62
     7
176
     1
 62
   257
176
     1
 90
        1
176
     1
 90
        1
176
     1
 40
1.0
176
     1
 90
        8
176
     1
 62
   257
176
     1
 40
1.0
176
     1
 90
        1
176
     1
 90
        6
176
     1
 90
        2
176
     1
 62
     8
420
  7895160
176
     1
 90
        3
176
     1
 90
        0
176
     1
 90
        0
176
     1
290
     0
176
     1
 90
        5
176
     1
 40
0.0
176
     1
 90
        0
176
     1
290
     0
176
     1
290
     1
176
     1
290
     1
176
     1
290
     0
176
     1
290
     0
176
     1
290
     0
176
     1
290
     0
176
     1
290
     0
176
     1
290
     0
176
     1
 90
       50
176
     1
 40
0.0
176
     1
 40
1.0
176
     1
 90
        0
176
     1
 62
    18
420
        0
176
     1
 90
       50
176
     1
 90
        3
176
     1
 62
     5
420
      255
176
     1
290
     0
176
     1
 90
       50
176
     1
 90
       50
176
     1
 90
       50
176
     1
290
     0
176
     1
 90
       50
176
     1
 62
   256
176
     0
 40
1.0
176
     0
 90
        2
176
     1
  1
strokes_ogs.tif
176
     1
290
     0
176
     1
 40
1.0
176
     1
 40
1.0
176
     1
  0
VISUALSTYLE
  5
3D
102
{ACAD_REACTORS
330
29
102
}
330
29
100
AcDbVisualStyle
  2
Shaded with edges
 70
    26
177
     3
291
     0
 70
    58
 90
        2
176
     1
 90
        2
176
     1
 90
        1
176
     1
 90
        2
176
     1
 40
0.6
176
     1
 40
30.0
176
     1
 62
     7
420
 16777215
176
     1
 90
        1
176
     1
 90
        2
176
     1
 62
     7
176
     1
 62
   257
176
     1
 90
        2
176
     1
 90
        1
176
     1
 40
1.0
176
     1
 90
        8
176
     1
 62
   257
176
     1
 40
1.0
176
     1
 90
        1
176
     1
 90
        6
176
     1
 90
        2
176
     1
 62
     7
176
     1
 90
        3
176
     1
 90
        0
176
     1
 90
        0
176
     1
290
     0
176
     1
 90
        5
176
     1
 40
0.0
176
     1
 90
        0
176
     1
290
     0
176
     1
290
     1
176
     1
290
     1
176
     1
290
     0
176
     1
290
     0
176
     1
290
     0
176
     1
290
     0
176
     1
290
     0
176
     1
290
     0
176
     1
 90
       50
176
     1
 40
0.0
176
     1
 40
1.0
176
     1
 90
        0
176
     1
 62
    18
420
        0
176
     1
 90
       50
176
     1
 90
        3
176
     1
 62
     5
420
      255
176
     1
290
     0
176
     1
 90
       50
176
     1
 90
       50
176
     1
 90
       50
176
     1
290
     0
176
     1
 90
       50
176
     1
 62
   256
176
     0
 40
1.0
176
     0
 90
        2
176
     1
  1
strokes_ogs.tif
176
     1
290
     0
176
     1
 40
1.0
176
     1
 40
1.0
176
     1
  0
VISUALSTYLE
  5
3A
102
{ACAD_REACTORS
330
29
102
}
330
29
100
AcDbVisualStyle
  2
Shades of Gray
 70
    23
177
     3
291
     0
 70
    58
 90
        2
176
     1
 90
        2
176
     1
 90
        3
176
     1
 90
        0
176
     1
 40
0.6
176
     1
 40
30.0
176
     1
 62
     7
420
 16777215
176
     1
 90
        2
176
     1
 90
        2
176
     1
 62
     7
176
     1
 62
     7
176
     1
 90
        1
176
     1
 90
        1
176
     1
 40
40.0
176
     1
 90
        8
176
     1
 62
     7
176
     1
 40
1.0
176
     1
 90
        1
176
     1
 90
        6
176
     1
 90
        2
176
     1
 62
     7
176
     1
 90
        3
176
     1
 90
        0
176
     1
 90
        0
176
     1
290
     0
176
     1
 90
        1
176
     1
 40
0.0
176
     1
 90
        0
176
     1
290
     0
176
     1
290
     1
176
     1
290
     1
176
     1
290
     0
176
     1
290
     0
176
     1
290
     0
176
     1
290
     0
176
     1
290
     0
176
     1
290
     0
176
     1
 90
       50
176
     1
 40
0.0
176
     1
 40
1.0
176
     1
 90
        0
176
     1
 62
    18
420
        0
176
     1
 90
       50
176
     1
 90
        3
176
     1
 62
     5
420
      255
176
     1
290
     0
176
     1
 90
       50
176
     1
 90
       50
176
     1
 90
       50
176
     1
290
     0
176
     1
 90
       50
176
     1
 62
   256
176
     0
 40
1.0
176
     0
 90
        2
176
     1
  1
strokes_ogs.tif
176
     1
290
     0
176
     1
 40
1.0
176
     1
 40
1.0
176
     1
  0
VISUALSTYLE
  5
3B
102
{ACAD_REACTORS
330
29
102
}
330
29
100
AcDbVisualStyle
  2
Sketchy
 70
    24
177
     3
291
     0
 70
    58
 90
        1
176
     1
 90
        2
176
     1
 90
        2
176
     1
 90
        0
176
     1
 40
0.6
176
     1
 40
30.0
176
     1
 62
     7
420
 16777215
176
     1
 90
        2
176
     1
 90
        2
176
     1
 62
     7
176
     1
 62
     7
176
     1
 90
        1
176
     1
 90
        1
176
     1
 40
40.0
176
     1
 90
       11
176
     1
 62
     7
176
     1
 40
1.0
176
     1
 90
        1
176
     1
 90
        6
176
     1
 90
        2
176
     1
 62
     7
176
     1
 90
        6
176
     1
 90
        0
176
     1
 90
        0
176
     1
290
     0
176
     1
 90
        1
176
     1
 40
0.0
176
     1
 90
        0
176
     1
290
     0
176
     1
290
     1
176
     1
290
     1
176
     1
290
     0
176
     1
290
     0
176
     1
290
     0
176
     1
290
     0
176
     1
290
     0
176
     1
290
     0
176
     1
 90
       50
176
     1
 40
0.0
176
     1
 40
1.0
176
     1
 90
        0
176
     1
 62
    18
420
        0
176
     1
 90
       50
176
     1
 90
        3
176
     1
 62
     5
420
      255
176
     1
290
     0
176
     1
 90
       50
176
     1
 90
       50
176
     1
 90
       50
176
     1
290
     0
176
     1
 90
       50
176
     1
 62
   256
176
     0
 40
1.0
176
     0
 90
        2
176
     1
  1
strokes_ogs.tif
176
     1
290
     0
176
     1
 40
1.0
176
     1
 40
1.0
176
     1
  0
VISUALSTYLE
  5
36
102
{ACAD_REACTORS
330
29
102
}
330
29
100
AcDbVisualStyle
  2
Thicken
 70
    13
177
     3
291
     1
 70
    58
 90
        2
176
     1
 90
        2
176
     1
 90
        0
176
     1
 90
        0
176
     1
 40
0.6
176
     1
 40
30.0
176
     1
 62
     7
420
 16777215
176
     1
 90
        1
176
     1
 90
        4
176
     1
 62
     7
176
     1
 62
   257
176
     1
 90
        1
176
     1
 90
        1
176
     1
 40
1.0
176
     1
 90
       12
176
     1
 62
     7
176
     1
 40
1.0
176
     1
 90
        1
176
     1
 90
        6
176
     1
 90
        2
176
     1
 62
     7
176
     1
 90
        5
176
     1
 90
        0
176
     1
 90
        0
176
     1
290
     0
176
     1
 90
        1
176
     1
 40
0.0
176
     1
 90
        0
176
     1
290
     0
176
     1
290
     1
176
     1
290
     1
176
     1
290
     0
176
     1
290
     0
176
     1
290
     0
176
     1
290
     0
176
     1
290
     0
176
     1
290
     0
176
     1
 90
       50
176
     1
 40
0.0
176
     1
 40
1.0
176
     1
 90
        0
176
     1
 62
    18
420
        0
176
     1
 90
       50
176
     1
 90
        3
176
     1
 62
     5
420
      255
176
     1
290
     0
176
     1
 90
       50
176
     1
 90
       50
176
     1
 90
       50
176
     1
290
     0
176
     1
 90
       50
176
     1
 62
   256
176
     0
 40
1.0
176
     0
 90
        2
176
     1
  1
strokes_ogs.tif
176
     1
290
     0
176
     1
 40
1.0
176
     1
 40
1.0
176
     1
  0
VISUALSTYLE
  5
30
102
{ACAD_REACTORS
330
29
102
}
330
29
100
AcDbVisualStyle
  2
Wireframe
 70
     5
177
     3
291
     0
 70
    58
 90
        0
176
     1
 90
        2
176
     1
 90
        0
176
     1
 90
        0
176
     1
 40
0.6
176
     1
 40
30.0
176
     1
 62
     7
420
 16777215
176
     1
 90
        1
176
     1
 90
        4
176
     1
 62
     7
176
     1
 62
   257
176
     1
 90
        1
176
     1
 90
        1
176
     1
 40
1.0
176
     1
 90
        0
176
     1
 62
   257
176
     1
 40
1.0
176
     1
 90
        1
176
     1
 90
        6
176
     1
 90
        2
176
     1
 62
     7
176
     1
 90
        3
176
     1
 90
        0
176
     1
 90
        0
176
     1
290
     0
176
     1
 90
        1
176
     1
 40
0.0
176
     1
 90
        0
176
     1
290
     0
176
     1
290
     1
176
     1
290
     1
176
     1
290
     0
176
     1
290
     0
176
     1
290
     0
176
     1
290
     0
176
     1
290
     0
176
     1
290
     0
176
     1
 90
       50
176
     1
 40
0.0
176
     1
 40
1.0
176
     1
 90
        0
176
     1
 62
    18
420
        0
176
     1
 90
       50
176
     1
 90
        3
176
     1
 62
     5
420
      255
176
     1
290
     0
176
     1
 90
       50
176
     1
 90
       50
176
     1
 90
       50
176
     1
290
     0
176
     1
 90
       50
176
     1
 62
   256
176
     0
 40
1.0
176
     0
 90
        2
176
     1
  1
strokes_ogs.tif
176
     1
290
     0
176
     1
 40
1.0
176
     1
 40
1.0
176
     1
  0
VISUALSTYLE
  5
3C
102
{ACAD_REACTORS
330
29
102
}
330
29
100
AcDbVisualStyle
  2
X-Ray
 70
    25
177
     3
291
     0
 70
    58
 90
        2
176
     1
 90
        2
176
     1
 90
        1
176
     1
 90
        1
176
     1
 40
0.5
176
     1
 40
30.0
176
     1
 62
     7
420
 16777215
176
     1
 90
        1
176
     1
 90
        0
176
     1
 62
     7
176
     1
 62
   257
176
     1
 90
        1
176
     1
 90
        1
176
     1
 40
1.0
176
     1
 90
        8
176
     1
 62
     7
176
     1
 40
1.0
176
     1
 90
        1
176
     1
 90
        6
176
     1
 90
        2
176
     1
 62
     7
176
     1
 90
        3
176
     1
 90
        0
176
     1
 90
        0
176
     1
290
     0
176
     1
 90
       13
176
     1
 40
0.0
176
     1
 90
        0
176
     1
290
     0
176
     1
290
     1
176
     1
290
     1
176
     1
290
     0
176
     1
290
     0
176
     1
290
     0
176
     1
290
     0
176
     1
290
     0
176
     1
290
     0
176
     1
 90
       50
176
     1
 40
0.0
176
     1
 40
1.0
176
     1
 90
        0
176
     1
 62
    18
420
        0
176
     1
 90
       50
176
     1
 90
        3
176
     1
 62
     5
420
      255
176
     1
290
     0
176
     1
 90
       50
176
     1
 90
       50
176
     1
 90
       50
176
     1
290
     0
176
     1
 90
       50
176
     1
 62
   256
176
     0
 40
1.0
176
     0
 90
        2
176
     1
  1
strokes_ogs.tif
176
     1
290
     0
176
     1
 40
1.0
176
     1
 40
1.0
176
     1
  0
DICTIONARYVAR
  5
B4
102
{ACAD_REACTORS
330
AF
102
}
330
AF
100
DictionaryVariables
280
     0
  1
1:1
  0
DICTIONARYVAR
  5
B1
102
{ACAD_REACTORS
330
AF
102
}
330
AF
100
DictionaryVariables
280
     0
  1
STANDARD
  0
DICTIONARYVAR
  5
B0
102
{ACAD_REACTORS
330
AF
102
}
330
AF
100
DictionaryVariables
280
     0
  1
STANDARD
  0
DICTIONARYVAR
  5
B2
102
{ACAD_REACTORS
330
AF
102
}
330
AF
100
DictionaryVariables
280
     0
  1
Imperial24
  0
DICTIONARYVAR
  5
B3
102
{ACAD_REACTORS
330
AF
102
}
330
AF
100
DictionaryVariables
280
     0
  1
Imperial24
  0
DICTIONARY
  5
1A
330
19
100
AcDbDictionary
280
     1
281
     1
  3
BUMPTILE
360
1C
  3
DIFFUSETILE
360
1B
  3
OPACITYTILE
360
1F
  3
REFLECTIONTILE
360
1E
  3
REFRACTIONTILE
360
20
  3
SPECULARTILE
360
1D
  0
DICTIONARY
  5
12
330
11
100
AcDbDictionary
280
     1
281
     1
  3
BUMPTILE
360
14
  3
DIFFUSETILE
360
13
  3
OPACITYTILE
360
17
  3
REFLECTIONTILE
360
16
  3
REFRACTIONTILE
360
18
  3
SPECULARTILE
360
15
  0
DICTIONARY
  5
22
330
21
100
AcDbDictionary
280
     1
281
     1
  3
BUMPTILE
360
24
  3
DIFFUSETILE
360
23
  3
OPACITYTILE
360
27
  3
REFLECTIONTILE
360
26
  3
REFRACTIONTILE
360
28
  3
SPECULARTILE
360
25
  0
DICTIONARY
  5
B5
330
65
100
AcDbDictionary
280
     1
281
     1
  3
ACAD_ROUNDTRIP_2008_TABLESTYLE_CELLSTYLEMAP
360
B6
  0
XRECORD
  5
1C
102
{ACAD_REACTORS
330
1A
102
}
330
1A
100
AcDbXrecord
280
     1
270
     1
271
     1
  0
XRECORD
  5
1B
102
{ACAD_REACTORS
330
1A
102
}
330
1A
100
AcDbXrecord
280
     1
270
     1
271
     1
  0
XRECORD
  5
1F
102
{ACAD_REACTORS
330
1A
102
}
330
1A
100
AcDbXrecord
280
     1
270
     1
271
     1
  0
XRECORD
  5
1E
102
{ACAD_REACTORS
330
1A
102
}
330
1A
100
AcDbXrecord
280
     1
270
     1
271
     1
  0
XRECORD
  5
20
102
{ACAD_REACTORS
330
1A
102
}
330
1A
100
AcDbXrecord
280
     1
270
     1
271
     1
  0
XRECORD
  5
1D
102
{ACAD_REACTORS
330
1A
102
}
330
1A
100
AcDbXrecord
280
     1
270
     1
271
     1
  0
XRECORD
  5
14
102
{ACAD_REACTORS
330
12
102
}
330
12
100
AcDbXrecord
280
     1
270
     1
271
     1
  0
XRECORD
  5
13
102
{ACAD_REACTORS
330
12
102
}
330
12
100
AcDbXrecord
280
     1
270
     1
271
     1
  0
XRECORD
  5
17
102
{ACAD_REACTORS
330
12
102
}
330
12
100
AcDbXrecord
280
     1
270
     1
271
     1
  0
XRECORD
  5
16
102
{ACAD_REACTORS
330
12
102
}
330
12
100
AcDbXrecord
280
     1
270
     1
271
     1
  0
XRECORD
  5
18
102
{ACAD_REACTORS
330
12
102
}
330
12
100
AcDbXrecord
280
     1
270
     1
271
     1
  0
XRECORD
  5
15
102
{ACAD_REACTORS
330
12
102
}
330
12
100
AcDbXrecord
280
     1
270
     1
271
     1
  0
XRECORD
  5
24
102
{ACAD_REACTORS
330
22
102
}
330
22
100
AcDbXrecord
280
     1
270
     1
271
     1
  0
XRECORD
  5
23
102
{ACAD_REACTORS
330
22
102
}
330
22
100
AcDbXrecord
280
     1
270
     1
271
     1
  0
XRECORD
  5
27
102
{ACAD_REACTORS
330
22
102
}
330
22
100
AcDbXrecord
280
     1
270
     1
271
     1
  0
XRECORD
  5
26
102
{ACAD_REACTORS
330
22
102
}
330
22
100
AcDbXrecord
280
     1
270
     1
271
     1
  0
XRECORD
  5
28
102
{ACAD_REACTORS
330
22
102
}
330
22
100
AcDbXrecord
280
     1
270
     1
271
     1
  0
XRECORD
  5
25
102
{ACAD_REACTORS
330
22
102
}
330
22
100
AcDbXrecord
280
     1
270
     1
271
     1
  0
CELLSTYLEMAP
  5
B6
102
{ACAD_REACTORS
330
B5
102
}
330
B5
100
AcDbCellStyleMap
 90
        3
300
CELLSTYLE
  1
TABLEFORMAT_BEGIN
 90
        5
170
     1
 91
        0
 92
    32768
 62
   257
 93
        1
300
CONTENTFORMAT
  1
CONTENTFORMAT_BEGIN
 90
        0
 91
        0
 92
      512
 93
        0
300

 40
0.0
140
1.0
 94
        5
 62
     0
340
55
144
0.25
309
CONTENTFORMAT_END
171
     0
 94
        0
309
TABLEFORMAT_END
  1
CELLSTYLE_BEGIN
 90
        1
 91
        1
300
_TITLE
309
CELLSTYLE_END
300
CELLSTYLE
  1
TABLEFORMAT_BEGIN
 90
        5
170
     1
 91
        0
 92
        0
 62
   257
 93
        1
300
CONTENTFORMAT
  1
CONTENTFORMAT_BEGIN
 90
        0
 91
        0
 92
      512
 93
        0
300

 40
0.0
140
1.0
 94
        5
 62
     0
340
55
144
0.18
309
CONTENTFORMAT_END
171
     0
 94
        0
309
TABLEFORMAT_END
  1
CELLSTYLE_BEGIN
 90
        2
 91
        1
300
_HEADER
309
CELLSTYLE_END
300
CELLSTYLE
  1
TABLEFORMAT_BEGIN
 90
        5
170
     1
 91
        0
 92
        0
 62
   257
 93
        1
300
CONTENTFORMAT
  1
CONTENTFORMAT_BEGIN
 90
        0
 91
        0
 92
      512
 93
        0
300

 40
0.0
140
1.0
 94
        2
 62
     0
340
55
144
0.18
309
CONTENTFORMAT_END
171
     0
 94
        0
309
TABLEFORMAT_END
  1
CELLSTYLE_BEGIN
 90
        3
 91
        2
300
_DATA
309
CELLSTYLE_END
  0
ENDSEC
  0
EOF
